<svg xmlns="http://www.w3.org/2000/svg" width="256" height="256" preserveAspectRatio="none" style="display:block" viewBox="0 0 1024 1024"><defs><linearGradient id="l" x1="309.57" x2="309.416" y1="420.922" y2="654.062" gradientUnits="userSpaceOnUse"><stop class="stop0" offset="0" stop-color="#777"/><stop class="stop1" offset="1" stop-color="#b9b9b8"/></linearGradient><linearGradient id="k" x1="101.181" x2="103.798" y1="495.037" y2="658.627" gradientUnits="userSpaceOnUse"><stop class="stop0" offset="0" stop-color="#8d8c8c"/><stop class="stop1" offset="1" stop-color="#babab9"/></linearGradient><linearGradient id="j" x1="106.64" x2="108.255" y1="311.667" y2="474.641" gradientUnits="userSpaceOnUse"><stop class="stop0" offset="0" stop-color="#575757"/><stop class="stop1" offset="1" stop-color="#878686"/></linearGradient><linearGradient id="i" x1="559.951" x2="559.061" y1="553.38" y2="715.461" gradientUnits="userSpaceOnUse"><stop class="stop0" offset="0" stop-color="#9d9c9c"/><stop class="stop1" offset="1" stop-color="#cbcaca"/></linearGradient><linearGradient id="h" x1="880.076" x2="879.676" y1="452.824" y2="691.167" gradientUnits="userSpaceOnUse"><stop class="stop0" offset="0" stop-color="#818080"/><stop class="stop1" offset="1" stop-color="#c4c3c3"/></linearGradient><linearGradient id="g" x1="600.747" x2="599.231" y1="362.702" y2="539.315" gradientUnits="userSpaceOnUse"><stop class="stop0" offset="0" stop-color="#676766"/><stop class="stop1" offset="1" stop-color="#989897"/></linearGradient><linearGradient id="f" x1="849.101" x2="848.08" y1="293.613" y2="438.501" gradientUnits="userSpaceOnUse"><stop class="stop0" offset="0" stop-color="#535353"/><stop class="stop1" offset="1" stop-color="#7b7b7b"/></linearGradient><linearGradient id="e" x1="600.024" x2="599.517" y1="231.426" y2="367.475" gradientUnits="userSpaceOnUse"><stop class="stop0" offset="0" stop-color="#404040"/><stop class="stop1" offset="1" stop-color="#676767"/></linearGradient><linearGradient id="d" x1="312.757" x2="311.245" y1="182.899" y2="396.794" gradientUnits="userSpaceOnUse"><stop class="stop0" offset="0" stop-color="#323232"/><stop class="stop1" offset="1" stop-color="#706f6f"/></linearGradient><linearGradient id="c" x1="515.536" x2="515.236" y1="39.346" y2="256.574" gradientUnits="userSpaceOnUse"><stop class="stop0" offset="0" stop-color="#090909"/><stop class="stop1" offset="1" stop-color="#484848"/></linearGradient><linearGradient id="b" x1="516.702" x2="512.251" y1="147.835" y2="408.946" gradientUnits="userSpaceOnUse"><stop class="stop0" offset="0" stop-color="#302f30"/><stop class="stop1" offset="1" stop-color="#868585"/></linearGradient><linearGradient id="a" x1="515.158" x2="514.51" y1="398.183" y2="663.809" gradientUnits="userSpaceOnUse"><stop class="stop0" offset="0" stop-color="#858484"/><stop class="stop1" offset="1" stop-color="#dfdfdf"/></linearGradient></defs><path d="M23.445 0h979.945c7.68 9.73 12.07 9.697 20.61 23.043v982.117c-5.64 6.55-11.75 14.44-19.05 18.84H23.93A474 474 0 0 0 0 1004.16V22.974C5.319 21.337 20.459 5.291 23.445 0"/><path fill="url(#a)" d="M40.857 40.352c80.819 1.258 166.045-.227 247.193-.25l438.188.173 171.434-.843 59.033-.506c9.469-.008 27.241-.138 36.261 1.237-4.345 71.486 1.783 153.933-1.16 226.225 1.2 60.597.221 124.556.24 185.417l.128 66.762c.017 9.898.504 26.356-.333 35.666l-.327 135.356-.092 4.78-.023 11.848c.906 9.482.405 24.436.37 34.303l-.103 58.51-.03 190.738-642.647.079-211.491-.062-67.945-.023c-9.03-.007-22.153-.546-30.771-.163-2.542-10.099-.694-71.686-.677-86.137l.207-225.757c-.328-7.863-.286-16.611-.162-24.529.83-53.022-1.335-106.912.303-159.847-1.687-54.653-.3-116.025-.203-171.059-.047-5.412.244-11.071.435-16.498l.226-2.473c-1.19-9.685-.7-24.775-.69-34.843q-.053-28.754.199-57.508c.403-8.489.228-18.115.262-26.695.025-49.252.321-94.856 2.175-143.901"/><path fill="url(#b)" d="M40.857 40.352c80.819 1.258 166.045-.227 247.193-.25l438.188.173 171.434-.843 59.033-.506c9.469-.008 27.241-.138 36.261 1.237-4.345 71.486 1.783 153.933-1.16 226.225 1.2 60.597.221 124.556.24 185.417l.128 66.762c.017 9.898.504 26.356-.333 35.666-.945-8.018-.477-25.143-.472-33.949a3472 3472 0 0 0-.224-67.929c-.287-3.638-.101-8.358-.055-12.092 1.097-18.061.13-47.892-.049-66.668-7.396-1.152-41.087-1.339-47.731.774l-.931 2.383-.783-2.08c-1.534 6.967.748 25.462-1.643 28.692-5.311 2.198-7.888.697-11.04 3.124-.765 3.802-1.194 6.241-1.525 10.094-1.262.009-2.05-.649-3.162-1.309-5.538 5.054 3.076 18.03-1.879 24.76-46.85.648-100.72 1.662-147.154.043-2.907-9.338 3.204-24.246-1.831-33.127-.965-1.703-13.521-5.79-15.396-5.495-2.316 2.436-1.981 3.59-2.957 7.313.055-15.665.444-32.922-.174-48.449-1.264 1.702-1.215 2.513-1.336 4.604l-.567-.033c-45.643-2.329-91.957 3.984-137.932 2.95-47.834-1.077-96.204 2.193-144.109-.005-8.232-.272-16.853-6.112-25.632-5.299.219 6.154 1.88 42.86-.03 47.262-4.08-17.781 3.394-9.491-16.193-11.493l-.965-.103c-14.7-1.18-43.296-.157-59.314-.161l-121.674.046c-7.216.015-44.44.657-49.286-.923l-1.303-1.485-.685 1.439c-4.099.564-17.099 2.699-20.126.386-.75-3.875-.452-23.023-.41-27.545l.677-58.135-.182-3.307c-7.145-4.314-118.581 4.104-137.083-2.744l.226-2.473c-1.19-9.685-.7-24.775-.69-34.843q-.053-28.754.199-57.508c.403-8.489.228-18.115.262-26.695.025-49.252.321-94.856 2.175-143.901"/><path fill="url(#c)" d="M40.857 40.352c80.819 1.258 166.045-.227 247.193-.25l438.188.173 171.434-.843 59.033-.506c9.469-.008 27.241-.138 36.261 1.237-4.345 71.486 1.783 153.933-1.16 226.225-1.453-4.632-1.856-10.082-2.409-14.955l-1.367.849-.728.408c-14.865 8.459-58.984 2.578-76.705 3.05-26.537.707-53.068 2.643-79.64 1.918-15.031-.409-28.894-2.295-44.011-.926-2.399 1.818-1.978 3.039-2.863 6.626-1.767-13.33.317-113.433-.715-115.231-.913 1.406-.801 3.504-.892 5.267-7.985 2.919-12.882.593-21.448-1.355-2.055.984-2.494 1.377-4.702 1.372-.622-1.525-.508-7.298-.543-9.333-2.161 8.252-.812 63.408.111 72.405-46.298 1.179-92.556-.526-138.664-.255-57.955.341-114.554.731-172.529-.129-.007-18.37-1.092-37.835.392-56.306.169-2.094-1.245-10.859-1.353-14.401-2.432 14.328-8.411 4.866-14.932 7.554-.376.746-2.063 4.147-2.657 4.258-10.279 1.928-31.039 3.073-40.98-.318-6.739-2.014-27.202-1.058-34.996-1.116-42.068-.27-84.022 1.649-125.996-2.08-7.888-.701-19.818.384-27.043-1.522-1.672-.775-17.74-2.924-20.135-2.925-.026-10.907.238-23.438-.123-34.213-.054.074-1.732 61.751-2.125 69.065-44.023 3.117-93.92-2.527-136.071.158.025-49.252.321-94.856 2.175-143.901"/><path fill="url(#d)" d="M198.33 177.602c.587 2.384.88 3.488 1.025 5.932 5.269.405 11.787-.447 17.383-.307 39.239.982 78.252-1.145 117.5.982 21.608 1.172 43.809-.642 65.477.361 8.91.246 17.231 2.122 25.852 2.836l1.075 2.196 1.604-1.379-.175 209.978c-14.7-1.18-43.296-.157-59.314-.161l-121.674.046c-7.216.015-44.44.657-49.286-.923.314-6.248.023-12.839-.118-19.109-.981-43.612-.087-87.145-.607-130.765-.262-21.971-1.8-48.153 1.258-69.687"/><path fill="url(#e)" d="M444.96 231.98c72.767-.518 145.538-.505 218.305.04q26.282.15 52.562-.178c11.989-.228 28.667-1.193 40.035-.224-1.244 43.262-.741 85.466-1.027 128.7-1.264 1.702-1.215 2.513-1.336 4.604l-.567-.033c-45.643-2.329-91.957 3.984-137.932 2.95-47.834-1.077-96.204 2.193-144.109-.005-8.232-.272-16.853-6.112-25.632-5.299-.567-43.181-.091-87.27-.299-130.555"/><path fill="url(#f)" d="m776.431 294.087 79.61-.908c17.251-.187 49.92-.936 66.328 2.274l-.91 80.186c-.175 9.858-1.315 56.439.888 64.394-46.85.648-100.72 1.662-147.154.043 1.79-10.237.754-32.628.915-43.809.48-33.136-1.854-69.26.323-102.18"/><path fill="#464646" d="M989.397 251.433c.553 4.873.956 10.323 2.409 14.955 1.2 60.597.221 124.556.24 185.417l.128 66.762c.017 9.898.504 26.356-.333 35.666-.945-8.018-.477-25.143-.472-33.949a3472 3472 0 0 0-.224-67.929c-.287-3.638-.101-8.358-.055-12.092 1.097-18.061.13-47.892-.049-66.668l-.51-63.595c.012-10.813.871-25.266.07-35.522-21.15 1.247-50.271.404-71.876.419l-134.558-.014-.084-11.525c.885-3.587.464-4.808 2.863-6.626 15.117-1.369 28.98.517 44.011.926 26.572.725 53.103-1.211 79.64-1.918 17.721-.472 61.84 5.409 76.705-3.05l.728-.408z"/><path fill="#313131" d="M198.33 177.602c.27-3.416-.307-3.413 1.665-5.649 13.405-1.163 40.144-.345 54.978-.375l116.958.124c13.74.025 43.954.813 56.661-.859-.175 5.268-.612 12.244-.346 17.38l-1.604 1.379-1.075-2.196c-8.621-.714-16.942-2.59-25.852-2.836-21.668-1.003-43.869.811-65.477-.361-39.248-2.127-78.261 0-117.5-.982-5.596-.14-12.114.712-17.383.307-.145-2.444-.438-3.548-1.025-5.932"/><path fill="#464646" d="M38.42 210.948c3.162 3.364 2.238 11.07 2.09 15.918l-.02.644c3.871-.043 20.827-.892 23.262-.013 2.8 6.853 1.386 51.645.145 60.31l-24.612.092c-.036 4.305.108 11.335-.374 15.4-1.19-9.685-.7-24.775-.69-34.843q-.053-28.754.199-57.508"/><path fill="#313131" d="M197.136 152.168c7.225 1.906 19.155.821 27.043 1.522 41.974 3.729 83.928 1.81 125.996 2.08 7.794.058 28.257-.898 34.996 1.116-2.806.764-5.488.565-8.377.567-37.592.03-75.206-.786-112.795-.024-14.503.294-29.206 2.376-43.73 1.823-6.269-.239-13.954-4.887-20.562-4.824l-.868-.043z"/><path fill="#464646" d="M86.715 195.081c12.438-.439 27.528 1.724 40.133 1.663 15.57-.077 31.037-1.555 46.612.055 5.111 7.103 2.232 75.82 2.05 89.623l-1.682 1.201c-29.646.363-59.845.092-89.535.116.23-14.999-3.525-85.575 2.422-92.658"/><path fill="#d4d4d3" d="M104.055 705.751c2.127-2.922 2.027-32.292-.682-33.25-11.084-3.916-57.124 4.318-62.6-5.319.588-3.063-.017-2.29 1.936-4.104 9.993-1.723 23.52-1.046 34.037-.92 28.223.336 56.098-.657 84.255 1.836 7.154.633 17.21-1.254 24.715-.644 5.098-1.468 4.81-5.683 10.372-6.145 8.544-.71 19.757 1.09 27.917.195 16.586-1.821 28.455 2.325 44.14 4.197 8.596 1.026 21.682-2.464 30.708-1.93 35.817 1.107 71.726 1.492 107.565 2.239 9.831.205 20.052-2.041 29.065-.296 1.583.306 4.083.291 5.874.447 4.08 6.934-1.685 53.405 2.405 60.333l.699 3.359c1.355 2.89 1.187 6.193 1.315 9.319.384-8.308.371-16.926.775-24.99 29.632 11.214 104.642 5.333 138.96 5.442 19.749.063 40.591-.604 60.572.858 8.61.63 20.454-1.082 28.65.487.137 3.487.177 10.354 1.078 13.429l.366-11.617c4.519-4.247-2.298-49.138 3.058-53.661 19.323-16.321 5.115 26.31 11.784 33.792 19.623-1.134 46.837-.734 66.719-.808-.846-6.214-.473-12.248-.656-18.465-.219-7.432-1.295-26.745 11.96-19.856 1.322 4.734.519 28.942.464 35.811 57.948.018 153.675-2.321 214.499.523 1.32.062 3.729 2.608 4.452 4.518.309 3.244-1.067 4.924-2.736 7.684 2.817-.29 3.209-.571 5.678-1.998.906 9.482.405 24.436.37 34.303l-.103 58.51-.03 190.738-642.647.079-211.491-.062-67.945-.023c-9.03-.007-22.153-.546-30.771-.163-2.542-10.099-.694-71.686-.677-86.137l.207-225.757c1.464-1.666 1.083-2.563 1.326-5.144 19.337 1.161 43.565.032 63.479.328.191 10.827.217 22.089.938 32.862"/><path fill="#f5f4f4" d="M104.055 705.751c2.127-2.922 2.027-32.292-.682-33.25-11.084-3.916-57.124 4.318-62.6-5.319.588-3.063-.017-2.29 1.936-4.104 9.993-1.723 23.52-1.046 34.037-.92 28.223.336 56.098-.657 84.255 1.836 7.154.633 17.21-1.254 24.715-.644 5.098-1.468 4.81-5.683 10.372-6.145 8.544-.71 19.757 1.09 27.917.195 16.586-1.821 28.455 2.325 44.14 4.197 8.596 1.026 21.682-2.464 30.708-1.93 35.817 1.107 71.726 1.492 107.565 2.239 9.831.205 20.052-2.041 29.065-.296 1.583.306 4.083.291 5.874.447 4.08 6.934-1.685 53.405 2.405 60.333l.699 3.359c1.355 2.89 1.187 6.193 1.315 9.319.384-8.308.371-16.926.775-24.99 29.632 11.214 104.642 5.333 138.96 5.442 19.749.063 40.591-.604 60.572.858 8.61.63 20.454-1.082 28.65.487.137 3.487.177 10.354 1.078 13.429l.366-11.617c4.519-4.247-2.298-49.138 3.058-53.661 19.323-16.321 5.115 26.31 11.784 33.792 19.623-1.134 46.837-.734 66.719-.808-.846-6.214-.473-12.248-.656-18.465-.219-7.432-1.295-26.745 11.96-19.856 1.322 4.734.519 28.942.464 35.811 57.948.018 153.675-2.321 214.499.523 1.32.062 3.729 2.608 4.452 4.518.309 3.244-1.067 4.924-2.736 7.684-9.658-1.049-24.526-.685-34.531-.66l-54.439.146c-65.826.086-135.343 1.144-200.958-.024 1.077 61.149 1.35 122.31.817 183.466-.122 32.283.437 65.348-.361 97.569-7.082.012-14.313.103-21.38.002 1.031-6.033.131-44.662.122-53.748l.026-137.753c-76.511.003-154.403.796-230.794-.079l-.247 191.671-15.007-.096-.627-133.652c-55.037-1.601-117.72-.828-173.199-.041-.064 43.875.7 90.214-.822 133.756l-13.4-.062c-.277-66.159.609-134.648-.369-200.48q-62.53.786-125.065.52c-17.036-.112-61.487-1.53-76.25.037-.377-4.156-.364-9.19-.465-13.428 14.874 1.435 47.643.359 63.609.252.937-23.297.641-46.479 1.674-69.86"/><path fill="#d4d4d3" d="M446.551 710.078c29.632 11.214 104.642 5.333 138.96 5.442 19.749.063 40.591-.604 60.572.858 8.61.63 20.454-1.082 28.65.487.137 3.487.177 10.354 1.078 13.429 1.019 13.109-.504 39.306-1.01 53.284-74.669 1.591-155.078.548-229.999.129.018-16.683-1.472-42.519-.341-57.958 1.355 2.89 1.187 6.193 1.315 9.319.384-8.308.371-16.926.775-24.99M253.223 671.75l123.245.113c9.437.008 46.69-.687 53.115 1.158-1.023 15.44-.452 35.715-.674 51.667a4875 4875 0 0 0-.714 118.234l-172.996-.089c-.638-54.054 1.955-117.902-1.976-171.083M129.975 671.443c8.632 2.721 25.651-.45 34.694.134 22.155 1.431 43.745.595 65.848.746 3.13 3.93 1.291 91.084 1.202 103.253-7.098.793-26.364.316-34.225.297l-66.195-.204c-.08-33.278.082-71.228-1.324-104.226M39.638 672.561c19.337 1.161 43.565.032 63.479.328.191 10.827.217 22.089.938 32.862-1.033 23.381-.737 46.563-1.674 69.86-15.966.107-48.735 1.183-63.609-.252.101 4.238.088 9.272.466 13.428q.509 70.442.288 140.886c0 8.835.46 54.196-.744 59.926-2.542-10.099-.694-71.686-.677-86.137l.207-225.757c1.464-1.666 1.083-2.563 1.326-5.144"/><path fill="url(#g)" d="M445.259 362.535c8.779-.813 17.4 5.027 25.632 5.299 47.905 2.198 96.275-1.072 144.109.005 45.975 1.034 92.289-5.279 137.932-2.95l.567.033c.121-2.091.072-2.902 1.336-4.604.618 15.527.229 32.784.174 48.449l.128 131.281-209.875.853-69.039-.024c-7.81-.013-24.066-.735-31.013-.089.059-42.665.789-88.446.019-130.991 1.91-4.402.249-41.108.03-47.262"/><path fill="url(#h)" d="M770.131 453.168c12.088-.837 24.651-1.157 36.753-.809 60.782 1.744 123.662-2.604 184.261-.004q.444 33.964.224 67.929c-.005 8.806-.473 25.931.472 33.949l-.327 135.356-.092 4.78c-3.997-.137-8.342-.129-12.207-1.014-65.35-1.274-131.634 1.048-196.517-.139-9.492-7.241-5.89-2.308-11.591-3.18q.4-118.437-.976-236.868"/><path fill="#d4d4d3" d="M979.215 693.355c1.185-.759.684-.248 1.172-1.849-1.87-.567-3.257-.765-4.633-2.126 3.157-3.24 9.953-9.479 14.462-7.031.34 2.473.814 4.798 1.298 7.24l-.092 4.78c-3.997-.137-8.342-.129-12.207-1.014"/><path fill="url(#i)" d="M444.151 552.706c76.557 1.433 155.218-.357 232.089.337a626 626 0 0 0-.133 23.583c.632 47.141-1.288 94.99.07 142.051l-.366 11.617c-.901-3.075-.941-9.942-1.078-13.429-8.196-1.569-20.04.143-28.65-.487-19.981-1.462-40.823-.795-60.572-.858-34.318-.109-109.328 5.772-138.96-5.442-.404 8.064-.391 16.682-.775 24.99-.128-3.126.04-6.429-1.315-9.319l-.699-3.359c1.244-10.935.451-43.071.418-55.418a8937 8937 0 0 1-.029-114.266"/><path fill="url(#j)" d="M38.685 305.772c18.502 6.848 129.938-1.57 137.083 2.744l.182 3.307-.677 58.135c-.042 4.522-.34 23.67.41 27.545.023 25.659.097 52.83-.66 78.451l-135.704.228c-.025 4.647.173 12.784-.163 17.154l-.703-.007c-1.687-54.653-.3-116.025-.203-171.059-.047-5.412.244-11.071.435-16.498"/><path fill="#464646" d="M38.685 305.772c18.502 6.848 129.938-1.57 137.083 2.744l.182 3.307-1.673-.491c-18.77 12.06-89.436 2.164-113.576 5.328-8.318 1.09-17.581-3.705-22.45 5.61-.048-5.412.243-11.071.434-16.498"/><path fill="url(#k)" d="m38.453 493.329.703.007c3.093 2.712 36.96 1.276 43.757 1.219l89.116-.52c-.743 23.788 2.038 157.473-2.255 167.035-40.513.394-90.443-3.162-130.466-.582.058 3.544-.017 8.672.33 12.073-.243 2.581.138 3.478-1.326 5.144-.328-7.863-.286-16.611-.162-24.529.83-53.022-1.335-106.912.303-159.847"/><path fill="#a4a4a4" d="m166.924 495.121 1.994.835c3 8.074 2.069 143.845.659 160.673-5.231-5.345-1.065-47.022-2.109-56.892-3.693-34.924.346-69.978-.544-104.616"/><path fill="#737272" d="m942.379 376.752.931-2.383c6.644-2.113 40.335-1.926 47.731-.774.179 18.776 1.146 48.607.049 66.668-7.957 1.488-39.609.7-48.28.584-1.166-17.166-1.294-47.117-.431-64.095"/><path fill="#d4d4d3" d="M771.107 690.036c5.701.872 2.099-4.061 11.591 3.18-3.652.117-7.749.547-11.117-.722z"/><path fill="url(#l)" d="M189.189 419.995c22.661 1.572 64.997.048 89.559.03 49.863-.036 101.613.698 151.307-.265l-.03 154.795c.038 24.88.859 56.83-.55 81.007-59.09 1.367-119.732-.315-178.944.42-19.25.24-40.501-.899-59.262-.3-1.29-52.288.585-106.86-.328-159.311-.4-22.973.564-54.071-1.752-76.376"/><path fill="#a4a4a4" d="M689.38 554.283c21.499-.89 45.045-.507 66.698-.416l-.184 66.085c-21.203.502-42.416.363-63.61-.418-.014-24.324.697-40.884-2.904-65.251"/><path fill="#d4d4d3" d="m754.999 630.68.203.133c1.531 2.892.754 57.16.726 65.207-19.47 1.471-42.778.869-62.56.748-2.676-2.988-1.44-57.29-1.412-65.122 20.204.216 42.122-1.075 63.043-.966"/><path fill="#737272" d="M327.508 399.515c4.077-.677 19.679-.351 23.985-.002-2.237 1.799-21.192 1.451-23.985.002M306 399.5c4.229-.73 13.747-.401 18 0-4.264.906-13.637.557-18 0"/></svg>