<svg
  version="1.1"
  xmlns="http://www.w3.org/2000/svg"
  style="display: block;"
  viewBox="0 0 1024 1024"
  width="256"
  height="256"
  preserveAspectRatio="none"
>
  <path
    transform="translate(0,0)"
    fill="#000000"
    d="M 6.56983 1024 C 6.86339 1022.65 7.23625 1021.32 7.68645 1020.01 C 11.364 1009.45 17.3668 997.491 21.7316 986.978 C 31.1963 964.182 40.7259 943.121 52.2959 921.359 C 58.6539 909.4 68.1802 895.16 73.6751 883.883 C 90.9905 848.347 105.777 811.777 123.895 776.461 C 128.234 768.004 135.659 759.964 139.46 752.418 C 150.403 730.7 159.461 707.92 169.574 685.72 C 178.375 666.399 191.804 647.538 200.805 629.514 L 379.759 264.827 C 384.608 255.039 392.141 247.004 397.422 236.586 C 407.8 216.113 415.527 194.617 425.377 174.073 C 435.881 152.383 448.999 132.629 459.86 111.141 C 474.958 81.2694 485.847 48.5535 504.649 20.6181 C 508.574 14.7858 510.465 12.9607 516.838 9.92248 C 531.368 24.1856 547.762 68.5532 557.027 87.2518 L 624.875 223.19 L 976.926 922.8 C 988.703 945.833 998.434 969.409 1009.53 992.722 C 1013.38 1000.81 1016.7 1014.8 1024 1018.94 L 1024 1024 L 6.56983 1024 z"
  />
</svg>
