<svg xmlns="http://www.w3.org/2000/svg" width="256" height="256" preserveAspectRatio="none" style="display:block" viewBox="0 0 1024 1024"><defs><linearGradient id="c" x1="103.052" x2="113.471" y1="940.273" y2="950.227" gradientUnits="userSpaceOnUse"><stop class="stop0" offset="0" stop-opacity=".145"/><stop class="stop1" offset="1" stop-opacity=".286"/></linearGradient><linearGradient id="b" x1="517.457" x2="518.616" y1="971.074" y2="753.475" gradientUnits="userSpaceOnUse"><stop class="stop0" offset="0" stop-opacity=".208"/><stop class="stop1" offset="1" stop-opacity=".682"/></linearGradient><linearGradient id="a" x1="514.993" x2="516.157" y1="763.445" y2="124" gradientUnits="userSpaceOnUse"><stop class="stop0" offset="0" stop-opacity=".749"/><stop class="stop1" offset="1"/></linearGradient></defs><path fill="#fefefe" d="M516.784 9.963c14.959 14.582 31.986 60.943 41.304 79.81l65.703 131.585 352.783 700.79c11.91 23.281 21.745 47.08 32.956 70.643 3.85 8.079 7.15 22.019 14.47 26.129v5.08H6.57q.44-2.025 1.117-3.99c3.686-10.57 9.73-22.682 14.136-33.218 9.77-20.354 17.934-44.879 29.837-64.106 28.876-46.645 47.575-97.171 72.202-145.993 4.252-8.428 11.283-15.6 15.51-23.782 11.016-21.319 19.437-43.958 29.527-65.702 8.994-19.923 23.253-39.969 32.549-58.772 17.574-35.548 32.448-72.755 50.695-108.22 4.024-7.82 11.412-15.797 15.259-23.307 11.036-21.544 19.592-44.269 29.758-66.196 9.346-20.635 23.394-40.006 33.232-60.163 19.494-39.946 35.594-81.529 57.744-120.222 1.661-2.901 5.402-4.789 7.119-8.324 10.21-21.024 18.846-42.747 28.362-64.078 9.39-20.841 23.138-41.041 33.574-60.945 13.744-26.211 23.797-55.917 38.565-81.793 5.702-9.991 10.437-20.2 21.028-25.226M160.411 829.79c-1.299 2.653-5.814 11.479-6.02 13.959-9.342 20.291-20.06 34.561-29.844 54.109-2.729 5.345-7.608 15.073-9.251 20.87l-7.062 14.36-7.239 15.581c-3.341 7.48-8.184 19.139-11.958 25.988 3.178.114 14.619.699 17.271.328 38.506 1.882 84.479.746 123.671.75l217.133.009 304.082-.016c60.102-.007 122.014.709 181.949-.627 3.717-.342 2.904.317 4.839-1.816-.169-4.793-3.538-10.561-5.724-15.043-2.171-5.827-7.647-17.091-10.472-22.452-.741-3.414-9.564-20.182-11.46-23.529-3.502-9.609-11.373-22.32-16.721-31.347-7.3-12.43-12.306-23.423-18.157-36.491l-6.884-15.929a388 388 0 0 0-8.832-18.651c-2.075-6.403-16.877-35.091-20.57-42.387l-.792-1.082c-3.612-11.235-14.687-23.985-19.639-35.099-18.507-41.842-36.977-83.265-60.847-122.389-5.63-9.227-12.2-27.232-16.907-37.728a2041 2041 0 0 0-28.502-59.842c-6.028-11.984-14.6-23.199-20.193-34.584-10.628-21.633-19.481-43.862-30.37-65.54-11.096-22.09-22.814-43.265-34.717-64.914-16.94-35.917-32.326-74.23-52.646-108.341-18.815-31.584-31.125-65.171-47.908-97.819-2.201-4.28-6.48-16.019-8.935-18.719l-2.453.187c-13.06 7.892-44.462 91.759-56.479 110.105-21.037 32.119-37.892 74.302-54.355 109.415-6.762 14.423-17.151 27.264-24.032 41.675-14.075 30.066-28.75 59.92-41.536 90.567-3.894 9.304-12.625 19.065-16.319 28.625-26.074 40.65-39.325 92.353-67.507 132.565-7.424 10.592-12.769 30.189-19.603 41.813-9.716 18.712-21.222 51.351-32.032 67.773-1.797 3.075-7.94 13.141-9.09 15.895-2.91 5.257-6.029 10.682-8.69 16.049-6.965 12.287-19.697 40.296-25.199 53.722"/><path fill="url(#a)" d="M322.532 501.974c3.694-9.56 12.425-19.321 16.319-28.625 12.786-30.647 27.461-60.501 41.536-90.567 6.881-14.411 17.27-27.252 24.032-41.675 16.463-35.113 33.318-77.296 54.355-109.415 12.017-18.346 43.419-102.213 56.479-110.105l2.453-.187c2.455 2.7 6.734 14.439 8.935 18.719 16.783 32.648 29.093 66.235 47.908 97.819 20.32 34.111 35.706 72.424 52.646 108.341 11.903 21.649 23.621 42.824 34.717 64.914 10.889 21.678 19.742 43.907 30.37 65.54 5.593 11.385 14.165 22.6 20.193 34.584a2041 2041 0 0 1 28.502 59.842c4.707 10.496 11.277 28.501 16.907 37.728 23.87 39.124 42.34 80.547 60.847 122.389 4.952 11.114 16.027 23.864 19.639 35.099-3.832-.725-5.088-2.382-7.913-5.094l-2.348 1.098.6-1.899-.277.16-.424 2.05c-2.38 1.356-3.861 1.211-6.593 1.392-14.013-6.179-13.941-36.112-33.716-13.524-12.581-.84-16.58 1.306-27.244 7.152-20.07.525-43.267-4.12-64.829-4.13-68.325-.032-136.65-.004-204.973-.046l-176.43.031c-5.802.03-13.792-.424-19.754.382-19.404 2.623-39.139 4.203-58.1-1.728-.139-.043-3.311-5.24-5.356-6.129-12.872-5.59-16.431 14.027-24.604 16.673-10.474-6.034 4.295-10.775 2.566-21.041l-2.28.579c3.571-5.019 4.38-6.247 6.357-12.051.978 2.357.315 1.622 2.353 3.019 5.326-3.042 4.448-7.741 2.966-12.715 1.141-4.557 1.915-6.565 3.754-10.916 1.243 1.884 1.562 2.65 3.356 3.945 4.493-1.117 5.252-5.683 5.608-9.803-1.473-1.819-1.511-2.939-1.853-5.224.392-8.228 8.046-14.571 9.505-22.744 1.002 1.478 1.202 1.504 2.598 2.532l1.942-1.058c2.939-4.216 3.324-4.969 4.551-9.928-1.32-2.798-1.698-4.172-2.096-7.195l2.275-.312.824 2.478c5.95-3.065 11.148-22.637 15.236-28.138 4.954-6.665 23.845-28.602 21.379-36.774l-1.071.803c-1.604 4.899-3.508 8.329-7.587 11.586-2.892-5.649 36.241-86.337 42.633-98.319 1.833-3.435 2.961-5.098 3.107-9.513"/><path fill="url(#b)" d="M195.53 774.706c1.066-.661 3.657-1.524 4.935-2.001l3.046 2.38c2.766-1.99 5.104-7.268 6.844-10.504 5.301-1.129 9.16-3.754 13.339-3.217 3.207 1.414 5.378 6.637 7.645 10.142 4.624 1.75 12.567-4.043 17.789-5.321 2.456-.6 5.912-2.642 8.447-2.962 40.686-5.134 81.793-3.479 122.743-3.548l190.684.04 92.668-.185c25.727-.113 50.774.168 76.525 1.609 17.693.989 44.302 16.635 59.247 1.413 2.096-2.135 2.699-5.196 5.68-7.534 3.093 2.327 15.87 13.943 18.719 14.868l2.289-2.716 1.92.006c1.152 1.732 1.921 3.064 2.93 4.883l2.002.407 1.329-.915-.628-4.17 1.474-.98 4.005 1.056c3.693 7.296 18.495 35.984 20.57 42.387-3.363 2.642-2.815 1.507-4.287 5.201.188 1.376 10.605 25.697 10.827 25.904l1.148-.797c-3.254-9.43.305-3.475 1.144-11.657l6.884 15.929-6.418-.1c-2.868 4.97 16.65 35.462 19.518 43.86l2.09.138c2.685-2.56 2.31-3.012 2.967-7.407 5.348 9.027 13.219 21.738 16.721 31.347-4.075-2.058-7.818-10.155-9.07-9.853.511 4.556.426 6.845 3.104 10.491-.619 3.334.01 2.088-2.66 4.631 4.535 2.525 5.594 1.135 6.789 5.456 1.19 4.308-1.113 8.45 1.368 11.993 3.997.968 3.469.193 5.689 2.859l.983 6.654 1.465-2.141 3.456 1.763q.255-4.159.336-8.324c2.825 5.361 8.301 16.625 10.472 22.452-4.267-2.386-7.706-9.644-9.14-9.966 1.433 6.026 2.927 7.007-1.344 12.026 3.819 7.038 7.964-1.161 11.369 14.799-59.935 1.336-121.847.62-181.949.627l-304.082.016-217.133-.009c-39.192-.004-85.165 1.132-123.671-.75.2-.071.401-.137.599-.211 8.349-3.105 155.127-1.299 178.185-1.295l376.214.069c79.877.777 159.76.364 239.624-1.239-5.839-1.363-38.726-.918-47.092-.912l-102.714.011-429.466.04-141.413.023c-22.263.006-44.708.136-66.979.105-3.413-.005-4.208-.16-6.226-2.099-.956-3.657-.709-8.773-1.26-10.429 1.267-1.615 1.722-2.855 3.345-3.165l-.383-.753.686-1.199c-.025 2.454-.015 1.693 1.562 4.118l1.156-.909-.117-3.641c1.336-1.308 1.447-1.385 3.127-2.268l.402-.207.186-2.563c-2.665-4.286-3.564-.418-3.483-6.039.053-3.623.64-6.699-1.327-9.658l-2.7.324 7.062-14.36-.054 5.662c3.235 4.202 2.035-.392 6.21 3.339.272 2.634.994 5.739.777 8.266 1.566-11.622 3.964-11.82 9.54-22.179.189-2.816-.641-4.446-1.616-7.048l-3.517.279-.629-1.054 2.009-4.472c-.742-2.749-.233-1.782-3.469-3.663 9.784-19.548 20.502-33.818 29.844-54.109-.063 2.894-.514 6.798-.773 9.768 1.596-1 7.918-13.134 9.451-15.838 1.414 2.348 2.396 3.437 4.141 5.465.204-2.166-3.272-8.41-4.029-12.092l-2.77-1.262c5.502-13.426 18.234-41.435 25.199-53.722l1.889 1.549c.904 3.115 1.216 4.366 4.249 5.457 2.683-2.715 2.864-4.655 3.782-8.369m647.21 17.516 1.581-1.73c-.521-1.741-.061-1.501-1.091-2.13-1.147-3.35-1.491-4.243-3.304-7.303l-3.238-1.402c-.556 4.366-1.257 14.868 6.052 12.565m-1.154-12.588c-1.504-3.871-3.123-9.752-6.602-11.8.493 4.396 1.136 7.638 4.356 11.006z"/><path fill-opacity=".678" d="m836.688 779.657 3.238 1.402c1.813 3.06 2.157 3.953 3.304 7.303 1.03.629.57.389 1.091 2.13l-1.581 1.73c-7.309 2.303-6.608-8.199-6.052-12.565"/><path fill-opacity=".557" d="M834.984 767.834c3.479 2.048 5.098 7.929 6.602 11.8l-2.246-.794c-3.22-3.368-3.863-6.61-4.356-11.006"/><path fill-opacity=".682" d="m206.695 742.301 2.28-.579c1.729 10.266-13.04 15.007-2.566 21.041 8.173-2.646 11.732-22.263 24.604-16.673 2.045.889 5.217 6.086 5.356 6.129 18.961 5.931 38.696 4.351 58.1 1.728 5.962-.806 13.952-.352 19.754-.382l176.43-.031c68.323.042 136.648.014 204.973.046 21.562.01 44.759 4.655 64.829 4.13 10.664-5.846 14.663-7.992 27.244-7.152 19.775-22.588 19.703 7.345 33.716 13.524 2.732-.181 4.213-.036 6.593-1.392l.424-2.05.277-.16-.6 1.899 2.348-1.098c2.825 2.712 4.081 4.369 7.913 5.094l.792 1.082-4.005-1.056-1.474.98.628 4.17-1.329.915-2.002-.407c-1.009-1.819-1.778-3.151-2.93-4.883l-1.92-.006-2.289 2.716c-2.849-.925-15.626-12.541-18.719-14.868-2.981 2.338-3.584 5.399-5.68 7.534-14.945 15.222-41.554-.424-59.247-1.413-25.751-1.441-50.798-1.722-76.525-1.609l-92.668.185-190.684-.04c-40.95.069-82.057-1.586-122.743 3.548-2.535.32-5.991 2.362-8.447 2.962-5.222 1.278-13.165 7.071-17.789 5.321-2.267-3.505-4.438-8.728-7.645-10.142-4.179-.537-8.038 2.088-13.339 3.217-1.74 3.236-4.078 8.514-6.844 10.504l-3.046-2.38c-1.278.477-3.869 1.34-4.935 2.001.067-1.708-1.225-10.025-1.23-14.686 1.15-2.754 7.293-12.82 9.09-15.895z"/><path fill-opacity=".157" d="M89.037 974.658c3.774-6.849 8.617-18.508 11.958-25.988 4.74 4.006 3.614 4.008 4.785 10.379.551 1.656.304 6.772 1.26 10.429 2.018 1.939 2.813 2.094 6.226 2.099 22.271.031 44.716-.099 66.979-.105l141.413-.023 429.466-.04 102.714-.011c8.366-.006 41.253-.451 47.092.912a8043 8043 0 0 1-239.624 1.239l-376.214-.069c-23.058-.004-169.836-1.81-178.185 1.295-.198.074-.399.14-.599.211-2.652.371-14.093-.214-17.271-.328"/><path fill-opacity=".929" d="M322.532 501.974c-.146 4.415-1.274 6.078-3.107 9.513-6.392 11.982-45.525 92.67-42.633 98.319 4.079-3.257 5.983-6.687 7.587-11.586l1.071-.803c2.466 8.172-16.425 30.109-21.379 36.774-4.088 5.501-9.286 25.073-15.236 28.138l-.824-2.478-2.275.312c-2.833 5.957-3.402 8.75-6.995 15.649-1.459 8.173-9.113 14.516-9.505 22.744-1.201 1.911-6.078 10.245-7.111 11.082-1.839 4.351-2.613 6.359-3.754 10.916-1.752 3.083-3.824 6.535-5.319 9.696-1.977 5.804-2.786 7.032-6.357 12.051l-3.305 1.824c10.81-16.422 22.316-49.061 32.032-67.773 6.834-11.624 12.179-31.221 19.603-41.813 28.182-40.212 41.433-91.915 67.507-132.565"/><path fill-opacity=".431" d="M893.605 880.915c-.657 4.395-.282 4.847-2.967 7.407l-2.09-.138c-2.868-8.398-22.386-38.89-19.518-43.86l6.418.1c5.851 13.068 10.857 24.061 18.157 36.491"/><path fill-opacity=".286" d="M124.547 897.859c3.236 1.881 2.727.914 3.469 3.663l-2.009 4.472.629 1.054 3.517-.279c.975 2.602 1.805 4.232 1.616 7.048-5.576 10.359-7.974 10.557-9.54 22.179.217-2.527-.505-5.632-.777-8.266-4.175-3.731-2.975.863-6.21-3.339l.054-5.662c1.643-5.797 6.522-15.525 9.251-20.87"/><path fill-opacity=".267" d="M921.786 935.791a199 199 0 0 1-.336 8.324l-3.456-1.763-1.465 2.141-.983-6.654c-2.22-2.666-1.692-1.891-5.689-2.859-2.481-3.543-.178-7.685-1.368-11.993-1.195-4.321-2.254-2.931-6.789-5.456 2.67-2.543 2.041-1.297 2.66-4.631-2.678-3.646-2.593-5.935-3.104-10.491 1.252-.302 4.995 7.795 9.07 9.853 1.896 3.347 10.719 20.115 11.46 23.529"/><path fill="url(#c)" d="m108.234 933.089 2.7-.324c1.967 2.959 1.38 6.035 1.327 9.658-.081 5.621.818 1.753 3.483 6.039l-.186 2.563-.402.207c-1.68.883-1.791.96-3.127 2.268l.117 3.641-1.156.909c-1.577-2.425-1.587-1.664-1.562-4.118l-.686 1.199.383.753c-1.623.31-2.078 1.55-3.345 3.165-1.171-6.371-.045-6.373-4.785-10.379z"/><path fill-opacity=".561" d="M859.732 809.844a388 388 0 0 1 8.832 18.651c-.839 8.182-4.398 2.227-1.144 11.657l-1.148.797c-.222-.207-10.639-24.528-10.827-25.904 1.472-3.694.924-2.559 4.287-5.201"/><path fill-opacity=".125" d="M933.143 975.102c-3.405-15.96-7.55-7.761-11.369-14.799 4.271-5.019 2.777-6 1.344-12.026 1.434.322 4.873 7.58 9.14 9.966 2.186 4.482 5.555 10.25 5.724 15.043-1.935 2.133-1.122 1.474-4.839 1.816"/><path fill-opacity=".698" d="M194.3 760.02c.005 4.661 1.297 12.978 1.23 14.686-.918 3.714-1.099 5.654-3.782 8.369-3.033-1.091-3.345-2.342-4.249-5.457l-1.889-1.549c2.661-5.367 5.78-10.792 8.69-16.049"/><path fill-opacity=".447" d="m160.411 829.791 2.77 1.262c.757 3.682 4.233 9.926 4.029 12.092-1.745-2.028-2.727-3.117-4.141-5.465-1.533 2.704-7.855 14.838-9.451 15.838.259-2.97.71-6.874.773-9.768.206-2.48 4.721-11.306 6.02-13.959"/><path fill-opacity=".784" d="M229.236 698.556c.342 2.285.38 3.405 1.853 5.224-.356 4.12-1.115 8.686-5.608 9.803-1.794-1.295-2.113-2.061-3.356-3.945 1.033-.837 5.91-9.171 7.111-11.082"/><path fill-opacity=".851" d="M245.736 660.163c.398 3.023.776 4.397 2.096 7.195-1.227 4.959-1.612 5.712-4.551 9.928l-1.942 1.058c-1.396-1.028-1.596-1.054-2.598-2.532 3.593-6.899 4.162-9.692 6.995-15.649"/><path fill-opacity=".757" d="M218.371 720.554c1.482 4.974 2.36 9.673-2.966 12.715-2.038-1.397-1.375-.662-2.353-3.019 1.495-3.161 3.567-6.613 5.319-9.696"/></svg>