<svg xmlns="http://www.w3.org/2000/svg" width="256" height="256" preserveAspectRatio="none" style="display:block" viewBox="0 0 1024 1024"><defs><linearGradient id="a" x1="512.88" x2="513.244" y1="9.928" y2="1.077" gradientUnits="userSpaceOnUse"><stop class="stop0" offset="0" stop-color="#fff" stop-opacity=".941"/><stop class="stop1" offset="1" stop-color="#fff" stop-opacity=".973"/></linearGradient></defs><path fill="#fdfefe" d="M586.216 10.091c4.909-.427 11.327.711 16.512 1.237 45.402 4.604 97.544 19.948 139.456 38.515 15.709 7.404 30.766 20.18 45.641 28.377 15.44 8.508 28.793 19.73 42.9 28.34 22.783 13.905 32.68 27.39 49.268 47.722 7.815 9.579 21.362 18.871 29.257 28.921 7.706 9.642 17.064 23.886 23.952 34.478 6.351 9.767 15.925 21.149 21.585 30.328 26.88 43.592 45.523 85.351 55.723 135.864 1.72 8.5 4.43 17.757 5.36 25.827 1.04 9.005-.13 20.685 4.6 28.923 1.19.492 2.29.996 3.53 1.351v150.272c-6.94 7.089-7.82 23.462-8.89 33.283-2.4 21.424-7.18 41.076-14.64 61.254-6.739 18.234-11.984 39.386-21.712 56.468-9.311 16.351-20.773 32.394-30.157 49.204-10.365 18.567-26.147 38.539-39.135 55.478-9.091 10.314-23.125 18.938-32.846 28.86-10.464 10.081-19.22 23.247-29.897 32.961-23.896 21.742-53.43 36.128-79.887 53.78-25.667 17.124-48.838 28.647-78.613 36.947-8.967 2.499-18.587 7.299-27.705 9.829-12.575 4.51-58.603 7.66-66.074 15.69H431.649c-5.421-5.83-45.649-11.77-57.542-14.94-47.76-12.739-83.895-25.797-124.894-54.03-16.974-9.514-32.59-23.05-48.416-33.569-20.303-13.496-25.991-20.518-41.421-38.834-11.827-13.15-30.08-23.598-41.017-37.254-24.342-30.396-44.995-66.366-65.613-99.499-5.917-9.508-14.033-30.603-18.003-41.25-5.5-14.747-9.606-32.587-14.686-47.685-4.45-17.46-6.334-39.545-10.201-56.979-.034-4.603-1.028-10.889-4.212-14.447-3.4-1.394-1.904-1.319-5.644-.083V446.02c4.102-1.998 2.977-4.065 5.3-8.036 9.403-16.068 6.79-34.397 10.386-48.377 5.785-22.491 17.297-66.725 27.24-87.459 19.259-40.156 51.658-87.654 79.711-122.633 4.986-6.217 15.989-14.936 22.134-21.405 11.352-11.949 24.888-29.384 37.209-39.622 10.607-8.813 28.682-20.17 40.483-28.245 16.867-11.54 39.639-27.064 57.563-36.404 40.697-21.207 104.273-39.548 149.52-42.762l6.928-.163c11.44 1.695 25.002-.88 36.891-.858l73.294.006c12.621.036 27.178.877 39.557.029M189.272 186.767C52.082 322.824 14.202 529.955 94.36 705.759s261.373 283.039 454.055 268.689c254.022-18.918 444.648-240.12 425.844-494.15-18.803-254.031-239.92-444.756-493.958-426.067a461.37 461.37 0 0 0-291.029 132.536"/><path fill="#fdfefe" d="M473.821 157.427c59.633-2.079 115.482.028 172.517 19.751 22.225 7.686 28.757 12.001 48.609 25.289 13.314 8.912 29.325 16.095 42.21 26.644 14.388 11.779 25.202 25.612 37.036 39.788 4.521 5.21 12.236 9.975 16.839 15.639 13.824 17.008 24.471 33.438 34.239 53.057 3.935 7.902 14.219 18.904 17.796 26.591 14.834 31.877 23.504 70.772 28.329 105.447 1.4 10.061.762 27.925.999 37.866.991 41.64-1.539 78.141-14.452 118.082-3.428 10.604-7.241 25.401-12.243 35.41-4.173 8.35-14.18 18.014-18.735 26.86-8.922 17.324-14.094 28.779-26.772 43.87-10.128 12.054-20.435 18.484-31.899 29.2-7.077 6.615-11.428 12.989-17.425 20.217-14.859 17.91-35.488 30.884-55.974 41.422-8.701 4.476-19.011 14.593-28.594 19.456-35.979 18.257-72.234 25.384-111.583 29.82-51.793 1.331-98.878 2.395-148.651-13.467-13.325-4.246-27.72-7.793-40.079-14.714-16.381-9.173-31.005-20.125-47.656-29.258-18.383-10.082-35.732-27.368-50.099-42.344-6.784-7.072-19.453-15.099-25.997-22.367-10.222-11.354-21.027-26.851-29.487-39.704-3.923-5.96-7.934-15.203-12.067-21.805-6.308-10.077-15.674-22.294-19.769-33.27-6.333-16.978-12.119-37.193-16.528-54.923-9.939-39.962-10.117-89.371-7.501-130.657 1.915-30.217 15.331-73.99 25.877-102.59 3.416-9.263 12.742-18.805 18.275-27.41 4.352-6.767 7.789-16.074 11.898-22.561 24.621-38.868 59.054-76.27 98.344-100.617 9.758-6.046 21.887-11.026 32.026-16.518 5.118-2.772 11.554-8.69 16.414-11.681 8.342-5.523 18.738-8.108 27.784-11.847 27.77-11.478 58.605-11.511 86.319-18.676"/><path fill="#fff855" d="M485.489 214.201c165.808-15.724 312.978 105.919 328.744 271.723 15.765 165.804-105.842 313.005-271.642 328.811-165.858 15.812-313.122-105.847-328.893-271.709s105.925-313.095 271.791-328.825"/><path fill="url(#a)" d="M464.07 0h117.191c2.347 7.688-3.23 5.642.466 9.037l4.489 1.054c-12.379.848-26.936.007-39.557-.029l-73.294-.006c-11.889-.021-25.451 2.553-36.891.858 5.533-1.367 17.869.431 21.359-2.69 1.573-4.48 2.053-5.074 5.889-7.965z"/><path fill="#fdfefe" fill-opacity=".039" d="M0 585.43c3.74-1.236 2.244-1.311 5.644.083 3.184 3.558 4.178 9.844 4.212 14.447l-.339.487c-1.446 2.121-1.672 2.638-2.528 5.04-2.693 1.388-3.473.663-6.989.227z"/><path fill="#fdfefe" fill-opacity=".608" d="M447.982 0h16.088l-.348.26c-3.836 2.89-4.316 3.483-5.889 7.964-3.49 3.121-15.826 1.323-21.359 2.69l-6.928.163c1.758-.68 4.429-1.306 6.315-1.812 4.014.43 15.052-.383 19.605-.62-4.436-2.04-7.977-1.867-9.946-5.248 1.238-1.168 1.708-1.868 2.462-3.397"/><path fill="#fdfefe" fill-opacity=".541" d="M435.59 0h12.392c-.754 1.529-1.224 2.23-2.462 3.397 1.969 3.38 5.51 3.209 9.946 5.248-4.553.237-15.591 1.05-19.605.62-.665-3.59-.446-5.644-.271-9.265"/></svg>