<svg xmlns="http://www.w3.org/2000/svg" width="256" height="474" preserveAspectRatio="none" style="display:block" viewBox="0 0 1024 1896"><defs><linearGradient id="b" x1="1002.03" x2="999.705" y1="907.461" y2="917.706" gradientUnits="userSpaceOnUse"><stop class="stop0" offset="0" stop-opacity=".882"/><stop class="stop1" offset="1" stop-opacity=".933"/></linearGradient><linearGradient id="a" x1="513.421" x2="514.478" y1="1894.69" y2="1884.3" gradientUnits="userSpaceOnUse"><stop class="stop0" offset="0" stop-opacity=".882"/><stop class="stop1" offset="1" stop-opacity=".929"/></linearGradient></defs><path d="M450.964 57.265c12.272-8.636 11.135-17.6 16.011-30.148 5.243-13.49 18.435-8.15 30.303-12.744l-2.163-1.79c2.353-3.32 3.112.507 7.915-3.802l.156-3.197c4.171-3.379 17.125-2.2 23.211-2.094l.223 9.545c7.055 5.228 14.337-.187 17.809 12.167 2.732 9.718 12.293 2.63 15.325 15.608l1.508 6.113c2.331 2.529 8.054 3.92 8.766 5.146 5.812 10.014-.042 6.069 10.13 8.977 1.685 6.573 7.545 16.564 7.585 19.562-.143 5.579-1.599 21.33 2.103 24.68 3.433 3.106 7.495 5.956 10.781 10.055l1.149-3.06c3.514 7.889-2.001 9.048 2.869 12.203l6.627-.133c2.997 4.669 8.013 10.539 8.51 15.484-.213 6.288-1.242 21.315 2.595 26.917.624.912 9.452 6.986 11.563 6.943-.204 3.404-.959 7.673.802 10.331 3.144 1.916 3.975 2.176 7.399 3.307 1.589 3.921 5.505 10.31 5.6 13.274-.163 6.157-1.73 21.325 2.313 24.914 3.426 3.041 7.345 5.871 10.575 9.831l1.15-3.063c3.515 7.881-2.007 9.035 2.866 12.194l6.623-.121c3.043 4.68 8.008 10.464 8.517 15.497-.182 5.863-1.497 21.997 2.436 25.991 2.667 2.708 7.888 5.731 10.607 9.313l.89-3.211c2.222 8.554.742 14.347 2.313 22.675.909 4.817 6.932 5.89 8.309 9.335 1.936 4.844 2.848 17.852 5.496 21.781 2.104 3.123 7.367 4.431 10.912 9.446l1.027-3.114c.831 6.61.19 19.832 3.053 25.155 2.419 1.799 7.802 4.904 9.139 6.114 5.282 4.779 3.303 18.362 8.516 23.77 2.689 2.789 9.684 1.728 10.054 7.204.347 5.125-.811 5.175 1.489 9.086 3.466 1.506 4.201 1.374 7.806.872 2.412 6.909 6.102 13.332 7.609 20.009 12.517 10.327 11.047 19.445 18.351 31.927 21.805 37.262 41.287 74.408 57.081 114.606 3.283 8.356 12.843 19.479 14.87 28.088-.352 6.171-2.627 21.537 1.39 25.516 3.694 3.661 8.081-2.323 8.518 8.471l.031.965.179-.644c.439-1.542.507-2.438 1.639-3.539 1.274 10.165 2.154 13.953 13.538 14.166l14.204 34.432c.336.795 4.584 9.752 4.527 9.468-.313 6.604-.703 16.63 2.175 22.719l.529-.594c2.59-2.884 1.777-2.028 5.087-3.267.075 5.153-.177 8.223 1.874 13.03 2.011.695 2.184.608 4.35.427 1.267 7.76-.732 16.479 3.724 23.382l.827.361c4.661 2.082 3.535 2.474 6.408 6.163l2.509-.222c1.377 5.238 1.587 8.392 2.557 12.84 1.169 5.364 3.922 7.538 4.466 14.438 1.712-4.274-.524-6.141 1.529-9.291l2.99-.105c1.584 1.995 1.279 8.009 1.152 10.838.434.352 3.568 2.823 3.675 2.987 4.446 6.778 1.696 26.027 8.277 30.506 9.15 6.228 4.749 18.061 10.247 26.807.899 1.431 7.537 4.197 9.263 4.945.225.088.163 2.217 1.325 3.528l.752-2.992c2.737 5.771.534 16.886 2.851 23.423 2.051 5.788 9.403 4.324 11.339 8.423 2.953 6.252-2.362 9.24 4.44 13.095-.258 9.394 10.045 17.5 15.975 17.632l.18 1.404c.09 5.187.21 7.98 1.02 13.087l.13 22.717c-.73 3.701-.81 4.55-.68 8.319-2.86 19.962-17.633 38.707-26.254 56.657-12.017 26.76-25.4 52.67-36.5 79.89-10.225 25.07-29.778 50.25-39.951 74.67-18.69 44.86-41.182 85.54-64.07 128.29-5.29 9.88-7.911 23.2-13.075 33.34l-83.643 161.71c-12.324 23.45-25.77 44.78-37.253 69.3-6.085 12.99-11.086 27.19-17.001 39.45-12.278 25.43-26.848 50.21-40.253 75.02-7.817 14.48-13.231 31.85-20.443 46.4-12.085 24.39-25.37 47.88-38.516 71.67-8.325 15.07-13.208 31.59-20.074 47.13-2.183 4.94-10.336 15.75-13.952 21.07-.424.24-20.265 8.52-20.076 8.5-15.212 1.79-31.909 1.16-47.34-.06-5.984-.48-19.041-4.18-23.053-9.54-3.99-7.54-2.166-10.18-13.071-10.68-10.595-6.59-17.417-41.62-25.252-54.92-7.766-13.19-16.542-28.49-24.591-41.77-5.655-9.33-5.927-21.89-15.813-30.82-6.47-9.5-10.98-31.86-17.448-43.15-8.406-14.68-16.679-29.54-25.529-44-6.286-16.2-9.216-19.7-17.027-33-6.813-11.6-11.75-31.21-18.531-44.47a2136 2136 0 0 0-44.12-82.08c-2.987-5.32-6.629-12.01-10.338-17.16-9.839-11.9-11.218-29.82-18.097-42.39-12.453-22.17-25.539-43.79-36.101-67.04-2.272-5-9.417-13.62-10.772-18.11-13.391-44.34-40.722-80.6-59.835-122.41-5.746-12.57-10.142-25.94-16.333-38.32-20.536-37.64-42.348-74.28-57.516-114.59-2.719-7.21-8.076-14.59-11.121-21.81-2.887-6.85-5.33-13.98-8.527-20.69-6.28-11.33-22.858-37.143-25.358-48.636.62-4.359-1.549-19.257-1.698-24.634-.198-7.141.293-10.563 1.159-17.715.634-6.01 1.236-10.803 3.98-16.352 1.603-3.242 3.515-4.894 4.398-8.374 5.556-12.514 11.223-19.05 16.654-29.877 7.639-15.232 15.228-31.478 23.888-46.31 6.783-11.617 7.311-22.423 12.345-32.236 13.566-26.445 28.811-51.806 42.474-78.12 6.618-12.745 11.704-29.18 18.013-42.114 13.205-27.068 28.746-52.038 42.44-78.802 6.33-12.372 11.59-29.889 17.664-41.399 9.164-17.365 17.426-34.712 26.829-51.916 4.761-8.712 10.466-16.717 15.05-25.407 6.203-11.756 9.328-25.763 14.679-37.686 2.515-5.602 8.601-13.927 11.405-19.859 5.191-10.981 10.435-21.507 16.166-32.234 4.828-9.035 10.041-17.181 15.057-25.981 3.339-5.859 6.188-13.513 9.485-19.619 5.59-10.355 11.237-20.657 16.674-31.095 4.487-8.615 5.922-19.339 10.137-27.742l74.906-148.473c7.708-15.099 19.425-32.173 26.856-48.18 5.758-12.403 11.339-25.721 16.497-38.404"/><path fill="#fefefe" d="m501.341 69.877-.776-2.11 1.13-1.456c6.023-.799 20.518-2.968 25.591-.312l.606 3.164.167 5.998c.012 5.255-.067 10.865.057 16.086 3.329 1.417 11.875.852 15.907.801l-.132 15.896.316 16.228 15.8.238-.161 11.425.277 15.426c3.298 1.602 11.809.909 15.905.827l-.164 15.868c.042 4.367.322 12.011.053 16.108l.856 1.236c3.346-.399 6.594-1.242 9.487.113 1.74 2.768 1.162 5.788 1.038 9.228.738 5.956.741 10.736.805 16.701 3.337 1.48 11.901.785 15.974.688l-.194 15.9.263 16.293c5.429.2 10.481.144 15.898.07l-.214 11.554.287 15.456c3.313 1.529 11.813.868 15.883.789l-.139 15.869.37 16.334c3.67.487 7.932-.076 11.673-.413-.084 4.631-.438 12.626-.113 16.944l.329 10.422c3.283 1.725 11.767 1.08 15.909 1.033l-.119 15.624.224 15.306c3.282 1.652 11.791.966 15.898.893l-.132 15.822.23 11.287c3.274 1.737 11.765.984 15.91.892l-.179 15.83.389 16.359c3.691.508 7.839-.076 11.591-.439-.095 4.726-.388 10.962-.273 15.571l.549 11.874c3.789 1.378 11.518 1.003 15.853 1.016l-.047 15.594.204 15.33c3.298 1.559 11.797.92 15.869.856l-.102 15.813.221 11.37c3.329 1.396 11.893.969 15.913.973l-.116 15.631.36 16.384c4.084.201 7.583-.051 11.649-.291-.057 4.285-.36 11.645-.133 15.689l.413 16.397c5.036.908 10.602.743 15.757.776l-.075 10.694.239 15.714c3.318 1.45 11.861.934 15.897.908l-.1 15.8.303 16.379a445 445 0 0 0 15.749.45l-.077 10.798.225 15.693c3.315 1.476 11.844.979 15.888.964l-.121 15.69c.068 3.873-.019 14.173.942 17.267 4.133-.278 6.289-1.085 9.678.558 1.042 3.228.804 4.857.7 8.231.81 6.413.839 10.884.896 17.321 3.827 1.244 11.586.883 15.908.884l-.098 15.685.325 16.504 15.786.394-.114 10.922.21 15.567c3.321 1.444 11.869.937 15.905.913l-.113 15.735.363 16.342c5.22 1.085 5.724-.403 11.535 1.779-.688 4.506-1.022 11.446.258 15.883.007 2.88-.092 6.52.052 9.325 3.293 1.653 11.809 1.118 15.92 1.109l-.156 15.58.236 15.381c3.313 1.518 11.824.849 15.89.766l-.106 15.878.312 11.999 15.818.183-.147 15.788.253 16.279c4.106.187 7.744.001 11.823-.178l-.698 14.871c.262 3.319 1.149 8.857-.364 11.523-2.607 2.009-7.105 1.519-10.573 1.524-.242 5.443-.453 10.503-.417 15.968l.104 15.957-15.741.134-.37.953-.02 15.687c.01 2.66.247 8.11-.467 10.39l-1.173.66c-5.468-.3-8.627 0-13.993.48l-.185 15.03-.303 16.75c-1.98 6.22 3.362 10.81-2.228 16.06-5.548 1.02-10.013-2.07-13.401-1.05l-.351 1.14c.123 3.93.945 11.6-.803 14.59-4.396 1.38-8.793.87-10.805 2.22l-.173 11.1-.29 15.95c-1.273 5.12 1.775 10.88-.275 15.45-7.754 3.06-12.237-3.38-15.395-.24l-.095 16.81c-3.636.02-12.663-.21-15.682.74l-.299 11.43-.206 15.81c-2.351 5.52 3.691 11.68-2.208 16.1-4.146.26-7.718-.34-11.81-.86l-1.722 1.99c-.052 4.82.787 10.82-2.067 13.79-2.258.45-8.624 1.12-9.776 1.93l-.166 11.2-.09 15.92c-3.251.01-13.059-.24-15.644.52l-.276 15.52-.064 15.97c-3.255.01-13.065-.2-15.671.53l-.284 11.52-.226 15.87c-2.054 4.52 2.31 12.69-1.273 15.19-3.512 2.44-9.403.32-12.563-1.52l-1.864 1.57-.257 16.75c-3.348 5.41 4.28 11.6-2.726 16.31-5.071.23-7.204-.87-12.063-2.12l-.85 1.02c-3.672 5.48-6.059 1.33-11.665 2.16l1.309 4.78 1.63.81c3.784-1.64 3.413-2.22 6.684-1.45 1.11 3.15 1.191 1.99.177 4.58-3.395.76-4.536.37-7.935-.26l-2.229 1.98-.095 16.3-.102 15.95c-3.287.01-13.053-.19-15.707.53l-.192 16.27c-.028 2.6.13 7.94-.611 10.14l-.913.65c1.295 4.03 3.026 9.62 1.464 13.63-4.094 3.89-9.61 2.57-14.379.38l-1.524 1.6-.103 16.8c-2.882.01-13.465-.12-15.659.41-.058 4.37.613 12.53-1.457 15.56-3.967 1.92-4.876 1.11-9.713.82.036 3.24.362 8.55-.55 11.42-.76 5.9-.688 9.82-.638 15.72l.066 15.97-15.735.09-.39.98-.064 15.69.007 6.46-.305 3.17c-3.855 2.2-11.342.37-15.421 1.67l-.169 15.99.072 15.91-15.72.12-.462 1.09.025 15.11c.121 3.74.967 11.39-.949 14.11-4.634 2.81-7.419.72-10.657 2.07l-.362 11.6.094 15.9-15.706.09-.394 1.07.027 14.86.104 16.05c-3.389 0-13.138-.25-15.88.54l-.227 11.47.07 15.94-15.671.11-.433 1.05-.033 15.11c.168 5.6 1.402 11.25-1.947 14.86-4.636 1.49-6.573.41-9.607 1.24l-.366 11.75.071 15.86c-4.095.06-12.071-.04-15.845.33l-.223 15.72.096 15.97c-3.043.02-13.545-.12-15.885.52l-.213 11.57.083 15.91c-3.09.02-13.551-.15-15.915.57q-9.75-.045-19.486-.57l-8.497.24-.186.54c-1.848-.57-13.19-1.26-15.831-1.46-.055-5.01.017-10.16.032-15.18l-.213-11.35c-3.916-1-11.548-1-15.853-1.15-.057-5.09.035-10.36.062-15.46l-.201-15.4c-1.832-.6-13.185-1.36-15.823-1.58l.094-15.05-.279-11.37c-3.031-1.19-6.182.27-9.865-2.39-2.091-2.84-1.296-9.63-1.21-13.52l-.795-16.31c-5.35-.55-10.549-.74-15.914-.99l-.007-15.41-.208-11.37c-2.8-.82-12.406-.94-15.829-1.07-.106-5.09.016-10.41.057-15.52l-.217-15.44c-2.389-.71-12.648-.95-15.726-1.09-.168-5.09-.068-10.4-.05-15.5l-.234-11.37c-1.742-.7-6.419-.51-9.796-1.35-1.718-4.85-2.324-19.31-1.987-24.8l-.186-5.88c-3.443-.82-11.978-1.02-15.884-1.22-.078-5.05.051-10.33.098-15.39l-.176-15.97c-5.46-.58-10.569-.87-16.038-1.18l.218-10.74-.24-15.49c-2.413-.7-12.427-1.04-15.495-1.21-.367-5.25-.284-10.18-.245-15.43l-.093-15.92-.508-.96c-3.559.16-5.668.44-9.132-.48-1.843-3.14-1.157-5.37-1.331-9.54-.781-4.27-.941-11.91-1.172-16.47-1.909-.55-13.216-1.31-15.895-1.52-.045-4.98.059-10.11.097-15.1l-.197-15.99c-4.421-.36-11.502.16-14.678-2.19-2.03-2.64-1.3-6.06-1.095-9.55l-.262-15.65c-1.824-.59-13.239-1.27-15.879-1.47-.075-4.95.057-10.14.105-15.11l-.191-16.02c-5.643-.69-10.338-.9-15.983-1.14l.261-10.68-.318-15.58c-3.009-1.24-5.985.2-9.904-1.56-1.661-5.13-2.256-18.86-1.873-24.48l-.115-6.16-15.903-1.34c-.088-4.96 0-10.13.012-15.11l-.217-11.33c-3.44-.96-11.927-1.04-15.851-1.2-.056-5.06.034-10.34.055-15.42l-.198-15.39c-1.833-.59-13.18-1.37-15.817-1.59l.087-15.04-.274-11.37c-3.047-1.19-6.191.28-9.87-2.39-2.075-2.84-1.318-9.63-1.249-13.51l-.76-16.32-15.936-1.26.046-15.16-.236-11.33c-2.4-.7-12.763-1.04-15.848-1.2-.09-5.05.032-10.34.07-15.41l-.209-15.43c-2.81-.82-12.294-.94-15.714-1.08-.177-5.09-.082-10.42-.069-15.53l-.226-11.37c-3.139-1.19-6.23.32-9.856-2.43-2.069-2.78-1.342-10.02-1.284-13.85l-.833-15.74c-3.398-.84-11.994-1.03-15.87-1.23-.073-5.03.053-10.31.094-15.37l-.204-15.95c-4.171-.21-11.679.08-14.633-2.28-1.951-2.59-1.283-6.29-1.12-9.65l-.285-15.501c-1.89-.543-13.131-1.285-15.787-1.493-.152-4.954-.026-10.194.01-15.171l-.304-15.181c-2.66-1.777-5.556-.552-10.023-2.321-1.52-2.812-.76-7.338-.53-10.739l-.079-15.971 10.558 1.289.36-1.215-.031-15.791c-.242-5.614.328-10.44.845-16.009q7.528.033 15.055-.049l.075-11.887c-.263-4.764.58-11.104 1.064-15.972l14.876.017.157-16.173c-.214-3.069.751-12.327 1.032-15.832 4.671-.202 10.066.046 14.792.148l.933-1.157-.015-12.207.017-14.762c3.105-.049 7.594.531 10.81.852l.375-1.224-.013-15.716c-.214-4.89.461-11.057.854-16.031l15.043.083.216-16.203c.345-3.512.424-7.548.575-11.12 4.301.14 11.311.714 15.223-.386l.109-16.293c-.144-4.266.666-11.466 1.034-15.938q7.524.035 15.037-.348l.799-16.802c-.014-4.188-.691-7.132 1.902-9.758 3.27-.337 5.619-.289 8.888-.242l.336-1.149c-.183-4.644.016-11.001.034-15.747-.237-4.198.617-11.733.986-16.159 4.974.177 9.874.424 14.85.19l.175-16.241c.345-3.493.291-7.716.336-11.291 4.349.168 11.596.819 15.518-.343l.137-16.166c-.199-3.499.675-12.224.958-16.086 5.44.087 9.687.135 15.152-.265l.731-16.901c-.025-3.231-.018-4.83.405-8.077 2.462-2.375 6.268-1.679 10.363-1.773l.367-1.107.009-15.814c-.204-4.323.567-11.547.913-16.067l14.943.075.087-16.045c-.193-4.175.675-11.529 1.061-15.917q7.445-.094 14.887-.292v-11.794c-.183-5.076.631-10.866 1.182-15.973l14.799.034.19-15.243c-.193-2.692.842-13.438 1.107-16.741 4.631-.279 10.088.004 14.788.126l1.176-1.568c-.396-3.111-.317-8.498-.369-11.799.05-4.081-.698-10.61 1.556-13.399 2.855-1.929 5.782-.996 9.284-.465l.397-1.27-.187-12.547c-.157-1.291 1.011-16.483 1.162-19.045l14.896-.261.01-11.885c-.217-5.247.294-10.533.677-15.777 5.177.074 10.134.171 15.32-.053.191-4.322.025-8.639-.083-12.963-.123-6.049.875-13.082 1.543-19.165 4.669-.104 9.827.11 14.534.204l1.018-1.625c-.168-3.612-.107-7.819-.149-11.487l.068-15.005c3.074-.055 7.601.538 10.791.862l.372-1.225-.009-15.723c-.215-4.89.46-11.056.853-16.031l15.042.083.214-16.205c.365-3.451.433-7.592.577-11.118 4.303.142 11.312.721 15.225-.382l.114-16.3c-.159-3.933.685-11.735 1.018-15.936q7.53.036 15.05-.352l.793-16.797c-.006-4.181-.68-7.134 1.901-9.758 3.271-.336 5.622-.289 8.892-.242l.337-1.149c-.183-4.642.016-11.003.034-15.747-.243-4.176.617-11.753.986-16.162 4.975.182 9.871.437 14.847.196l.169-16.224c.295-3.565.222-7.727.245-11.358 4.318.169 11.678.8 15.595-.249l.093-16.26c-.176-4.59.303-11.299.496-16.04l15.419.096.138-1.194c-.06-4.817-.423-10.695.705-15.277l1.462-.7c-.122-4.036.989-2.05-.958-5.132"/><path fill="#c1c0c1" d="m501.341 69.877-.776-2.11 1.13-1.456c6.023-.799 20.518-2.968 25.591-.312l.606 3.164.167 5.998c.012 5.255-.067 10.865.057 16.086l-.187.594c-9.304-.182-18.63.117-27.935.34l.138-1.195c-.06-4.817-.423-10.695.705-15.277l1.462-.7c-.122-4.036.989-2.05-.958-5.132"/><path fill="#414141" d="m501.341 69.877-.776-2.11 1.13-1.456c6.023-.799 20.518-2.968 25.591-.312l.606 3.164.167 5.998q-8.3-.099-16.599-.114c-3.123.228-7.618.685-10.623.662l1.462-.7c-.122-4.036.989-2.05-.958-5.132"/><path fill="#1c1c1d" d="m527.892 69.163.167 5.998q-8.3-.099-16.599-.114c-3.123.228-7.618.685-10.623.662l1.462-.7c-.122-4.036.989-2.05-.958-5.132 6.579-.299 22.874 3.362 26.551-.714"/><path fill="#a5a4a5" d="M500.837 75.71c3.005.022 7.5-.435 10.623-.663-.073 5.473.716 10.73-1.83 14.99-2.944 1.572-6.106 1.079-9.498.949-.06-4.817-.423-10.695.705-15.277"/><path fill="#c1c0c1" d="m936.215 903.951 15.818.183-.147 15.788.253 16.279c-3.559-.324-11.96-.197-15.799-.236-.277-8.858-.899-19.597-.189-28.275z"/><path fill="#414141" d="m936.215 903.951 15.818.183-.147 15.788-15.019.099-.716-12.331z"/><path fill="#c1c0c1" d="m408.097 1628.1 15.873-.06-.062 16.17.194 15.98-.195.49c-2.8-.82-12.406-.94-15.829-1.07-.106-5.09.016-10.41.057-15.52l-.217-15.44z"/><path fill="#414141" d="m408.135 1644.09 15.773.12.194 15.98-.195.49c-2.8-.82-12.406-.94-15.829-1.07-.106-5.09.016-10.41.057-15.52"/><path fill="#c1c0c1" d="M648.12 331.248c3.283 1.725 11.767 1.08 15.909 1.033l-.119 15.624.224 15.306-.159.6c-5.014.179-10.66.121-15.725.171-.17-8.902-.98-22.1-.105-30.542l-.23-1.696z"/><path fill="#414141" d="M648.12 331.248c3.283 1.725 11.767 1.08 15.909 1.033l-.119 15.624-15.004.159c-.131-5.072-.236-9.548-.761-14.624l-.23-1.696z"/><path fill="#c1c0c1" d="M528.116 91.247c3.329 1.417 11.875.852 15.907.801l-.132 15.896.316 16.228-16.055-.286-.221-19.158c.426-4.011.128-8.795-.002-12.887z"/><path fill="#414141" d="M528.116 91.247c3.329 1.417 11.875.852 15.907.801l-.132 15.896c-6.056.271-12.881 2.191-15.96-3.216.426-4.011.128-8.795-.002-12.887z"/><path fill="#c1c0c1" d="m212.086 1236.11 15.933-.09-.115 16.22.189 15.96-.187.48c-3.44-.96-11.927-1.04-15.851-1.2-.056-5.06.034-10.34.055-15.42l-.198-15.39z"/><path fill="#414141" d="m212.11 1252.06 15.794.18.189 15.96-.187.48c-3.44-.96-11.927-1.04-15.851-1.2-.056-5.06.034-10.34.055-15.42"/><path fill="#c1c0c1" d="m152.099 1116.11 15.873-.01-.08 16.12.195 16-.184.48c-2.4-.7-12.763-1.04-15.848-1.2-.09-5.05.032-10.34.07-15.41l-.209-15.43z"/><path fill="#414141" d="m152.125 1132.09 15.767.13.195 16-.184.48c-2.4-.7-12.763-1.04-15.848-1.2-.09-5.05.032-10.34.07-15.41"/><path fill="#e2e1e3" d="m680.244 1491.98-.105-1.9c-.316-6.04-1.348-8.91 2.513-13.2 3.724-1.58 9.699-.85 13.937-.66-.76 5.9-.688 9.82-.638 15.72l.066 15.97-15.735.09c-.358-5.17-.129-10.81-.038-16.02"/><path fill="#636264" d="m695.951 1491.94.066 15.97-15.735.09c-.358-5.17-.129-10.81-.038-16.02z"/><path fill="#c1c0c1" d="M904.119 843.238c3.293 1.653 11.809 1.118 15.92 1.109l-.156 15.58.236 15.381-.17.505c-4.946.193-10.671.107-15.681.139-.238-8.768-.803-19.393-.14-27.987l-.171-4.223z"/><path fill="#414141" d="M904.119 843.238c3.293 1.653 11.809 1.118 15.92 1.109l-.156 15.58-14.985.142-.77-12.104-.171-4.223z"/><path fill="#c1c0c1" d="M75.943 964.143c5.202-.054 10.658-.2 15.84-.092l.123 16.218.187 15.863-.177.547c-1.89-.543-13.131-1.285-15.787-1.493-.152-4.954-.026-10.194.01-15.171l-.304-15.181z"/><path fill="#414141" d="m76.139 980.015 15.767.254.187 15.863-.177.547c-1.89-.543-13.131-1.285-15.787-1.493-.152-4.954-.026-10.194.01-15.171"/><path fill="#c1c0c1" d="M107.954 1024.11c5.277-.02 10.755-.11 16.014-.05l-.084 16.21.242 15.89-.192.5c-3.398-.84-11.994-1.03-15.87-1.23-.073-5.03.053-10.31.094-15.37z"/><path fill="#414141" d="m108.158 1040.06 15.726.21.242 15.89-.192.5c-3.398-.84-11.994-1.03-15.87-1.23-.073-5.03.053-10.31.094-15.37"/><path fill="#c1c0c1" d="m271.946 1356.06 16.018-.01-.056 16.2.183 15.87-.18.54c-1.824-.59-13.239-1.27-15.879-1.47-.075-4.95.057-10.14.105-15.11z"/><path fill="#414141" d="m272.137 1372.08 15.771.17.183 15.87-.18.54c-1.824-.59-13.239-1.27-15.879-1.47-.075-4.95.057-10.14.105-15.11"/><path fill="#c1c0c1" d="m363.977 1536.08 15.984-.01-.077 16.2.241 15.89-.186.5c-3.443-.82-11.978-1.02-15.884-1.22-.078-5.05.051-10.33.098-15.39z"/><path fill="#414141" d="m364.153 1552.05 15.731.22.241 15.89-.186.5c-3.443-.82-11.978-1.02-15.884-1.22-.078-5.05.051-10.33.098-15.39"/><path fill="#c1c0c1" d="m303.946 1416.05 16.004-.02-.074 16.24.251 15.89-.186.5c-1.909-.55-13.216-1.31-15.895-1.52-.045-4.98.059-10.11.097-15.1z"/><path fill="#414141" d="m304.143 1432.04 15.733.23.251 15.89-.186.5c-1.909-.55-13.216-1.31-15.895-1.52-.045-4.98.059-10.11.097-15.1"/><path fill="#c1c0c1" d="m468.087 1748.11 15.94-.1-.12 16.23c.05 4.88-.06 11.2.189 15.96l-.19.48c-3.916-1-11.548-1-15.853-1.15-.057-5.09.035-10.36.062-15.46l-.201-15.4z"/><path fill="#414141" d="m468.115 1764.07 15.792.17c.05 4.88-.06 11.2.189 15.96l-.19.48c-3.916-1-11.548-1-15.853-1.15-.057-5.09.035-10.36.062-15.46"/><path fill="#c1c0c1" d="M680.13 391.213c3.274 1.737 11.765.984 15.91.892l-.179 15.83.389 16.359c-3.299-.388-12.327-.272-16.008-.307a816 816 0 0 1-.23-22.775c.273-2.082.007-7.071-.065-9.434z"/><path fill="#414141" d="M680.13 391.213c3.274 1.737 11.765.984 15.91.892l-.179 15.83c-4.619.003-8.04 1.041-12.836-.11-3.019-2.553-2.121-1.877-3.013-6.613.273-2.082.007-7.071-.065-9.434z"/><path fill="#c1c0c1" d="M588.103 211.342c3.337 1.48 11.901.785 15.974.688l-.194 15.9.263 16.293c-3.849-.331-11.732-.229-15.816-.285a1344 1344 0 0 1-.398-21.153c.446-3.121.106-7.649-.027-10.911z"/><path fill="#414141" d="M588.103 211.342c3.337 1.48 11.901.785 15.974.688l-.194 15.9c-3.827.197-8.261.596-12.052.159-3.023-.348-3.107-2.839-3.899-5.304.446-3.121.106-7.649-.027-10.911z"/><path fill="#c1c0c1" d="M560.123 151.261c3.298 1.602 11.809.909 15.905.827l-.164 15.868c.042 4.367.322 12.011.053 16.108l-15.654-.114-.323-21.038c.405-3.108.113-7.822.014-11.102z"/><path fill="#414141" d="M560.123 151.261c3.298 1.602 11.809.909 15.905.827l-.164 15.868c-3.796.19-8.265.584-12.03.156-3.022-.344-3.112-2.764-3.894-5.2.405-3.108.113-7.822.014-11.102z"/><path fill="#c1c0c1" d="M620.117 271.303c3.313 1.529 11.813.868 15.883.789l-.139 15.869.37 16.334c-3.335-.393-12.28-.299-16.049-.344l-.235-21.077c.459-3.194.132-7.731.005-11.063z"/><path fill="#414141" d="M620.117 271.303c3.313 1.529 11.813.868 15.883.789l-.139 15.869c-3.802.182-8.259.565-12.031.137-3.032-.345-3.105-2.773-3.883-5.224.459-3.194.132-7.731.005-11.063z"/><path fill="#c1c0c1" d="m332.084 1476.11 15.724-.06.079 16.25.21 15.83-.18.54c-2.413-.7-12.427-1.04-15.495-1.21-.367-5.25-.284-10.18-.245-15.43z"/><path fill="#414141" d="m332.177 1492.03 15.71.27.21 15.83-.18.54c-2.413-.7-12.427-1.04-15.495-1.21-.367-5.25-.284-10.18-.245-15.43"/><path fill="#838284" d="m892.001 1100.01-.29 15.95c-1.273 5.12 1.775 10.88-.275 15.45-7.754 3.06-12.237-3.38-15.395-.24l.17-14.71c-.164-5.79-.021-10.73.196-16.5z"/><path fill="#1c1c1d" d="M891.711 1115.96c-1.273 5.12 1.775 10.88-.275 15.45-7.754 3.06-12.237-3.38-15.395-.24l.17-14.71c2.673-.69 12.221-.49 15.5-.5"/><path fill="#838284" d="m920.065 1039.2-.303 16.75c-1.98 6.22 3.362 10.81-2.228 16.06-5.548 1.02-10.013-2.07-13.401-1.05-.234-4.25.045-10.16.119-14.54-.2-6.24-.3-10.14.254-16.4 4.426.05 11.602.51 15.559-.82"/><path fill="#1c1c1d" d="M919.762 1055.95c-1.98 6.22 3.362 10.81-2.228 16.06-5.548 1.02-10.013-2.07-13.401-1.05-.234-4.25.045-10.16.119-14.54 2.201-.6 12.605-.45 15.51-.47"/><path fill="#838284" d="m784.055 1311.2-.257 16.75c-3.348 5.41 4.28 11.6-2.726 16.31-5.071.23-7.204-.87-12.063-2.12l-.85 1.02c-.262-4.41.018-10.18.108-14.7-.186-5.62-.079-10.82.043-16.43 4.446.05 11.789.52 15.745-.83"/><path fill="#1c1c1d" d="M783.798 1327.95c-3.348 5.41 4.28 11.6-2.726 16.31-5.071.23-7.204-.87-12.063-2.12l-.85 1.02c-.262-4.41.018-10.18.108-14.7 2.6-.73 12.289-.5 15.531-.51"/><path fill="#a5a4a5" d="m333.106 392.218 14.896-.261-.13 16.093.038 15.9-15.779-.14-.187-12.547c-.157-1.291 1.011-16.483 1.162-19.045"/><path fill="#1c1c1d" d="m333.106 392.218 14.896-.261-.13 16.093c-4.202-.152-10.627-.777-14.401.517l-1.527 2.696c-.157-1.291 1.011-16.483 1.162-19.045"/><path fill="#a5a4a5" d="M169.147 724.227q7.524.035 15.037-.348l-.281 16.188.108 15.892c-3.934.024-12.505-.155-16.007.499l.109-16.293c-.144-4.266.666-11.466 1.034-15.938"/><path fill="#1c1c1d" d="M169.147 724.227q7.524.035 15.037-.348l-.281 16.188c-4.339.02-11.671-.167-15.79.098-.144-4.266.666-11.466 1.034-15.938"/><path fill="#a5a4a5" d="M425.137 212.226q7.53.036 15.05-.352l-.284 16.196.11 15.89c-4.057.009-12.346-.216-16.008.502l.114-16.3c-.159-3.933.685-11.735 1.018-15.936"/><path fill="#1c1c1d" d="M425.137 212.226q7.53.036 15.05-.352l-.284 16.196c-4.337.019-11.667-.171-15.784.092-.159-3.933.685-11.735 1.018-15.936"/><path fill="#838284" d="m799.981 1280.09-.226 15.87c-2.054 4.52 2.31 12.69-1.273 15.19-3.512 2.44-9.403.32-12.563-1.52l-1.864 1.57.216-14.8c-.201-6.2-.383-10.24.308-16.46z"/><path fill="#1c1c1d" d="M799.755 1295.96c-2.054 4.52 2.31 12.69-1.273 15.19-3.512 2.44-9.403.32-12.563-1.52l-1.864 1.57.216-14.8c2.188-.58 12.598-.43 15.484-.44"/><path fill="#a5a4a5" d="M109.194 844.181c4.671-.202 10.066.046 14.792.148l-.069 15.836.005 15.837c-3.954.016-12.327-.16-15.917.184l.157-16.173c-.214-3.069.751-12.327 1.032-15.832"/><path fill="#1c1c1d" d="M109.194 844.181c4.671-.202 10.066.046 14.792.148l-.069 15.836c-3.159-.06-13.133-.432-15.755-.152-.214-3.069.751-12.327 1.032-15.832"/><path fill="#a5a4a5" d="M305.299 452.185c4.631-.279 10.088.004 14.788.126l-.19 15.85-.034 15.797c-3.974.021-12.238-.154-15.861.211l.19-15.243c-.193-2.692.842-13.438 1.107-16.741"/><path fill="#1c1c1d" d="M305.299 452.185c4.631-.279 10.088.004 14.788.126l-.19 15.85c-4.048-.118-12.525-.926-15.705.765-.193-2.692.842-13.438 1.107-16.741"/><path fill="#c1c0c1" d="m544.207 124.172 15.8.238-.161 11.425.277 15.426-.169.549c-4.836.236-10.699.098-15.621.116-.167-5.7-.745-16.41-.143-21.646z"/><path fill="#414141" d="m544.207 124.172 15.8.238-.161 11.425c-8.095.245-13.572 3.375-15.656-5.555z"/><path fill="#c1c0c1" d="M604.146 244.223c5.429.2 10.481.144 15.898.07l-.214 11.554.287 15.456-.165.508c-4.966.175-10.577.093-15.597.121-.31-5.841.068-11.615-.338-17.745z"/><path fill="#414141" d="M604.146 244.223c5.429.2 10.481.144 15.898.07l-.214 11.554c-5.286.232-12.118 1.326-15.813-1.66z"/><path fill="#c1c0c1" d="m348.097 1508.13 15.892-.04-.073 16.19.061 11.8c-5.46-.58-10.569-.87-16.038-1.18l.218-10.74-.24-15.49z"/><path fill="#414141" d="m348.157 1524.16 15.759.12.061 11.8c-5.46-.58-10.569-.87-16.038-1.18z"/><path fill="#c1c0c1" d="m92.093 996.132 15.898-.03-.075 16.228.038 11.78c-4.171-.21-11.679.08-14.633-2.28-1.951-2.59-1.283-6.29-1.12-9.65l-.285-15.501z"/><path fill="#414141" d="m92.202 1012.18 15.714.15.038 11.78c-4.171-.21-11.679.08-14.633-2.28-1.951-2.59-1.283-6.29-1.12-9.65"/><path fill="#c1c0c1" d="m288.091 1388.12 15.861-.03-.059 16.2.053 11.76c-4.421-.36-11.502.16-14.678-2.19-2.03-2.64-1.3-6.06-1.095-9.55l-.262-15.65z"/><path fill="#414141" d="m288.173 1404.31 15.72-.02.053 11.76c-4.421-.36-11.502.16-14.678-2.19-2.03-2.64-1.3-6.06-1.095-9.55"/><path fill="#c1c0c1" d="m256.079 1328.11 15.845-.03-.039 16.21.061 11.77c-5.643-.69-10.338-.9-15.983-1.14l.261-10.68-.318-15.58z"/><path fill="#414141" d="m256.224 1344.24 15.661.05.061 11.77c-5.643-.69-10.338-.9-15.983-1.14z"/><path fill="#e2e1e3" d="M919.933 996.757c6.675-.462 9.281-.69 15.97.196l-.02 15.687c.01 2.66.247 8.11-.467 10.39l-1.173.66c-5.468-.3-8.627 0-13.993.48l-.148-12.11z"/><path fill="#838284" d="M922.868 1012.7c4.147.22 8.823.02 13.015-.06.01 2.66.247 8.11-.467 10.39l-1.173.66c-5.468-.3-8.627 0-13.993.48l-.148-12.11z"/><path fill="#636264" d="M922.868 1012.7c4.147.22 8.823.02 13.015-.06.01 2.66.247 8.11-.467 10.39-.786-9.46-4.335-2.37-12.548-10.33"/><path fill="#e2e1e3" d="M664.142 1524.11c-.162-4.4-.919-10.21 1.064-13.93 4.663-3.47 8.55-1.98 14.686-1.2l-.064 15.69.007 6.46-.305 3.17c-3.855 2.2-11.342.37-15.421 1.67z"/><path fill="#636264" d="m670.767 1524.69 9.061-.02.007 6.46-.305 3.17c-3.855 2.2-11.342.37-15.421 1.67l.033-11.86c1.371.08 5.578.21 6.625.58"/><path fill="#414141" d="m670.767 1524.69 9.061-.02.007 6.46c-3.042-3.06-6.669-.85-10.402-5.03z"/><path fill="#a5a4a5" d="M468.391 124.633c4.318.169 11.678.8 15.595-.249l-.108 11.585.024 15.993c-4.003.033-12.276-.106-15.925.253l.169-16.224c.295-3.565.222-7.727.245-11.358"/><path fill="#1c1c1d" d="M468.391 124.633c4.318.169 11.678.8 15.595-.249l-.108 11.585-15.732.022c.295-3.565.222-7.727.245-11.358"/><path fill="#a5a4a5" d="m228.008 636.337-.119 11.653.01 15.975c-4 .032-12.274-.111-15.92.247l.175-16.241c.345-3.493.291-7.716.336-11.291 4.349.168 11.596.819 15.518-.343"/><path fill="#1c1c1d" d="m228.008 636.337-.119 11.653c-4.436-.012-11.491-.243-15.735-.019.345-3.493.291-7.716.336-11.291 4.349.168 11.596.819 15.518-.343"/><path fill="#e2e1e3" d="M800.222 636.333a445 445 0 0 0 15.749.45l-.077 10.798.225 15.693-.17.534c-5.289.317-9.808.026-15.063-.239-.266-4.851-.11-10.521-.099-15.437-.442-2.337-.484-9.105-.565-11.799"/><path fill="#636264" d="M800.222 636.333a445 445 0 0 0 15.749.45l-.077 10.798c-4.361.351-10.607.394-15.107.551-.442-2.337-.484-9.105-.565-11.799"/><path fill="#a5a4a5" d="m168.004 756.458-.087 11.563.006 15.947c-4.685.039-11.416-.088-15.933.199l.216-16.203c.345-3.512.424-7.548.575-11.12 4.301.14 11.311.714 15.223-.386"/><path fill="#1c1c1d" d="m168.004 756.458-.087 11.563c-4.295-.022-11.637-.281-15.711-.057.345-3.512.424-7.548.575-11.12 4.301.14 11.311.714 15.223-.386"/><path fill="#a5a4a5" d="m424.005 244.462-.088 11.559.007 15.945c-4.686.04-11.416-.087-15.935.201l.214-16.205c.365-3.451.433-7.592.577-11.118 4.303.142 11.312.721 15.225-.382"/><path fill="#1c1c1d" d="m424.005 244.462-.088 11.559c-4.267-.022-11.675-.285-15.714-.059.365-3.451.433-7.592.577-11.118 4.303.142 11.312.721 15.225-.382"/><path fill="#e2e1e3" d="m860.237 756.378 15.786.394-.114 10.922.21 15.567-.163.539c-6.111.281-9.238.088-15.265-.428l.08-15.273c-.43-2.339-.458-9.033-.534-11.721"/><path fill="#636264" d="m860.237 756.378 15.786.394-.114 10.922-15.138.405c-.43-2.339-.458-9.033-.534-11.721"/><path fill="#e2e1e3" d="M768.201 576.062c5.036.908 10.602.743 15.757.776l-.075 10.694.239 15.714-.165.558c-6.288.251-8.962.133-15.164-.513l.054-15.125c-.435-3.045-.599-8.257-.806-11.488z"/><path fill="#636264" d="M768.201 576.062c5.036.908 10.602.743 15.757.776l-.075 10.694c-4.257.379-10.624.456-15.036.634-.435-3.045-.599-8.257-.806-11.488z"/><path fill="#a5a4a5" d="M184.983 707.077c-.014-4.188-.691-7.132 1.902-9.758 3.27-.337 5.619-.289 8.888-.242l.05 11.16-.683 15.782c-2.214-.1-9.235-.582-10.956-.14z"/><path fill="#1c1c1d" d="M184.983 707.077c-.014-4.188-.691-7.132 1.902-9.758 3.27-.337 5.619-.289 8.888-.242l.05 11.16c-3.389-.173-7.654-.207-10.84-1.16"/><path fill="#a5a4a5" d="M440.98 195.077c-.006-4.181-.68-7.134 1.901-9.758 3.271-.336 5.622-.289 8.892-.242l.049 11.159-.679 15.78c-2.216-.101-9.238-.593-10.956-.142z"/><path fill="#1c1c1d" d="M440.98 195.077c-.006-4.181-.68-7.134 1.901-9.758 3.271-.336 5.622-.289 8.892-.242l.049 11.159c-3.391-.174-7.652-.209-10.842-1.159"/><path fill="#a5a4a5" d="M244.986 586.919c-.025-3.231-.018-4.83.405-8.077 2.462-2.375 6.268-1.679 10.363-1.773l.17 10.184c-.478 6.007-.721 10.8-.764 16.827-2.533-.199-8.869-.959-10.905-.26z"/><path fill="#1c1c1d" d="M244.986 586.919c-.025-3.231-.018-4.83.405-8.077 2.462-2.375 6.268-1.679 10.363-1.773l.17 10.184c-3.126 2.071-7.564.662-10.938-.334M93.13 876.169l14.875.017-.14 16.205-15.8-.25c-.263-4.764.58-11.104 1.064-15.972M484.575 92.083l15.419.097-.129 15.774-15.786.17c-.176-4.59.303-11.299.496-16.04M136.947 784.084l15.043.083-.133 15.817-15.764.131c-.214-4.89.461-11.057.854-16.031M392.947 272.084l15.042.083-.136 15.814-15.759.134c-.215-4.89.46-11.056.853-16.031M76.935 904.077q7.528.033 15.055-.049l-.134 15.902-15.766.156c-.242-5.614.328-10.44.845-16.009"/><path fill="#636264" d="m936.207 979.99 15.703-.081.104 15.957-15.741.134c-.366-5.031-.135-10.906-.066-16.01"/><path fill="#1c1c1d" d="m257.043 544.081 14.943.075-.126 15.839-15.73.153c-.204-4.323.567-11.547.913-16.067"/><path fill="#636264" d="m663.94 1551.96.072 15.91-15.72.12c-.344-4.9-.134-10.94-.094-15.94zM588.584 1671.9l15.321.05.07 15.94-15.671.11c-.225-6.07-.48-10.02.28-16.1"/><path fill="#1c1c1d" d="M273.134 512.194q7.445-.094 14.887-.292l-.164 16.069-15.784.14c-.193-4.175.675-11.529 1.061-15.917"/><path fill="#414141" d="M136.133 1100.05c4.801-.01 11.037-.19 15.725 0l.241 16.06-.183.55c-2.81-.82-12.294-.94-15.714-1.08-.177-5.09-.082-10.42-.069-15.53M484.119 1792.03c4.384-.01 11.608-.23 15.771.03l.214 16.07-.186.54c-1.848-.57-13.19-1.26-15.831-1.46-.055-5.01.017-10.16.032-15.18M920.119 875.308c3.313 1.518 11.824.849 15.89.766l-.106 15.878c-4.827.006-7.672 1.42-12.89.389-2.81-1.97-1.974-1.403-3.039-5.491.391-3.064.083-7.798-.025-11.037z"/><path fill="#636264" d="m620.359 1612.03 15.528-.06.094 15.9-15.706.09c-.277-5.39-.067-10.55.084-15.93"/><path fill="#414141" d="M664.134 363.211c3.282 1.652 11.791.966 15.898.893l-.132 15.822-14.912.807-.85-12.226-.163-4.696z"/><path fill="#1c1c1d" d="M197.129 664.022c4.974.177 9.874.424 14.85.19l-.137 15.727-15.699.242c-.237-4.198.617-11.733.986-16.159M453.13 152.019c4.975.182 9.871.437 14.847.196l-.135 15.72-15.698.246c-.243-4.176.617-11.753.986-16.162"/><path fill="#a5a4a5" d="m452.144 168.181 15.698-.246.126 15.978-15.858.015c-.183-4.642.016-11.003.034-15.747M196.143 680.181l15.699-.242.123 15.975-15.856.014c-.183-4.644.016-11.001.034-15.747"/><path fill="#414141" d="m392.142 1612.06 15.709-.03.246 16.07-.179.55c-2.389-.71-12.648-.95-15.726-1.09-.168-5.09-.068-10.4-.05-15.5"/><path fill="#1c1c1d" d="m289.203 484.135 14.799.034-.177 15.855c-3.759 1.12-11.569.311-15.804.084-.183-5.076.631-10.866 1.182-15.973"/><path fill="#a5a4a5" d="m76.09 920.086 15.766-.156.106 16.036-15.841-.089z"/><path fill="#414141" d="M168.139 1160.03c4.538-.01 11.327-.22 15.685.03l.205 16.39-15.936-1.26z"/><path fill="#1c1c1d" d="M859.759 1175.96c-2.351 5.52 3.691 11.68-2.208 16.1-4.146.26-7.718-.34-11.81-.86l-1.722 1.99-.134-.84.443-15.91c2.112-.68 12.561-.48 15.431-.48"/><path fill="#636264" d="M784.122 603.246c3.318 1.45 11.861.934 15.897.908l-.1 15.8-15.355.181-.607-16.331z"/><path fill="#414141" d="M452.185 1732.04c4.509-.02 11.356-.28 15.677.03l.225 16.04-.173.56c-1.832-.6-13.185-1.36-15.823-1.58zM196.182 1220.04c4.483-.02 11.395-.27 15.682.04l.222 16.03-.174.56c-1.833-.59-13.18-1.37-15.817-1.59zM424.115 1672.05c4.011-.02 12.024-.26 15.715.04l.206 16.36c-5.35-.55-10.549-.74-15.914-.99z"/><path fill="#838284" d="m859.965 1160.15-.206 15.81c-2.87 0-13.319-.2-15.431.48-.201-6.13-.169-10.37.2-16.49z"/><path fill="#a5a4a5" d="m256.13 560.148 15.73-.153.077 15.909-15.816.058zM392.094 288.115l15.759-.134.063 15.971-15.813-.114zM136.093 800.115l15.764-.131.059 15.964-15.81-.117z"/><path fill="#636264" d="M844.102 723.305c3.827 1.244 11.586.883 15.908.884l-.098 15.685-15.327.186-.679-16.161z"/><path fill="#1c1c1d" d="M348.689 364.295c5.177.074 10.134.171 15.32-.053l-.186 16.03c-5.214-.088-10.612-.258-15.811-.2-.217-5.247.294-10.533.677-15.777"/><path fill="#838284" d="m724.071 1431.21-.103 16.8c-2.882.01-13.465-.12-15.659.41-.215-5.69-.643-10.81.36-16.43 4.416.07 11.45.56 15.402-.78M756.035 1372.06l-.102 15.95c-3.287.01-13.053-.19-15.707.53-.19-6.16-.381-10.35.303-16.54z"/><path fill="#414141" d="M228.123 1280.01c3.966-.01 12.031-.25 15.721.05l.17 16.4-15.903-1.34c-.088-4.96 0-10.13.012-15.11"/><path fill="#838284" d="m816 1252.07-.064 15.97c-3.255.01-13.065-.2-15.671.53-.18-5.61-.062-10.95.044-16.56z"/><path fill="#636264" d="m544.271 1764.04 15.65-.12.096 15.97c-3.043.02-13.545-.12-15.885.52-.028-5.46.019-10.91.139-16.37"/><path fill="#838284" d="m876.041 1131.17-.095 16.81c-3.636.02-12.663-.21-15.682.74-.07-5.53-.049-11.05.062-16.57 4.428-.01 11.77.36 15.715-.98M832.01 1220.11l-.09 15.92c-3.251.01-13.059-.24-15.644.52-.201-6.26-.4-10.32.349-16.61z"/><path fill="#636264" d="m604.205 1644 15.703-.11.104 16.05c-3.389 0-13.138-.25-15.88.54zM724.127 483.24c3.298 1.559 11.797.92 15.869.856l-.102 15.813-14.684.434c-1.121-3.975-1.114-12.137-1.269-16.566zM876.119 783.261c3.321 1.444 11.869.937 15.905.913l-.113 15.735-15.237.225c-.45-3.664-.564-12.361-.718-16.334zM740.115 511.279c3.329 1.396 11.893.969 15.913.973l-.116 15.631-15.348.23c-.382-5.386-.466-10.902-.616-16.307zM543.919 1791.98l.083 15.91c-3.09.02-13.551-.15-15.915.57-.042-5.49.051-10.97.279-16.45z"/><path fill="#a5a4a5" d="m272.073 528.111 15.784-.14.066 15.991c-4.791.04-11.288-.078-15.937.194z"/><path fill="#636264" d="M816.119 663.274c3.315 1.476 11.844.979 15.888.964l-.121 15.69-15.089.248c-.541-3.086-.711-12.732-.848-16.368z"/><path fill="#1c1c1d" d="M229.103 604.085c5.44.087 9.687.135 15.152-.265l-.383 16.198c-4.23.034-11.737-.13-15.727.153-.199-3.499.675-12.224.958-16.086"/><path fill="#636264" d="M708.117 451.3c3.789 1.378 11.518 1.003 15.853 1.016l-.047 15.594-15.2.157c-.44-3.023-.646-12.659-.797-16.159z"/><path fill="#1c1c1d" d="M724.272 1416.16c5.694-.61 8.375-.83 14.238-.56 1.295 4.03 3.026 9.62 1.464 13.63-4.094 3.89-9.61 2.57-14.379.38l-1.524 1.6z"/><path fill="#636264" d="m575.918 1732.01.071 15.86c-4.095.06-12.071-.04-15.845.33-.136-6.07-.111-10.18.328-16.27z"/><path fill="#a5a4a5" d="m484.079 108.124 15.786-.17.076 16.032c-4.048-.021-12.298-.309-15.955.398z"/><path fill="#e2e1e3" d="M935.838 964.731c4.846-.644 11.476-.644 16.489-.79-.242 5.443-.453 10.503-.417 15.968l-15.703.081z"/><path fill="#1c1c1d" d="M365.469 332.114c4.669-.104 9.827.11 14.534.204l-.085 15.846c-4.236-.212-10.674-.949-14.472.375l-1.52 2.74c-.123-6.049.875-13.082 1.543-19.165"/><path fill="#e2e1e3" d="m844.585 740.06 15.327-.186.325 16.504c-5.084-.16-11.375.423-14.867-3.065-1.891-3.652-1.043-8.986-.785-13.253M647.988 1536.39c4.827-.42 11.166-.34 16.121-.42l-.169 15.99-15.742.09zM543.985 1748.15c5.086-.22 11.007-.01 16.159.05l-.223 15.72-15.65.12z"/><path fill="#a5a4a5" d="m243.872 620.018.05 15.973c-3.922-.012-12.412-.271-15.914.346l.137-16.166c3.99-.283 11.497-.119 15.727-.153"/><path fill="#e2e1e3" d="m784.564 620.135 15.355-.181.303 16.379a293 293 0 0 1-15.549-.972c-.393-4.791-.172-10.363-.109-15.226"/><path fill="#a5a4a5" d="m379.918 348.164.016 15.807c-4.02.014-12.249-.189-15.925.271.191-4.322.025-8.639-.083-12.963l1.52-2.74c3.798-1.324 10.236-.587 14.472-.375"/><path fill="#e2e1e3" d="m876.674 800.134 15.237-.225.363 16.342c-5.345-.033-11.183.779-14.849-2.874-1.685-3.273-.918-9.318-.751-13.243M603.9 1627.98c6.552-.02 9.471-.05 15.981 1.05l.027 14.86-15.703.11zM708.723 468.067l15.2-.157.204 15.33-.186.537c-4.922.223-10.308.001-15.269-.099zM740.564 528.113l15.348-.23.36 16.384-15.537-.749c-.407-4.378-.188-10.854-.171-15.405M816.797 680.176l15.089-.248c.068 3.873-.019 14.173.942 17.267-3.066-1.599-11.807-1.435-15.755-1.578-.525-4.481-.302-10.796-.276-15.441"/><path fill="#636264" d="M647.855 1584.19c.121 3.74.967 11.39-.949 14.11-4.634 2.81-7.419.72-10.657 2.07-.126-5.76-.42-10.78.466-16.49zM576.778 1703.88l11.06.28c.168 5.6 1.402 11.25-1.947 14.86-4.636 1.49-6.573.41-9.607 1.24-.137-5.77-.447-10.65.494-16.38"/><path fill="#c1c0c1" d="m664.138 368.507.85 12.226 14.912-.807.23 11.287-.183.565c-20.763 1.004-16.521-5.572-15.809-23.271M919.974 886.85c1.065 4.088.229 3.521 3.039 5.491 5.218 1.031 8.063-.383 12.89-.389l.312 11.999c-2.633-.472-12.854-.207-16.055-.175z"/><path fill="#e2e1e3" d="M528.366 1792.01c-.224-3.38-.847-6.68.684-9.6 3.756-2.21 9.812-1.59 15.082-2l-.213 11.57z"/><path fill="#c1c0c1" d="M424.102 1660.19c5.367.34 10.459.39 15.826.46l-.098 11.44c-3.691-.3-11.704-.06-15.715-.04l-.208-11.37zM484.096 1780.2c5.337.41 10.515.37 15.861.39l-.067 11.47c-4.163-.26-11.387-.04-15.771-.03l-.213-11.35zM196.088 1208.2c5.241.42 10.602.4 15.867.47l-.091 11.41c-4.287-.31-11.199-.06-15.682-.04l-.274-11.37zM392.08 1600.21c5.059.54 10.684.44 15.81.48l-.039 11.34-15.709.03-.234-11.37z"/><path fill="#e2e1e3" d="M619.92 1600.98c6.151.04 10.161-.01 16.329-.61l-.362 11.6-15.528.06c.32-1.7-.303-8.9-.439-11.05"/><path fill="#838284" d="M892.917 1071.82c3.169.1 7.828.4 10.865.28.123 3.93.945 11.6-.803 14.59-4.396 1.38-8.793.87-10.805 2.22l-.173-.62c1.079-3.36-.376-10.48.916-16.47"/><path fill="#c1c0c1" d="M452.086 1720.21c5.017.55 10.768.39 15.868.39l-.092 11.47c-4.321-.31-11.168-.05-15.677-.03l-.279-11.37z"/><path fill="#414141" d="M636.231 304.295c3.67.487 7.932-.076 11.673-.413-.084 4.631-.438 12.626-.113 16.944-3.603-1.405-6.442-.235-10.687.436z"/><path fill="#c1c0c1" d="M136.081 1088.21c5.08.51 10.653.46 15.792.54l-.015 11.3c-4.688-.19-10.924-.01-15.725 0l-.226-11.37zM228.093 1268.2c5.309.46 10.495.44 15.815.5l-.064 11.36c-3.69-.3-11.755-.06-15.721-.05l-.217-11.33zM168.087 1148.22c5.353.48 10.514.52 15.878.61l-.141 11.23c-4.358-.25-11.147-.04-15.685-.03l-.236-11.33z"/><path fill="#414141" d="M244.129 1302.62c.298 3.25.114 6.81 2.133 9.04 3.095.92 5.82.4 9.04.07.567 5.82.677 10.56.777 16.38l-.173.55c-3.009-1.24-5.985.2-9.904-1.56-1.661-5.13-2.256-18.86-1.873-24.48M380.125 1574.54c.306 3.24.141 6.89 2.142 9.11 3.085.94 5.821.41 9.035.09.538 5.79.662 10.69.778 16.47l-.172.48c-1.742-.7-6.419-.51-9.796-1.35-1.718-4.85-2.324-19.31-1.987-24.8"/><path fill="#838284" d="m832.886 1191.82 10.999.53.134.84c-.052 4.82.787 10.82-2.067 13.79-2.258.45-8.624 1.12-9.776 1.93l-.152-.66c.991-2.99.021-11.04.862-16.43"/><path fill="#636264" d="M756.272 544.267c4.084.201 7.583-.051 11.649-.291-.057 4.285-.36 11.645-.133 15.689-3.504.003-6.968.696-10.433 1.259-1.015-4.491-.953-11.852-1.083-16.657"/><path fill="#838284" d="M740.034 1404.81c-.028 2.6.13 7.94-.611 10.14l-.913.65c-5.863-.27-8.544-.05-14.238.56-.245-5.44-.281-7.81.393-13.18l2.254 1.66z"/><path fill="#636264" d="M740.034 1404.81c-.028 2.6.13 7.94-.611 10.14-.482-9.32-4.415-1.93-12.504-10.31z"/><path fill="#414141" d="M892.274 816.251c5.22 1.085 5.724-.403 11.535 1.779-.688 4.506-1.022 11.446.258 15.883-2.836-3.242-6.869-1.392-10.817-.59-.477-5.352-.674-11.635-.976-17.072"/><path fill="#c1c0c1" d="M587.298 194.641c.738 5.956.741 10.736.805 16.701l-.198.532c-4.685.116-6.844.75-10.397-1.694-1.632-3.049-.729-9.58-.516-13.345z"/><path fill="#e2e1e3" d="m725.21 500.343 14.684-.434.221 11.37-.167.527c-4.314.086-11.068.908-14.126-1.515-1.896-2.596-.971-6.587-.612-9.948"/><path fill="#414141" d="M696.25 424.294c3.691.508 7.839-.076 11.591-.439-.095 4.726-.388 10.962-.273 15.571-2.337.367-7.419 1.05-9.417 1.68-2.222-2.796-1.797-12.708-1.901-16.812"/><path fill="#a5a4a5" d="m92.065 892.141 15.8.25.082 11.435c-5.03-.233-11.128-.82-15.957.202z"/><path fill="#e2e1e3" d="M587.947 1660.96c5.897.06 10.301-.07 16.185-.48l-.227 11.47-15.321-.05c.099-3.58-.322-7.35-.637-10.94M636.789 1567.78c3.542.1 7.495.78 11.041 1.3l.025 15.11-11.14-.31c.495-3.65.136-12.07.074-16.1"/><path fill="#414141" d="M184.789 1192.77c3.401-.4 7.065-.91 10.461-1.05.574 5.82.709 10.66.838 16.48l-.18.47c-3.047-1.19-6.191.28-9.87-2.39-2.075-2.84-1.318-9.63-1.249-13.51"/><path fill="#c1c0c1" d="M124.126 1056.16c3.529.38 7.4.03 10.974-.18.053 4.95-.034 10.9.186 15.77l-10.519.65-.833-15.74z"/><path fill="#414141" d="M440.831 1704.76c3.398-.4 7.034-.9 10.429-1.03.561 5.8.696 10.67.826 16.48l-.18.46c-3.031-1.19-6.182.27-9.865-2.39-2.091-2.84-1.296-9.63-1.21-13.52"/><path fill="#e2e1e3" d="M833.462 709.449c4.028-2.06 5.315-2.892 9.744-3.465.81 6.413.839 10.884.896 17.321l-.196.594c-5.296-.381-5.533.643-9.564-1.89-1.749-2.914-1.008-8.885-.88-12.56"/><path fill="#a5a4a5" d="M348.012 380.072c5.199-.058 10.597.112 15.811.2l.12 11.326c-4.354-.101-11.966-.575-15.941.359z"/><path fill="#e2e1e3" d="m576.578 1687.88 11.293 1.17-.033 15.11-11.06-.28c.593-4.01-.003-11.69-.2-16M559.963 1721.01c6.275.02 10.032-.04 16.321-.75l-.366 11.75-15.446-.08zM757.355 560.924c3.465-.563 6.929-1.256 10.433-1.259l.413 16.397-.16.616c-3.914-1.033-6.686.184-10.1-2.818-1.959-3.047-.884-9.032-.586-12.936"/><path fill="#414141" d="M952.139 936.201c4.106.187 7.744.001 11.823-.178l-.698 14.871c-4.035.55-6.344 2.224-9.44.744a223 223 0 0 0-1.535-9.219zM124.767 1072.4l10.519-.65c.556 5.8.678 10.65.795 16.46l-.174.47c-3.139-1.19-6.23.32-9.856-2.43-2.069-2.78-1.342-10.02-1.284-13.85"/><path fill="#c1c0c1" d="m184.029 1176.45 11.062-.51.159 15.78c-3.396.14-7.06.65-10.461 1.05z"/><path fill="#1c1c1d" d="M320.894 438.944c.05-4.081-.698-10.61 1.556-13.399 2.855-1.929 5.782-.996 9.284-.465-.123 4.755-.092 11.281-.534 15.878l-4.838-.152z"/><path fill="#c1c0c1" d="m440.036 1688.45 11.047-.51.177 15.79c-3.395.13-7.031.63-10.429 1.03zM320.127 1448.16c3.527.43 7.409.04 10.987-.19.028 4.74-.107 11.06.116 15.68l-10.117 1.48c-.781-4.27-.941-11.91-1.172-16.47zM380.125 1568.16c3.527.4 7.394.03 10.967-.2.058 4.87-.035 11.03.21 15.78-3.214.32-5.95.85-9.035-.09-2.001-2.22-1.836-5.87-2.142-9.11l-.186-5.88z"/><path fill="#1c1c1d" d="M380.94 304.201c3.074-.055 7.601.538 10.791.862-.103 4.895-.043 11.656-.547 16.379-3.212-.251-7.116-1.41-10.312-2.236z"/><path fill="#a5a4a5" d="M288.021 500.108c4.235.227 12.045 1.036 15.804-.084l.128 11.487c-4.339-.092-11.976-.554-15.932.391z"/><path fill="#1c1c1d" d="M124.921 816.203c3.105-.049 7.594.531 10.81.852-.096 4.524-.031 11.574-.539 15.874l-4.081.041-6.207-2.005z"/><path fill="#c1c0c1" d="m244.014 1296.46 11.061-.51c.064 4.92-.014 10.96.227 15.78-3.22.33-5.945.85-9.04-.07-2.019-2.23-1.835-5.79-2.133-9.04z"/><path fill="#1c1c1d" d="m65.203 935.803 10.558 1.289-.061 6.324c-.738 3.883-.492 6.179-2.464 9.653-3.997.356-3.044-2.748-7.953-1.295z"/><path fill="#636264" d="M952.289 942.419a223 223 0 0 1 1.535 9.219c3.096 1.48 5.405-.194 9.44-.744.262 3.319 1.149 8.857-.364 11.523-2.607 2.009-7.105 1.519-10.573 1.524.404-3.817-.011-17.037-.038-21.522"/><path fill="#414141" d="M65.283 951.774c4.909-1.453 3.956 1.651 7.953 1.295 1.972-3.474 1.726-5.77 2.464-9.653.046 5.556-.193 15.537.242 20.727l-.107.691c-2.66-1.777-5.556-.552-10.023-2.321-1.52-2.812-.76-7.338-.53-10.739"/><path fill="#c1c0c1" d="M637.104 321.262c4.245-.671 7.084-1.841 10.687-.436l.329 10.422-.205.496c-1.911-.481-5.337.276-9.583-.668-1.891-3.336-1.224-5.603-1.228-9.814"/><path fill="#e2e1e3" d="M698.151 441.106c1.998-.63 7.08-1.313 9.417-1.68l.549 11.874-.191.608c-4.649-.128-6.699.275-10.311-2.057-1.251-2.721-.145-5.752.536-8.745"/><path fill="#c1c0c1" d="M893.25 833.323c3.948-.802 7.981-2.652 10.817.59.007 2.88-.092 6.52.052 9.325l-.162.504c-1.595-.36-7.355-.524-9.232-.596-1.817-2.575-1.276-6.143-1.475-9.823"/><path fill="#414141" d="M576.773 185.3c3.346-.399 6.594-1.242 9.487.113 1.74 2.768 1.162 5.788 1.038 9.228l-10.306 2.194z"/><path fill="#a5a4a5" d="m320.894 438.944 5.468 1.862 4.838.152c.003 4.281.715 6.595-1.283 9.869-2.679.809-3.305.767-6.119.76l-2.535-.844c-.396-3.111-.317-8.498-.369-11.799"/><path fill="#c1c0c1" d="m320.894 438.944 5.468 1.862c-.759 4.254-1.297 6.661-2.564 10.781l-2.535-.844c-.396-3.111-.317-8.498-.369-11.799"/><path fill="#414141" d="m321.113 1465.13 10.117-1.48c.272 4.14.47 7.36.346 11.5-3.559.16-5.668.44-9.132-.48-1.843-3.14-1.157-5.37-1.331-9.54"/><path fill="#a5a4a5" d="m124.904 830.965 6.207 2.005 4.081-.041c-.052 3.967.576 6.715-1.291 9.714-3.061.883-3.983.712-7.046.498l-1.936.031z"/><path fill="#c1c0c1" d="m124.904 830.965 6.207 2.005c-.948 4.687-1.844 5.97-4.256 10.171l-1.936.031z"/><path fill="#a5a4a5" d="M380.872 319.206c3.196.826 7.1 1.985 10.312 2.236-.103 3.985.507 6.195-1.368 9.148-2.998 1.069-5.567.455-8.795.103-.168-3.612-.107-7.819-.149-11.487"/><path fill="#414141" d="M832.828 697.195c4.133-.278 6.289-1.085 9.678.558 1.042 3.228.804 4.857.7 8.231-4.429.573-5.716 1.405-9.744 3.465a414 414 0 0 1-.634-12.254"/><path fill="#15ff18" d="M499.871 304.73c9.716-.807 18.329-1.593 28.124-1.501.165 5.412.06 11.096.046 16.53l.086 3.927c.738 4.678.003 4.938 2.673 7.906 4.229 1.383 8.443-.184 12.949-.362.078 5.517.286 11.553.216 17.023l.159 8.321c.835 4.894-.041 4.653 2.937 7.291 4.038 1.079 8.445-.295 12.72-.431.072 5.125.363 11.947.184 16.931l.079 8.167c3.269 5.901 9.156 2.99 15.854 2.69l.102 17.002c.159 4.716.195 12.393.795 16.812 5.084-.584 5.44-1.452 9.409.385 2.528 3.198 1.922 11.015 1.642 15.168l1.271 10.609c4.464 1.117 9.137.866 13.751.848.412 4.675 1.255 11.711.956 16.203.414 4.641 1.176 11.15 1.337 15.653 4.482.04 9.141.152 13.605.099.398 4.367 1.339 12.147 1.058 16.26l1.189 11.762 14.858.016.118 16.279 1.031 16.458c4.942-.544 5.336-1.413 9.088.453 2.233 3.091 1.487 11.118 1.677 15.579.076 3.27.352 8.256.195 11.385 2.521 7.396 8.648 3.759 15.832 3.634l.105 12.324.207 8.398c.871 4.858.012 4.673 2.974 7.365 3.929 1.072 8.376-.294 12.649-.402.074 5.596.267 11.616.214 17.173l.151 7.883c.788 4.602.046 4.638 2.721 7.56 4.579 1.092 7.925-.856 12.872-.865l.298 12.579c.198 4.876.314 12.837.86 17.46 4.998-.725 5.399-1.61 9.35.096 2.081 2.65 1.531 11.152 1.75 15.291.341 5.449.625 11.055 1.068 16.482 3.799-.254 9.701-1.23 12.704.621 2 2.445 1.853 7.752 2.057 11.135.496 4.642 1.354 10.906 1.337 15.446l13.698-.39c.391 5.38.842 10.78.966 16.17.453 5.159 1.173 11.558 1.388 16.638 4.73-.316 8.641-1.188 12.31 1.266 2.471 4.792 1.23 5.931 2.196 9.368.859 6.498 1.341 10.94 1.535 17.483 4.812-.57 5.135-1.409 8.814.375 2.199 3.023 1.69 10.782 1.765 14.935l.297 8.582c.74 4.464-.028 4.433 2.634 6.969 4.369 1.299 8.42-.086 13.192-.076l.061 16.613.115 4.226c.9 4.776.059 4.717 2.997 7.281 4.133 1.07 8.069-.452 12.647-.447.091 5.155.377 11.808.213 16.849l.165 8.364c.844 4.854-.024 4.654 2.937 7.251 3.975 1.082 8.451-.274 12.769-.38.058 5.062.333 11.882.141 16.798l.073 8.323c3.37 6.037 9.333 2.828 15.889 2.793l.051 16.836c.201 4.777.308 12.028.814 16.572l10.951-.957c.084 7.7.611 20.656-.552 27.836l-1.06 1.064c-1.541-.145-8.037-1-8.872-.978l-1.065 17.603c-.228 4.779-.354 11.293-.836 15.909-4.855-.561-9.503-1.145-14.398-1.354l-.899 17.305-.029 10.81c-.205 4.11.038 10.04-2.13 13.27-3.345 2.14-8.255 2.43-12.052 1.72l-1.675.81-.068 16.66c-.162 24.91-8.85 10.83-15.856 15.52l-.45 17.06c-3.731-.32-11.158-1.18-14.623-1.1-2.734 20.11-8.316 26.55-13.178 45.06-1.471 5.12-2.244 7.85-2.986 13.22-4.105 2.05-10.175 4.56-11.948 8.9l-1.004 5.03-.159 15.72c-3.613.05-11.751-.21-14.686 1.01l-.006 10.32c-.818 7.39-1.563 12.99-1.281 20.42-4.013.06-8.826-.23-12.388 1.39l-2.134 2.26c-1.759 6.26-3.395 11.77-4.35 18.25.064 3.32.639 3.43-1.064 5.71-2.588.04-3.667.13-6.004 1.26l-2.01 16.97c-.163 5.25-.189 10.45-1.035 15.64-4.668-.29-9.33-.67-13.983-1.15-.218 4.29-.363 8.78-.895 13.03l-.057 15.51c-.283 4.07-.179 10.04-2.319 13.24-4.614 2.89-11.075.77-13.593 2.49l-.222 16.62c-4.386-.29-10.582-.88-14.846-.97-.852 22.58-9.287 25.73-12.884 45.18l-1.47 14.7c-3.75.03-8.895-.5-11.616 1.72-1.58 2.37-1.631 3.95-2.062 6.71a812 812 0 0 1-2.571 19.4c-3.673-.44-9.066-1.25-12.619-1.25-.315 3.73-.902 8.71-.625 12.34-.844 7.94-1.308 13.21-1.279 21.16-3.735-.1-10.129-.87-12.861 1.2-1.765 2.75-1.672 4.99-1.938 8.26-5.526 17.42-11.03 17.49-13.207 36.01-.123 5.26-.104 10.83-.853 16.01-4.777-.64-9.178-1.28-14.015-1.48l-.988 17.33-.01 10.82c-.27 3.93-.193 10.01-2.188 13.13-3.034 2.34-8.341 2.42-12.008 1.94l-1.72.84.001 16.59c-.138 4.09.153 9.79-1.798 13.16-4.521 3.49-11.57 1.04-14.179 2.59l-.393 17.06c-4.701-.24-11.818-.39-16.3-1l-11.124-.4-.226-15.71-1.06-16.14-14.173-.1c-.325-5.58-.564-11.16-.718-16.75-.221-6.2-1.436-20-8.725-22.2l-.662 3.27-1.471.9c-4.263-4.76-4.704-16.24-7.621-22.04-7.734-15.4-25.55-44.34-25.82-61.13-2.527-3.63-10.899-1.76-15.166-1.34-.569-4.82-.492-11.31-.576-16.28l-.402-16.3c-3.041-1.59-10.822-.21-14.649.19l-.977-13.25-.113-12.99c-3.609-3.66-9.916-1.61-14.855-.83l-1.051-19.47c-.993-19.79-10.231-19.35-13.368-40.74-2.846-2.84-9.747-1.34-13.618-.97-.023-5.63-.374-10.4-.808-15.99l-1.503-16.08c-2.199-.34-11.059-.11-13.762-.09.01-6.37-.054-10.4-.756-16.76l-1.283-8.46c-2.907-5.63-7.359-1.18-12.125-4.55-2.009-2.99-1.673-8.72-1.8-12.55-2.113-16.97-11.334-29.88-13.588-44.48-2.509-2.16-11.461-.4-14.931-.01-.464-4.77-.336-11.84-.396-16.79l-.304-16.16c-5.059.05-10.117.19-15.17.44-.469-4.98-.467-11.32-.608-16.42l-.08-8.82-1.439-2.56c-3.163-1.27-9.698.16-13.454.62-.88-5.87-.851-11.1-.96-17l-.184-14.38c-2.917-3.13-10.669-1.24-14.747-.76-.7-6.4-.779-13.09-.983-19.54-.099-3.89-3.713-18.01-4.795-22.8l.023-.97c-2.297-.46-2.873-.6-5.008-1.6l-.483-.23c-1.847-3.81-2.618-10.64-3.331-15.03l-1.396-1.31c-3.417-1.43-8.376-.25-12.21.29.202-4.77.018-9.87-.065-14.67-2.091-16.91-2.343-17.06-15.034-28.43-2.36-7.13-2.736-18.782-8.297-23.122-10.23-2.119-10.017-16.078-11.733-25.533-1.362-.507-4.429-1.077-5.984-1.417-2.624-3.435-2.93-23.274-.097-26.43l7.09.961c.849-5.326 1.069-11.23 1.406-16.651.286-3.456-.122-12.052-.208-15.893 4.365-.244 12.056-.267 15.793-1.886l.095-3.719c-.377-6.658.558-16.426 1.133-23.071 5.272-.106 8.033-.024 13.262.587l1.732-6.307-.122-3.425c-.307-5.558.399-16.713.595-22.671 5.554.056 11.678 1.02 15.339-2.54.113-2.931.586-6.726.875-9.72.763-6.028-2.213-10.889 1.834-15.566l3.815-.194 4.926.732c.926-4.149.704-12.485.734-17.036l-.014-16.051c5.137-.058 10.763.122 15.939.196l.092-16.233.184-12.025c4.635.036 11.98 1.596 15.648.326l.186-16.32c-.171-4.796.048-11.117.086-16.027 5.009-.085 10.769.233 15.835.39l-.11-10.81c-.116-5.194.201-11.884.302-17.191 5.219.236 10.483.79 15.69 1.275.373-5.896.57-11.839 1.75-17.62.788-4.872-.185-8.433 1.171-14.639l1.483-.786 1.785 1.363c1.155-.136 3.298-.67 4.523-.939.971-4.741 1.651-12.924 2.203-17.995.26-3.129.143-5.564 2.184-7.975 2.901-1.904 8.335-1.301 12.036-1.253.751-4.298 1.343-11.724 1.82-16.25-.336-5.261.307-11.994.654-17.364 6.22.553 11.093 2.507 14.575-3.035.027-4.022.409-8.974.607-13.072-.635-4.221-.94-6.15 1.271-9.368 3.405-1.973 9.311-1.431 13.465-1.422.811-4.503 1.049-12.959 1.26-17.696.927-4.866-.831-10.646 1.376-14.29 4.128-1.292 4.259-.426 9.167.805.997-5.121.806-12.592.861-17.977l.043-16.061c5.116-.067 10.68.087 15.833.136l.121-12.162c-.224-4.205.086-11.865.141-16.273l15.707.433.154-16.211c-.254-4.129.103-11.89.187-16.301 5.478.097 10.238.526 15.669 1.019.179-4.702.957-9.295 1.645-13.947.832-5.362-1.879-10.918 2.757-13.806 2.329.329 4.052.392 6.386.484 1.085-5.609 1.225-11.403 1.535-17.117l-.245-15.656c4.401-.189 12.065-.135 15.896-1.638l-.017-6.018c-.283-4.217.502-15.965.692-20.703 9.516-.211 12.715 3.265 15.534-6.608l.016-8.562c-.243-4.612.062-11.963.13-16.793 6.299.027 12.41 1.645 15.747-3.866l.155-7.519z"/><path fill="#5cfe5b" d="m544.12 1551.9.001 16.59c-.138 4.09.153 9.79-1.798 13.16-4.521 3.49-11.57 1.04-14.179 2.59l-.134-9.17c-.187-6.63.233-15.99.246-22.89 4.139.17 12.283.94 15.864-.28"/><path fill="#f0fcef" d="M528.01 1575.07c.306-2.6.257-3.47 1.455-5.82 3.571-2.31 9.955-1.07 14.656-.76-.138 4.09.153 9.79-1.798 13.16-4.521 3.49-11.57 1.04-14.179 2.59z"/><path fill="#5cfe5b" d="m800.179 1039.81-.068 16.66c-.162 24.91-8.85 10.83-15.856 15.52l-.199-7.66c-.312-6 .263-17.5.227-24.18 4.377.14 12.162 1.05 15.896-.34"/><path fill="#f0fcef" d="M784.056 1064.33c.279-2.85.251-4.46 1.646-7.03 4.201-2.23 9.202-1.13 14.409-.83-.162 24.91-8.85 10.83-15.856 15.52z"/><path fill="#5cfe5b" d="m680.071 1280.99-.057 15.51c-.283 4.07-.179 10.04-2.319 13.24-4.614 2.89-11.075.77-13.593 2.49l.066-2.78c-.605-6 .205-21.93.172-29.22 5.483.1 10.281.37 15.731.76"/><path fill="#f0fcef" d="m664.987 1295.86 15.027.64c-.283 4.07-.179 10.04-2.319 13.24-4.614 2.89-11.075.77-13.593 2.49l.066-2.78z"/><path fill="#8dfc8d" d="M499.871 304.73c9.716-.807 18.329-1.593 28.124-1.501.165 5.412.06 11.096.046 16.53-6.764-.396-21.298-.773-27.842 1.118z"/><path fill="#5cfe5b" d="m500.101 1584.19 10.46.16c4.08.24 14.118 1.18 17.583-.11l-.393 17.06c-4.701-.24-11.818-.39-16.3-1l-11.124-.4z"/><path fill="#8dfc8d" d="m500.101 1584.19 10.46.16 2.2 1.71c.24 5.5-1.774 9.11-1.31 14.24l-11.124-.4zM832.796 936.772l10.951-.957c.084 7.7.611 20.656-.552 27.836l-1.06 1.064c-1.541-.145-8.037-1-8.872-.978.588-6.772-.217-19.736-.467-26.965M528.127 323.686c.738 4.678.003 4.938 2.673 7.906 4.229 1.383 8.443-.184 12.949-.362.078 5.517.286 11.553.216 17.023-3.544-.419-10.984-.261-14.823-.293-.778-9.039-1.122-15.223-1.015-24.274M560.044 388.532c3.269 5.901 9.156 2.99 15.854 2.69l.102 17.002c-4.028-.362-11.213-.192-15.478-.226zM800.122 868.579c.844 4.854-.024 4.654 2.937 7.251 3.975 1.082 8.451-.274 12.769-.38.058 5.062.333 11.882.141 16.798-3.414-.37-11.103-.186-14.833-.205-.753-8.714-1.151-14.755-1.014-23.464M544.124 356.574c.835 4.894-.041 4.653 2.937 7.291 4.038 1.079 8.445-.295 12.72-.431.072 5.125.363 11.947.184 16.931-3.633-.431-10.882-.314-14.791-.368-.811-8.826-1.218-14.603-1.05-23.423M816.042 900.571c3.37 6.037 9.333 2.828 15.889 2.793l.051 16.836c-3.93-.361-11.271-.176-15.454-.202zM784.1 836.532c.9 4.776.059 4.717 2.997 7.281 4.133 1.07 8.069-.452 12.647-.447.091 5.155.377 11.808.213 16.849-3.26-.379-11.18-.206-14.784-.228-.793-8.542-1.018-14.863-1.073-23.455M768.098 808.8c.74 4.464-.028 4.433 2.634 6.969 4.369 1.299 8.42-.086 13.192-.076l.061 16.613c-3.994-.405-11.047-.263-15.274-.309-.355-7.908-.636-15.284-.613-23.197M288.042 1160.12l15.818.1-.04 15.88c-5.059.05-10.117.19-15.17.44-.469-4.98-.467-11.32-.608-16.42M664.124 596.549c.871 4.858.012 4.673 2.974 7.365 3.929 1.072 8.376-.294 12.649-.402.074 5.596.267 11.616.214 17.173-3.46-.851-10.94-.707-14.79-.761-.621-8.266-1.058-15.102-1.047-23.375M484.297 332.262c6.299.027 12.41 1.645 15.747-3.866-.312 6.63-.583 13.079-1.228 19.691-4.221-.047-10.988-.566-14.649.968-.243-4.612.062-11.963.13-16.793M408.251 483.686l15.707.433-.339 15.833c-4.721-.069-11.836-1.226-15.509.007-.224-4.205.086-11.865.141-16.273M272.109 1132.36c5.655.24 9.687.32 15.385.06l.468 18.88-1.439-2.56c-3.163-1.27-9.698.16-13.454.62-.88-5.87-.851-11.1-.96-17M424.299 451.607c5.478.097 10.238.526 15.669 1.019-.126 5.555-.189 10.159-.874 15.701-4.822-.501-10.322-1.419-14.982-.419-.254-4.129.103-11.89.187-16.301M304.04 724.285l-.554 15.938c-3.973-.179-11.703-.751-15.367-.301-.171-4.796.048-11.117.086-16.027 5.009-.085 10.769.233 15.835.39M256.195 1097.68c3.335 5.21 9.265 3.07 15.291 2.57l.439 17.73c-2.917-3.13-10.669-1.24-14.747-.76-.7-6.4-.779-13.09-.983-19.54M304.124 1192.26l15.568-.17c-.142 4.89-.579 12.27-.241 16.97-2.509-2.16-11.461-.4-14.931-.01-.464-4.77-.336-11.84-.396-16.79M228.561 844.353c5.554.056 11.678 1.02 15.339-2.54-.403 5.913-.986 12.516-1.165 18.38-3.995-.273-9.792-1.296-12.902.769-1.523 2.429-1.497 3.188-1.867 6.062-.307-5.558.399-16.713.595-22.671"/><path fill="#aef9af" d="M468.617 364.225c9.516-.211 12.715 3.265 15.534-6.608l-1.322 22.392c-4.095-.193-9.765-.989-13.197.845-1.016 1.795-1.265 2.088-1.707 4.074-.283-4.217.502-15.965.692-20.703"/><path fill="#8dfc8d" d="m424.109 1432.38 15.461-.22c-.068 5.91-.284 11.97.281 17.84-2.527-3.63-10.899-1.76-15.166-1.34-.569-4.82-.492-11.31-.576-16.28M272.009 784.174l-.389 15.963c-4.466-.143-11.278-.569-15.536-.108l-.014-16.051c5.137-.058 10.763.122 15.939.196M407.989 512.121l-.041 3.231-.432 12.819c-4.053-.128-11.643-.588-15.403-.125l.043-16.061c5.116-.067 10.68.087 15.833.136M226.356 876.756l1.732-6.307c-.422 6.885-1.086 14.71-1.242 21.529-2.848-.072-11.145-.078-13.543-.433l-1.342 7.695c-.377-6.658.558-16.426 1.133-23.071 5.272-.106 8.033-.024 13.262.587"/><path fill="#aef9af" d="M213.094 876.169c5.272-.106 8.033-.024 13.262.587-5.031 1.202-4.042.176-6.832 3.637-.431 4.122-.779 5.546-1.933 9.544-1.811.335-2.109.269-3.894.203l-.394 1.405-1.342 7.695c-.377-6.658.558-16.426 1.133-23.071"/><path fill="#5cfe5b" d="M725.215 1187.21c-.818 7.39-1.563 12.99-1.281 20.42-4.013.06-8.826-.23-12.388 1.39l-2.134 2.26c-.512-6.09-.829-12.2-.949-18.32 8.941-.2 13.491 3.5 16.752-5.75"/><path fill="#8dfc8d" d="M452.046 392.584c4.401-.189 12.065-.135 15.896-1.638-.343 5.406-.907 11.711-.945 17.057-4.046-.072-10.942-.421-14.706.237zM392.062 1369.73c3.668 5.65 8.482 2.57 15.076 2.14.206 5.86.288 12.36.83 18.16-3.609-3.66-9.916-1.61-14.855-.83zM621.013 512.023l14.858.016.118 16.279c-4.254-.394-10.414-.513-14.808-.721a860 860 0 0 1-.168-15.574M196.073 904.845c4.365-.244 12.056-.267 15.793-1.886-.405 5.667-.921 11.318-.804 16.997-3.76-.142-11.717-.874-14.781.782.286-3.456-.122-12.052-.208-15.893"/><path fill="#5cfe5b" d="M816.831 980.553c4.976.355 10.354.534 15.367.787-.228 4.779-.354 11.293-.836 15.909-4.855-.561-9.503-1.145-14.398-1.354-.314-3.429-.12-11.572-.133-15.342M695.984 1253.47c-.163 5.25-.189 10.45-1.035 15.64-4.668-.29-9.33-.67-13.983-1.15-.304-4.61.011-11.25.094-16.02 6.029 1.02 8.687 1.39 14.924 1.53M589.067 1432.89c9.437.06 12.946 3.52 16.12-6.21-.844 7.94-1.308 13.21-1.279 21.16-3.735-.1-10.129-.87-12.861 1.2-1.765 2.75-1.672 4.99-1.938 8.26-.36-3.38.034-19.86-.042-24.41M664.102 1312.23l-.222 16.62c-4.386-.29-10.582-.88-14.846-.97l-.72-15.56c4.044.16 12.186.79 15.788-.09"/><path fill="#8dfc8d" d="M589.117 451.198c4.464 1.117 9.137.866 13.751.848.412 4.675 1.255 11.711.956 16.203-4.417-.55-9.875-.615-14.396-.791a357 357 0 0 1-.311-16.26"/><path fill="#5cfe5b" d="m784.255 1071.99-.45 17.06c-3.731-.32-11.158-1.18-14.623-1.1l-.821-15.75c4.495.17 12.225 1.37 15.894-.21"/><path fill="#f0fcef" d="M816.036 1024.01c-.205 4.11.038 10.04-2.13 13.27-3.345 2.14-8.255 2.43-12.052 1.72l-1.675.81-.022-1.75c.513-3.83.688-10.67.924-14.75 5.103.49 9.85.58 14.955.7"/><path fill="#5cfe5b" d="M575.902 1493.31c-.123 5.26-.104 10.83-.853 16.01-4.777-.64-9.178-1.28-14.015-1.48-.311-3.91-.051-11.16-.033-15.32 5.79.63 9 .97 14.901.79"/><path fill="#f0fcef" d="M560.036 1535.99c-.27 3.93-.193 10.01-2.188 13.13-3.034 2.34-8.341 2.42-12.008 1.94l-1.72.84.041-1.82c.238-4.34-.15-11.91 2.479-14.5 4.325.29 9.034.31 13.396.41"/><path fill="#5cfe5b" d="m740.066 1160.16-.159 15.72c-3.613.05-11.751-.21-14.686 1.01l-.819-15.84c4.81.02 10.78-.55 15.664-.89"/><path fill="#8dfc8d" d="M484.15 1551.2c3.185 2.2 10.703 1.42 14.838 1.27l.053 15.58-14.173-.1c-.325-5.58-.564-11.16-.718-16.75M605.161 483.902c4.482.04 9.141.152 13.605.099.398 4.367 1.339 12.147 1.058 16.26l-14.203-.64a491 491 0 0 1-.46-15.719"/><path fill="#5cfe5b" d="m636.15 1373.06-1.47 14.7c-3.75.03-8.895-.5-11.616 1.72-1.58 2.37-1.631 3.95-2.062 6.71-.034-7.86-.005-15.72.087-23.59 5.02.65 10.214 1.73 15.061.46"/><path fill="#8dfc8d" d="M194.875 937.389c-.577 9.319-1.019 17.503-1.009 26.886-1.362-.507-4.429-1.077-5.984-1.417-2.624-3.435-2.93-23.274-.097-26.43zM348.247 1279.1c3.429 2.41 10.337 1.78 14.662 1.73l-.144 15.12c-2.199-.34-11.059-.11-13.762-.09.01-6.37-.054-10.4-.756-16.76M725.129 724.373l13.698-.39c.391 5.38.842 10.78.966 16.17l-14.311-1.02c-.356-5.189-.371-9.599-.353-14.76M364.268 1312.03c4.034 1.34 10.148.64 14.571.41-.238 5.14-.761 11.56-.145 16.55-2.846-2.84-9.747-1.34-13.618-.97-.023-5.63-.374-10.4-.808-15.99"/><path fill="#5cfe5b" d="M756.004 1133.01c-1.471 5.12-2.244 7.85-2.986 13.22-4.105 2.05-10.175 4.56-11.948 8.9-.112-5.05-.85-13.18-.119-17.69 5.064-6.43 8.439-1.15 15.053-4.43"/><path fill="#8dfc8d" d="M333.039 1253.54c4.304-.16 9.484-.49 13.714-.44-.578 7.49-.87 10.06.211 17.54-2.907-5.63-7.359-1.18-12.125-4.55-2.009-2.99-1.673-8.72-1.8-12.55M680.112 628.568c.788 4.602.046 4.638 2.721 7.56 4.579 1.092 7.925-.856 12.872-.865l.298 12.579c-4.411-.338-10.341-.145-14.878-.128-.575-6.807-.955-12.321-1.013-19.146M647.98 572.193c2.521 7.396 8.648 3.759 15.832 3.634l.105 12.324c-3.913-.384-10.694-.166-14.829-.159a428 428 0 0 1-1.108-15.799M228.93 1041.36l13.613-.53c-.329 5.73-.829 10.53.058 16.22l-1.396-1.31c-3.417-1.43-8.376-.25-12.21.29.202-4.77.018-9.87-.065-14.67"/><path fill="#5cfe5b" d="m816.065 1013.2-.029 10.81c-5.105-.12-9.852-.21-14.955-.7-.236 4.08-.411 10.92-.924 14.75-.791-7.6.75-16.75.579-25.34 5.602.45 9.763.5 15.329.48"/><path fill="#8dfc8d" d="M304.232 696.284c5.219.236 10.483.79 15.69 1.275l-1.079 10.984c-3.814-.613-8.77-1.885-12.181-.506-2.559 2.583-1.808 1.645-2.732 5.438-.116-5.194.201-11.884.302-17.191"/><path fill="#5cfe5b" d="m560.046 1525.17-.01 10.82c-4.362-.1-9.071-.12-13.396-.41-2.629 2.59-2.241 10.16-2.479 14.5-.476-4.76-.656-19.49 1.765-24.27.525-1.03 2.251-.78 3.816-.89 2.994.42 7.176.27 10.304.25M408.11 499.959c3.673-1.233 10.788-.076 15.509-.007-.817 19.399-13.44 4.911-15.671 15.4l.041-3.231z"/><path fill="#aef9af" d="m287.933 756.242-.343 12.116c-5.569-.68-9.937-1.531-15.489-.417l.184-12.025c4.635.036 11.98 1.596 15.648.326"/><path fill="#8dfc8d" d="M408.081 1403.02c4.979 3.22 9.307 1.33 15.373 1.11l.253 11.95c-3.041-1.59-10.822-.21-14.649.19zM576.795 425.036c5.084-.584 5.44-1.452 9.409.385 2.528 3.198 1.922 11.015 1.642 15.168-3.411-.048-6.053.216-9.043-1.402-2.436-2.884-1.844-9.931-2.008-14.151M637.02 544.776c4.942-.544 5.336-1.413 9.088.453 2.233 3.091 1.487 11.118 1.677 15.579-2.858-1.408-5.897.117-9.697-2.655-1.912-2.616-1.154-9.757-1.068-13.377M696.863 665.302c4.998-.725 5.399-1.61 9.35.096 2.081 2.65 1.531 11.152 1.75 15.291-2.415-.805-4.397-.032-8.857-1.633-2.751-3.479-2.02-8.615-2.243-13.754M757.222 784.908c4.812-.57 5.135-1.409 8.814.375 2.199 3.023 1.69 10.782 1.765 14.935-3.483-.127-5.359-.07-8.726-1.066-3.042-3.543-1.984-9.024-1.853-14.244M349.531 604.101c6.22.553 11.093 2.507 14.575-3.035-.4 2.889-1.016 6.546-1.264 9.377-10.155 4.209-2.685 6.559-12.47 9.095l-1.495 1.927c-.336-5.261.307-11.994.654-17.364"/><path fill="#aef9af" d="M244.775 832.093c.763-6.028-2.213-10.889 1.834-15.566l3.815-.194 4.926.732c-.228 4.54.294 10.596-1.548 14.222-1.615.839-2.133 1.219-3.978 1.515-1.448-.262-3.681-.772-5.049-.709"/><path fill="#8dfc8d" d="M244.775 832.093c.763-6.028-2.213-10.889 1.834-15.566l3.815-.194c-.758 4.953-2.324 11.86-.6 16.469-1.448-.262-3.681-.772-5.049-.709"/><path fill="#aef9af" d="M380.709 559.508c.927-4.866-.831-10.646 1.376-14.29 4.128-1.292 4.259-.426 9.167.805-.164 4.773.449 9.756-2.02 13.274-3.167 1.286-5.133.708-8.523.211"/><path fill="#8dfc8d" d="M364.713 587.994c-.635-4.221-.94-6.15 1.271-9.368 3.405-1.973 9.311-1.431 13.465-1.422-.524 4.465-.032 6.476-2.502 9.737-4.434 1.262-7.27.035-12.234 1.053M709.031 697.171c3.799-.254 9.701-1.23 12.704.621 2 2.445 1.853 7.752 2.057 11.135-4.928-3.364-8.738-.913-13.218-3.333-1.935-2.281-1.531-5.364-1.543-8.423M741.181 756.791c4.73-.316 8.641-1.188 12.31 1.266 2.471 4.792 1.23 5.931 2.196 9.368-4.666-1.178-8.51.454-12.973-1.259-2.227-3.733-1.448-4.362-1.533-9.375"/><path fill="#aef9af" d="M441.613 438.679c.832-5.362-1.879-10.918 2.757-13.806 2.329.329 4.052.392 6.386.484-.106 4.778.592 10.575-1.532 14.205-3.817 1.001-3.241.458-7.611-.883M332.837 646.943c.26-3.129.143-5.564 2.184-7.975 2.901-1.904 8.335-1.301 12.036-1.253-.332 4.698.391 5.303-1.942 8.578-4.612 1.48-7.74.038-12.278.65M326.111 665.877c1.155-.136 3.298-.67 4.523-.939-.419 4.342.044 11.208-1.546 14.163-2.018.924-1.928.842-4.173.561l-3.243.277c.788-4.872-.185-8.433 1.171-14.639l1.483-.786z"/><path fill="#8dfc8d" d="M321.672 679.939c.788-4.872-.185-8.433 1.171-14.639l1.483-.786 1.785 1.363c-.418 4.268-1.09 9.584-1.196 13.785z"/><path fill="#5cfe5b" d="M697.994 1236.5c-.115-3.98-1.27-12.95 2.785-14.63 2.692 1.75 3.223 4.56 4.283 7.66.064 3.32.639 3.43-1.064 5.71-2.588.04-3.667.13-6.004 1.26"/><path fill="#8dfc8d" d="M350.372 619.538c9.785-2.536 2.315-4.886 12.47-9.095.04 3.211.519 6.345-1.543 8.721-2.379 1.612-8.014.835-10.927.374"/><path fill="#368e3e" d="m245.932 1072.08.483.23c2.135 1 2.711 1.14 5.008 1.6l-.023.97c-1.46.95-1.611 1.98-2.224 3.63.636 3.92.904 4.73-.312 8.48l-.934-.01c-2.193-5.77-1.556-8.58-1.998-14.9"/><path fill="#e2e1e3" d="M508.601 1807.89q9.736.525 19.486.57l-.196 15.6c.213 4.4 1.249 12.09-1.211 15.36-2.229.58-2.366.66-4.62.41-5.653.49-15.712 0-21.707-.14-.2-5.29-.122-10.35-.059-15.64l-.376-15.38.186-.54z"/><path fill="#636264" d="m500.294 1824.05 10.777.11.632-.2c4.782.24 11.275.09 16.188.1.213 4.4 1.249 12.09-1.211 15.36-2.229.58-2.366.66-4.62.41-5.653.49-15.712 0-21.707-.14-.2-5.29-.122-10.35-.059-15.64"/><path fill="#414141" d="m500.294 1824.05 10.777.11c1.029 4.25.333 10.36.456 14.94 2.777.15 8.007.29 10.533.73-5.653.49-15.712 0-21.707-.14-.2-5.29-.122-10.35-.059-15.64"/><path fill="#c1c0c1" d="m500.104 1808.13 8.497-.24c6.692 4.24 1.548 9.92 3.102 16.07l-.632.2-10.777-.11-.376-15.38z"/><path fill="#1c1c1d" d="M920.25 1024.17c5.366-.48 8.525-.78 13.993-.48 1.499 4.16 3.226 9.34 1.724 13.6-3.833 3.63-9.85 2.57-14.339.45l-1.563 1.46z"/><path fill-opacity=".894" d="M903.769 707.743c3.101 6.856 5.645 10.697 9.328 17.137 4.051 7.081 7.218 15.863 11.196 23.019 7.652 13.765 16.815 27.773 23.542 42.028 6.72 14.241 9.544 31.755 16.636 46.24 2.028 4.142 5.658 5.262 7.335 8.475 4.273 8.188 7.428 16.909 11.62 25.204 2.604 5.151 11.748 19.304 12.105 24.135.784 6.332 1.115 8.716.584 15.203-6.802-3.855-1.487-6.843-4.44-13.095-1.936-4.099-9.288-2.635-11.339-8.423-2.317-6.537-.114-17.652-2.851-23.423l-.752 2.992c-1.162-1.311-1.1-3.44-1.325-3.528-1.726-.748-8.364-3.514-9.263-4.945-5.498-8.746-1.097-20.579-10.247-26.807-6.581-4.479-3.831-23.728-8.277-30.506-.107-.164-3.241-2.635-3.675-2.987.127-2.829.432-8.843-1.152-10.838l-2.99.105c-2.053 3.15.183 5.017-1.529 9.291-.544-6.9-3.297-9.074-4.466-14.438-.97-4.448-1.18-7.602-2.557-12.84l-2.509.222c-2.873-3.689-1.747-4.081-6.408-6.163l-.827-.361c-4.456-6.903-2.457-15.622-3.724-23.382-2.166.181-2.339.268-4.35-.427-2.051-4.807-1.799-7.877-1.874-13.03-3.31 1.239-2.497.383-5.087 3.267l-.529.594c-2.878-6.089-2.488-16.115-2.175-22.719"/><path fill-opacity=".89" d="M679.785 259.861c2.414 7.63 7.345 9.698 10.049 16.03 9.619 22.529 14.304 45.488 30.493 64.723 2.493 2.961 3.702 12.621 5.844 16.288 10.551 20.099 30.355 46.077 35.661 67.376-3.605.502-4.34.634-7.806-.872-2.3-3.911-1.142-3.961-1.489-9.086-.37-5.476-7.365-4.415-10.054-7.204-5.213-5.408-3.234-18.991-8.516-23.77-1.337-1.21-6.72-4.315-9.139-6.114-2.863-5.323-2.222-18.545-3.053-25.155l-1.027 3.114c-3.545-5.015-8.808-6.323-10.912-9.446-2.648-3.929-3.56-16.937-5.496-21.781-1.377-3.445-7.4-4.518-8.309-9.335-1.571-8.328-.091-14.121-2.313-22.675l-.89 3.211c-2.719-3.582-7.94-6.605-10.607-9.313-3.933-3.994-2.618-20.128-2.436-25.991"/><path fill-opacity=".863" d="M496.58 0h42.813c-.747 11.397 11.069 16.864 17.866 24.955 3.212 3.823 6.206 6.853 10.843 8.843 2.758 6.574 8.869 21.27 12.056 27.248-10.172-2.908-4.318 1.038-10.13-8.977-.712-1.227-6.435-2.617-8.766-5.146 3.182-.492 3.869-.563 6.881-1.97-1.084-1.856-4.596-2.16-7.811-3.835l-.578-.308c-3.032-12.978-12.593-5.89-15.325-15.608-3.472-12.354-10.754-6.94-17.809-12.167l-.223-9.545c-6.086-.105-19.04-1.285-23.211 2.094l-.156 3.197c-4.803 4.309-5.562.481-7.915 3.802l2.163 1.79c-11.868 4.594-25.06-.747-30.303 12.744-4.876 12.548-3.739 21.512-16.011 30.148a60 60 0 0 1 1.017-4.268c.917-3.211 4.743-10.441 6.462-14.16 3.646-7.886 4.544-20.406 12.228-24.59 3.279.211 8.193.912 10.973-.474 6.672-10.957 8.265-.553 15.285-7.589.669-2.914.537-3.309-.349-6.184"/><path fill="url(#a)" d="M458.215 1865.16c10.905.5 9.081 3.14 13.071 10.68 4.012 5.36 17.069 9.06 23.053 9.54 15.431 1.22 32.128 1.85 47.34.06-.189.02 19.652-8.26 20.076-8.5-5.446 14.71-12.286 10.92-18.217 19.06h-60.193c-3.515-6.92-7.794-9.23-14.673-11.97-2.462-6.34-6.513-13.35-10.457-18.87"/><path fill-opacity=".91" d="M859.743 618.908c1.671 5.404 20.913 38.197 25.295 44.935-11.384-.213-12.264-4.001-13.538-14.166-1.132 1.101-1.2 1.997-1.639 3.539l-.179.644-.031-.965c-.437-10.794-4.824-4.81-8.518-8.471-4.017-3.979-1.742-19.345-1.39-25.516"/><path fill-opacity=".89" d="M619.782 139.837c2.887 7.309 4.822 7.404 7.91 13.25 4.891 9.259 11.424 24.193 14.449 34.248-3.424-1.131-4.255-1.391-7.399-3.307-1.761-2.658-1.006-6.927-.802-10.331-2.111.043-10.939-6.031-11.563-6.943-3.837-5.602-2.808-20.629-2.595-26.917"/><path fill-opacity=".886" d="M647.741 200.609c1.639 3.711 2.671 5.229 5.186 8.406 8.347 10.544 9.951 25.187 18.341 35.349l-6.623.121c-4.873-3.159.649-4.313-2.866-12.194l-1.15 3.063c-3.23-3.96-7.149-6.79-10.575-9.831-4.043-3.589-2.476-18.757-2.313-24.914M587.743 80.608c1.737 3.734 2.822 5.46 5.344 8.686 8.222 10.518 9.864 24.924 18.185 35.059l-6.627.133c-4.87-3.155.645-4.314-2.869-12.203l-1.149 3.06c-3.286-4.099-7.348-6.949-10.781-10.055-3.702-3.35-2.246-19.101-2.103-24.68"/><path fill="url(#b)" d="M995.531 893.981c6.979 8.897 16.139 20.981 16.559 32.835-5.93-.132-16.233-8.238-15.975-17.632.531-6.487.2-8.871-.584-15.203"/><path fill-opacity=".259" d="M13.966 936.977c.826-7.199 1.84-21.138 9.78-24.258-.884 3.48-2.796 5.132-4.399 8.374-2.744 5.549-3.346 10.342-3.98 16.352-2.05 1.611-2.9 2.241-5.468 2.754-1.842 5.582 4.572 7.754-.758 12.406l-3.858.037c-1.101 1.788-1.665 2.82-2.537 4.73-.877-.017-1.957.051-2.746-.204v-18.436c1.96.527 11.332-1.321 13.966-1.755"/><path fill-opacity=".345" d="M0 957.168c.79.255 1.869.187 2.746.204.872-1.91 1.436-2.942 2.537-4.73l3.858-.037c5.33-4.652-1.084-6.824.758-12.406 2.568-.513 3.419-1.143 5.468-2.754-.866 7.152-1.357 10.574-1.159 17.715.15 5.377 2.318 20.275 1.698 24.634C9.348 966.51 21.477 968.274 0 961.592z"/><path fill-opacity=".251" d="M1012.27 928.22c4.8 14.03-.01 7.271 11.73 11.346v22.043c-8.26 3.14-8.86 1.727-11.26 10.734-.13-3.769-.05-4.618.68-8.319 4.17-1.777 4.33-1.371 6.54-4.659-.25-5.1-2.59-4.271-4.42-9.389-1.21-3.408-.12-6.178-2.25-8.669-.81-5.107-.93-7.9-1.02-13.087"/><path fill-opacity=".812" d="M485.188 0h11.392c.886 2.875 1.018 3.27.349 6.184-7.02 7.036-8.613-3.368-15.285 7.589-2.78 1.386-7.694.685-10.973.473a78 78 0 0 0 3.507-1.474c7.102-3.22 8.367-5.75 11.01-12.772"/><path fill-opacity=".376" d="M1013.29 941.307c2.13 2.491 1.04 5.261 2.25 8.669 1.83 5.118 4.17 4.289 4.42 9.389-2.21 3.288-2.37 2.882-6.54 4.659z"/><path fill-opacity=".89" d="m559.754 40.81.578.308c3.215 1.675 6.727 1.979 7.811 3.835-3.012 1.407-3.699 1.478-6.881 1.97z"/></svg>