<svg xmlns="http://www.w3.org/2000/svg" width="256" height="451" preserveAspectRatio="none" style="display:block" viewBox="0 0 1024 1804"><path fill="#fefefe" d="M381.511 151.752c3.374-18.76 9.416-27.691 18.262-44.492 1.765-3.353 7.822-8.848 9.141-12.158 6.379-16.002 12.589-39.487 24.704-52.186 10.836-11.359 31.868-26.953 48.277-27.15 12.902-.155 25.751-.396 38.813-.317 25.668-.385 47.191-.856 67.397 17.486 7.867 7.141 11.704 16.397 19.293 23.078 1.502 15.285 8.62 28.713 15.198 42.561 2.373 4.996 6.376 6.559 11.33 8.632 1.068 3.853 2.404 14.886 3.271 16.814 7.257 16.136 10.182 10.077 11.032 28.098 5.281 7.908 5.61 6.086 12.674 10.588 2.953 1.882 3.773 14.06 5.822 17.715 4.817 8.595 8.703 17.915 12.882 26.836 5.663 10.834 7.996 12.464 8.626 24.866 1.304 1.912 3.757 5.903 5.764 6.646 13.299 3.356 7.638 13.946 10.758 18.253 7.86 10.85 9.633 19.167 14.149 30.973 3.246 8.489 9.957 25.214 14.95 31.766l8.109 3.543c4.556 15.426-1.42 14.881 12.991 29.949 1.242 7.758 12.467 39.409 17.398 44.071 15.437 14.593 18.199 31.31 27.001 50.317 1.39 3.001 8.635 8.253 10.665 12.765 10.105 22.463 19.892 45.164 29.686 67.765.948 2.187 8.705 9.405 10.829 11.456 2.374 18.115 22.034 47.916 27.9 66.682.81 2.59 9.569 9.313 10.819 12.61 5.624 14.843 11.598 29.611 17.79 44.229 1.852 4.303 8.758 8.282 11.399 14.073 7.386 16.198 13.942 32.565 21.58 48.655 6.746 14.211 5.057 21.493 19.487 31.55.978 13.553 4.069 15.29 9.602 27.448 5.563 12.223 12.898 36.69 20.632 46.72 16.408 5.967 6.621 18.069 12.008 23.347 14.05 13.759 9.71 20.589 10.86 41.786.57 8.972.65 15.536.45 24.534-.86 6.035-.93 21.176-1.8 23.841-3.68 11.196-9.2 14.957-12.802 28.116-5.874 3.94-8.115 6.154-11.791 12.236-2.887 4.776-2.7 11.006-4.848 15.296-7.971 15.92-14.986 32.14-22.311 48.35-3.422 7.57-8.777 13.22-13.107 20.17-6.738 14.54-12.333 30.51-19.279 45.09-5.927 12.44-13.323 23.02-20.053 34.8-3.34 5.85-6.405 16.41-9.415 22.89-2.729 5.86-5.573 10.83-7.27 17.09-11.098 7.65-13.41 17.47-18.027 29.67-5.517 14.59-18.161 35.68-21.989 50.32-13.213 9.15-12.606 16.97-18.298 30.85-4.078 9.94-8.285 19.97-12.684 29.78-12.239 24.64-29.912 46.98-36.588 74.55-.082.35-.162.69-.24 1.04-3.066 1.79-7.749 4.84-9.205 8.18-8.895 20.47-17.964 40.98-26.903 61.48-1.546 3.54-2.859 5.63-3.865 9.42l-.198.76c-5.604 3.81-8.144 6.16-11.651 12.03-2.947 4.93-2.746 11.15-5 15.71-7.846 15.88-14.889 32.02-22.206 48.13-3.439 7.58-8.782 13.25-13.125 20.21-6.727 14.53-12.343 30.52-19.286 45.09-5.936 12.46-13.307 23-20.048 34.8-3.335 5.83-6.409 16.43-9.415 22.9-2.736 5.88-5.574 10.82-7.282 17.1-12.574 8.64-11.022 14.08-16.789 26.51-7.516 16.2-13.782 34.34-23.773 49.08-9.575 13.28-25.511 12.24-35.101 27.25H476.75c-10.641-14.67-37.854-25.35-48.337-42.47-10.166-16.6-17.355-33.34-24.986-51.11-1.307-3.04-7.552-7.86-9.259-11.52-5.817-12.47-10.561-25.9-16.371-38.35-6.549-12.76-15.045-24.65-21.551-37.42-3.652-7.17-6.049-15.38-9.534-22.71-1.317-2.76-2.871-6.05-4.038-8.86-6.004-14.47-14.874-27.22-21.664-41.23-8.854-18.27-16.95-36.94-25.322-55.43-2.096-4.55-6.92-7.02-8.903-10.97-5.703-11.34-9.858-23.92-15.23-35.39-2.863-6.12-9.573-11.85-12.811-18.36-11.054-22.23-17.858-43.61-29.329-65.74-6.772-13.06-16.354-27-22.181-39.54-6.847-14.72-13.088-32.3-20.015-47.27-1.52-3.29-7.035-6.25-8.457-9.72-9.697-23.66-21.557-46.14-31.275-69.75-1.675-4.07-6.913-5.66-9.357-11.29-6.59-15.18-12.864-31.19-20.258-45.93-4.076-8.13-14.684-21.87-17.618-29.41-5.52-14.2-9.815-24.47-16.652-38.34-6.291-12.76-13.439-23.96-19.35-36.75-8.48-18.34-17.049-36.873-25.783-55.105-1.343-2.804-5.5-5.572-8.118-7.379-6.441-25.2-15.97-36.389-14.847-64.432-.453-32.653 6.188-51.096 23.592-78.022 18.645-28.846 19.732-61.135 46.422-87.728 3.668-21.14 24.389-64.392 39.991-80.021 3.374-18.703 9.667-28.334 18.641-45.053 1.708-3.212 7.1-7.441 8.329-10.482 9.076-22.471 23.697-63.975 40.961-80.462 3.682-21.224 24.361-64.202 40.086-79.978 6.491-36.949 43.523-87.098 57.434-123.335 1.445-3.766 7.825-8.606 9.445-12.295 12.511-28.49 18.206-57.52 41.121-80.372 3.524-21.002 24.447-64.434 39.985-80.024m76.879-.78c-7.706 7.868-9.756 13.226-11.292 23.605-14.221 8.183-18.253 30.008-26.483 43.861-.692 1.166-1.881 10.645-2.144 12.687-8.064 7.784-9.816 13.393-11.48 23.872-11.58 6.385-14.915 15.414-16.527 27.914-1.128 1.823-5.491 8.567-5.958 10.163-4.509 8.279-3.923 19.905-12.927 22.497-7.855 2.262-8.306 16.526-9.208 23.415-8.151 7.405-10.045 13.523-12.022 23.893-1.325 2.208-5.065 8.115-5.904 10.172-7.22 13.828-2.152 15.627-15.975 27.402-2.291 1.951-12.906 30.493-16.117 34.848-.52 1.068-1.703 10.369-1.884 11.799-7.759 8.254-9.823 12.411-11.515 23.752-13.597 7.829-11.708 14.505-17.394 27.515-2.14 4.897-7.877 10.001-9.306 15.47-1.391 5.25.895 9.654-2.997 14.466-14.35 7.522-12.838 10.246-14.891 26.689-6.299 5.859-10.158 12.096-11.062 20.78-1.66 3.664-5.689 10.196-6.834 13.287-4.49 8.319-3.194 9.889-6.422 17.853-.709 1.75-4.255 4.176-6.244 4.506-7.653 1.268-8.399 15.734-9.353 23.684-10.423 9.071-10.079 15.09-12.007 27.941-7.594 8.224-9.824 12.416-11.488 23.8-14.483 8.081-16.745 27.546-25.155 41.016-2.175 3.484-2.79 10.924-3.334 15.27-7.852 8.276-9.848 12.459-11.477 23.874-10.111 5.389-16.277 16.544-16.531 27.906-1.128 1.823-5.491 8.569-5.953 10.165-6.773 12.062-1.43 18.999-15.608 23.65-4.249 1.394-5.92 17.883-6.499 22.391-.088.075-1.45 1.232-1.64 1.436-8.427 9.092-14.283 29.358-19.321 41.202-1.043 2.452-1.726 11.231-1.739 14.044-.026 5.895-.563 12.901 1.24 18.484 1.152 3.567 6.283 7.385 7.354 10.517 5.19 15.169 10.491 29.54 18.02 43.765 1.578 2.981 9.078 8.996 10.398 11.476 1.741 3.27 2.778 11.711 4.504 15.551 1.464 3.27 5.574 6.11 6.854 9.08 3.097 7.2 4.563 15.84 8.287 22.69 1.452 2.68 7.548 6.08 8.662 8.74 6.275 14.96 13.446 37.95 24.415 49.63q.09 1.665.231 3.33c1.2 13.86 5.623 17.46 15.484 25.79 8.941 24.01 18.281 47.54 29.732 70.61 1.942 3.91 7.451 6.23 9.212 10.21 10.301 23.25 19.698 46.99 30.877 69.85 1.668 3.42 8.494 7.74 9.588 10.63 4.557 12.03 3.655 16.08 12.908 25.5.055 1.13.127 2.26.217 3.38 1.13 13.83 5.651 17.52 15.468 25.83 5.987 16.18 12.329 38.06 24.318 50.89.079 1.35.176 2.7.292 4.06 1.432 16.53 8.758 16.99 15.434 28.29 5.084 8.61.042 12.2 11.762 22.06 4.284 21.12 13.459 40.4 27.22 55.65-.014-.02 11.969 27.22 12.89 29.7 4.448 12.02 5.81 16.63 15.834 26.65 8.01 15.83 11.703 35.88 24.536 49.59.059 1.11.136 2.22.229 3.32 1.2 13.85 5.621 17.46 15.479 25.78 3.808 10.15 5.699 16.75 10.683 27.19 6.584 13.8 10.872 29.39 19.082 42.81 5.072 8.3 14.245 24.08 24.211 27.06 7.372 1.65 29.12 2.87 35.028-1.58 17.663-13.29 30.242-47.06 38.646-66.93 3.848-9.1 7.445-15.39 9.782-24.39 11.851-9.35 35.671-64.16 39.937-79.98 10.143-8.29 15.451-25.85 21.795-38.37l38.29-76.96c4.578-9.27 13.714-21.53 17.147-29.97 8.422-20.71 25.138-49.95 30.832-70.72 17.634-13.85 28.089-56.99 39.052-77.54 2.703-5.07 6.895-6.77 8.791-10.67 5.414-11.14 9.777-22.3 15.427-33.41 3.61-7.1 10.567-16.85 13.588-23.08 7.859-16.22 26.762-54.85 31.144-71.3 11.843-9.34 35.665-64.15 39.925-79.96 12.311-10.2 14.674-27.06 22.63-39.94 17.449-28.253 30.848-57.752 42.648-88.706 2.068-5.425.937-12.74.775-18.579-.176-6.312-.933-13.324-3.188-19.231-8.159-18.639-16.363-37.551-24.969-55.983-1.654-3.542-9.618-11.004-11.124-14.578-6.318-14.992-11.489-30.419-18.108-45.286-2.506-5.63-7.517-7.504-9.147-11.335-9.894-23.251-20.606-46.088-31.125-69.054-2.189-4.778-7.021-7.01-8.655-10.424-10.395-21.714-17.945-44.769-28.796-66.244-2.987-5.913-6.556-9.176-11.364-13.48-4.844-20.421-19.358-41.184-28.499-59.368-10.819-21.522-20.49-45.425-31.118-67.238-2.09-4.289-6.364-6.336-8.017-9.773-2.818-5.855-5.274-12.122-8.1-18.018-7.611-15.882-15.657-31.79-23.332-47.624-3.409-7.032-9.097-12.509-10.198-14.995-8.865-20.015-17.2-40.531-26.134-60.533-2.096-4.693-10.864-13.946-13.008-18.51-6.801-14.477-12.721-29.541-19.514-44.046-2.591-5.534-7.628-8.563-9.603-13.029-10.159-22.981-19.881-46.163-31.329-68.552-2.437-4.767-6.151-6.162-9.206-12.544-10.034-20.959-17.479-43.267-27.784-64.01-3.133-6.309-10.495-14.089-16.387-17.732-7.732-4.781-16.753-6.991-25.65-4.489-14.149 3.98-27.813 14.776-35.159 27.492-3.627 6.279-3.751 10.061-4.907 17.152-9.422 9.896-9.912 15.639-11.746 28.579"/><path fill="#fefefe" fill-opacity=".055" d="M243.304 575.772c-.309 5.859.003 11.98-1.149 17.531l-1.366.875c-2.514-1.359-2.971-2.667-4.319-5.119 1.145-3.091 5.174-9.623 6.834-13.287"/><path fill="#fefefe" fill-opacity=".059" d="M350.349 362.879c.123 3.924 1.041 12.697-.823 15.363-3.246-1.316-2.723-1.749-5.081-5.191.839-2.057 4.579-7.964 5.904-10.172"/><path fill="#fefefe" fill-opacity=".055" d="M134.459 794.909c-.191 3.784.263 13.207-.995 15.392-2.769-.838-3.204-1.92-4.76-4.846l-.198-.381c.462-1.596 4.825-8.342 5.953-10.165"/><path fill="#fefefe" fill-opacity=".059" d="M390.464 282.911c-.212 3.875.261 13.209-1.087 15.385-3.259-1.358-2.6-1.615-4.871-5.222.467-1.596 4.83-8.34 5.958-10.163"/><path fill="#fefefe" fill-opacity=".094" d="M1024 887.643v4.921c-2.81 3.384-8.58 3.302-7.82 10.737 1.11 10.937 6.42 8.613 7.82 18.814v2.855c-1.66-3.394-4.77-8.155-8.7-8.399l-2.24 4.69c.2-8.998.12-15.562-.45-24.534l1.74 1.38c6.31-8.685 1.04-3.355 9.65-10.464"/><path fill="#fefefe" fill-opacity=".184" d="M1024 922.115c-1.4-10.201-6.71-7.877-7.82-18.814-.76-7.435 5.01-7.353 7.82-10.737z"/></svg>