<svg xmlns="http://www.w3.org/2000/svg" width="149" height="148" viewBox="0 0 149 148"><path fill="#00fa00" d="M63.23-.57C68.733.563 73.355 3.914 78.083 6.832c3.278 1.998 6.617 3.877 9.98 5.73l1.875 1.086c2.759 1.516 4.65 2.371 7.828 2.223 3.174-1.237 4.946-3.398 7.234-5.871 3.024-1.512 5.662-1.173 9-1 2.418.893 3.678 1.516 5.116 3.676 2.885 6.918 5.046 14.005 7.134 21.199l1.102 3.703C130 46.598 130 46.598 130 50l1.977-.07c9.594-.198 9.594-.198 14.023 2.07 2.633 3.072 3.465 5.792 3.393 9.835-.886 4.886-3.702 9.18-6.08 13.478q-1.601 2.962-3.2 5.925l-1.575 2.893C136.264 88.374 134.12 92.68 132 97l1.598 1.569 1.84 1.806 1.933 1.898c2.36 2.501 2.614 3.527 2.879 7.04-.271 4.003-.883 5.52-3.25 8.687-2.28 1.231-2.28 1.231-4.941 2.078l-2.966.97c-1.02.315-2.041.629-3.093.952l-2.988.967c-2.975.954-5.96 1.873-8.95 2.783l-3.072.957-2.955.902-2.644.812C103 129 103 129 99 129l-.043 2.887c-.386 10.15-.386 10.15-2.957 14.488-4.172 2.26-7.427 2.53-12 1.625-5.309-2.348-10.293-5.218-15.312-8.125a558 558 0 0 0-6.115-3.486 176 176 0 0 1-3.777-2.176c-1.905-1.117-1.905-1.117-4.796-2.213-2.962.913-4.886 2.663-7.25 4.625-4.102 2.966-6.757 3.1-11.75 2.375-5-2.752-6.133-6.286-7.726-11.466l-.837-2.909-.896-2.967A829 829 0 0 1 23 113l-1.336-4.562A746 746 0 0 1 19 99l-2.23-.113C10.13 98.439 5.84 97.84 1 93c-1.538-5.813-.436-9.349 2.375-14.437l1.08-2.066c1.955-3.7 4.018-7.335 6.12-10.954.414-.72.83-1.439 1.258-2.18a247 247 0 0 1 2.46-4.134c2.165-3.434 2.165-3.434 2.395-7.337-.838-2.306-1.986-3.39-3.75-5.08C9.84 43.334 9.326 40.792 9.3 36.212 10.36 32.856 12.375 31.3 15 29c3.119-1.378 3.119-1.378 6.586-2.422l3.82-1.168 1.977-.577c1.984-.58 3.96-1.183 5.937-1.79C39.224 21.266 44.87 19.763 51 19l-.105-2.45-.083-3.238-.105-3.199C51.039 6.582 51.883 4.817 54 2c3.233-2.155 5.367-2.658 9.23-2.57"/><path fill="#000b05" d="M63.23-.57C68.733.563 73.355 3.914 78.083 6.832c3.278 1.998 6.617 3.877 9.98 5.73l1.875 1.086c2.759 1.516 4.65 2.371 7.828 2.223 3.174-1.237 4.946-3.398 7.234-5.871 3.024-1.512 5.662-1.173 9-1 2.418.893 3.678 1.516 5.116 3.676 2.885 6.918 5.046 14.005 7.134 21.199l1.102 3.703C130 46.598 130 46.598 130 50l1.977-.07c9.594-.198 9.594-.198 14.023 2.07 2.633 3.072 3.465 5.792 3.393 9.835-.886 4.886-3.702 9.18-6.08 13.478q-1.601 2.962-3.2 5.925l-1.575 2.893C136.264 88.374 134.12 92.68 132 97l1.598 1.569 1.84 1.806 1.933 1.898c2.36 2.501 2.614 3.527 2.879 7.04-.271 4.003-.883 5.52-3.25 8.687-2.28 1.231-2.28 1.231-4.941 2.078l-2.966.97c-1.02.315-2.041.629-3.093.952l-2.988.967c-2.975.954-5.96 1.873-8.95 2.783l-3.072.957-2.955.902-2.644.812C103 129 103 129 99 129l-.043 2.887c-.386 10.15-.386 10.15-2.957 14.488-4.172 2.26-7.427 2.53-12 1.625-5.309-2.348-10.293-5.218-15.312-8.125a558 558 0 0 0-6.115-3.486 176 176 0 0 1-3.777-2.176c-1.905-1.117-1.905-1.117-4.796-2.213-2.962.913-4.886 2.663-7.25 4.625-4.102 2.966-6.757 3.1-11.75 2.375-5-2.752-6.133-6.286-7.726-11.466l-.837-2.909-.896-2.967A829 829 0 0 1 23 113l-1.336-4.562A746 746 0 0 1 19 99l-2.23-.113C10.13 98.439 5.84 97.84 1 93c-1.538-5.813-.436-9.349 2.375-14.437l1.08-2.066c1.955-3.7 4.018-7.335 6.12-10.954.414-.72.83-1.439 1.258-2.18a247 247 0 0 1 2.46-4.134c2.165-3.434 2.165-3.434 2.395-7.337-.838-2.306-1.986-3.39-3.75-5.08C9.84 43.334 9.326 40.792 9.3 36.212 10.36 32.856 12.375 31.3 15 29c3.119-1.378 3.119-1.378 6.586-2.422l3.82-1.168 1.977-.577c1.984-.58 3.96-1.183 5.937-1.79C39.224 21.266 44.87 19.763 51 19l-.105-2.45-.083-3.238-.105-3.199C51.039 6.582 51.883 4.817 54 2c3.233-2.155 5.367-2.658 9.23-2.57M61 10v16l-4.625 1.063c-8.222 2.043-16.244 4.708-24.3 7.316A301 301 0 0 1 20 38q1.402 1.909 2.813 3.813l1.582 2.144c1.505 2.067 1.505 2.067 3.367 3.492L29 49c-.446 3.842-1.75 6.806-3.547 10.203l-1.562 2.973-1.641 3.074-1.594 3.027c-2.84 5.377-5.742 10.706-8.782 15.972C10.851 85.972 10.851 85.972 11 88h16l1.188 4.938C30.208 101.032 32.603 109.01 35 117l.988 3.309A2609 2609 0 0 0 38 127c3.945.422 3.945.422 6.14-1.75l2.11-2.25 2.14-2.25L50 119c4.347 1.614 8.38 3.72 12.453 5.914l2.124 1.135q3.339 1.785 6.673 3.576 3.356 1.8 6.716 3.598 2.087 1.115 4.17 2.236c2.786 1.767 2.786 1.767 5.864 2.541l2-16 7.75-2.125a1597 1597 0 0 0 21.313-6.062l2.649-.757 2.448-.724 2.176-.634c1.873-.573 1.873-.573 2.664-2.698l-1.46-1.61-1.915-2.14-1.898-2.11L122 101l-1.34-1.651c-.91-3.24.303-5.038 1.832-7.91l1.215-2.162 1.212-2.248a828 828 0 0 1 3.894-7.091q1.934-3.55 3.86-7.103a819 819 0 0 1 2.418-4.414c1.53-2.783 2.902-5.401 3.909-8.421h-17l-1-7a106 106 0 0 0-1.27-4.855l-.749-2.62-.793-2.712-.81-2.8c-1.96-6.73-4.05-13.4-6.378-20.013-2.939 1.352-5.292 2.9-7.75 5l-1.86 1.563C99.769 27.906 99.769 27.906 100 30c-8.955-4.308-17.654-9.046-26.344-13.86l-2.777-1.53-2.482-1.377C66.004 12.003 63.498 11 61 10"/><path fill="#00fcfc" d="M67 39c4.603 1.725 8.933 3.91 13.313 6.125l2.244 1.129Q85.28 47.624 88 49l2.375-2C93 45 93 45 95 45q1.505 4.935 3 9.875l.867 2.84.82 2.715c.378 1.24.378 1.24.762 2.507C101 65 101 65 101 67h8c-1.739 5.874-4.629 10.731-7.734 15.977-1.559 2.84-1.559 2.84-.657 5.171L102 90l3 4c-3.269 1.007-6.54 2.004-9.812 3l-2.815.867-2.705.82-2.491.762C85 100 85 100 82 100v9c-5.293-1.945-9.985-4.804-14.844-7.637-3.466-1.497-4.679-1.69-8.156-.363-2.265 1.468-2.265 1.468-4 3a2652 2652 0 0 1-3-9.312l-.867-2.67-.82-2.569-.762-2.364C49 85 49 85 49 82H39q1.653-3.346 3.313-6.687l.935-1.897c1.402-2.82 2.84-5.558 4.49-8.24 1.465-2.064 1.465-2.064 1.137-4.301C47.893 58.77 46.665 57.593 45 56v-2c3.102-1.007 6.207-2.004 9.313-3l2.67-.867 2.568-.82 2.364-.762C64 48 64 48 67 48z"/><path fill="#00f7f7" d="M63.23-.57C68.733.563 73.355 3.914 78.083 6.832c3.278 1.998 6.617 3.877 9.98 5.73l1.875 1.086c2.759 1.516 4.65 2.371 7.828 2.223 3.174-1.237 4.946-3.398 7.234-5.871 3.024-1.512 5.662-1.173 9-1 2.418.893 3.678 1.516 5.116 3.676 2.885 6.918 5.046 14.005 7.134 21.199l1.102 3.703C130 46.598 130 46.598 130 50l1.977-.07c9.594-.198 9.594-.198 14.023 2.07 2.633 3.072 3.465 5.792 3.393 9.835-.886 4.886-3.702 9.18-6.08 13.478q-1.601 2.962-3.2 5.925l-1.575 2.893C136.264 88.374 134.12 92.68 132 97l1.598 1.569 1.84 1.806 1.933 1.898c2.36 2.501 2.614 3.527 2.879 7.04-.271 4.003-.883 5.52-3.25 8.687-2.28 1.231-2.28 1.231-4.941 2.078l-2.966.97c-1.02.315-2.041.629-3.093.952l-2.988.967c-2.975.954-5.96 1.873-8.95 2.783l-3.072.957-2.955.902-2.644.812C103 129 103 129 99 129l-.043 2.887c-.386 10.15-.386 10.15-2.957 14.488-4.172 2.26-7.427 2.53-12 1.625-5.309-2.348-10.293-5.218-15.312-8.125a558 558 0 0 0-6.115-3.486 176 176 0 0 1-3.777-2.176c-1.905-1.117-1.905-1.117-4.796-2.213-2.962.913-4.886 2.663-7.25 4.625-4.102 2.966-6.757 3.1-11.75 2.375-5-2.752-6.133-6.286-7.726-11.466l-.837-2.909-.896-2.967A829 829 0 0 1 23 113l-1.336-4.562A746 746 0 0 1 19 99l-2.23-.113C10.13 98.439 5.84 97.84 1 93c-1.538-5.813-.436-9.349 2.375-14.437l1.08-2.066c1.955-3.7 4.018-7.335 6.12-10.954.414-.72.83-1.439 1.258-2.18a247 247 0 0 1 2.46-4.134c2.165-3.434 2.165-3.434 2.395-7.337-.838-2.306-1.986-3.39-3.75-5.08C9.84 43.334 9.326 40.792 9.3 36.212 10.36 32.856 12.375 31.3 15 29c3.119-1.378 3.119-1.378 6.586-2.422l3.82-1.168 1.977-.577c1.984-.58 3.96-1.183 5.937-1.79C39.224 21.266 44.87 19.763 51 19l-.105-2.45-.083-3.238-.105-3.199C51.039 6.582 51.883 4.817 54 2c3.233-2.155 5.367-2.658 9.23-2.57m-6.87 6.144c-1.829 3.262-1.875 5.958-2.047 9.676l-.2 3.828L54 22l-2.089.563C31.611 26.57 31.611 26.57 14 36c-.526 3.331-.24 4.648 1.68 7.457l2.195 2.355 2.18 2.395c1.75 2.019 1.75 2.019 3.945 1.793q-3.574 6.755-7.153 13.507-1.218 2.297-2.433 4.595a6720 6720 0 0 1-3.5 6.605L9.82 76.781C8.313 79.615 6.78 82.328 5 85c.093 4.342.093 4.342 2 8 2.697.073 5.367.092 8.063.063l2.298-.014q2.82-.02 5.639-.049l.334 1.834c1.18 6.207 2.742 12.194 4.604 18.228l.763 2.526A936 936 0 0 0 31 123l.754 2.519.75 2.415.654 2.154c.969 2.2 1.967 3.415 3.842 4.912 3.603.251 5.44-.52 8.168-2.86 2.003-2 3.941-4.034 5.832-6.14 3.543 1.358 6.882 2.912 10.238 4.68l2.987 1.566 3.088 1.629Q73.15 136.945 79 140l2.412 1.279c4.01 2.158 4.01 2.158 8.463 2.596 2.29-.784 2.29-.784 4.125-2.875.145-2.58.187-5.05.125-7.625l-.027-2.14A625 625 0 0 0 94 126l2.684-.254c5.963-.854 11.65-2.876 17.379-4.683l3.51-1.092c3.145-.981 6.288-1.967 9.427-2.971l3.252-.994c2.846-.823 2.846-.823 4.748-3.006.494-3.716.391-5.43-1.75-8.555l-2.25-2.32-2.25-2.367L127 98c1.392-4.656 3.359-8.755 5.73-12.973l2.182-3.974q1.709-3.1 3.437-6.188c1.12-2.002 2.22-4.012 3.319-6.025l1.057-1.853c1.498-2.771 2.297-4.612 2.108-7.79-.723-2.36-.723-2.36-2.833-4.197a94 94 0 0 0-7.625-.125l-2.14.027c-1.746.024-3.49.06-5.235.098l-.324-2.434c-.823-4.343-2.12-8.43-3.489-12.629l-2.434-7.566c-1.36-4.282-2.627-8.592-3.894-12.902-.815-2.674-.815-2.674-2.859-5.469-3.24-.922-3.24-.922-7 0-2.229 1.975-4.115 4.05-6.008 6.348C99 22 99 22 96.598 21.94c-2.94-1.065-5.375-2.42-8.035-4.066-5.711-3.44-11.533-6.406-17.532-9.297C68 7 68 7 65.785 5.324c-1.832-1.579-1.832-1.579-4.847-1.761-2.956.15-2.956.15-4.579 2.011"/><path fill="#000c05" d="M65 34c6.149.58 10.436 3.27 15.61 6.38 3.65 2.23 3.65 2.23 7.726 1.983C90.11 40.955 90.11 40.955 92 39c2.5-.25 2.5-.25 5 0 2.798 2.798 3.493 6.118 4.625 9.813l.695 2.158c1.176 3.781 1.98 7.02 1.68 11.029l3.813-.25c3.892 0 3.892 0 6.25 2 1.128 2.708.828 3.517-.063 6.25a57 57 0 0 1-1.918 3.531l-1.111 1.957a358 358 0 0 1-2.352 4.024c-2.228 3.707-2.228 3.707-1.982 7.832 1.41 1.767 1.41 1.767 3.363 3.656.375 2.438.375 2.438 0 5-3.474 3.492-8.018 4.408-12.625 5.688l-2.352.681C89.313 104 89.313 104 87 104l.125 3.313C87 111 87 111 85 114c-5.752 1.036-9.633-1.645-14.375-4.5l-2.23-1.3A598 598 0 0 1 63 105l-2.293 1.984c-3.201 2.384-4.812 2.378-8.707 2.016-7-15.4-7-15.4-7-22l-2.75.188c-3.54-.205-4.7-.834-7.25-3.188.602-6.79 3.145-11.162 6.602-16.914C43.135 63.703 43.288 62.43 42 59l-2-2c-.437-2.437-.437-2.437 0-5 3.866-2.818 8.176-4.24 12.688-5.687l2.048-.682C59.718 44 59.718 44 62 44l-.187-2.75c.204-3.54.833-4.7 3.187-7.25m2 5v9l-4.25.75C56.645 49.957 50.857 51.927 45 54c1.152 2.468 2.048 4.048 4 6-.212 4.988-3.1 9.058-5.562 13.25C40.51 77.467 40.51 77.467 39 82h10l.75 4.25C50.957 92.355 52.927 98.143 55 104l2.125-2.062C60 100 60 100 62.727 100.125c3.974 1.062 7.039 2.8 10.523 4.938 4.103 2.814 4.103 2.814 8.75 3.937v-9l4.188-.75C92.606 97.98 98.78 96.008 105 94l-2.625-2.625c-1.477-1.477-1.477-1.477-2.375-3.375 1.046-4.667 3.302-8.6 5.625-12.75 2.463-3.905 2.463-3.905 3.375-8.25h-8l-.805-3.29-1.07-4.335-.527-2.16C97.57 53.072 96.412 49.033 95 45c-2.972 1.125-5.334 2.223-8 4l-1.62-.918A3014 3014 0 0 0 78.124 44l-2.55-1.445-2.442-1.367-2.254-1.27C69.05 38.854 69.05 38.854 67 39"/></svg>