<svg xmlns="http://www.w3.org/2000/svg" width="129" height="128" viewBox="0 0 129 128"><path fill="#00fdfe" fill-opacity=".988" d="M7.076 0h115.532c1.819 1.557 4.095 3.18 6.392 3.862V120.78c-1.773 3.279-3.327 5.196-6.545 7.22H7.301c-3.19-2.047-6.357-4.836-6.453-8.992-.198-8.5-.114-17.051-.113-25.553L.728 44.558.644 20.05c-.03-2.923.003-6.16-.116-9.06C.291 5.2 2.768 3.204 7.076 0m3.496 117.974 108.277.022.094-107.963-108.367-.057z"/><path d="M15.666 3.862q.453-.015.908-.024c5.282-.108 11.508.168 16.925.172l44.84-.003 25.634-.003c5.143-.003 10.317-.106 15.436.214 3.078.169 5.103 2.092 5.146 5.226.329 23.913.148 47.853.158 71.774l.014 23.584c.006 4.763.164 9.662-.242 14.401-.437 5.107-6.414 4.782-10.114 4.791l-67.08-.009c-11.408.001-22.824.09-34.228-.049-2.26-.067-6.91-.256-7.6-3.047-1.05-4.26-.647-8.877-.71-13.263-.054-3.718.001-7.525.003-11.266l.012-38.012-.029-31.015c-.004-5.414-.06-10.918.052-16.332.042-2.016.347-3.256 1.285-5.043 3.277-2.023 5.868-1.903 9.59-2.096m-5.094 114.112 108.277.022.094-107.963-108.367-.057z"/><path fill="#0f0" fill-opacity=".988" d="m10.576 9.976 108.367.057-.094 107.963-108.277-.022zm27.913 80.272c17.423.426 34.977-.36 52.504.087.122-17.002.41-35.555.01-52.442-16.856-.584-35.441-.056-52.419-.137-.225 5.827-.106 12.165-.098 18.04z"/><path d="m32.494 31.476 64.836.018c-.287 7.785-.094 16.325-.084 24.165l.003 40.6q-32.406.152-64.812-.038c.358-7.165.109-15.987.1-23.232zm5.995 58.772c17.423.426 34.977-.36 52.504.087.122-17.002.41-35.555.01-52.442-16.856-.584-35.441-.056-52.419-.137-.225 5.827-.106 12.165-.098 18.04z"/><path fill="#fefefe" d="M38.584 37.756c16.978.081 35.563-.447 52.42.137.4 16.887.11 35.44-.011 52.442-17.527-.446-35.081.339-52.504-.087l-.003-34.451c-.008-5.876-.127-12.214.098-18.041m15.406 36.73 20.322-.002c.204-.015.945-.035.955-.127.548-4.882.214-16.76.288-21.17l-19.575-.08c-.913.047-1.36-.091-2.002.366-.227 2.23-.089 5.721-.065 8.042q.078 6.485.077 12.97"/><path d="M54.922 47.348c.432-.097 3.795-.256 4.248-.174 7.296 1.325 23.338-3.977 22.592 8.065-.43 6.942.413 13.227-.188 20.058-.321 3.647-2.835 4.885-5.944 5.432-8.191.082-15.975.164-24.167-.338-1.382-.9-1.704-1.199-2.825-2.36a23 23 0 0 1-.405-2.529c-.398-3.769-.893-23.841.946-26.082 1.376-1.676 3.738-1.87 5.743-2.072m-.932 27.138 20.322-.002c.204-.015.945-.035.955-.127.548-4.882.214-16.76.288-21.17l-19.575-.08c-.913.047-1.36-.091-2.002.366-.227 2.23-.089 5.721-.065 8.042q.078 6.485.077 12.97"/><path fill="#00fdfe" fill-opacity=".988" d="m55.98 53.108 19.575.079c-.074 4.41.26 16.289-.288 21.17-.01.092-.75.112-.954.127l-20.323.002q0-6.486-.077-12.971c-.023-2.321-.162-5.812.065-8.042.642-.457 1.09-.319 2.002-.365"/></svg>