<svg xmlns="http://www.w3.org/2000/svg" width="157" height="97" viewBox="0 0 157 97"><path fill="#00fbfe" fill-opacity=".988" d="M22.577 25.49c3.943-.157 4.969.02 8.446 1.625.142-.187-.496-16.946.17-19.553 2.32-9.07 9.973-6.62 17.232-6.49 1.319.023 4.665 2.275 5.235 3.435 1.815 3.689 1.811 16.08 1.01 19.583 16.272 1.324 33.022 3.624 49.315 5.278l18.166 1.684c3.208.317 6.678.55 9.799 1.337 3.573.72 4.497 4.649 7.393 6.103 7.131 3.581 13.473 1.12 17.657 9.35v27.08c-.869 1.438-1.966 3.103-3.377 4.053-2.393 1.612-38.594 11.219-42.775 11.684-4.333.482-8.976-.254-13.356-.25l-28.988.091c-3.446.007-12.039.228-15.09-.377-1.387-1.036-1.934-1.719-2.992-3.074-3.697 2.496-11.106 4.354-15.374 5.908-2.241.816-5.346 2.322-7.526 2.922a9.8 9.8 0 0 1-3.264.353c-8.846-.57-6.14-12.395-7.232-13.64-1.46-.265-8.62-.12-10.66-.141C1.326 79.688.911 77.368.961 71.995c.135-8.139-.266-16.43.077-24.555.338-7.985 10.42-7.49 15.933-6.956 1.964-1.563-3.08-10.125 5.606-14.994m12.321 7.517c-15.303-6.223-13.51-3.277-13.369 11.475-3.208-.015-12.98-.698-15.272.994-1.152.85-1.73 5.48-1.538 7.47.535 5.58-1.287 20.134 1.402 24.556.933 1.533 12.758.984 15.371 1-.09 3.356-1.454 13.993 3.897 13.238 9.278-1.31 18.406-6.795 27.273-9.625.35 1.683.526 2.332 1.17 3.921 3.637.796 49.749.758 51.573-.12l.338-.28c.894.461 1.671.844 2.593 1.257 4.501-.297 16.655-3.924 21.349-5.195 6.88-1.861 16.756-3.979 22.81-7.297.227-2.982.886-25.048-.773-26.756-2.44-2.513-13.907-4.982-18.154-6.194-.28-1.868-.432-2.971-1.026-4.793-4.693-1.168-9.48-1.377-14.303-1.866l-21.132-2.195-26.473-2.814c-5.552-.622-14.488-1.788-20.009-1.812.088-5.574.113-11.049.034-16.616-.11-7.712-3.62-6.927-10.082-6.767-1.202.144-4.187.488-4.541 1.504-2.068 5.936-1.008 21.035-1.138 26.915"/><path d="M40.577 4.588c6.462-.16 9.972-.945 10.082 6.767.08 5.567.054 11.042-.034 16.616 5.521.024 14.457 1.19 20.009 1.812l26.473 2.814 21.132 2.195c4.823.49 9.61.698 14.303 1.866.594 1.822.746 2.925 1.026 4.793 4.247 1.212 15.714 3.681 18.154 6.194 1.659 1.708 1 23.774.773 26.756-6.054 3.318-15.93 5.436-22.81 7.297-4.694 1.27-16.848 4.898-21.349 5.195a49 49 0 0 1-2.593-1.258l-.338.281c-1.824.878-47.936.916-51.574.12-.643-1.59-.82-2.238-1.169-3.921-8.867 2.83-17.995 8.316-27.273 9.625-5.351.755-3.987-9.882-3.897-13.238-2.613-.016-14.438.533-15.37-1-2.69-4.422-.868-18.976-1.403-24.555-.191-1.992.386-6.62 1.538-7.47 2.293-1.693 12.064-1.01 15.272-.995-.142-14.752-1.934-17.698 13.37-11.475.13-5.88-.931-20.98 1.137-26.915.353-1.016 3.34-1.36 4.54-1.504m-1.932 42.251 67.93-.04c3.78.002 20.535.505 23.23-.143l.073-5.84-57.254-5.935-17.426-1.706c-2.121-.198-6.339-.72-8.333-.682L46.81 9.652a258 258 0 0 0-8.272-.104l-.023 23.132c-.002 4.524-.107 9.69.131 14.16m-17.078 2.19-13.023-.03q.121 12.476-.008 24.952 6.485.067 12.968.04-.046-12.481.063-24.963m112.659-3.099c-.635 2.422-1.244 3.819-2.539 5.963-5.081.981-16.859.603-22.673.568-.13 9.592-.344 18.655.084 28.244a511 511 0 0 1 12.094-3.259c9.18-2.468 18.667-5.154 27.869-7.457.157-6.142.33-13.74-.07-19.832-4.715-1.172-10.22-2.544-14.765-4.226"/><path fill="#00fe01" d="m56.485 52.46 46.423.033c.147 9.106-.055 18.792-.088 27.944-1.911.25-11.891.063-14.371.063l-31.974-.01c-.2-9.058.001-18.908.01-28.03"/><path fill="#00fbfe" fill-opacity=".988" d="M38.537 9.548q4.137-.015 8.272.104l.056 22.841c1.994-.038 6.212.484 8.333.682l17.426 1.706 57.254 5.935-.073 5.84c-2.695.648-19.45.145-23.23.143l-67.93.04c-.238-4.468-.133-9.635-.132-14.16z"/><path fill="#00fe01" fill-opacity=".988" d="M134.226 45.93c4.545 1.683 10.05 3.054 14.765 4.227.4 6.092.227 13.69.07 19.832-9.202 2.303-18.689 4.99-27.869 7.457a511 511 0 0 0-12.094 3.26c-.428-9.59-.214-18.653-.084-28.245 5.814.035 17.592.413 22.673-.568 1.295-2.144 1.904-3.54 2.539-5.962"/><path fill="#00fe01" d="M25.03 33.788c3.383 1.006 6.17 2.258 9.444 3.52q-.077.93-.131 1.861c-.292 5.053-.399 9.337 3.107 13.277 3.584.213 9.22.053 12.952.06.003 7.722-.15 15.819.132 23.5l-7.223 2.859A1347 1347 0 0 1 25.16 85.93c-.289-6.06-.051-13.42-.026-19.609q.103-16.267-.104-32.533"/><path fill="#00fe01" fill-opacity=".988" d="m8.544 48.999 13.023.03q-.11 12.48-.063 24.961-6.484.03-12.968-.039.13-12.476.008-24.952"/></svg>