<svg xmlns="http://www.w3.org/2000/svg" width="155" height="132" viewBox="0 0 155 132"><path d="M71.566 0h12.392c1.033.612 12.064 2.22 15.059 3.324 17.874 6.583 32.862 22.034 38.072 40.43 2.094 7.391 1.949 14.834 1.858 22.41-.014.946-.163 3.059-.045 3.826-.21 1.47-.248 2.912-.312 4.393 2.888 2.8 8.244 10.217 10.994 13.64.603.915.997 2.023 1.157 3.074.728 4.79-5.126 4.623-8.551 5.009-.645 3.849-5.298 10.046-8.056 12.85-3.231 3.285-8.89 6.036-13.231 7.436-6.833 2.205-14.778 1.626-21.945 1.544-.86 3.218-2.425 7.042-4.823 9.405-3.339 1.042-30.17 1.223-32.984-.049-2.115-.956-3.759-6.846-4.574-9.017-12.827.019-22.876.455-34.234-7.62-3.543-2.518-9.171-10.384-9.742-14.432-2.027-.598-5.715-.626-7.117-2.13-.66-.71-.802-2.5-.703-3.435.08-.75.522-1.804.985-2.377 2.035-2.523 9.36-12.511 11.317-14.067-.103-.988-.076-3.306-.091-4.382-.226-9.89-1.26-15.785 1.36-25.731C23.39 24.978 39.046 8.72 57.894 2.984a59 59 0 0 1 5.44-1.41C64.92 1.253 70.525.653 71.566 0M29.712 66.656c-.021.303-.074.371-.203.651-3.169.605-4.561 1.018-7.73.54-.625-.464-.443-.238-.668-1.07 1.337.778 7.493-1.223 8.601-.121M134.75 48.37c-.311-3.504-1.894-7.663-3.207-10.893A58.1 58.1 0 0 0 100.1 7.191c-14.672-5.77-32.11-5.415-46.621.776-13.364 5.701-25.053 17.92-30.369 31.405-.748 1.898-2.124 6.199-2.304 8.201-1.002 4.71-1.223 9.411-1.065 14.21.078 2.39.351 5.44.265 7.755 3.986-.314 9.591-1.159 13.246-1.305 2.706-3.274 4.422-4.848 8.656-5.081 4.285-.237 8.44-.163 12.715-.164l22.265-.007 22.557.003c4.884.002 9.645-.116 14.519.322 3.633.326 5.464 2.07 7.55 4.956 3.712.37 10.49.777 13.959 1.329-.138-5.782.386-10.871-.008-16.97-.164-1.675-.342-2.609-.715-4.25M41.7 71.285c-1.441 1.978-2.455 3.298-4.087 5.112-6.014.838-12.147 1.567-18.131 2.443-2.907 3.699-6.603 8.678-9.668 12.122 18.354.15 36.958-.206 55.255.063 2.787-8.111 8.973-11.231 17.4-8.977 4.08 1.092 6.675 5.099 7.985 8.954L104.625 91l41.125-.024c-3.477-3.776-6.462-8.398-9.951-12.17a542 542 0 0 1-12.783-1.625c-1.675-.222-4.761-.718-6.339-.756-1.332-1.839-2.551-3.37-3.997-5.124-8.41-.111-16.886-.096-25.298-.05-15.216.08-30.472-.141-45.681.034M17.368 96.22c3.653 5.891 5.15 8.979 11.243 12.601 9.004 5.351 15.647 4.453 25.65 4.45l24.76-.017 21.965.018c3.761.002 9.522.172 13.109-.286a31.65 31.65 0 0 0 12.837-4.615c3.924-2.429 5.877-5.114 8.34-8.94l1.948-3.201c-9.394.132-19.016.05-28.424.04-5.244-.006-12.544.209-17.612-.092-1.487 4.359-3.654 8.466-8.079 10.519-8.205 3.809-16.948-1.825-18.456-10.454l-30.75.018c-5.38-.003-11.206.12-16.53-.04m46.303 28.056c2.857.003 27.293.297 27.88-.314.269-.28.361-.747.467-1.111l1.735-5.117-32.448-.024c.579 1.296 1.992 5.123 2.366 6.566m11.137-39.539c-5.374 1.61-8.436 7.26-6.851 12.64 1.585 5.382 7.222 8.469 12.61 6.908 5.422-1.571 8.533-7.25 6.938-12.666-1.595-5.415-7.29-8.501-12.697-6.882"/><path fill="#fffffe" fill-opacity=".224" d="M20.806 47.573c.18-2.002 1.556-6.303 2.304-8.201 5.316-13.486 17.005-25.704 30.369-31.405 14.51-6.19 31.949-6.546 46.621-.776a58.1 58.1 0 0 1 31.443 30.287l-.359.69c-.091 1.192 3.455 12.573 3.54 12.65l.026-2.447c.373 1.641.551 2.575.715 4.25l-.785-1.196c-.468 4.153 1.417 11.931-1 15.988-.734 1.233-6.721-.191-8.043-.505.259.024 1.252.139 1.441.1-1.263-.393-3.176-.695-4.433-.212-.855-.33-4.967-5.726-7.045-5.263-.093.021-.613.455-.606.455-4.044.053-9.799-.07-13.702-.08l-48.025.007c-4.267 0-10.266-.09-14.602.282-.886.077-5.045 4.002-5.799 4.957-1.15-.003-2.203.172-3.154-.498-1.108-1.102-7.264.899-8.6.12.049-.457-.493-5.752-.523-7.269-.073-3.671.087-5.42.701-9.077.231-1.376-.314-.68-.141-2.682z"/><path fill="#fefefe" fill-opacity=".102" d="m20.806 47.573.343.175c-.174 2.001.372 1.306.141 2.682-.614 3.656-.774 5.406-.701 9.077.03 1.517.572 6.812.522 7.27.225.832.043.606.669 1.07 3.168.478 4.56.065 7.73-.54.128-.28.18-.348.202-.651.951.67 2.004.495 3.154.498.754-.955 4.913-4.88 5.8-4.956 4.335-.374 10.334-.282 14.6-.283l48.026-.007c3.903.01 9.658.133 13.702.08-.007 0 .513-.434.606-.455 2.078-.463 6.19 4.932 7.045 5.263 1.257-.483 3.17-.181 4.433.211-.189.04-1.182-.075-1.441-.099 1.322.314 7.309 1.738 8.043.505 2.417-4.057.532-11.835 1-15.988l.785 1.195c.394 6.1-.13 11.189.008 16.97-3.469-.55-10.247-.958-13.959-1.328-2.086-2.886-3.917-4.63-7.55-4.956-4.874-.438-9.635-.32-14.519-.322l-22.557-.003-22.265.007c-4.275 0-8.43-.073-12.715.164-4.233.233-5.95 1.807-8.656 5.081-3.655.146-9.26.99-13.246 1.305.086-2.316-.187-5.364-.265-7.756-.158-4.798.063-9.5 1.065-14.209"/><path fill="#fefefe" fill-opacity=".145" d="M131.543 37.478c1.313 3.23 2.896 7.39 3.207 10.893l-.026 2.446c-.085-.076-3.631-11.457-3.54-12.65z"/><path fill="#fefefe" d="M71.566 0h12.392c1.033.612 12.064 2.22 15.059 3.324 17.874 6.583 32.862 22.034 38.072 40.43 2.094 7.391 1.949 14.834 1.858 22.41-.014.946-.163 3.059-.045 3.826-.21 1.47-.248 2.912-.312 4.393-1.319-.506-1.654-.579-3.061-.728l-.056-4.064c-.138-5.782.386-10.871-.008-16.97-.164-1.675-.342-2.609-.715-4.25-.311-3.504-1.894-7.663-3.207-10.893A58.1 58.1 0 0 0 100.1 7.191c-14.672-5.77-32.11-5.415-46.621.776-13.364 5.701-25.053 17.92-30.369 31.405-.748 1.898-2.124 6.199-2.304 8.201-1.002 4.71-1.223 9.411-1.065 14.21.078 2.39.351 5.44.265 7.755-.01 1.194-.08 2.972.1 4.106-1.039.172-1.997.33-3.023.57-.103-.988-.076-3.306-.091-4.382-.226-9.89-1.26-15.785 1.36-25.731C23.39 24.978 39.046 8.72 57.894 2.984a59 59 0 0 1 5.44-1.41C64.92 1.253 70.525.653 71.566 0"/><path fill="#09fdfe" d="M33.252 68.233c2.706-3.274 4.422-4.848 8.656-5.081 4.285-.237 8.44-.163 12.715-.164l22.265-.007 22.557.003c4.884.002 9.645-.116 14.519.322 3.633.326 5.464 2.07 7.55 4.956 3.712.37 10.49.777 13.959 1.329l.056 4.064c-5.375-.309-10.625-1.145-16.016-1.452-1.69-1.97-3.741-4.775-6.507-5.01-3.483-.295-7.09-.21-10.59-.212H83.91l-26.444.007c-4.864.002-9.74-.053-14.605.105-3.86.125-5.164 2.28-7.611 5.07-5.059.435-10.054 1.07-15.143 1.48-.181-1.133-.11-2.91-.101-4.105 3.986-.314 9.591-1.159 13.246-1.305"/><path fill="#09fdfe" fill-opacity=".988" d="M41.7 71.285c15.21-.175 30.466.046 45.682-.035 8.412-.044 16.888-.06 25.298.051 1.446 1.754 2.665 3.285 3.997 5.124 1.578.038 4.664.534 6.339.756q6.383.888 12.783 1.624c3.489 3.772 6.474 8.395 9.951 12.171L104.625 91l-14.171.002c-1.31-3.855-3.904-7.862-7.986-8.954-8.426-2.254-14.612.866-17.399 8.977-18.297-.27-36.901.086-55.255-.063 3.065-3.444 6.76-8.423 9.668-12.122 5.984-.876 12.117-1.605 18.13-2.443 1.633-1.814 2.647-3.134 4.089-5.112"/><path fill="#00fe00" fill-opacity=".988" d="M91.184 96.178c5.067.3 12.367.086 17.611.092 9.408.01 19.03.092 28.424-.04l-1.948 3.2c-2.463 3.827-4.416 6.512-8.34 8.941a31.65 31.65 0 0 1-12.837 4.615c-3.587.458-9.348.288-13.109.286l-21.965-.018-24.76.017c-10.003.003-16.646.901-25.65-4.45-6.094-3.622-7.59-6.71-11.242-12.6 5.324.16 11.15.037 16.53.04l30.75-.018c1.508 8.629 10.25 14.263 18.457 10.454 4.424-2.053 6.591-6.16 8.078-10.52"/><path fill="#09fdfe" fill-opacity=".988" d="M74.807 84.737c5.408-1.62 11.102 1.467 12.697 6.882s-1.516 11.095-6.938 12.666c-5.388 1.561-11.025-1.526-12.61-6.907s1.477-11.031 6.85-12.64M61.304 117.71l32.448.024-1.735 5.117c-.106.364-.198.831-.467 1.111-.587.611-25.023.317-27.88.314-.374-1.443-1.787-5.27-2.366-6.566"/><path fill="#09fdfe" fill-opacity=".988" d="M9.041 99.662c-6.97-.007-10.92-7.052-7.184-13.135 1.24-2.02 3.145-4.482 4.675-6.295 2.68-3.175 6.34-9.315 10.46-10.4.015 1.076-.012 3.394.091 4.382-1.956 1.556-9.282 11.544-11.317 14.067-.463.573-.906 1.627-.985 2.377-.1.935.043 2.725.703 3.434 1.402 1.505 5.09 1.533 7.117 2.131.571 4.048 6.2 11.914 9.742 14.432 11.358 8.075 21.407 7.639 34.235 7.62.814 2.171 2.458 8.061 4.573 9.017 2.813 1.272 29.645 1.091 32.984.049 2.398-2.363 3.964-6.187 4.823-9.405 7.167.082 15.112.661 21.945-1.544 4.341-1.4 10-4.151 13.231-7.436 2.758-2.804 7.411-9.001 8.056-12.85 3.425-.386 9.279-.22 8.551-5.009-.16-1.051-.554-2.16-1.157-3.075-2.75-3.422-8.106-10.839-10.994-13.639.064-1.481.102-2.923.312-4.393.765.379 2.485 1.23 3.001 1.764 2.931 3.036 11.768 13.892 13.097 17.197v4.181c-1.774 5.486-3.93 5.998-9.357 6.936-2.012 2.613-3.524 5.967-5.36 8.55-4.751 6.683-16.465 12.205-24.367 13.165-2.971.361-10.981.362-14.145.157-1.334 4.325-2.323 7.537-6.591 9.785q-.265.14-.532.275H60.796c-4.658-2.754-5.652-4.683-7.086-9.742-14.95 1.995-34.007-3.534-41.784-17.417-.995-1.776-2.109-3.249-2.885-5.18"/><defs><linearGradient id="a" x1="27.378" x2="23.614" y1="64.996" y2="69.013" gradientUnits="userSpaceOnUse"><stop offset="0" stop-color="#fff" stop-opacity=".129"/><stop offset="1" stop-color="#fff" stop-opacity=".18"/></linearGradient></defs><path fill="url(#a)" d="M21.111 66.777c1.337.778 7.493-1.223 8.601-.121-.021.303-.074.371-.203.651-3.169.605-4.561 1.018-7.73.54-.625-.464-.443-.238-.668-1.07"/></svg>