<svg xmlns="http://www.w3.org/2000/svg" width="110" height="89" viewBox="0 0 110 89"><path fill="#00f8fe" fill-opacity=".988" d="M14.358 0h4.631c1.838 1.323 6.127 3.136 8.336 4.115l12.259 5.408c14.742 6.55 29.493 13.592 44.233 20.238 7.024 3.167 20.289 8.513 26.183 12.404v3.624c-3.759 3.692-14.931 7.87-20.121 10.247l-52.822 23.94a558 558 0 0 1-13.315 5.972c-1.436.623-5.903 2.404-7.067 3.052h-.457c-2.103-1.156-2.427-1.94-3.71-4.004.724-3.277 3.473-10.59 5.036-13.591-3.586 1.742-9.58 5.404-13.703 5.49C2.285 76.93.974 75.155 0 74.029v-1.945c.443-.56 2.373-4.827 2.82-5.732 3.407-6.907 6.345-15.41 10.618-21.793-1.488-2.473-2.85-5.65-4.09-8.325L3.293 23.09C2.595 21.567.813 17.364 0 16.157v-1.791c.588-.781 1.904-2.655 2.775-2.84 3.97-.844 11.944 3.809 15.216 5.687-1.703-2.858-3.7-7.97-4.626-11.227-.782-2.753-.363-3.727.993-5.986m.23 62.869c2.09-1.057 4.382-1.955 6.553-2.852q2.623-1.192 5.232-2.42c1.435-4.29 3.475-8.862 4.55-13.226-.836-3.498-3.211-10.326-4.704-13.836-2.495-1.143-9.122-4.333-11.529-4.983.858 3.791 7.428 14.848 7.691 17.875.343 3.942-6.008 14.839-7.793 19.441"/><path d="M17.222 3.99c3.812 1.281 9.9 4.259 13.723 5.994l24.55 11.202 27.426 12.54c7.203 3.25 15.828 7.002 22.764 10.651-6.249 2.01-16.684 7.335-22.965 10.207l-43.044 19.68L17.047 84.58c2.248-6.383 4.895-13.941 6.804-20.378-6.227 2.511-14.078 6.095-20.11 9.106 1.708-2.302 4.461-8.576 5.785-11.434a868 868 0 0 1 8.318-17.693C12.889 34.503 8.85 24.967 4.236 15.159c3.671 2.237 15.505 7.254 19.614 8.737-1.798-5.914-5.244-14.27-6.628-19.906M14.588 62.87c2.09-1.057 4.382-1.955 6.553-2.852q2.623-1.192 5.232-2.42c1.435-4.29 3.475-8.862 4.55-13.226-.836-3.498-3.211-10.326-4.704-13.836-2.495-1.143-9.122-4.333-11.529-4.983.858 3.791 7.428 14.848 7.691 17.875.343 3.942-6.008 14.839-7.793 19.441"/><path fill="#01ff01" d="M25.454 13.342c1.916.188 13.634 5.924 16.037 7.03 17.337 7.978 35.133 15.592 52.347 23.77-8.623 3.443-19.88 8.824-28.383 12.876l-22.934 10.46c-5.237 2.4-11.614 5.513-16.92 7.409 2-6.973 4.777-13.807 7.138-20.678 1.011-2.942 2.647-6.54 2.791-9.66.184-3.981-8.169-25.714-10.076-31.207"/><path fill="#00f8fe" fill-opacity=".988" d="M14.69 25.552c2.407.65 9.035 3.84 11.529 4.983 1.493 3.51 3.867 10.338 4.703 13.836-1.074 4.364-3.114 8.935-4.55 13.227a438 438 0 0 1-5.231 2.42c-2.171.896-4.463 1.794-6.553 2.85 1.785-4.602 8.136-15.5 7.793-19.441-.263-3.027-6.833-14.084-7.69-17.875"/></svg>