<svg version="1.1" xmlns="http://www.w3.org/2000/svg" style="display: block;" viewBox="0 0 1024 1024" width="256" height="256" preserveAspectRatio="none">
<defs>
	<linearGradient id="Gradient1" gradientUnits="userSpaceOnUse" x1="309.57" y1="420.922" x2="309.416" y2="654.062">
		<stop class="stop0" offset="0" stop-opacity="1" stop-color="rgb(119,119,119)"/>
		<stop class="stop1" offset="1" stop-opacity="1" stop-color="rgb(185,185,184)"/>
	</linearGradient>
	<linearGradient id="Gradient2" gradientUnits="userSpaceOnUse" x1="101.181" y1="495.037" x2="103.798" y2="658.627">
		<stop class="stop0" offset="0" stop-opacity="1" stop-color="rgb(141,140,140)"/>
		<stop class="stop1" offset="1" stop-opacity="1" stop-color="rgb(186,186,185)"/>
	</linearGradient>
	<linearGradient id="Gradient3" gradientUnits="userSpaceOnUse" x1="106.64" y1="311.667" x2="108.255" y2="474.641">
		<stop class="stop0" offset="0" stop-opacity="1" stop-color="rgb(87,87,87)"/>
		<stop class="stop1" offset="1" stop-opacity="1" stop-color="rgb(135,134,134)"/>
	</linearGradient>
	<linearGradient id="Gradient4" gradientUnits="userSpaceOnUse" x1="559.951" y1="553.38" x2="559.061" y2="715.461">
		<stop class="stop0" offset="0" stop-opacity="1" stop-color="rgb(157,156,156)"/>
		<stop class="stop1" offset="1" stop-opacity="1" stop-color="rgb(203,202,202)"/>
	</linearGradient>
	<linearGradient id="Gradient5" gradientUnits="userSpaceOnUse" x1="880.076" y1="452.824" x2="879.676" y2="691.167">
		<stop class="stop0" offset="0" stop-opacity="1" stop-color="rgb(129,128,128)"/>
		<stop class="stop1" offset="1" stop-opacity="1" stop-color="rgb(196,195,195)"/>
	</linearGradient>
	<linearGradient id="Gradient6" gradientUnits="userSpaceOnUse" x1="600.747" y1="362.702" x2="599.231" y2="539.315">
		<stop class="stop0" offset="0" stop-opacity="1" stop-color="rgb(103,103,102)"/>
		<stop class="stop1" offset="1" stop-opacity="1" stop-color="rgb(152,152,151)"/>
	</linearGradient>
	<linearGradient id="Gradient7" gradientUnits="userSpaceOnUse" x1="849.101" y1="293.613" x2="848.08" y2="438.501">
		<stop class="stop0" offset="0" stop-opacity="1" stop-color="rgb(83,83,83)"/>
		<stop class="stop1" offset="1" stop-opacity="1" stop-color="rgb(123,123,123)"/>
	</linearGradient>
	<linearGradient id="Gradient8" gradientUnits="userSpaceOnUse" x1="600.024" y1="231.426" x2="599.517" y2="367.475">
		<stop class="stop0" offset="0" stop-opacity="1" stop-color="rgb(64,64,64)"/>
		<stop class="stop1" offset="1" stop-opacity="1" stop-color="rgb(103,103,103)"/>
	</linearGradient>
	<linearGradient id="Gradient9" gradientUnits="userSpaceOnUse" x1="312.757" y1="182.899" x2="311.245" y2="396.794">
		<stop class="stop0" offset="0" stop-opacity="1" stop-color="rgb(50,50,50)"/>
		<stop class="stop1" offset="1" stop-opacity="1" stop-color="rgb(112,111,111)"/>
	</linearGradient>
	<linearGradient id="Gradient10" gradientUnits="userSpaceOnUse" x1="515.536" y1="39.3455" x2="515.236" y2="256.574">
		<stop class="stop0" offset="0" stop-opacity="1" stop-color="rgb(9,9,9)"/>
		<stop class="stop1" offset="1" stop-opacity="1" stop-color="rgb(72,72,72)"/>
	</linearGradient>
	<linearGradient id="Gradient11" gradientUnits="userSpaceOnUse" x1="516.702" y1="147.835" x2="512.251" y2="408.946">
		<stop class="stop0" offset="0" stop-opacity="1" stop-color="rgb(48,47,48)"/>
		<stop class="stop1" offset="1" stop-opacity="1" stop-color="rgb(134,133,133)"/>
	</linearGradient>
	<linearGradient id="Gradient12" gradientUnits="userSpaceOnUse" x1="515.158" y1="398.183" x2="514.51" y2="663.809">
		<stop class="stop0" offset="0" stop-opacity="1" stop-color="rgb(133,132,132)"/>
		<stop class="stop1" offset="1" stop-opacity="1" stop-color="rgb(223,223,223)"/>
	</linearGradient>
</defs>
<path transform="translate(0,0)" fill="rgb(0,0,0)" d="M 23.4451 0 L 1003.39 0 C 1011.07 9.73006 1015.46 9.69655 1024 23.0428 L 1024 1005.16 C 1018.36 1011.71 1012.25 1019.6 1004.95 1024 L 23.9309 1024 C 16.1755 1017.13 8.19414 1010.51 5.68434e-14 1004.16 L 0 22.9742 C 5.31859 21.3372 20.4586 5.29063 23.4451 0 z"/>
<path transform="translate(0,0)" fill="url(#Gradient12)" d="M 40.8566 40.3518 C 121.676 41.6097 206.902 40.1253 288.05 40.1025 L 726.238 40.2746 L 897.672 39.4316 L 956.705 38.9262 C 966.174 38.918 983.946 38.7878 992.966 40.1631 C 988.621 111.649 994.749 194.096 991.806 266.388 C 993.006 326.985 992.027 390.944 992.046 451.805 L 992.174 518.567 C 992.191 528.465 992.678 544.923 991.841 554.233 L 991.514 689.589 L 991.422 694.369 L 991.399 706.217 C 992.305 715.699 991.804 730.653 991.769 740.52 L 991.666 799.03 L 991.636 989.768 L 348.989 989.847 L 137.498 989.785 L 69.5533 989.762 C 60.5224 989.755 47.3998 989.216 38.7819 989.599 C 36.2404 979.5 38.0876 917.913 38.1051 903.462 L 38.312 677.705 C 37.9841 669.842 38.0257 661.094 38.1497 653.176 C 38.9801 600.154 36.8148 546.264 38.4529 493.329 C 36.7655 438.676 38.1531 377.304 38.2503 322.27 C 38.2027 316.858 38.4939 311.199 38.6852 305.772 L 38.9106 303.299 C 37.7201 293.614 38.2119 278.524 38.2201 268.456 C 38.1854 249.287 38.252 230.117 38.42 210.948 C 38.8226 202.459 38.6478 192.833 38.6816 184.253 C 38.7071 135.001 39.0033 89.3974 40.8566 40.3518 z"/>
<path transform="translate(0,0)" fill="url(#Gradient11)" d="M 40.8566 40.3518 C 121.676 41.6097 206.902 40.1253 288.05 40.1025 L 726.238 40.2746 L 897.672 39.4316 L 956.705 38.9262 C 966.174 38.918 983.946 38.7878 992.966 40.1631 C 988.621 111.649 994.749 194.096 991.806 266.388 C 993.006 326.985 992.027 390.944 992.046 451.805 L 992.174 518.567 C 992.191 528.465 992.678 544.923 991.841 554.233 C 990.896 546.215 991.364 529.09 991.369 520.284 C 991.516 497.641 991.441 474.997 991.145 452.355 C 990.858 448.717 991.044 443.997 991.09 440.263 C 992.187 422.202 991.22 392.371 991.041 373.595 C 983.645 372.443 949.954 372.256 943.31 374.369 L 942.379 376.752 L 941.596 374.672 C 940.062 381.639 942.344 400.134 939.953 403.364 C 934.642 405.562 932.065 404.061 928.913 406.488 C 928.148 410.29 927.719 412.729 927.388 416.582 C 926.126 416.591 925.338 415.933 924.226 415.273 C 918.688 420.327 927.302 433.303 922.347 440.033 C 875.497 440.681 821.627 441.695 775.193 440.076 C 772.286 430.738 778.397 415.83 773.362 406.949 C 772.397 405.246 759.841 401.159 757.966 401.454 C 755.65 403.89 755.985 405.044 755.009 408.767 C 755.064 393.102 755.453 375.845 754.835 360.318 C 753.571 362.02 753.62 362.831 753.499 364.922 L 752.932 364.889 C 707.289 362.56 660.975 368.873 615 367.839 C 567.166 366.762 518.796 370.032 470.891 367.834 C 462.659 367.562 454.038 361.722 445.259 362.535 C 445.478 368.689 447.139 405.395 445.229 409.797 C 441.149 392.016 448.623 400.306 429.036 398.304 L 428.071 398.201 C 413.371 397.021 384.775 398.044 368.757 398.04 L 247.083 398.086 C 239.867 398.101 202.643 398.743 197.797 397.163 L 196.494 395.678 L 195.809 397.117 C 191.71 397.681 178.71 399.816 175.683 397.503 C 174.933 393.628 175.231 374.48 175.273 369.958 L 175.95 311.823 L 175.768 308.516 C 168.623 304.202 57.1866 312.62 38.6852 305.772 L 38.9106 303.299 C 37.7201 293.614 38.2119 278.524 38.2201 268.456 C 38.1854 249.287 38.252 230.117 38.42 210.948 C 38.8226 202.459 38.6478 192.833 38.6816 184.253 C 38.7071 135.001 39.0033 89.3974 40.8566 40.3518 z"/>
<path transform="translate(0,0)" fill="url(#Gradient10)" d="M 40.8566 40.3518 C 121.676 41.6097 206.902 40.1253 288.05 40.1025 L 726.238 40.2746 L 897.672 39.4316 L 956.705 38.9262 C 966.174 38.918 983.946 38.7878 992.966 40.1631 C 988.621 111.649 994.749 194.096 991.806 266.388 C 990.353 261.756 989.95 256.306 989.397 251.433 C 988.941 251.716 988.486 251.999 988.03 252.282 L 987.302 252.69 C 972.437 261.149 928.318 255.268 910.597 255.74 C 884.06 256.447 857.529 258.383 830.957 257.658 C 815.926 257.249 802.063 255.363 786.946 256.732 C 784.547 258.55 784.968 259.771 784.083 263.358 C 782.316 250.028 784.4 149.925 783.368 148.127 C 782.455 149.533 782.567 151.631 782.476 153.394 C 774.491 156.313 769.594 153.987 761.028 152.039 C 758.973 153.023 758.534 153.416 756.326 153.411 C 755.704 151.886 755.818 146.113 755.783 144.078 C 753.622 152.33 754.971 207.486 755.894 216.483 C 709.596 217.662 663.338 215.957 617.23 216.228 C 559.275 216.569 502.676 216.959 444.701 216.099 C 444.694 197.729 443.609 178.264 445.093 159.793 C 445.262 157.699 443.848 148.934 443.74 145.392 C 441.308 159.72 435.329 150.258 428.808 152.946 C 428.432 153.692 426.745 157.093 426.151 157.204 C 415.872 159.132 395.112 160.277 385.171 156.886 C 378.432 154.872 357.969 155.828 350.175 155.77 C 308.107 155.5 266.153 157.419 224.179 153.69 C 216.291 152.989 204.361 154.074 197.136 152.168 C 195.464 151.393 179.396 149.244 177.001 149.243 C 176.975 138.336 177.239 125.805 176.878 115.03 C 176.824 115.104 175.146 176.781 174.753 184.095 C 130.73 187.212 80.833 181.568 38.6816 184.253 C 38.7071 135.001 39.0033 89.3974 40.8566 40.3518 z"/>
<path transform="translate(0,0)" fill="url(#Gradient9)" d="M 198.33 177.602 C 198.917 179.986 199.21 181.09 199.355 183.534 C 204.624 183.939 211.142 183.087 216.738 183.227 C 255.977 184.209 294.99 182.082 334.238 184.209 C 355.846 185.381 378.047 183.567 399.715 184.57 C 408.625 184.816 416.946 186.692 425.567 187.406 L 426.642 189.602 L 428.246 188.223 L 428.071 398.201 C 413.371 397.021 384.775 398.044 368.757 398.04 L 247.083 398.086 C 239.867 398.101 202.643 398.743 197.797 397.163 C 198.111 390.915 197.82 384.324 197.679 378.054 C 196.698 334.442 197.592 290.909 197.072 247.289 C 196.81 225.318 195.272 199.136 198.33 177.602 z"/>
<path transform="translate(0,0)" fill="url(#Gradient8)" d="M 444.96 231.98 C 517.727 231.462 590.498 231.475 663.265 232.02 C 680.786 232.12 698.307 232.06 715.827 231.842 C 727.816 231.614 744.494 230.649 755.862 231.618 C 754.618 274.88 755.121 317.084 754.835 360.318 C 753.571 362.02 753.62 362.831 753.499 364.922 L 752.932 364.889 C 707.289 362.56 660.975 368.873 615 367.839 C 567.166 366.762 518.796 370.032 470.891 367.834 C 462.659 367.562 454.038 361.722 445.259 362.535 C 444.692 319.354 445.168 275.265 444.96 231.98 z"/>
<path transform="translate(0,0)" fill="url(#Gradient7)" d="M 776.431 294.087 L 856.041 293.179 C 873.292 292.992 905.961 292.243 922.369 295.453 L 921.459 375.639 C 921.284 385.497 920.144 432.078 922.347 440.033 C 875.497 440.681 821.627 441.695 775.193 440.076 C 776.983 429.839 775.947 407.448 776.108 396.267 C 776.588 363.131 774.254 327.007 776.431 294.087 z"/>
<path transform="translate(0,0)" fill="rgb(70,70,70)" d="M 989.397 251.433 C 989.95 256.306 990.353 261.756 991.806 266.388 C 993.006 326.985 992.027 390.944 992.046 451.805 L 992.174 518.567 C 992.191 528.465 992.678 544.923 991.841 554.233 C 990.896 546.215 991.364 529.09 991.369 520.284 C 991.516 497.641 991.441 474.997 991.145 452.355 C 990.858 448.717 991.044 443.997 991.09 440.263 C 992.187 422.202 991.22 392.371 991.041 373.595 L 990.531 310 C 990.543 299.187 991.402 284.734 990.601 274.478 C 969.451 275.725 940.33 274.882 918.725 274.897 L 784.167 274.883 L 784.083 263.358 C 784.968 259.771 784.547 258.55 786.946 256.732 C 802.063 255.363 815.926 257.249 830.957 257.658 C 857.529 258.383 884.06 256.447 910.597 255.74 C 928.318 255.268 972.437 261.149 987.302 252.69 L 988.03 252.282 C 988.486 251.999 988.941 251.716 989.397 251.433 z"/>
<path transform="translate(0,0)" fill="rgb(49,49,49)" d="M 198.33 177.602 C 198.6 174.186 198.023 174.189 199.995 171.953 C 213.4 170.79 240.139 171.608 254.973 171.578 L 371.931 171.702 C 385.671 171.727 415.885 172.515 428.592 170.843 C 428.417 176.111 427.98 183.087 428.246 188.223 L 426.642 189.602 L 425.567 187.406 C 416.946 186.692 408.625 184.816 399.715 184.57 C 378.047 183.567 355.846 185.381 334.238 184.209 C 294.99 182.082 255.977 184.209 216.738 183.227 C 211.142 183.087 204.624 183.939 199.355 183.534 C 199.21 181.09 198.917 179.986 198.33 177.602 z"/>
<path transform="translate(0,0)" fill="rgb(70,70,70)" d="M 38.42 210.948 C 41.5818 214.312 40.6581 222.018 40.5104 226.866 L 40.49 227.51 C 44.3613 227.467 61.317 226.618 63.7521 227.497 C 66.5527 234.35 65.1376 279.142 63.8975 287.807 L 39.2852 287.899 C 39.2487 292.204 39.3927 299.234 38.9106 303.299 C 37.7201 293.614 38.2119 278.524 38.2201 268.456 C 38.1854 249.287 38.252 230.117 38.42 210.948 z"/>
<path transform="translate(0,0)" fill="rgb(49,49,49)" d="M 197.136 152.168 C 204.361 154.074 216.291 152.989 224.179 153.69 C 266.153 157.419 308.107 155.5 350.175 155.77 C 357.969 155.828 378.432 154.872 385.171 156.886 C 382.365 157.65 379.683 157.451 376.794 157.453 C 339.202 157.483 301.588 156.667 263.999 157.429 C 249.496 157.723 234.793 159.805 220.269 159.252 C 214 159.013 206.315 154.365 199.707 154.428 C 199.418 154.413 199.128 154.399 198.839 154.385 L 197.136 152.168 z"/>
<path transform="translate(0,0)" fill="rgb(70,70,70)" d="M 86.7154 195.081 C 99.1528 194.642 114.243 196.805 126.848 196.744 C 142.418 196.667 157.885 195.189 173.46 196.799 C 178.571 203.902 175.692 272.619 175.51 286.422 L 173.828 287.623 C 144.182 287.986 113.983 287.715 84.2931 287.739 C 84.5227 272.74 80.7677 202.164 86.7154 195.081 z"/>
<path transform="translate(0,0)" fill="rgb(212,212,211)" d="M 104.055 705.751 C 106.182 702.829 106.082 673.459 103.373 672.501 C 92.2893 668.585 46.2495 676.819 40.7724 667.182 C 41.3614 664.119 40.7556 664.892 42.7086 663.078 C 52.7022 661.355 66.2282 662.032 76.7455 662.158 C 104.969 662.494 132.844 661.501 161.001 663.994 C 168.155 664.627 178.211 662.74 185.716 663.35 C 190.814 661.882 190.526 657.667 196.088 657.205 C 204.632 656.495 215.845 658.295 224.005 657.4 C 240.591 655.579 252.46 659.725 268.145 661.597 C 276.741 662.623 289.827 659.133 298.853 659.667 C 334.67 660.774 370.579 661.159 406.418 661.906 C 416.249 662.111 426.47 659.865 435.483 661.61 C 437.066 661.916 439.566 661.901 441.357 662.057 C 445.437 668.991 439.672 715.462 443.762 722.39 L 444.461 725.749 C 445.816 728.639 445.648 731.942 445.776 735.068 C 446.16 726.76 446.147 718.142 446.551 710.078 C 476.183 721.292 551.193 715.411 585.511 715.52 C 605.26 715.583 626.102 714.916 646.083 716.378 C 654.693 717.008 666.537 715.296 674.733 716.865 C 674.87 720.352 674.91 727.219 675.811 730.294 L 676.177 718.677 C 680.696 714.43 673.879 669.539 679.235 665.016 C 698.558 648.695 684.35 691.326 691.019 698.808 C 710.642 697.674 737.856 698.074 757.738 698 C 756.892 691.786 757.265 685.752 757.082 679.535 C 756.863 672.103 755.787 652.79 769.042 659.679 C 770.364 664.413 769.561 688.621 769.506 695.49 C 827.454 695.508 923.181 693.169 984.005 696.013 C 985.325 696.075 987.734 698.621 988.457 700.531 C 988.766 703.775 987.39 705.455 985.721 708.215 C 988.538 707.925 988.93 707.644 991.399 706.217 C 992.305 715.699 991.804 730.653 991.769 740.52 L 991.666 799.03 L 991.636 989.768 L 348.989 989.847 L 137.498 989.785 L 69.5533 989.762 C 60.5224 989.755 47.3998 989.216 38.7819 989.599 C 36.2404 979.5 38.0876 917.913 38.1051 903.462 L 38.312 677.705 C 39.7763 676.039 39.3949 675.142 39.6375 672.561 C 58.9752 673.722 83.2028 672.593 103.117 672.889 C 103.308 683.716 103.334 694.978 104.055 705.751 z"/>
<path transform="translate(0,0)" fill="rgb(245,244,244)" d="M 104.055 705.751 C 106.182 702.829 106.082 673.459 103.373 672.501 C 92.2893 668.585 46.2495 676.819 40.7724 667.182 C 41.3614 664.119 40.7556 664.892 42.7086 663.078 C 52.7022 661.355 66.2282 662.032 76.7455 662.158 C 104.969 662.494 132.844 661.501 161.001 663.994 C 168.155 664.627 178.211 662.74 185.716 663.35 C 190.814 661.882 190.526 657.667 196.088 657.205 C 204.632 656.495 215.845 658.295 224.005 657.4 C 240.591 655.579 252.46 659.725 268.145 661.597 C 276.741 662.623 289.827 659.133 298.853 659.667 C 334.67 660.774 370.579 661.159 406.418 661.906 C 416.249 662.111 426.47 659.865 435.483 661.61 C 437.066 661.916 439.566 661.901 441.357 662.057 C 445.437 668.991 439.672 715.462 443.762 722.39 L 444.461 725.749 C 445.816 728.639 445.648 731.942 445.776 735.068 C 446.16 726.76 446.147 718.142 446.551 710.078 C 476.183 721.292 551.193 715.411 585.511 715.52 C 605.26 715.583 626.102 714.916 646.083 716.378 C 654.693 717.008 666.537 715.296 674.733 716.865 C 674.87 720.352 674.91 727.219 675.811 730.294 L 676.177 718.677 C 680.696 714.43 673.879 669.539 679.235 665.016 C 698.558 648.695 684.35 691.326 691.019 698.808 C 710.642 697.674 737.856 698.074 757.738 698 C 756.892 691.786 757.265 685.752 757.082 679.535 C 756.863 672.103 755.787 652.79 769.042 659.679 C 770.364 664.413 769.561 688.621 769.506 695.49 C 827.454 695.508 923.181 693.169 984.005 696.013 C 985.325 696.075 987.734 698.621 988.457 700.531 C 988.766 703.775 987.39 705.455 985.721 708.215 C 976.063 707.166 961.195 707.53 951.19 707.555 L 896.751 707.701 C 830.925 707.787 761.408 708.845 695.793 707.677 C 696.87 768.826 697.143 829.987 696.61 891.143 C 696.488 923.426 697.047 956.491 696.249 988.712 C 689.167 988.724 681.936 988.815 674.869 988.714 C 675.9 982.681 675 944.052 674.991 934.966 L 675.017 797.213 C 598.506 797.216 520.614 798.009 444.223 797.134 L 443.976 988.805 L 428.969 988.709 L 428.342 855.057 C 373.305 853.456 310.622 854.229 255.143 855.016 C 255.079 898.891 255.843 945.23 254.321 988.772 L 240.921 988.71 C 240.644 922.551 241.53 854.062 240.552 788.23 C 198.866 788.754 157.176 788.927 115.487 788.75 C 98.4514 788.638 53.9995 787.22 39.2379 788.787 C 38.8604 784.631 38.8733 779.597 38.7724 775.359 C 53.6457 776.794 86.4145 775.718 102.381 775.611 C 103.318 752.314 103.022 729.132 104.055 705.751 z"/>
<path transform="translate(0,0)" fill="rgb(212,212,211)" d="M 446.551 710.078 C 476.183 721.292 551.193 715.411 585.511 715.52 C 605.26 715.583 626.102 714.916 646.083 716.378 C 654.693 717.008 666.537 715.296 674.733 716.865 C 674.87 720.352 674.91 727.219 675.811 730.294 C 676.83 743.403 675.307 769.6 674.801 783.578 C 600.132 785.169 519.723 784.126 444.802 783.707 C 444.82 767.024 443.33 741.188 444.461 725.749 C 445.816 728.639 445.648 731.942 445.776 735.068 C 446.16 726.76 446.147 718.142 446.551 710.078 z"/>
<path transform="translate(0,0)" fill="rgb(212,212,211)" d="M 253.223 671.75 L 376.468 671.863 C 385.905 671.871 423.158 671.176 429.583 673.021 C 428.56 688.461 429.131 708.736 428.909 724.688 C 428.193 764.095 427.955 803.509 428.195 842.922 L 255.199 842.833 C 254.561 788.779 257.154 724.931 253.223 671.75 z"/>
<path transform="translate(0,0)" fill="rgb(212,212,211)" d="M 129.975 671.443 C 138.607 674.164 155.626 670.993 164.669 671.577 C 186.824 673.008 208.414 672.172 230.517 672.323 C 233.647 676.253 231.808 763.407 231.719 775.576 C 224.621 776.369 205.355 775.892 197.494 775.873 L 131.299 775.669 C 131.219 742.391 131.381 704.441 129.975 671.443 z"/>
<path transform="translate(0,0)" fill="rgb(212,212,211)" d="M 39.6375 672.561 C 58.9752 673.722 83.2028 672.593 103.117 672.889 C 103.308 683.716 103.334 694.978 104.055 705.751 C 103.022 729.132 103.318 752.314 102.381 775.611 C 86.4145 775.718 53.6457 776.794 38.7724 775.359 C 38.8733 779.597 38.8604 784.631 39.2379 788.787 C 39.5768 835.748 39.6729 882.711 39.5261 929.673 C 39.526 938.508 39.9869 983.869 38.7819 989.599 C 36.2404 979.5 38.0876 917.913 38.1051 903.462 L 38.312 677.705 C 39.7763 676.039 39.3949 675.142 39.6375 672.561 z"/>
<path transform="translate(0,0)" fill="url(#Gradient6)" d="M 445.259 362.535 C 454.038 361.722 462.659 367.562 470.891 367.834 C 518.796 370.032 567.166 366.762 615 367.839 C 660.975 368.873 707.289 362.56 752.932 364.889 L 753.499 364.922 C 753.62 362.831 753.571 362.02 754.835 360.318 C 755.453 375.845 755.064 393.102 755.009 408.767 L 755.137 540.048 L 545.262 540.901 L 476.223 540.877 C 468.413 540.864 452.157 540.142 445.21 540.788 C 445.269 498.123 445.999 452.342 445.229 409.797 C 447.139 405.395 445.478 368.689 445.259 362.535 z"/>
<path transform="translate(0,0)" fill="url(#Gradient5)" d="M 770.131 453.168 C 782.219 452.331 794.782 452.011 806.884 452.359 C 867.666 454.103 930.546 449.755 991.145 452.355 C 991.441 474.997 991.516 497.641 991.369 520.284 C 991.364 529.09 990.896 546.215 991.841 554.233 L 991.514 689.589 L 991.422 694.369 C 987.425 694.232 983.08 694.24 979.215 693.355 C 913.865 692.081 847.581 694.403 782.698 693.216 C 773.206 685.975 776.808 690.908 771.107 690.036 C 771.373 611.079 771.048 532.121 770.131 453.168 z"/>
<path transform="translate(0,0)" fill="rgb(212,212,211)" d="M 979.215 693.355 C 980.4 692.596 979.899 693.107 980.387 691.506 C 978.517 690.939 977.13 690.741 975.754 689.38 C 978.911 686.14 985.707 679.901 990.216 682.349 C 990.556 684.822 991.03 687.147 991.514 689.589 L 991.422 694.369 C 987.425 694.232 983.08 694.24 979.215 693.355 z"/>
<path transform="translate(0,0)" fill="url(#Gradient4)" d="M 444.151 552.706 C 520.708 554.139 599.369 552.349 676.24 553.043 C 676.047 560.781 676.004 568.891 676.107 576.626 C 676.739 623.767 674.819 671.616 676.177 718.677 L 675.811 730.294 C 674.91 727.219 674.87 720.352 674.733 716.865 C 666.537 715.296 654.693 717.008 646.083 716.378 C 626.102 714.916 605.26 715.583 585.511 715.52 C 551.193 715.411 476.183 721.292 446.551 710.078 C 446.147 718.142 446.16 726.76 445.776 735.068 C 445.648 731.942 445.816 728.639 444.461 725.749 L 443.762 722.39 C 445.006 711.455 444.213 679.319 444.18 666.972 C 443.927 628.884 443.917 590.795 444.151 552.706 z"/>
<path transform="translate(0,0)" fill="url(#Gradient3)" d="M 38.6852 305.772 C 57.1866 312.62 168.623 304.202 175.768 308.516 L 175.95 311.823 L 175.273 369.958 C 175.231 374.48 174.933 393.628 175.683 397.503 C 175.706 423.162 175.78 450.333 175.023 475.954 L 39.3194 476.182 C 39.2939 480.829 39.4924 488.966 39.156 493.336 L 38.4529 493.329 C 36.7655 438.676 38.1531 377.304 38.2503 322.27 C 38.2027 316.858 38.4939 311.199 38.6852 305.772 z"/>
<path transform="translate(0,0)" fill="rgb(70,70,70)" d="M 38.6852 305.772 C 57.1866 312.62 168.623 304.202 175.768 308.516 L 175.95 311.823 L 174.277 311.332 C 155.507 323.392 84.841 313.496 60.7007 316.66 C 52.383 317.75 43.1195 312.955 38.2503 322.27 C 38.2027 316.858 38.4939 311.199 38.6852 305.772 z"/>
<path transform="translate(0,0)" fill="url(#Gradient2)" d="M 38.4529 493.329 L 39.156 493.336 C 42.2493 496.048 76.1165 494.612 82.9133 494.555 L 172.029 494.035 C 171.286 517.823 174.067 651.508 169.774 661.07 C 129.261 661.464 79.3314 657.908 39.3083 660.488 C 39.3663 664.032 39.2914 669.16 39.6375 672.561 C 39.3949 675.142 39.7763 676.039 38.312 677.705 C 37.9841 669.842 38.0257 661.094 38.1497 653.176 C 38.9801 600.154 36.8148 546.264 38.4529 493.329 z"/>
<path transform="translate(0,0)" fill="rgb(164,164,164)" d="M 166.924 495.121 L 168.918 495.956 C 171.918 504.03 170.987 639.801 169.577 656.629 C 164.346 651.284 168.512 609.607 167.468 599.737 C 163.775 564.813 167.814 529.759 166.924 495.121 z"/>
<path transform="translate(0,0)" fill="rgb(115,114,114)" d="M 942.379 376.752 L 943.31 374.369 C 949.954 372.256 983.645 372.443 991.041 373.595 C 991.22 392.371 992.187 422.202 991.09 440.263 C 983.133 441.751 951.481 440.963 942.81 440.847 C 941.644 423.681 941.516 393.73 942.379 376.752 z"/>
<path transform="translate(0,0)" fill="rgb(212,212,211)" d="M 771.107 690.036 C 776.808 690.908 773.206 685.975 782.698 693.216 C 779.046 693.333 774.949 693.763 771.581 692.494 L 771.107 690.036 z"/>
<path transform="translate(0,0)" fill="url(#Gradient1)" d="M 189.189 419.995 C 211.85 421.567 254.186 420.043 278.748 420.025 C 328.611 419.989 380.361 420.723 430.055 419.76 L 430.025 574.555 C 430.063 599.435 430.884 631.385 429.475 655.562 C 370.385 656.929 309.743 655.247 250.531 655.982 C 231.281 656.222 210.03 655.083 191.269 655.682 C 189.979 603.394 191.854 548.822 190.941 496.371 C 190.541 473.398 191.505 442.3 189.189 419.995 z"/>
<path transform="translate(0,0)" fill="rgb(164,164,164)" d="M 689.38 554.283 C 710.879 553.393 734.425 553.776 756.078 553.867 L 755.894 619.952 C 734.691 620.454 713.478 620.315 692.284 619.534 C 692.27 595.21 692.981 578.65 689.38 554.283 z"/>
<path transform="translate(0,0)" fill="rgb(212,212,211)" d="M 754.999 630.68 L 755.202 630.813 C 756.733 633.705 755.956 687.973 755.928 696.02 C 736.458 697.491 713.15 696.889 693.368 696.768 C 690.692 693.78 691.928 639.478 691.956 631.646 C 712.16 631.862 734.078 630.571 754.999 630.68 z"/>
<path transform="translate(0,0)" fill="rgb(115,114,114)" d="M 327.508 399.515 C 331.585 398.838 347.187 399.164 351.493 399.513 C 349.256 401.312 330.301 400.964 327.508 399.515 z"/>
<path transform="translate(0,0)" fill="rgb(115,114,114)" d="M 306 399.5 C 310.229 398.77 319.747 399.099 324 399.5 C 319.736 400.406 310.363 400.057 306 399.5 z"/>
</svg>