<svg version="1.1" xmlns="http://www.w3.org/2000/svg" style="display: block;" viewBox="0 0 1024 1968" width="256" height="492" preserveAspectRatio="none">
<defs>
	<linearGradient id="Gradient1" gradientUnits="userSpaceOnUse" x1="399.01" y1="1783.76" x2="408.949" y2="1794.94">
		<stop class="stop0" offset="0" stop-opacity="0.321569" stop-color="rgb(255,156,135)"/>
		<stop class="stop1" offset="1" stop-opacity="0.392157" stop-color="rgb(252,153,136)"/>
	</linearGradient>
	<linearGradient id="Gradient2" gradientUnits="userSpaceOnUse" x1="392.04" y1="184.408" x2="400.827" y2="172.409">
		<stop class="stop0" offset="0" stop-opacity="0.294118" stop-color="rgb(252,159,139)"/>
		<stop class="stop1" offset="1" stop-opacity="0.32549" stop-color="rgb(254,155,134)"/>
	</linearGradient>
	<linearGradient id="Gradient3" gradientUnits="userSpaceOnUse" x1="651.01" y1="1867.54" x2="535.992" y2="1867.45">
		<stop class="stop0" offset="0" stop-opacity="1" stop-color="rgb(255,38,0)"/>
		<stop class="stop1" offset="1" stop-opacity="1" stop-color="rgb(255,118,84)"/>
	</linearGradient>
	<linearGradient id="Gradient4" gradientUnits="userSpaceOnUse" x1="820.553" y1="564.149" x2="893.982" y2="650.939">
		<stop class="stop0" offset="0" stop-opacity="1" stop-color="rgb(255,34,0)"/>
		<stop class="stop1" offset="1" stop-opacity="1" stop-color="rgb(255,114,75)"/>
	</linearGradient>
	<linearGradient id="Gradient5" gradientUnits="userSpaceOnUse" x1="816.312" y1="1404.25" x2="873.77" y2="1333.44">
		<stop class="stop0" offset="0" stop-opacity="1" stop-color="rgb(254,34,0)"/>
		<stop class="stop1" offset="1" stop-opacity="1" stop-color="rgb(255,96,56)"/>
	</linearGradient>
	<linearGradient id="Gradient6" gradientUnits="userSpaceOnUse" x1="313.578" y1="684.404" x2="590.581" y2="494.291">
		<stop class="stop0" offset="0" stop-opacity="1" stop-color="rgb(255,108,74)"/>
		<stop class="stop1" offset="1" stop-opacity="1" stop-color="rgb(255,150,124)"/>
	</linearGradient>
</defs>
<path transform="translate(0,0)" fill="rgb(1,0,0)" d="M 349.588 164.342 C 353.161 165.067 356.729 165.816 360.292 166.589 C 366.426 169.163 381.074 177.358 384.768 178.634 C 389.657 182.287 392.751 183.834 398.1 186.619 C 403.432 190.778 409.322 194.576 414.95 198.355 L 418.285 200.482 C 427.367 204.824 434.521 204.322 444.492 204.588 C 448.601 204.644 452.423 204.444 456.512 204.239 C 465.613 204.261 475.729 204.514 484.743 204.259 C 505.349 202.997 526.518 205.914 547.231 204.256 C 554.386 203.684 564.286 202.378 570.962 204.068 C 585.831 204.505 600.711 204.457 615.578 203.922 C 673.089 207.181 732.053 202.231 789.437 206.321 C 802.631 213.704 829.87 231.397 838.714 242.956 C 850.435 258.274 867.318 279.282 876.636 295.484 C 911.468 356.042 934.345 420.903 958.378 486.13 C 966.934 509.352 974.369 533.938 981.076 557.805 C 990.444 585.037 991.063 608.306 996.345 635.856 C 1001.52 662.84 1007.02 686.72 1008.48 714.664 C 1009.26 729.562 1014.36 746.78 1015.61 761.859 C 1019.34 812.501 1019.96 863.349 1022.06 914.057 C 1022.47 924.136 1020.85 961.368 1024 968.207 L 1024 1033.59 C 1021.17 1040.91 1022.21 1062.91 1021.93 1071.98 L 1019.76 1153.41 C 1018.94 1178.2 1017.63 1202.97 1015.81 1227.7 C 1014.48 1243.75 1010.36 1261.7 1008.03 1277.85 C 1007.1 1284.27 1005.26 1305.87 1003.35 1310.81 C 992.95 1337.73 993.044 1364.31 988.21 1392.44 C 986.648 1401.53 982.634 1411.59 980.77 1420.74 C 967.014 1480.45 946.447 1541.26 920.773 1596.95 C 912.812 1614.22 902.87 1628.67 893.433 1644.88 C 889.172 1652.19 885.143 1663.55 880.466 1671.97 C 863.725 1702.3 841.183 1729.03 814.124 1750.66 C 802.972 1759.56 797.247 1767.5 781.994 1767.97 C 724.752 1769.73 667.174 1766.82 609.991 1770.14 C 603.867 1770.62 589.415 1770.14 582.431 1770.15 C 560.493 1768.8 538.48 1766.6 516.474 1767.25 C 507.545 1767.52 498.608 1767.62 489.679 1767.41 C 478.208 1767.79 466.731 1768.02 455.254 1768.1 L 444.39 1767.76 C 440.796 1767.89 426.783 1767.99 424.408 1768.75 L 423.49 1768.3 C 416.776 1774.13 413.202 1777.08 406.161 1781.93 C 399.011 1786.85 378.925 1797.79 373.892 1803.29 C 370.796 1804.69 370.402 1804.8 366.945 1804.62 C 359.931 1796.97 349.845 1788.01 344.403 1779.79 C 341.745 1778.87 339.642 1777.79 337.657 1775.76 C 324.32 1762.15 312.925 1732.1 313.536 1713.13 C 314.373 1687.14 336.873 1682.32 355.906 1671.8 C 361.821 1668.53 367.255 1664.16 372.174 1659.54 C 443.478 1592.63 478.89 1436.9 496.206 1341.87 C 499.353 1324.6 503.427 1307.29 505.666 1289.87 C 509.277 1261.8 508.521 1232.35 510.293 1204.04 C 511.44 1185.71 513.886 1167.4 515.349 1149.08 C 517.04 1127.9 517.785 1106.49 518.516 1085.26 C 524.585 997.457 520.54 907.988 515.957 820.275 C 514.054 811.987 514.494 800.533 512.614 793.103 C 506.776 770.027 509.303 728.752 502.074 707.526 C 497.311 691.044 495.193 681.956 491.981 664.966 C 488.357 649.918 484.406 634.362 481.3 619.252 L 477.382 604.088 L 476.015 599.306 C 470.283 579.621 466.8 560.055 460.521 540.02 C 454.282 520.108 447.103 503.317 439.628 484.049 C 420.354 434.372 399.708 391.304 352.95 361.257 C 328.824 345.754 311.434 357.604 292.734 332.459 C 283.93 322.707 275.52 305.704 272.013 292.871 C 270.763 290.237 270.021 287.39 269.827 284.481 C 268.723 267.638 281.073 231.453 291.796 219.078 C 293.474 213.935 306.541 200.73 311.058 197.241 C 314.297 194.118 315.264 192.967 319.333 191.189 L 321.151 190.386 C 330.124 181.952 340.183 172.022 349.588 164.342 z M 590.998 376.654 C 605.064 375.951 620.348 376.075 634.555 375.808 C 624.536 356.661 616.903 331.28 606.447 311.716 C 597.679 295.309 594.026 298.062 576.698 298.624 C 568.579 310.641 567.761 312.571 563.676 326.575 C 571.429 339.692 574.416 349.892 580.958 363.048 C 584.469 368.933 585.873 371.929 590.998 376.654 z M 782.609 1241.32 C 800.506 1241.89 820.928 1242.31 838.845 1241.46 C 843.632 1238.62 844.374 1222.26 844.653 1216.29 C 847.049 1165.05 851.954 1111 851.234 1059.8 C 839.664 1059.62 805.912 1060.43 796.633 1059.43 C 793.573 1064.02 795.04 1081.37 794.713 1087.94 C 793.513 1112.09 793.231 1136.34 791.768 1160.48 C 789.648 1187 783.996 1214.61 782.609 1241.32 z M 794.914 924.229 C 811.739 925.604 833.983 925.037 851.29 925.061 C 850.829 885.04 849.598 845.031 847.6 805.058 C 846.835 790.886 845.719 764.681 843.721 751.165 C 825.841 750.395 802.262 752.034 785.702 750.34 C 782.683 760.524 790.607 795.162 791.254 807.525 C 793.268 846 795.786 885.78 794.914 924.229 z M 608.707 1539.3 C 624.765 1539.77 640.829 1540 656.894 1540 C 660.983 1536.29 664.435 1514.18 666.734 1507.5 C 679.888 1469.25 689.707 1430.15 700.133 1391.13 C 703.054 1380.08 704.722 1361.14 707.225 1348.81 C 692.917 1348.67 676.245 1349.34 662.467 1348.88 C 647.898 1396.48 638.54 1447.38 623.345 1495.15 C 618.581 1510.12 613.199 1523.91 608.707 1539.3 z M 714.82 1539.49 C 731.248 1540.28 754.705 1540.55 771.124 1539.66 C 782.296 1518.21 790.687 1489.97 795.837 1466.26 C 798.161 1455.56 801.253 1435.41 804.693 1426.13 C 807.689 1421.14 808.372 1419.86 807.325 1414.31 C 789.411 1405.82 781.628 1368.98 783.498 1350.77 C 783.271 1349.56 782.764 1349.21 781.936 1348.27 C 777.112 1347.82 773.515 1347.81 768.714 1347.82 C 760.116 1372.91 758.127 1399.79 751.459 1423.68 C 744.202 1448.77 736.433 1473.7 728.157 1498.46 C 722.78 1514.55 719.324 1522.04 714.82 1539.49 z M 697.241 1706.75 C 704.374 1694.34 746.152 1621.09 744.031 1611.84 C 738.137 1609.7 711.009 1610.99 703.401 1611.48 C 697.252 1612.04 691.963 1612.33 685.792 1612.52 C 675.685 1632.11 665.994 1652 656.7 1672.01 C 653.337 1679.24 635.764 1700.69 635.854 1706.48 C 641.509 1707.62 667.456 1707.09 674.75 1707.05 C 681.357 1707.08 690.914 1707.38 697.241 1706.75 z M 864.532 1429.73 L 863.154 1441.59 C 861.781 1453.42 856.707 1462.55 853.121 1473.76 L 832.563 1539.24 C 844.997 1540.43 866.641 1540.29 878.979 1539.33 C 887.785 1525.75 893.57 1487.42 900.772 1470.4 C 902.955 1465.25 903.285 1451.51 905.513 1445.49 C 909.365 1435.07 912.672 1426.64 914.559 1415.67 C 915.875 1409.05 918.127 1403.93 918.674 1396.74 C 909.059 1411.65 883.089 1431.63 864.532 1429.73 z M 728.924 470.076 C 730.865 492.605 744.046 520.178 750.203 543.409 C 758.47 574.603 762.81 609.035 773.07 639.52 C 773.421 640.562 779.149 641.172 780.419 641.339 C 785.358 641.284 787.234 641.687 790.928 638.664 C 775.688 602.353 780.74 580.069 804.509 550.438 C 805.626 546.595 803.702 540.826 802.72 536.715 C 797.714 518.089 793.992 488.959 786.413 472.138 C 769.765 470.679 742.161 472.246 728.924 470.076 z M 754.867 1708.17 C 766.266 1705.13 783.784 1709.33 796.213 1706.91 L 796.828 1706.79 C 810.021 1704.19 841.858 1637.32 847.435 1624.84 C 848.786 1621.82 849.922 1615.4 850.107 1611.91 L 849.203 1610.51 L 848.216 1610.65 C 839.127 1610.67 806.976 1611.99 801.018 1611.05 C 794.768 1639.23 777.637 1665.3 761.929 1689.31 C 759.039 1693.73 753.218 1702.22 753.901 1707.52 L 754.867 1708.17 z M 691.347 375.237 C 700.403 375.978 743.305 376.98 751.774 375.581 C 747.388 366.08 744.592 356.057 740.263 346.479 C 732.691 329.724 723.954 314.08 715.216 297.997 C 694.52 297.195 675.097 297.787 654.815 297.125 C 660.049 307.713 664.572 318.587 669.655 329.35 C 676.152 343.108 686.847 361.04 691.347 375.237 z M 957.712 1059.77 C 949.612 1059.77 920.361 1060.37 913.696 1059.41 C 911.747 1066.57 912.826 1105.9 911.749 1116.83 C 909.836 1136.27 907.626 1156.97 905.678 1176.45 C 903.7 1198.06 901.993 1219.7 900.557 1241.36 C 914.334 1241.67 931.414 1242.4 945.076 1241.53 C 952.585 1201.53 954.269 1163.95 955.596 1123.45 C 956.277 1102.67 958.299 1080.39 957.712 1059.77 z M 809.513 375.06 C 818.525 375.912 849.448 377.321 857.252 375.077 C 850.424 369.095 849.496 349.869 846.083 343.191 C 839.433 330.176 829.589 309.737 821.323 298.369 C 804.114 297.052 787.074 298.4 771.282 297.088 C 776.622 306.669 781.672 316.516 787.092 326.011 C 796.428 342.364 799.856 358.646 809.513 375.06 z M 595.712 1610.5 C 590.929 1610.59 583.568 1610.3 579.349 1611.98 C 574.689 1623.71 569.751 1634.49 565.17 1645.73 C 573.247 1655.02 582.969 1686.91 593.356 1687.81 L 594.842 1686.13 L 615.714 1640.61 C 621.584 1627.5 624.473 1625.41 627.703 1610.64 C 617.648 1611.42 605.918 1610.79 595.712 1610.5 z M 863.06 532.907 C 874.482 530.811 886.518 536.067 895.797 542.475 C 903.494 547.797 910.255 554.357 915.807 561.889 C 915.346 557.415 914.738 553.378 914.04 548.955 C 911.773 541.028 906.851 530.586 905.365 522.945 C 901.758 504.388 897.121 489.443 890.642 471.67 C 876.37 470.501 861.456 471.563 846.753 470.683 C 847.722 482.157 850.328 493.434 854.492 504.169 C 857.356 511.553 859.642 512.804 860.79 521.151 C 861.699 525.251 862.442 528.757 863.06 532.907 z M 707.658 641.607 C 709.269 638.228 706.57 626.533 706.031 622.178 C 700.146 574.572 685.574 528.432 672.708 482.382 C 671.993 479.823 669.467 473.376 666.739 472.286 C 656.61 469.486 633.439 469.971 623.188 470.502 L 621.947 472.472 C 627.844 498.353 638.452 526.425 644.636 552.792 C 650.04 575.83 655.269 598.802 660.793 621.833 C 662.503 628.01 662.814 635.517 664.286 641.755 C 678.149 641.866 694.344 641.166 707.658 641.607 z M 735.395 1060.01 C 723.561 1059.85 699.489 1060.61 689.141 1059.65 C 688.937 1081.56 689.115 1104.92 686.794 1126.64 C 682.698 1164.94 679.487 1202.84 676.735 1241.25 C 686.719 1241.53 713.655 1242.69 723.059 1241.33 C 731.462 1188.7 731.632 1136.91 735.226 1083.82 C 735.768 1075.82 735.826 1068.02 735.395 1060.01 z M 735.881 924.46 C 735.649 903.398 734.652 882.493 733.352 861.477 C 731.115 825.31 730.521 788.468 727.371 752.396 C 709.264 750.424 695.126 752.067 678.334 750.727 C 683.541 809.311 689.51 865.354 688.769 924.166 C 697.84 924.805 727.385 925.813 735.881 924.46 z M 902.114 750.788 C 905.801 810.571 915.129 863.741 912.619 924.149 C 921.961 924.635 949.849 925.972 957.763 924.517 C 957.128 901.95 955.431 760.985 946.324 752.952 C 941.527 748.722 910.303 751.407 902.114 750.788 z"/>
<path transform="translate(0,0)" fill="rgb(80,20,18)" d="M 349.588 164.342 C 353.161 165.067 356.729 165.816 360.292 166.589 C 366.426 169.163 381.074 177.358 384.768 178.634 C 389.657 182.287 392.751 183.834 398.1 186.619 C 403.432 190.778 409.322 194.576 414.95 198.355 L 418.285 200.482 C 427.367 204.824 434.521 204.322 444.492 204.588 C 448.601 204.644 452.423 204.444 456.512 204.239 C 465.613 204.261 475.729 204.514 484.743 204.259 C 482.526 205.068 481.53 205.317 479.594 206.628 C 482.497 209.499 487.297 210.107 490.747 212.411 C 494.275 214.767 505.347 226.242 506.179 230.545 C 506.252 230.925 505.353 237.105 505.246 237.805 L 503.383 237.185 C 507.507 242.619 512.801 240.032 517.026 245.15 C 528.795 259.405 523.721 286.655 530.248 296.08 C 532.745 292.74 531.573 288.274 533.958 286.237 C 538.983 290.321 538.317 303.247 547.42 308.306 C 548.056 308.659 546.569 311.809 548.702 313.047 L 551.231 310.698 L 552.477 312.957 C 551.699 314.228 551.493 314.182 550.201 314.987 C 552.44 318.29 555.868 320.754 555.735 324.563 C 555.461 332.363 558.472 339.804 565.048 345.108 C 562.248 357.3 572.508 368.135 571.719 371.765 L 569.184 370.041 C 568.15 372.683 568.425 373.383 568.931 376.219 C 571.116 379.502 577.04 383.845 577.445 385.881 L 576.448 386.974 L 578.486 387.979 L 579.941 387.471 L 580.042 385.909 L 580.64 385.879 C 580.514 389.226 579.853 391.145 581.277 393.684 L 582.339 393.063 L 583.277 388.676 L 588.398 402.959 L 587.89 403.824 L 585.033 402.975 C 584.871 406.83 592.894 415.048 594.557 418.899 C 601.732 435.522 605.208 456.36 612.821 472.273 C 612.108 473.528 612.215 473.63 610.947 474.247 C 611.461 479.923 615.44 483.989 615.566 486.392 C 616.162 497.71 616.666 512.252 617.856 523.462 C 618.389 528.484 624.623 542.653 626.078 549.939 C 627.953 559.337 629.079 567.618 630.478 576.739 C 630.912 579.568 638.382 588.239 640.005 595.069 L 640.149 595.661 C 643.13 608.378 636.575 619.608 645.799 637.3 L 646.672 632.001 L 647.937 632.208 C 648.295 633.637 648.443 634.602 649.656 635.572 L 648.632 637.631 L 650.004 639.156 L 650.993 637.95 C 654.422 642.766 649.887 652.646 654.055 658.894 L 655.47 658.893 C 656.443 656.671 657.274 654.558 658.573 652.507 C 661.161 682.502 662.815 712.542 664.768 742.629 C 665.098 747.706 667.088 752.349 667.288 757.51 C 668.311 783.956 667.339 810.756 667.371 837.231 L 668.466 953.826 C 668.64 974.781 675.279 999.801 673.413 1021.85 C 672.759 1029.57 669.714 1035.91 669.612 1043.55 C 669.17 1107.77 667.921 1172.27 666.209 1236.47 C 665.781 1252.49 662.429 1271.31 661.47 1287.64 C 661.183 1292.52 662.376 1299.03 662.235 1304.01 C 662.121 1308.02 652.596 1319.55 652.535 1322.88 C 652.295 1336.22 657.114 1341.9 647.901 1353.62 C 642.959 1361.08 648.773 1361.86 641.404 1367.36 C 637.727 1372.56 634.467 1396.99 631.932 1405.85 C 630.716 1410.1 622.393 1427.5 622.39 1428.39 C 622.361 1436.4 621.905 1447.17 619.323 1457.55 C 615.238 1473.97 615.386 1495.49 608.66 1511.31 C 607.824 1508.15 608.386 1497.47 608.716 1493.98 C 607.532 1494.08 607.308 1494.21 606.199 1493.69 C 603.985 1498.35 606.597 1497.66 603.479 1503.88 C 596.472 1517.86 601.583 1541.68 594.121 1556.3 C 591.03 1552.89 592.857 1551.49 594.129 1548.08 C 596.382 1542.04 592.569 1539.78 596.118 1532.69 L 594.205 1533.32 L 592.767 1531.66 L 591.634 1531.97 C 587.335 1542.95 584.104 1557.17 580.978 1568.83 L 584.443 1569.84 L 581.884 1568.77 L 584.137 1567.87 C 584.288 1569.43 585.565 1572.33 585.354 1572.72 C 580.539 1581.59 577.215 1600.67 570.392 1607.46 L 569.5 1607.38 C 569.614 1606.73 570.259 1602.82 570.386 1602.48 L 568.605 1602.24 C 563.487 1608.08 566.427 1621.73 560.473 1627.63 L 562.486 1628.4 C 561.796 1632.11 560.715 1630.97 561.659 1635.02 C 562.765 1639.77 562.94 1643.11 560.655 1647.64 L 559.139 1645.88 C 557.521 1646.65 557.448 1646.86 556.198 1648.07 L 550.989 1649.2 C 548.944 1654.36 553.004 1657.37 545.703 1666.39 L 546.005 1665.59 C 543.708 1669.86 544.674 1670.39 543.467 1674.39 L 546.356 1674.61 C 546.123 1678.56 526.269 1710.53 522.942 1715.95 C 519.811 1721.05 518.973 1729.47 514.649 1734.66 C 512.822 1732.11 516.159 1722.78 513.955 1722.11 C 510.728 1727.36 505.586 1735.71 501.686 1740.33 C 503.41 1741.81 505.151 1743.27 506.909 1744.71 C 502.811 1742.75 503.541 1742.33 499.696 1742.85 C 497.278 1745.95 497.935 1744.48 497.302 1748.46 L 498.565 1747.44 L 500.653 1748.34 C 498.095 1749.55 497.042 1751.58 495.434 1753.85 L 494.465 1751.14 C 490.226 1753.68 484.623 1756.05 482.477 1759.77 L 484.531 1761.41 C 480.35 1763.86 476.074 1761.2 473.001 1763.06 C 479.157 1770.51 486.072 1758.71 489.88 1757.89 L 490.885 1758.93 C 489.419 1761.92 486.948 1764.38 487.122 1766.57 L 489.679 1767.41 C 478.208 1767.79 466.731 1768.02 455.254 1768.1 L 444.39 1767.76 C 440.796 1767.89 426.783 1767.99 424.408 1768.75 L 423.49 1768.3 C 416.776 1774.13 413.202 1777.08 406.161 1781.93 C 399.011 1786.85 378.925 1797.79 373.892 1803.29 C 370.796 1804.69 370.402 1804.8 366.945 1804.62 C 359.931 1796.97 349.845 1788.01 344.403 1779.79 C 341.745 1778.87 339.642 1777.79 337.657 1775.76 C 324.32 1762.15 312.925 1732.1 313.536 1713.13 C 314.373 1687.14 336.873 1682.32 355.906 1671.8 C 361.821 1668.53 367.255 1664.16 372.174 1659.54 C 443.478 1592.63 478.89 1436.9 496.206 1341.87 C 499.353 1324.6 503.427 1307.29 505.666 1289.87 C 509.277 1261.8 508.521 1232.35 510.293 1204.04 C 511.44 1185.71 513.886 1167.4 515.349 1149.08 C 517.04 1127.9 517.785 1106.49 518.516 1085.26 C 524.585 997.457 520.54 907.988 515.957 820.275 C 514.054 811.987 514.494 800.533 512.614 793.103 C 506.776 770.027 509.303 728.752 502.074 707.526 C 497.311 691.044 495.193 681.956 491.981 664.966 C 488.357 649.918 484.406 634.362 481.3 619.252 L 477.382 604.088 L 476.015 599.306 C 470.283 579.621 466.8 560.055 460.521 540.02 C 454.282 520.108 447.103 503.317 439.628 484.049 C 420.354 434.372 399.708 391.304 352.95 361.257 C 328.824 345.754 311.434 357.604 292.734 332.459 C 283.93 322.707 275.52 305.704 272.013 292.871 C 270.763 290.237 270.021 287.39 269.827 284.481 C 268.723 267.638 281.073 231.453 291.796 219.078 C 293.474 213.935 306.541 200.73 311.058 197.241 C 314.297 194.118 315.264 192.967 319.333 191.189 L 321.151 190.386 C 330.124 181.952 340.183 172.022 349.588 164.342 z"/>
<path transform="translate(0,0)" fill="url(#Gradient6)" d="M 319.333 191.189 L 321.151 190.386 C 329.107 191.388 346.815 193.051 352.841 197.386 C 365.422 201.35 372.882 206.805 383.629 213.415 C 408.942 228.985 424.199 249.053 440.593 273.225 C 448.342 284.651 457.941 296.117 463.9 308.938 C 470.432 323.896 506.787 397.041 507.752 406.799 C 513.406 417.902 521.71 446.526 525.906 459.979 C 537.088 495.835 556.342 547.675 560.535 584.202 L 561.082 586.935 C 564.453 607.618 574.509 642.974 574.984 661.88 C 577.055 671.513 578.47 679.815 579.963 689.493 C 584.556 717.1 586.89 744.288 588.834 772.2 C 590.013 789.131 594.575 807.31 595.159 823.967 C 597.113 879.695 600.132 935.581 599.085 991.365 C 598.819 1005.51 600.863 1035.26 598.146 1048.06 C 593.896 1035.26 599.384 982.882 595.216 978.002 L 595.975 978.268 C 590.392 978.403 589.014 982.994 580.564 983.232 C 568.12 983.583 539.39 994.212 528.121 988.928 L 525.984 989.494 C 522.209 1002.06 523.527 1087.66 519.784 1090.13 C 519.297 1088.43 518.882 1086.98 518.516 1085.26 C 524.585 997.457 520.54 907.988 515.957 820.275 C 514.054 811.987 514.494 800.533 512.614 793.103 C 506.776 770.027 509.303 728.752 502.074 707.526 C 497.311 691.044 495.193 681.956 491.981 664.966 C 488.357 649.918 484.406 634.362 481.3 619.252 L 477.382 604.088 L 476.015 599.306 C 470.283 579.621 466.8 560.055 460.521 540.02 C 454.282 520.108 447.103 503.317 439.628 484.049 C 420.354 434.372 399.708 391.304 352.95 361.257 C 328.824 345.754 311.434 357.604 292.734 332.459 C 283.93 322.707 275.52 305.704 272.013 292.871 C 270.763 290.237 270.021 287.39 269.827 284.481 C 268.723 267.638 281.073 231.453 291.796 219.078 C 293.474 213.935 306.541 200.73 311.058 197.241 C 314.297 194.118 315.264 192.967 319.333 191.189 z"/>
<path transform="translate(0,0)" fill="rgb(254,34,9)" d="M 292.734 332.459 C 298.259 327.04 304.391 326.313 312.149 326.621 C 337.053 327.61 359.362 334.917 376.814 353.009 C 402.621 379.763 417.817 404.357 431.79 438.368 C 434.062 443.899 444.665 471.649 447.562 475.16 C 457.602 503.324 465.923 528.531 472.866 557.699 C 475.742 569.78 479.364 580.678 481.708 593.172 L 483.866 599.602 C 485.537 605.373 487.421 611.154 488.168 617.103 C 490.048 629.477 492.821 646.973 495.763 658.976 C 494.541 661.302 493.807 663.059 491.981 664.966 C 488.357 649.918 484.406 634.362 481.3 619.252 L 477.382 604.088 L 476.015 599.306 C 470.283 579.621 466.8 560.055 460.521 540.02 C 454.282 520.108 447.103 503.317 439.628 484.049 C 420.354 434.372 399.708 391.304 352.95 361.257 C 328.824 345.754 311.434 357.604 292.734 332.459 z"/>
<path transform="translate(0,0)" fill="rgb(254,130,102)" d="M 447.562 475.16 C 452.396 473.625 450.315 470.113 454.381 471.446 C 456.756 475.141 457.373 476.16 458.903 480.252 L 459.749 479.973 C 462.422 479.11 463.351 478.676 466.081 479.634 C 468.292 482.467 467.695 481.12 468.144 484.906 C 465.547 490.483 463.15 488.337 462.001 493.218 C 464.788 498.487 464.887 495.036 468.579 498.974 C 467.436 502.462 466.031 505.228 467.452 508.535 L 469.95 506.6 L 471.573 507.68 C 471.414 509.312 471.333 510.533 471.297 512.174 C 485.005 522.632 471.221 526.206 471.485 530.668 L 473.929 530.501 C 474.717 532.595 475.814 535.187 476.243 537.331 C 473.431 543.159 476.071 544.656 478.095 550.544 C 480.215 547.148 480.067 546.484 479.696 542.479 L 481.016 541.441 C 480.118 540.617 486.475 550.794 487.49 552.143 C 487.037 564.194 488.431 565.117 493.444 575.469 C 493.953 576.521 492.679 591.97 492.314 594.006 L 490.734 589.988 C 488.937 591.384 489.222 592.99 488.679 595.81 L 488.338 594.587 L 488.474 596.454 L 488.093 594.088 C 487.625 601.209 490.406 596.681 490.433 603.623 L 489.647 604.22 L 487.988 602.346 C 487.32 604.184 487.389 604.19 487.367 606.047 C 489.783 606.95 490.116 607.056 492.686 606.973 C 492.944 608.58 493.407 610.973 493.451 612.54 L 494.468 611.804 L 495.918 613.578 L 498.383 609.768 C 500.169 611.145 500.508 613.123 501.494 615.502 C 501.05 618.124 500.657 620.167 500.039 622.765 C 503.609 626.13 502.375 621.481 505.556 626.569 C 501.659 627.968 500.328 624.111 496.035 625.967 C 495.99 629.074 496.788 630.138 498.211 632.813 L 499.068 632.846 L 500.539 629.106 C 502.782 628.516 501.747 628.43 503.746 629.059 C 504.754 632.12 505.798 640.442 504.428 643.339 L 500.56 645.286 C 502.114 655.051 503.806 657.032 500.342 665.568 C 508.175 670.815 505.739 664.022 511.405 670.141 C 512.138 674.116 510.424 675.237 507.585 677.913 C 508.418 682.421 510.567 692.733 510.637 697.235 C 510.686 700.388 504.978 701.774 509.806 705.595 C 511.664 705.315 513.517 705.006 515.364 704.667 C 515.587 705.228 518.26 711.905 518.271 711.998 C 518.727 715.754 514.244 718.445 518.525 720.81 C 522.537 717.425 518.964 716.499 523.206 712.808 L 524.6 713.513 C 529.147 729.763 538.607 745.612 523.313 753.093 C 523.275 753.112 523.395 760.388 523.048 761.218 C 519.842 768.332 514.098 772.348 514.103 780.169 C 514.107 787.871 520.762 815.95 517.095 820.618 L 515.957 820.275 C 514.054 811.987 514.494 800.533 512.614 793.103 C 506.776 770.027 509.303 728.752 502.074 707.526 C 497.311 691.044 495.193 681.956 491.981 664.966 C 493.807 663.059 494.541 661.302 495.763 658.976 C 492.821 646.973 490.048 629.477 488.168 617.103 C 487.421 611.154 485.537 605.373 483.866 599.602 L 481.708 593.172 C 479.364 580.678 475.742 569.78 472.866 557.699 C 465.923 528.531 457.602 503.324 447.562 475.16 z"/>
<path transform="translate(0,0)" fill="rgb(254,34,9)" d="M 495.763 658.976 C 500.613 677.392 503.131 688.079 502.074 707.526 C 497.311 691.044 495.193 681.956 491.981 664.966 C 493.807 663.059 494.541 661.302 495.763 658.976 z"/>
<path transform="translate(0,0)" fill="rgb(254,130,102)" d="M 291.796 219.078 C 298.954 224.659 292.806 233.286 294.426 235.633 C 299.758 239.798 290.965 240.533 291.376 246.366 C 291.649 250.238 294.299 257.223 291.762 259.766 C 283.756 267.793 283.493 262.602 283.528 274.449 L 285.838 272.627 L 286.906 272.907 C 287.475 276.102 284.249 285.685 283.167 289.436 C 279.703 291.495 277.095 290.076 273.578 288.724 L 272.794 289.911 L 273.297 292.101 L 272.013 292.871 C 270.763 290.237 270.021 287.39 269.827 284.481 C 268.723 267.638 281.073 231.453 291.796 219.078 z"/>
<path transform="translate(0,0)" fill="rgb(254,130,102)" d="M 352.841 197.386 C 365.422 201.35 372.882 206.805 383.629 213.415 C 408.942 228.985 424.199 249.053 440.593 273.225 C 448.342 284.651 457.941 296.117 463.9 308.938 C 470.432 323.896 506.787 397.041 507.752 406.799 L 506.984 408.414 C 502.952 401.28 500.502 391.032 496.417 383.159 L 495.754 385.472 C 493.709 385.708 492.292 384.574 490.131 383.564 L 490.274 382.468 L 494.355 379.569 C 494.79 375.85 486.143 360.275 483.944 356.529 L 481.079 356.867 L 480.586 354.289 L 482.238 353.532 C 482.563 351.534 466.065 317.87 464.1 313.395 C 462.072 308.775 453.154 293.129 449.475 288.876 C 443.044 281.441 432.702 273.736 426.691 265.657 L 427.202 264.274 L 430.59 262.785 C 430.058 259.725 422.794 251.202 420.206 249.623 L 417.505 252.925 C 415.903 251.226 418.926 250.509 418.495 246.099 C 416.76 243.782 412.927 238.287 410.367 237.753 C 406.736 236.997 400.894 232.449 398.149 232.32 C 397.451 233.347 397.177 233.87 396.252 234.708 L 395.452 232.792 L 397.77 228.528 C 397.727 225.527 398.169 226.715 395.551 224.103 C 387.361 226.144 389.013 225.424 383.136 220.215 C 378.357 215.979 371.678 208.238 365.081 208.865 L 364.449 210.723 L 366.005 213.687 C 367.944 213.935 368.643 214.09 370.523 214.624 C 368.601 216.174 364.814 216.915 362.275 217.621 C 359.568 216.808 359.026 215.278 357.413 213.925 C 356.749 213.369 355.702 214.944 352.452 212.757 C 352.463 209.329 357.782 210.244 359.597 206.268 C 359.888 205.632 361.192 203.497 361.652 202.7 C 357.16 200.381 356.561 201.726 353.33 197.966 L 352.841 197.386 z"/>
<path transform="translate(0,0)" fill="rgb(254,130,102)" d="M 574.984 661.88 C 577.055 671.513 578.47 679.815 579.963 689.493 C 578.702 687.802 577.886 687.302 576.054 686.269 C 571.8 680.35 574.338 669.673 574.984 661.88 z"/>
<path transform="translate(0,0)" fill="rgb(254,130,102)" d="M 311.058 197.241 C 314.297 194.118 315.264 192.967 319.333 191.189 L 323.369 192.4 C 322.387 196.191 322.884 197.33 320.302 198.968 L 319.406 198.621 C 315.7 197.21 314.974 197.094 311.058 197.241 z"/>
<path transform="translate(0,0)" fill="rgb(254,130,102)" d="M 560.535 584.202 L 561.082 586.935 C 558.026 589.381 559.016 590.588 555.898 590.81 C 556.07 587.186 557.806 586.326 560.535 584.202 z"/>
<path transform="translate(0,0)" fill="rgb(254,130,102)" d="M 338.068 195.625 C 341.032 196.557 342.682 197.92 343.972 200.577 C 343.757 204.128 341.326 206.136 338.892 208.826 L 333.771 207.479 L 333.727 206.112 C 336.168 202.411 336.748 199.872 338.068 195.625 z"/>
<path transform="translate(0,0)" fill="rgb(254,130,102)" d="M 563.191 650.242 C 564.82 651.643 566.526 653.579 568.52 654.184 L 569.231 655.858 L 567.644 657.389 C 565.782 658.698 566.047 658.99 564.258 658.922 C 564.78 654.937 564.827 653.921 563.191 650.242 z"/>
<path transform="translate(0,0)" fill="rgb(254,130,102)" d="M 319.779 203.493 C 321.859 205.064 322.783 205.667 324.421 207.762 L 322.969 211.145 C 321.515 211.719 321.298 211.529 319.768 211.255 C 318.406 207.912 319.127 207.653 319.779 203.493 z"/>
<path transform="translate(0,0)" fill="rgb(254,130,102)" d="M 496.771 419.646 C 499.408 423.51 501.268 425.818 504.522 429.136 C 501.986 428.671 501.079 428.276 498.651 427.344 C 496.323 423.97 497.049 424.358 496.771 419.646 z"/>
<path transform="translate(0,0)" fill="rgb(254,130,102)" d="M 283.575 293.258 L 285.267 293.918 C 287.055 296.525 286.434 299.873 286.25 303.109 C 285.036 298.959 285.154 298.178 282.009 295.037 L 283.575 293.258 z"/>
<path transform="translate(0,0)" fill="rgb(254,34,9)" d="M 518.516 1085.26 C 518.882 1086.98 519.297 1088.43 519.784 1090.13 C 523.527 1087.66 522.209 1002.06 525.984 989.494 L 528.121 988.928 C 539.39 994.212 568.12 983.583 580.564 983.232 C 589.014 982.994 590.392 978.403 595.975 978.268 L 595.216 978.002 C 599.384 982.882 593.896 1035.26 598.146 1048.06 C 597.782 1080.26 596.68 1114.6 593.978 1146.62 C 583.671 1268.78 567.195 1391.45 526.59 1507.68 C 493.913 1601.22 454.78 1715.32 365.68 1769.4 C 360.097 1772.79 348.538 1776.52 344.403 1779.79 C 341.745 1778.87 339.642 1777.79 337.657 1775.76 C 324.32 1762.15 312.925 1732.1 313.536 1713.13 C 314.373 1687.14 336.873 1682.32 355.906 1671.8 C 361.821 1668.53 367.255 1664.16 372.174 1659.54 C 443.478 1592.63 478.89 1436.9 496.206 1341.87 C 499.353 1324.6 503.427 1307.29 505.666 1289.87 C 509.277 1261.8 508.521 1232.35 510.293 1204.04 C 511.44 1185.71 513.886 1167.4 515.349 1149.08 C 517.04 1127.9 517.785 1106.49 518.516 1085.26 z"/>
<path transform="translate(0,0)" fill="rgb(246,245,245)" d="M 349.588 164.342 C 353.161 165.067 356.729 165.816 360.292 166.589 C 366.426 169.163 381.074 177.358 384.768 178.634 C 389.657 182.287 392.751 183.834 398.1 186.619 C 403.432 190.778 409.322 194.576 414.95 198.355 L 418.285 200.482 C 431.648 212.959 446.064 232.674 458.708 246.507 C 465.539 253.981 471.583 267.824 477.76 276.267 C 503.764 315.054 519.452 356.045 536.34 399.086 C 548.392 429.802 556.076 454.13 564.894 485.839 C 580.911 543.438 597.708 600.792 608.028 659.866 C 613.135 689.1 612.646 722.481 616.122 752.128 C 619.916 785.901 623.939 821.455 625.095 855.278 C 627.372 921.913 627.831 988.598 626.47 1055.26 C 625.302 1112.89 623.189 1167.97 615.902 1225.27 C 612.52 1251.87 612.723 1280.01 608.898 1306.68 C 605.565 1333.11 596.71 1361.43 590.944 1387.5 C 583.979 1418.98 574.963 1449.24 565.705 1480.06 C 561.63 1493.63 558.612 1508.55 554.236 1521.94 C 534.302 1582.92 511.949 1644.19 476.5 1698.07 C 464.764 1715.91 459.672 1728.9 443.436 1744.31 C 438.635 1748.86 426.117 1763.08 423.49 1768.3 C 416.776 1774.13 413.202 1777.08 406.161 1781.93 C 399.011 1786.85 378.925 1797.79 373.892 1803.29 C 370.796 1804.69 370.402 1804.8 366.945 1804.62 C 359.931 1796.97 349.845 1788.01 344.403 1779.79 C 348.538 1776.52 360.097 1772.79 365.68 1769.4 C 454.78 1715.32 493.913 1601.22 526.59 1507.68 C 567.195 1391.45 583.671 1268.78 593.978 1146.62 C 596.68 1114.6 597.782 1080.26 598.146 1048.06 C 600.863 1035.26 598.819 1005.51 599.085 991.365 C 600.132 935.581 597.113 879.695 595.159 823.967 C 594.575 807.31 590.013 789.131 588.834 772.2 C 586.89 744.288 584.556 717.1 579.963 689.493 C 578.47 679.815 577.055 671.513 574.984 661.88 C 574.509 642.974 564.453 607.618 561.082 586.935 L 560.535 584.202 C 556.342 547.675 537.088 495.835 525.906 459.979 C 521.71 446.526 513.406 417.902 507.752 406.799 C 506.787 397.041 470.432 323.896 463.9 308.938 C 457.941 296.117 448.342 284.651 440.593 273.225 C 424.199 249.053 408.942 228.985 383.629 213.415 C 372.882 206.805 365.422 201.35 352.841 197.386 C 346.815 193.051 329.107 191.388 321.151 190.386 C 330.124 181.952 340.183 172.022 349.588 164.342 z"/>
<path transform="translate(0,0)" fill="rgb(197,46,40)" d="M 418.285 200.482 C 427.367 204.824 434.521 204.322 444.492 204.588 C 445.383 206.634 446.743 208.886 446.228 210.918 C 454.853 229.81 464.536 235.343 475.316 250.56 C 487.27 267.433 500.096 285.956 511.171 303.526 C 515.82 310.9 524.532 327.485 528.265 335.846 C 529.305 338.175 527.419 347.525 530.348 354.479 C 538.494 373.817 546.288 393.418 554.194 412.839 C 557.935 422.528 558.875 434.258 562.09 443.93 C 565.007 452.706 569.399 461.246 572.425 470.319 C 575.259 478.813 575.561 489.128 581.789 495.144 C 583.555 514.415 590.623 536.372 597.04 554.693 C 599.19 560.829 599.05 577.496 603.627 580.621 L 605.45 578.334 C 606.298 579.441 612.635 628.844 612.625 634.345 C 612.608 643.56 615.733 651.578 617.484 660.537 C 620.764 678.107 623.484 695.776 625.642 713.519 C 627.343 728.118 626.713 742.394 627.796 756.941 C 628.33 764.121 629.974 767.794 630.477 775.873 L 630.57 775.295 C 630.928 773.205 630.864 772.972 632.1 771.358 C 633.752 773.787 633.961 776.707 634.177 779.574 C 636.465 809.87 635.845 840.677 636.893 871.063 C 638.159 907.737 640.917 944.432 641.489 981.109 C 641.673 992.902 642.024 1024.94 640.009 1035.28 C 637.463 1048.35 638.686 1063.36 638.25 1076.75 C 638.069 1082.29 638.186 1087.96 637.696 1093.47 C 637.382 1097.01 636.298 1100.24 636.245 1103.85 C 635.811 1133.13 636.96 1162.72 635.608 1191.95 C 635.146 1201.93 629.576 1210.09 628.386 1219.81 C 627.288 1228.77 627.351 1237.98 626.835 1246.99 C 625.7 1266.83 624.372 1287.27 621.92 1307 C 620.462 1318.73 614.825 1330.09 613.251 1341.61 C 610.108 1364.63 612.218 1404.44 596.515 1422.23 C 596.093 1425.78 595.524 1435.3 593.624 1437.53 C 591.851 1436.23 592.408 1436.91 591.744 1434.49 C 584.572 1455.93 578.427 1476.23 573.09 1498.23 C 571.87 1503.27 569.177 1508.66 568.516 1513.57 C 567.234 1523.09 568.859 1542.59 562.314 1550.05 C 560.114 1547.69 561.093 1542.5 562.203 1539.64 L 561.667 1538.7 C 557.825 1547.8 558.621 1558.89 555.578 1568.26 C 551.058 1582.2 540.339 1597.47 535.346 1610.6 C 519.147 1653.2 496.695 1690.74 470.678 1727.98 C 464.599 1736.73 447.798 1753.72 446.937 1763.38 C 445.15 1765.59 444.612 1766.25 441.132 1766.69 L 444.39 1767.76 C 440.796 1767.89 426.783 1767.99 424.408 1768.75 L 423.49 1768.3 C 426.117 1763.08 438.635 1748.86 443.436 1744.31 C 459.672 1728.9 464.764 1715.91 476.5 1698.07 C 511.949 1644.19 534.302 1582.92 554.236 1521.94 C 558.612 1508.55 561.63 1493.63 565.705 1480.06 C 574.963 1449.24 583.979 1418.98 590.944 1387.5 C 596.71 1361.43 605.565 1333.11 608.898 1306.68 C 612.723 1280.01 612.52 1251.87 615.902 1225.27 C 623.189 1167.97 625.302 1112.89 626.47 1055.26 C 627.831 988.598 627.372 921.913 625.095 855.278 C 623.939 821.455 619.916 785.901 616.122 752.128 C 612.646 722.481 613.135 689.1 608.028 659.866 C 597.708 600.792 580.911 543.438 564.894 485.839 C 556.076 454.13 548.392 429.802 536.34 399.086 C 519.452 356.045 503.764 315.054 477.76 276.267 C 471.583 267.824 465.539 253.981 458.708 246.507 C 446.064 232.674 431.648 212.959 418.285 200.482 z"/>
<path transform="translate(0,0)" fill="rgb(39,10,8)" d="M 641.404 1367.36 C 641.289 1360.35 646.481 1337.68 648.678 1330.11 C 649.67 1326.69 647.51 1325.54 649.419 1322.07 C 651.659 1327.7 648.115 1345.62 647.921 1352.71 L 647.901 1353.62 C 642.959 1361.08 648.773 1361.86 641.404 1367.36 z"/>
<path transform="translate(0,0)" fill="rgb(7,0,0)" d="M 565.048 345.108 C 564.985 341.671 562.996 328.922 563.676 326.575 C 571.429 339.692 574.416 349.892 580.958 363.048 C 580.54 363.462 579.285 364.204 578.724 364.564 C 576.447 361.274 575.321 357.471 574.267 353.645 C 572.19 346.108 570.531 351.091 565.048 345.108 z"/>
<path transform="translate(0,0)" fill="rgb(246,245,245)" d="M 768.714 1347.82 C 774.901 1325.18 793.147 1296.96 813.564 1285.24 C 829.028 1276.35 858.053 1269.06 875.313 1275.45 C 913.982 1289.77 939.664 1313.98 939.23 1356 C 938.485 1375.73 936.101 1395.24 921.474 1411.11 C 919.823 1412.9 916.218 1414.38 914.559 1415.67 C 915.875 1409.05 918.127 1403.93 918.674 1396.74 C 909.059 1411.65 883.089 1431.63 864.532 1429.73 L 863.154 1441.59 C 847.858 1442.4 835.853 1440.85 821.46 1435.09 C 814.827 1432.44 810.909 1429.11 804.693 1426.13 C 807.689 1421.14 808.372 1419.86 807.325 1414.31 C 789.411 1405.82 781.628 1368.98 783.498 1350.77 C 783.271 1349.56 782.764 1349.21 781.936 1348.27 C 777.112 1347.82 773.515 1347.81 768.714 1347.82 z"/>
<path transform="translate(0,0)" fill="rgb(140,27,19)" d="M 768.714 1347.82 C 774.901 1325.18 793.147 1296.96 813.564 1285.24 C 829.028 1276.35 858.053 1269.06 875.313 1275.45 C 913.982 1289.77 939.664 1313.98 939.23 1356 C 937.585 1351.76 934.469 1344.9 929.434 1345.06 L 927.713 1348.12 C 923 1325.54 910.884 1311.29 892.48 1298.23 C 862.94 1277.28 813.972 1288.76 795.41 1319.33 C 790.148 1327.99 784.625 1340.6 783.498 1350.77 C 783.271 1349.56 782.764 1349.21 781.936 1348.27 C 777.112 1347.82 773.515 1347.81 768.714 1347.82 z"/>
<path transform="translate(0,0)" fill="rgb(140,27,19)" d="M 807.325 1414.31 C 818.106 1419.35 828.427 1424.74 840.151 1427.01 C 844.871 1427.93 861.431 1428.56 864.532 1429.73 L 863.154 1441.59 C 847.858 1442.4 835.853 1440.85 821.46 1435.09 C 814.827 1432.44 810.909 1429.11 804.693 1426.13 C 807.689 1421.14 808.372 1419.86 807.325 1414.31 z"/>
<path transform="translate(0,0)" fill="rgb(197,46,40)" d="M 927.713 1348.12 L 929.434 1345.06 C 934.469 1344.9 937.585 1351.76 939.23 1356 C 938.485 1375.73 936.101 1395.24 921.474 1411.11 C 919.823 1412.9 916.218 1414.38 914.559 1415.67 C 915.875 1409.05 918.127 1403.93 918.674 1396.74 C 919.036 1394.9 922.404 1387.85 923.266 1385.22 C 927.583 1372.04 928.936 1361.85 927.713 1348.12 z"/>
<path transform="translate(0,0)" fill="url(#Gradient5)" d="M 825 1304.15 C 848.208 1291.04 877.227 1294.41 896.806 1312.5 C 916.385 1330.59 922.043 1359.26 910.805 1383.43 C 899.622 1407.48 874.249 1421.62 847.911 1418.48 C 821.574 1415.34 800.238 1395.62 795.026 1369.62 C 789.814 1343.61 801.906 1317.2 825 1304.15 z"/>
<path transform="translate(0,0)" fill="rgb(254,130,102)" d="M 825 1304.15 C 848.208 1291.04 877.227 1294.41 896.806 1312.5 C 916.385 1330.59 922.043 1359.26 910.805 1383.43 C 909.765 1382.14 910.09 1382.33 909.86 1380.39 C 907.446 1378.54 904.787 1370.58 903.095 1367 C 893.831 1348.41 872.868 1331.33 856.101 1319.76 C 851.732 1316.74 830.137 1306.05 825 1304.15 z"/>
<path transform="translate(0,0)" fill="rgb(246,245,245)" d="M 860.79 521.151 C 861.699 525.251 862.442 528.757 863.06 532.907 C 874.482 530.811 886.518 536.067 895.797 542.475 C 903.494 547.797 910.255 554.357 915.807 561.889 C 915.346 557.415 914.738 553.378 914.04 548.955 C 918.863 549.315 920.791 550.297 924.247 554.649 C 939.162 573.428 940.027 596.286 938.156 619.198 C 937.674 625.099 937.461 630.513 934.378 635.456 L 931.57 630.202 L 929.555 629.601 C 928.519 630.255 926.715 631.291 925.925 632.09 C 925.452 636.11 924.535 637.145 926.376 639.767 C 928.695 640.252 931.096 640.792 933.422 641.193 C 920.862 661.584 890.625 684.6 866.516 687.888 C 841.091 691.355 813.265 683.217 796.099 663.697 C 792.643 659.767 782.344 642.582 780.419 641.339 C 785.358 641.284 787.234 641.687 790.928 638.664 C 775.688 602.353 780.74 580.069 804.509 550.438 C 805.626 546.595 803.702 540.826 802.72 536.715 C 806.032 535.822 817.933 526.14 828.499 523.816 C 837.086 521.927 857 522.822 860.79 521.151 z"/>
<path transform="translate(0,0)" fill="rgb(140,27,19)" d="M 925.925 632.09 C 925.452 636.11 924.535 637.145 926.376 639.767 C 928.695 640.252 931.096 640.792 933.422 641.193 C 920.862 661.584 890.625 684.6 866.516 687.888 C 841.091 691.355 813.265 683.217 796.099 663.697 C 792.643 659.767 782.344 642.582 780.419 641.339 C 785.358 641.284 787.234 641.687 790.928 638.664 C 809.628 674.579 862.31 685.959 894.383 663.16 C 905.368 655.352 919.921 644.348 925.925 632.09 z"/>
<path transform="translate(0,0)" fill="rgb(197,46,40)" d="M 914.04 548.955 C 918.863 549.315 920.791 550.297 924.247 554.649 C 939.162 573.428 940.027 596.286 938.156 619.198 C 937.674 625.099 937.461 630.513 934.378 635.456 L 931.57 630.202 L 929.555 629.601 C 928.519 630.255 926.715 631.291 925.925 632.09 C 932.801 611.05 925.821 581.093 915.807 561.889 C 915.346 557.415 914.738 553.378 914.04 548.955 z"/>
<path transform="translate(0,0)" fill="rgb(140,27,19)" d="M 860.79 521.151 C 861.699 525.251 862.442 528.757 863.06 532.907 C 842.782 534.812 820.854 535.98 804.509 550.438 C 805.626 546.595 803.702 540.826 802.72 536.715 C 806.032 535.822 817.933 526.14 828.499 523.816 C 837.086 521.927 857 522.822 860.79 521.151 z"/>
<path transform="translate(0,0)" fill="url(#Gradient4)" d="M 795.029 602.601 C 794.955 600.924 794.982 599.244 795.109 597.57 C 796.254 581.509 801.269 568.921 813.834 558.338 C 831.322 543.607 848.138 543.83 869.404 545.682 C 882.307 546.996 895.175 556.157 903.231 566.084 C 921.611 588.531 917.549 621.601 902.436 644.478 C 888.902 664.964 868.006 667.94 845.447 665.238 C 811.085 661.122 794.026 634.557 795.029 602.601 z"/>
<path transform="translate(0,0)" fill="rgb(254,34,9)" d="M 795.029 602.601 C 794.955 600.924 794.982 599.244 795.109 597.57 C 796.254 581.509 801.269 568.921 813.834 558.338 C 831.322 543.607 848.138 543.83 869.404 545.682 C 866.195 546.255 862.517 546.866 859.299 547.118 C 850.661 547.856 847.383 545.011 842.019 553.246 C 838.326 558.914 830.155 571.477 824.785 574.238 C 807.315 583.22 799.433 571.965 797.368 599.514 L 795.029 602.601 z"/>
<path transform="translate(0,0)" fill="rgb(246,245,245)" d="M 585.963 1795.13 C 591.331 1794.55 596.747 1794.56 602.112 1795.17 C 640.818 1799.54 669.359 1833.4 667.124 1872.28 C 664.889 1911.17 632.656 1941.54 593.704 1941.45 C 554.752 1941.36 522.658 1910.85 520.6 1871.95 C 518.542 1833.05 547.238 1799.33 585.963 1795.13 z M 640.243 1917.61 C 642.981 1911.65 645.395 1908.88 644.152 1903.29 C 639.489 1910.05 633.5 1915.78 626.551 1920.15 C 633.436 1921.96 633.574 1921.01 640.243 1917.61 z"/>
<path transform="translate(0,0)" fill="url(#Gradient3)" d="M 626.551 1920.15 C 600.247 1936.7 565.692 1930.65 546.573 1906.15 C 527.455 1881.66 529.979 1846.67 552.414 1825.17 C 574.85 1803.67 609.916 1802.64 633.573 1822.79 C 657.231 1842.93 661.801 1877.71 644.152 1903.29 C 639.489 1910.05 633.5 1915.78 626.551 1920.15 z"/>
<path transform="translate(0,0)" fill="rgb(244,236,238)" fill-opacity="0.764706" d="M 626.551 1920.15 C 633.5 1915.78 639.489 1910.05 644.152 1903.29 C 645.395 1908.88 642.981 1911.65 640.243 1917.61 C 633.574 1921.01 633.436 1921.96 626.551 1920.15 z"/>
<path transform="translate(0,0)" fill="rgb(246,245,245)" d="M 575.018 176.108 C 538.344 169.112 512.773 135.689 515.612 98.4616 C 518.452 61.234 548.798 32.0767 586.109 30.725 C 623.42 29.3733 655.796 56.2584 661.322 93.1829 C 666.849 130.107 643.763 165.293 607.691 174.924 C 604.862 175.68 601.991 176.265 599.092 176.677 C 594.043 177.395 588.933 177.584 583.844 177.242 C 580.882 177.043 577.935 176.664 575.018 176.108 z"/>
<path transform="translate(0,0)" fill="rgb(254,34,9)" d="M 596.332 164.05 C 593.667 164.696 591.312 164.89 588.525 164.821 C 525.918 163.278 504.571 81.9439 558.548 50.022 C 566.333 45.4183 577.485 45.6971 586.432 45.7775 C 596.987 45.5611 608.789 44.7663 618.011 50.0415 C 664.338 76.5408 658.96 145.7 606.491 161.821 C 602.737 162.974 600.26 163.88 596.332 164.05 z"/>
<path transform="translate(0,0)" fill="rgb(254,130,102)" d="M 596.332 164.05 C 593.667 164.696 591.312 164.89 588.525 164.821 C 525.918 163.278 504.571 81.9439 558.548 50.022 C 566.333 45.4183 577.485 45.6971 586.432 45.7775 C 578.512 49.09 575.039 48.4111 566.585 47.9451 C 567.037 60.6657 560.962 66.4713 560.879 73.9916 C 560.643 95.4326 557.7 136.882 564.895 156.609 C 566.384 160.691 590.141 163.715 596.332 164.05 z"/>
<path transform="translate(0,0)" fill="rgb(254,130,102)" fill-opacity="0.313725" d="M 444.39 1767.76 L 455.254 1768.1 C 452.894 1768.36 440.882 1769.25 439.749 1770.43 C 440.092 1776.47 441.119 1780.84 436.693 1785.68 C 423.476 1800.13 405.432 1814.29 386.235 1819.15 C 379.157 1820.94 370.529 1806.47 366.945 1804.62 C 370.402 1804.8 370.796 1804.69 373.892 1803.29 C 374.501 1806.68 373.979 1807.29 376.1 1809.21 C 393.353 1809.45 410.578 1794.72 423.269 1784.25 C 434.427 1775.04 426.712 1775.3 424.408 1768.75 C 426.783 1767.99 440.796 1767.89 444.39 1767.76 z"/>
<path transform="translate(0,0)" fill="rgb(254,130,102)" fill-opacity="0.239216" d="M 362.845 165.796 C 369.469 151.326 384.727 153.197 397.159 159.483 C 415.514 168.763 430.183 177.913 438.671 197.545 C 438.229 200.829 438.66 199.574 436.1 202.53 C 439.597 203.836 451.833 203.932 456.512 204.239 C 452.423 204.444 448.601 204.644 444.492 204.588 C 434.521 204.322 427.367 204.824 418.285 200.482 L 414.95 198.355 C 420.124 193.679 420.017 198.032 424.426 193.948 L 424.467 191.854 C 418.958 182.623 388.307 163.672 376.576 160.475 C 372.641 159.403 366.944 163.602 362.845 165.796 z"/>
<path transform="translate(0,0)" fill="rgb(254,130,102)" fill-opacity="0.0352941" d="M 370.942 147.479 C 377.983 150.892 384.918 148.509 392.555 150.209 C 406.553 153.325 438.853 174.29 443.309 188.053 C 442.728 189.18 442.722 189.708 441.809 190.195 L 442.942 190.239 C 444.378 192.911 445.827 194.95 445.954 197.92 C 443.437 201.064 440.567 201.187 436.1 202.53 C 438.66 199.574 438.229 200.829 438.671 197.545 C 430.183 177.913 415.514 168.763 397.159 159.483 C 384.727 153.197 369.469 151.326 362.845 165.796 L 360.292 166.589 C 356.729 165.816 353.161 165.067 349.588 164.342 C 350.269 160.571 355.034 156.98 357.854 154.532 C 367.741 151.958 362.528 159.496 370.942 147.479 z"/>
<path transform="translate(0,0)" fill="url(#Gradient2)" d="M 362.845 165.796 C 366.944 163.602 372.641 159.403 376.576 160.475 C 388.307 163.672 418.958 182.623 424.467 191.854 L 424.426 193.948 C 420.017 198.032 420.124 193.679 414.95 198.355 C 409.322 194.576 403.432 190.778 398.1 186.619 C 399.212 186.265 399.767 185.796 400.761 185.166 L 400.386 183.458 C 395.614 179.691 390.81 177.924 384.768 178.634 C 381.074 177.358 366.426 169.163 360.292 166.589 L 362.845 165.796 z"/>
<path transform="translate(0,0)" fill="url(#Gradient1)" d="M 423.49 1768.3 L 424.408 1768.75 C 426.712 1775.3 434.427 1775.04 423.269 1784.25 C 410.578 1794.72 393.353 1809.45 376.1 1809.21 C 373.979 1807.29 374.501 1806.68 373.892 1803.29 C 378.925 1797.79 399.011 1786.85 406.161 1781.93 C 413.202 1777.08 416.776 1774.13 423.49 1768.3 z"/>
<path transform="translate(0,0)" fill="rgb(254,34,9)" fill-opacity="0.258824" d="M 582.431 1770.15 C 589.415 1770.14 603.867 1770.62 609.991 1770.14 C 607.35 1777.29 615.606 1786.77 608.865 1791.27 C 605.968 1793.21 601.464 1790.9 599.907 1793.31 L 602.112 1795.17 C 596.747 1794.56 591.331 1794.55 585.963 1795.13 C 585.732 1793.39 585.908 1794 584.236 1792.54 C 581.437 1792.64 580.711 1792.85 578.128 1791.77 C 575.413 1787.42 577.013 1786.48 579.796 1783.39 L 577.56 1780.74 C 579.047 1777.51 591.558 1779.71 596.722 1774.97 L 596.618 1773.35 C 594.107 1771.48 586.584 1771.02 582.431 1770.15 z M 596.567 1790.14 C 600.051 1788.86 600.769 1788.71 603.18 1785.81 L 603.424 1783.87 C 600.638 1781.41 601.656 1782.12 597.763 1781.38 C 595.081 1783.42 592.682 1785.24 590.139 1787.46 L 590.462 1788.77 C 593.01 1789.57 593.92 1789.81 596.567 1790.14 z"/>
<path transform="translate(0,0)" fill="rgb(254,34,9)" fill-opacity="0.313725" d="M 597.763 1781.38 C 601.656 1782.12 600.638 1781.41 603.424 1783.87 L 603.18 1785.81 C 600.769 1788.71 600.051 1788.86 596.567 1790.14 C 593.92 1789.81 593.01 1789.57 590.462 1788.77 L 590.139 1787.46 C 592.682 1785.24 595.081 1783.42 597.763 1781.38 z"/>
<path transform="translate(0,0)" fill="rgb(1,0,0)" fill-opacity="0.286275" d="M 573.08 190.88 C 577.116 192.708 598.978 193.216 604.169 191.422 L 606.108 184.646 C 606.59 190.201 605.36 199.729 606.517 201.665 C 609.659 203.936 611.955 202.928 615.578 203.922 C 600.711 204.457 585.831 204.505 570.962 204.068 C 573.642 199.486 572.762 195.437 573.08 190.88 z"/>
<path transform="translate(0,0)" fill="rgb(254,34,9)" fill-opacity="0.521569" d="M 599.092 176.677 C 601.991 176.265 604.862 175.68 607.691 174.924 C 605.745 179.496 608.636 179.671 606.108 184.646 L 604.169 191.422 C 598.978 193.216 577.116 192.708 573.08 190.88 C 571.729 182.936 571.216 182.015 575.018 176.108 C 577.935 176.664 580.882 177.043 583.844 177.242 C 582.717 180.665 582.426 179.727 583.616 182.156 C 591.622 184.658 594 179.832 599.092 176.677 z"/>
<path transform="translate(0,0)" fill="rgb(254,34,9)" fill-opacity="0.541176" d="M 583.844 177.242 C 588.933 177.584 594.043 177.395 599.092 176.677 C 594 179.832 591.622 184.658 583.616 182.156 C 582.426 179.727 582.717 180.665 583.844 177.242 z"/>
<path transform="translate(0,0)" fill="rgb(254,130,102)" fill-opacity="0.235294" d="M 384.768 178.634 C 390.81 177.924 395.614 179.691 400.386 183.458 L 400.761 185.166 C 399.767 185.796 399.212 186.265 398.1 186.619 C 392.751 183.834 389.657 182.287 384.768 178.634 z"/>
<path transform="translate(0,0)" fill="rgb(254,130,102)" fill-opacity="0.0235294" d="M 357.854 154.532 C 361.844 153.307 367.559 149.975 370.942 147.479 C 362.528 159.496 367.741 151.958 357.854 154.532 z"/>
</svg>