<?xml version="1.0" encoding="UTF-8"?>
<svg version="1.1" xmlns="http://www.w3.org/2000/svg" width="149" height="148">
<path d="M0 0 C5.50255674 1.13310759 10.12469964 4.48402861 14.85205078 7.40185547 C18.13096117 9.39992844 21.46978064 11.27938119 24.83203125 13.1328125 C25.45094238 13.49117187 26.06985352 13.84953125 26.70751953 14.21875 C29.4664997 15.73449068 31.35821245 16.58948414 34.53515625 16.44140625 C37.70905148 15.20403101 39.48197012 13.04335156 41.76953125 10.5703125 C44.79390464 9.0581258 47.43194659 9.39767881 50.76953125 9.5703125 C53.18738457 10.46367168 54.44718038 11.08622215 55.88574219 13.24658203 C58.77093692 20.16423396 60.93103168 27.25159176 63.01953125 34.4453125 C63.38304688 35.66734375 63.7465625 36.889375 64.12109375 38.1484375 C66.76953125 47.16905545 66.76953125 47.16905545 66.76953125 50.5703125 C67.42179688 50.54710937 68.0740625 50.52390625 68.74609375 50.5 C78.34068977 50.3018815 78.34068977 50.3018815 82.76953125 52.5703125 C85.4027499 55.64240093 86.23404338 58.36244405 86.16210938 62.4050293 C85.27624286 67.29106795 82.46101123 71.58503038 80.08203125 75.8828125 C79.0148613 77.85766042 77.9484485 79.83291768 76.8828125 81.80859375 C76.36283691 82.76330566 75.84286133 83.71801758 75.30712891 84.70166016 C73.03304633 88.94435152 70.88999891 93.24921387 68.76953125 97.5703125 C69.29683838 98.08803223 69.82414551 98.60575195 70.36743164 99.13916016 C70.97449951 99.73519043 71.58156738 100.3312207 72.20703125 100.9453125 C72.84511719 101.57179688 73.48320312 102.19828125 74.140625 102.84375 C76.49995099 105.3445224 76.75445492 106.37055108 77.01953125 109.8828125 C76.74813484 113.88590951 76.13671575 115.40289394 73.76953125 118.5703125 C71.48999023 119.80175781 71.48999023 119.80175781 68.828125 120.6484375 C67.36028564 121.12893555 67.36028564 121.12893555 65.86279297 121.61914062 C64.8420166 121.93302734 63.82124023 122.24691406 62.76953125 122.5703125 C61.29057373 123.04887695 61.29057373 123.04887695 59.78173828 123.53710938 C56.80615169 124.49171777 53.82155261 125.41037327 50.83203125 126.3203125 C49.81818359 126.63613281 48.80433594 126.95195313 47.75976562 127.27734375 C46.29700195 127.72400391 46.29700195 127.72400391 44.8046875 128.1796875 C43.49576538 128.5813916 43.49576538 128.5813916 42.16040039 128.99121094 C39.76953125 129.5703125 39.76953125 129.5703125 35.76953125 129.5703125 C35.75535156 130.52292969 35.74117188 131.47554687 35.7265625 132.45703125 C35.34060682 142.60662247 35.34060682 142.60662247 32.76953125 146.9453125 C28.59777627 149.20501312 25.34266536 149.47587587 20.76953125 148.5703125 C15.46049276 146.22241351 10.47627471 143.35248913 5.45703125 140.4453125 C3.42444266 139.27276702 1.38947364 138.10655026 -0.65776062 136.95974731 C-1.92527205 136.2495525 -3.18458985 135.52448261 -4.43415833 134.78317261 C-6.33937657 133.66654285 -6.33937657 133.66654285 -9.23046875 132.5703125 C-12.19211778 133.48341726 -14.11650448 135.23299264 -16.48046875 137.1953125 C-20.58223147 140.16160872 -23.23712218 140.29515313 -28.23046875 139.5703125 C-33.22995414 136.81865775 -34.36371579 133.28389526 -35.95678711 128.10400391 C-36.23272705 127.14413574 -36.50866699 126.18426758 -36.79296875 125.1953125 C-37.23684937 123.72650635 -37.23684937 123.72650635 -37.68969727 122.22802734 C-38.55517588 119.34720303 -39.39640531 116.46036791 -40.23046875 113.5703125 C-40.67570312 112.04945629 -41.12100716 110.52862048 -41.56640625 109.0078125 C-42.47392058 105.86691182 -43.36433375 102.7228287 -44.23046875 99.5703125 C-44.96652344 99.53292969 -45.70257813 99.49554688 -46.4609375 99.45703125 C-53.09943743 99.00978753 -57.39039844 98.41038281 -62.23046875 93.5703125 C-63.7682237 87.75702393 -62.66624318 84.22147073 -59.85546875 79.1328125 C-59.32095093 78.1104248 -59.32095093 78.1104248 -58.77563477 77.06738281 C-56.82055728 73.36641308 -54.75793611 69.73263106 -52.65625 66.11328125 C-52.24101074 65.39390381 -51.82577148 64.67452637 -51.39794922 63.93334961 C-50.59122876 62.54744934 -49.77160471 61.16896317 -48.93798828 59.79907227 C-46.77260693 56.36566262 -46.77260693 56.36566262 -46.54296875 52.46264648 C-47.38081809 50.15647808 -48.52892483 49.07179072 -50.29296875 47.3828125 C-53.3905218 43.90367683 -53.90488735 41.36101175 -53.9296875 36.78125 C-52.86873734 33.42651375 -50.85526582 31.87044539 -48.23046875 29.5703125 C-45.11181641 28.19238281 -45.11181641 28.19238281 -41.64453125 27.1484375 C-40.38382813 26.76300781 -39.123125 26.37757812 -37.82421875 25.98046875 C-37.17195313 25.78984863 -36.5196875 25.59922852 -35.84765625 25.40283203 C-33.86320525 24.82257467 -31.88660603 24.22017222 -29.91015625 23.61328125 C-24.0064352 21.83614073 -18.36102564 20.33236869 -12.23046875 19.5703125 C-12.28267578 18.35794922 -12.28267578 18.35794922 -12.3359375 17.12109375 C-12.36300781 16.05246094 -12.39007813 14.98382813 -12.41796875 13.8828125 C-12.47017578 12.29919922 -12.47017578 12.29919922 -12.5234375 10.68359375 C-12.1910993 7.15194651 -11.34725371 5.38775821 -9.23046875 2.5703125 C-5.99794981 0.41529988 -3.86385121 -0.0873892 0 0 Z " fill="#00FA00" transform="translate(63.23046875,-0.5703125)"/>
<path d="M0 0 C5.50255674 1.13310759 10.12469964 4.48402861 14.85205078 7.40185547 C18.13096117 9.39992844 21.46978064 11.27938119 24.83203125 13.1328125 C25.45094238 13.49117187 26.06985352 13.84953125 26.70751953 14.21875 C29.4664997 15.73449068 31.35821245 16.58948414 34.53515625 16.44140625 C37.70905148 15.20403101 39.48197012 13.04335156 41.76953125 10.5703125 C44.79390464 9.0581258 47.43194659 9.39767881 50.76953125 9.5703125 C53.18738457 10.46367168 54.44718038 11.08622215 55.88574219 13.24658203 C58.77093692 20.16423396 60.93103168 27.25159176 63.01953125 34.4453125 C63.38304688 35.66734375 63.7465625 36.889375 64.12109375 38.1484375 C66.76953125 47.16905545 66.76953125 47.16905545 66.76953125 50.5703125 C67.42179688 50.54710937 68.0740625 50.52390625 68.74609375 50.5 C78.34068977 50.3018815 78.34068977 50.3018815 82.76953125 52.5703125 C85.4027499 55.64240093 86.23404338 58.36244405 86.16210938 62.4050293 C85.27624286 67.29106795 82.46101123 71.58503038 80.08203125 75.8828125 C79.0148613 77.85766042 77.9484485 79.83291768 76.8828125 81.80859375 C76.36283691 82.76330566 75.84286133 83.71801758 75.30712891 84.70166016 C73.03304633 88.94435152 70.88999891 93.24921387 68.76953125 97.5703125 C69.29683838 98.08803223 69.82414551 98.60575195 70.36743164 99.13916016 C70.97449951 99.73519043 71.58156738 100.3312207 72.20703125 100.9453125 C72.84511719 101.57179688 73.48320312 102.19828125 74.140625 102.84375 C76.49995099 105.3445224 76.75445492 106.37055108 77.01953125 109.8828125 C76.74813484 113.88590951 76.13671575 115.40289394 73.76953125 118.5703125 C71.48999023 119.80175781 71.48999023 119.80175781 68.828125 120.6484375 C67.36028564 121.12893555 67.36028564 121.12893555 65.86279297 121.61914062 C64.8420166 121.93302734 63.82124023 122.24691406 62.76953125 122.5703125 C61.29057373 123.04887695 61.29057373 123.04887695 59.78173828 123.53710938 C56.80615169 124.49171777 53.82155261 125.41037327 50.83203125 126.3203125 C49.81818359 126.63613281 48.80433594 126.95195313 47.75976562 127.27734375 C46.29700195 127.72400391 46.29700195 127.72400391 44.8046875 128.1796875 C43.49576538 128.5813916 43.49576538 128.5813916 42.16040039 128.99121094 C39.76953125 129.5703125 39.76953125 129.5703125 35.76953125 129.5703125 C35.75535156 130.52292969 35.74117188 131.47554687 35.7265625 132.45703125 C35.34060682 142.60662247 35.34060682 142.60662247 32.76953125 146.9453125 C28.59777627 149.20501312 25.34266536 149.47587587 20.76953125 148.5703125 C15.46049276 146.22241351 10.47627471 143.35248913 5.45703125 140.4453125 C3.42444266 139.27276702 1.38947364 138.10655026 -0.65776062 136.95974731 C-1.92527205 136.2495525 -3.18458985 135.52448261 -4.43415833 134.78317261 C-6.33937657 133.66654285 -6.33937657 133.66654285 -9.23046875 132.5703125 C-12.19211778 133.48341726 -14.11650448 135.23299264 -16.48046875 137.1953125 C-20.58223147 140.16160872 -23.23712218 140.29515313 -28.23046875 139.5703125 C-33.22995414 136.81865775 -34.36371579 133.28389526 -35.95678711 128.10400391 C-36.23272705 127.14413574 -36.50866699 126.18426758 -36.79296875 125.1953125 C-37.23684937 123.72650635 -37.23684937 123.72650635 -37.68969727 122.22802734 C-38.55517588 119.34720303 -39.39640531 116.46036791 -40.23046875 113.5703125 C-40.67570312 112.04945629 -41.12100716 110.52862048 -41.56640625 109.0078125 C-42.47392058 105.86691182 -43.36433375 102.7228287 -44.23046875 99.5703125 C-44.96652344 99.53292969 -45.70257813 99.49554688 -46.4609375 99.45703125 C-53.09943743 99.00978753 -57.39039844 98.41038281 -62.23046875 93.5703125 C-63.7682237 87.75702393 -62.66624318 84.22147073 -59.85546875 79.1328125 C-59.32095093 78.1104248 -59.32095093 78.1104248 -58.77563477 77.06738281 C-56.82055728 73.36641308 -54.75793611 69.73263106 -52.65625 66.11328125 C-52.24101074 65.39390381 -51.82577148 64.67452637 -51.39794922 63.93334961 C-50.59122876 62.54744934 -49.77160471 61.16896317 -48.93798828 59.79907227 C-46.77260693 56.36566262 -46.77260693 56.36566262 -46.54296875 52.46264648 C-47.38081809 50.15647808 -48.52892483 49.07179072 -50.29296875 47.3828125 C-53.3905218 43.90367683 -53.90488735 41.36101175 -53.9296875 36.78125 C-52.86873734 33.42651375 -50.85526582 31.87044539 -48.23046875 29.5703125 C-45.11181641 28.19238281 -45.11181641 28.19238281 -41.64453125 27.1484375 C-40.38382813 26.76300781 -39.123125 26.37757812 -37.82421875 25.98046875 C-37.17195313 25.78984863 -36.5196875 25.59922852 -35.84765625 25.40283203 C-33.86320525 24.82257467 -31.88660603 24.22017222 -29.91015625 23.61328125 C-24.0064352 21.83614073 -18.36102564 20.33236869 -12.23046875 19.5703125 C-12.28267578 18.35794922 -12.28267578 18.35794922 -12.3359375 17.12109375 C-12.36300781 16.05246094 -12.39007813 14.98382813 -12.41796875 13.8828125 C-12.47017578 12.29919922 -12.47017578 12.29919922 -12.5234375 10.68359375 C-12.1910993 7.15194651 -11.34725371 5.38775821 -9.23046875 2.5703125 C-5.99794981 0.41529988 -3.86385121 -0.0873892 0 0 Z M-2.23046875 10.5703125 C-2.23046875 15.8503125 -2.23046875 21.1303125 -2.23046875 26.5703125 C-3.75671875 26.9209375 -5.28296875 27.2715625 -6.85546875 27.6328125 C-15.0774941 29.67603983 -23.09924187 32.3417843 -31.15625 34.94921875 C-35.16045307 36.24178533 -39.17592264 37.44622455 -43.23046875 38.5703125 C-42.2960534 39.84341562 -41.35779764 41.1137005 -40.41796875 42.3828125 C-39.89589844 43.09050781 -39.37382813 43.79820313 -38.8359375 44.52734375 C-37.32998379 46.59413847 -37.32998379 46.59413847 -35.46875 48.01953125 C-35.06011719 48.53128906 -34.65148437 49.04304688 -34.23046875 49.5703125 C-34.67597244 53.4122141 -35.98011023 56.37672834 -37.77734375 59.7734375 C-38.29296875 60.75441406 -38.80859375 61.73539063 -39.33984375 62.74609375 C-39.88125 63.76058594 -40.42265625 64.77507812 -40.98046875 65.8203125 C-41.50640625 66.81933594 -42.03234375 67.81835938 -42.57421875 68.84765625 C-45.41363954 74.22428224 -48.31613071 79.55346298 -51.35644531 84.81933594 C-52.37934031 86.54238852 -52.37934031 86.54238852 -52.23046875 88.5703125 C-46.95046875 88.5703125 -41.67046875 88.5703125 -36.23046875 88.5703125 C-35.83859375 90.1996875 -35.44671875 91.8290625 -35.04296875 93.5078125 C-33.02166814 101.60259455 -30.62679015 109.58057256 -28.23046875 117.5703125 C-27.90433594 118.66214844 -27.57820313 119.75398438 -27.2421875 120.87890625 C-26.5743751 123.11022256 -25.90425437 125.34079422 -25.23046875 127.5703125 C-21.28578832 127.99226584 -21.28578832 127.99226584 -19.08984375 125.8203125 C-18.39375 125.0778125 -17.69765625 124.3353125 -16.98046875 123.5703125 C-16.2740625 122.8278125 -15.56765625 122.0853125 -14.83984375 121.3203125 C-14.30875 120.7428125 -13.77765625 120.1653125 -13.23046875 119.5703125 C-8.88355579 121.18449261 -4.85109477 123.28951401 -0.77734375 125.484375 C-0.07651672 125.85887787 0.6243103 126.23338074 1.34637451 126.61923218 C3.57208638 127.80880041 5.79597717 129.00171637 8.01953125 130.1953125 C10.25746983 131.39585331 12.49580762 132.59561495 14.73553467 133.79281616 C16.12662238 134.53643807 17.51666657 135.28201593 18.90557861 136.0296936 C21.69152016 137.79675244 21.69152016 137.79675244 24.76953125 138.5703125 C25.42953125 133.2903125 26.08953125 128.0103125 26.76953125 122.5703125 C30.60578125 121.5184375 30.60578125 121.5184375 34.51953125 120.4453125 C41.63676267 118.47011601 48.74288509 116.45658703 55.83203125 114.3828125 C56.70633789 114.13321777 57.58064453 113.88362305 58.48144531 113.62646484 C59.28936523 113.38750488 60.09728516 113.14854492 60.9296875 112.90234375 C61.64777588 112.69327393 62.36586426 112.4842041 63.10571289 112.26879883 C64.97865854 111.69505229 64.97865854 111.69505229 65.76953125 109.5703125 C65.28742188 109.03921875 64.8053125 108.508125 64.30859375 107.9609375 C63.67695312 107.25453125 63.0453125 106.548125 62.39453125 105.8203125 C61.76804687 105.12421875 61.1415625 104.428125 60.49609375 103.7109375 C59.92632812 103.00453125 59.3565625 102.298125 58.76953125 101.5703125 C58.32746338 101.02544189 57.88539551 100.48057129 57.42993164 99.91918945 C56.51884673 96.67869113 57.73241784 94.88096758 59.26167297 92.01023865 C59.66258652 91.29658646 60.06350006 90.58293427 60.4765625 89.84765625 C60.87654953 89.10576553 61.27653656 88.36387482 61.68864441 87.59950256 C62.9715563 85.22715541 64.27600328 82.86749936 65.58203125 80.5078125 C66.8725616 78.14220048 68.15864001 75.7742242 69.44328308 73.40541077 C70.24458559 71.93165716 71.05020726 70.4602421 71.86054993 68.99143982 C73.38961172 66.20822616 74.76287749 63.59027379 75.76953125 60.5703125 C70.15953125 60.5703125 64.54953125 60.5703125 58.76953125 60.5703125 C58.27453125 57.1053125 58.27453125 57.1053125 57.76953125 53.5703125 C57.38328452 51.94261448 56.96268072 50.3224861 56.5 48.71484375 C56.25266113 47.85012451 56.00532227 46.98540527 55.75048828 46.09448242 C55.48864746 45.19963135 55.22680664 44.30478027 54.95703125 43.3828125 C54.55653564 41.99703003 54.55653564 41.99703003 54.14794922 40.58325195 C52.18672121 33.85339771 50.09715943 27.18351491 47.76953125 20.5703125 C44.83073641 21.92267827 42.47720214 23.46973909 40.01953125 25.5703125 C39.4059375 26.0859375 38.79234375 26.6015625 38.16015625 27.1328125 C36.53776749 28.47654502 36.53776749 28.47654502 36.76953125 30.5703125 C27.81417121 26.26267096 19.11597823 21.52465605 10.42529297 16.70996094 C9.50893066 16.2049707 8.59256836 15.69998047 7.6484375 15.1796875 C6.82931885 14.72561523 6.0102002 14.27154297 5.16625977 13.80371094 C2.77363538 12.57242456 0.26793032 11.56967213 -2.23046875 10.5703125 Z " fill="#000B05" transform="translate(63.23046875,-0.5703125)"/>
<path d="M0 0 C4.6029598 1.72497507 8.93255824 3.9095871 13.3125 6.125 C14.05306641 6.49753906 14.79363281 6.87007812 15.55664062 7.25390625 C17.37201217 8.16744806 19.18613282 9.08347487 21 10 C21.78375 9.34 22.5675 8.68 23.375 8 C26 6 26 6 28 6 C29.00446104 9.2903223 30.00280756 12.58246822 31 15.875 C31.28617188 16.81214844 31.57234375 17.74929687 31.8671875 18.71484375 C32.13789062 19.61074219 32.40859375 20.50664063 32.6875 21.4296875 C33.06455078 22.67081299 33.06455078 22.67081299 33.44921875 23.93701172 C34 26 34 26 34 28 C36.64 28 39.28 28 42 28 C40.26099675 33.8735722 37.37130291 38.73114587 34.265625 43.9765625 C32.70721695 46.81778667 32.70721695 46.81778667 33.609375 49.1484375 C34.29773438 50.06496094 34.29773438 50.06496094 35 51 C36.00004923 52.33329641 37.00005528 53.66662521 38 55 C34.73120384 56.00674459 31.4596529 57.00422489 28.1875 58 C27.25873047 58.28617188 26.32996094 58.57234375 25.37304688 58.8671875 C24.48037109 59.13789062 23.58769531 59.40859375 22.66796875 59.6875 C21.84578857 59.93886719 21.0236084 60.19023438 20.17651367 60.44921875 C18 61 18 61 15 61 C15 63.97 15 66.94 15 70 C9.70680455 68.05455316 5.01536569 65.19587323 0.15625 62.36328125 C-3.3096711 60.86624355 -4.52299377 60.67294262 -8 62 C-10.26454073 63.46771271 -10.26454073 63.46771271 -12 65 C-13.0070436 61.8980736 -14.00440805 58.79311902 -15 55.6875 C-15.28617188 54.80642578 -15.57234375 53.92535156 -15.8671875 53.01757812 C-16.13789062 52.17001953 -16.40859375 51.32246094 -16.6875 50.44921875 C-16.93886719 49.66893311 -17.19023438 48.88864746 -17.44921875 48.0847168 C-18 46 -18 46 -18 43 C-21.3 43 -24.6 43 -28 43 C-26.89835882 40.76955389 -25.79378106 38.54064354 -24.6875 36.3125 C-24.37876953 35.68666016 -24.07003906 35.06082031 -23.75195312 34.41601562 C-22.34967602 31.59670059 -20.91286353 28.85842772 -19.26171875 26.17578125 C-17.79741001 24.11155845 -17.79741001 24.11155845 -18.125 21.875 C-19.10711007 19.77047843 -20.3344945 18.59309221 -22 17 C-22 16.34 -22 15.68 -22 15 C-18.8980736 13.9929564 -15.79311902 12.99559195 -12.6875 12 C-11.80642578 11.71382812 -10.92535156 11.42765625 -10.01757812 11.1328125 C-9.17001953 10.86210938 -8.32246094 10.59140625 -7.44921875 10.3125 C-6.27879028 9.93544922 -6.27879028 9.93544922 -5.0847168 9.55078125 C-3 9 -3 9 0 9 C0 6.03 0 3.06 0 0 Z " fill="#00FCFC" transform="translate(67,39)"/>
<path d="M0 0 C5.50255674 1.13310759 10.12469964 4.48402861 14.85205078 7.40185547 C18.13096117 9.39992844 21.46978064 11.27938119 24.83203125 13.1328125 C25.45094238 13.49117187 26.06985352 13.84953125 26.70751953 14.21875 C29.4664997 15.73449068 31.35821245 16.58948414 34.53515625 16.44140625 C37.70905148 15.20403101 39.48197012 13.04335156 41.76953125 10.5703125 C44.79390464 9.0581258 47.43194659 9.39767881 50.76953125 9.5703125 C53.18738457 10.46367168 54.44718038 11.08622215 55.88574219 13.24658203 C58.77093692 20.16423396 60.93103168 27.25159176 63.01953125 34.4453125 C63.38304688 35.66734375 63.7465625 36.889375 64.12109375 38.1484375 C66.76953125 47.16905545 66.76953125 47.16905545 66.76953125 50.5703125 C67.42179688 50.54710937 68.0740625 50.52390625 68.74609375 50.5 C78.34068977 50.3018815 78.34068977 50.3018815 82.76953125 52.5703125 C85.4027499 55.64240093 86.23404338 58.36244405 86.16210938 62.4050293 C85.27624286 67.29106795 82.46101123 71.58503038 80.08203125 75.8828125 C79.0148613 77.85766042 77.9484485 79.83291768 76.8828125 81.80859375 C76.36283691 82.76330566 75.84286133 83.71801758 75.30712891 84.70166016 C73.03304633 88.94435152 70.88999891 93.24921387 68.76953125 97.5703125 C69.29683838 98.08803223 69.82414551 98.60575195 70.36743164 99.13916016 C70.97449951 99.73519043 71.58156738 100.3312207 72.20703125 100.9453125 C72.84511719 101.57179688 73.48320312 102.19828125 74.140625 102.84375 C76.49995099 105.3445224 76.75445492 106.37055108 77.01953125 109.8828125 C76.74813484 113.88590951 76.13671575 115.40289394 73.76953125 118.5703125 C71.48999023 119.80175781 71.48999023 119.80175781 68.828125 120.6484375 C67.36028564 121.12893555 67.36028564 121.12893555 65.86279297 121.61914062 C64.8420166 121.93302734 63.82124023 122.24691406 62.76953125 122.5703125 C61.29057373 123.04887695 61.29057373 123.04887695 59.78173828 123.53710938 C56.80615169 124.49171777 53.82155261 125.41037327 50.83203125 126.3203125 C49.81818359 126.63613281 48.80433594 126.95195313 47.75976562 127.27734375 C46.29700195 127.72400391 46.29700195 127.72400391 44.8046875 128.1796875 C43.49576538 128.5813916 43.49576538 128.5813916 42.16040039 128.99121094 C39.76953125 129.5703125 39.76953125 129.5703125 35.76953125 129.5703125 C35.75535156 130.52292969 35.74117188 131.47554687 35.7265625 132.45703125 C35.34060682 142.60662247 35.34060682 142.60662247 32.76953125 146.9453125 C28.59777627 149.20501312 25.34266536 149.47587587 20.76953125 148.5703125 C15.46049276 146.22241351 10.47627471 143.35248913 5.45703125 140.4453125 C3.42444266 139.27276702 1.38947364 138.10655026 -0.65776062 136.95974731 C-1.92527205 136.2495525 -3.18458985 135.52448261 -4.43415833 134.78317261 C-6.33937657 133.66654285 -6.33937657 133.66654285 -9.23046875 132.5703125 C-12.19211778 133.48341726 -14.11650448 135.23299264 -16.48046875 137.1953125 C-20.58223147 140.16160872 -23.23712218 140.29515313 -28.23046875 139.5703125 C-33.22995414 136.81865775 -34.36371579 133.28389526 -35.95678711 128.10400391 C-36.23272705 127.14413574 -36.50866699 126.18426758 -36.79296875 125.1953125 C-37.23684937 123.72650635 -37.23684937 123.72650635 -37.68969727 122.22802734 C-38.55517588 119.34720303 -39.39640531 116.46036791 -40.23046875 113.5703125 C-40.67570312 112.04945629 -41.12100716 110.52862048 -41.56640625 109.0078125 C-42.47392058 105.86691182 -43.36433375 102.7228287 -44.23046875 99.5703125 C-44.96652344 99.53292969 -45.70257813 99.49554688 -46.4609375 99.45703125 C-53.09943743 99.00978753 -57.39039844 98.41038281 -62.23046875 93.5703125 C-63.7682237 87.75702393 -62.66624318 84.22147073 -59.85546875 79.1328125 C-59.32095093 78.1104248 -59.32095093 78.1104248 -58.77563477 77.06738281 C-56.82055728 73.36641308 -54.75793611 69.73263106 -52.65625 66.11328125 C-52.24101074 65.39390381 -51.82577148 64.67452637 -51.39794922 63.93334961 C-50.59122876 62.54744934 -49.77160471 61.16896317 -48.93798828 59.79907227 C-46.77260693 56.36566262 -46.77260693 56.36566262 -46.54296875 52.46264648 C-47.38081809 50.15647808 -48.52892483 49.07179072 -50.29296875 47.3828125 C-53.3905218 43.90367683 -53.90488735 41.36101175 -53.9296875 36.78125 C-52.86873734 33.42651375 -50.85526582 31.87044539 -48.23046875 29.5703125 C-45.11181641 28.19238281 -45.11181641 28.19238281 -41.64453125 27.1484375 C-40.38382813 26.76300781 -39.123125 26.37757812 -37.82421875 25.98046875 C-37.17195313 25.78984863 -36.5196875 25.59922852 -35.84765625 25.40283203 C-33.86320525 24.82257467 -31.88660603 24.22017222 -29.91015625 23.61328125 C-24.0064352 21.83614073 -18.36102564 20.33236869 -12.23046875 19.5703125 C-12.28267578 18.35794922 -12.28267578 18.35794922 -12.3359375 17.12109375 C-12.36300781 16.05246094 -12.39007813 14.98382813 -12.41796875 13.8828125 C-12.47017578 12.29919922 -12.47017578 12.29919922 -12.5234375 10.68359375 C-12.1910993 7.15194651 -11.34725371 5.38775821 -9.23046875 2.5703125 C-5.99794981 0.41529988 -3.86385121 -0.0873892 0 0 Z M-6.87109375 6.14453125 C-8.69914839 9.40666323 -8.74582489 12.10200516 -8.91796875 15.8203125 C-8.98371094 17.08359375 -9.04945312 18.346875 -9.1171875 19.6484375 C-9.15457031 20.61265625 -9.19195312 21.576875 -9.23046875 22.5703125 C-10.26433716 22.84911255 -10.26433716 22.84911255 -11.3190918 23.13354492 C-31.6191569 27.13971351 -31.6191569 27.13971351 -49.23046875 36.5703125 C-49.75676567 39.90166001 -49.47140193 41.21787768 -47.55078125 44.02734375 C-46.82632813 44.80464844 -46.101875 45.58195312 -45.35546875 46.3828125 C-44.63617188 47.17300781 -43.916875 47.96320312 -43.17578125 48.77734375 C-41.42629086 50.79622183 -41.42629086 50.79622183 -39.23046875 50.5703125 C-41.6128749 55.07375254 -43.99736525 59.57608025 -46.38378906 64.07739258 C-47.19523498 65.60866432 -48.00611176 67.1402378 -48.81640625 68.67211914 C-49.98157445 70.87465829 -51.14878885 73.07610221 -52.31640625 75.27734375 C-52.67793793 75.96182083 -53.0394696 76.64629791 -53.41195679 77.35151672 C-54.91704784 80.18488482 -56.44902184 82.89814214 -58.23046875 85.5703125 C-58.13732525 89.91202154 -58.13732525 89.91202154 -56.23046875 93.5703125 C-53.53392021 93.64350871 -50.86355417 93.66273787 -48.16796875 93.6328125 C-47.40935547 93.62830078 -46.65074219 93.62378906 -45.86914062 93.61914062 C-43.98955004 93.6073193 -42.10999976 93.58938328 -40.23046875 93.5703125 C-40.12017334 94.17544678 -40.00987793 94.78058105 -39.89624023 95.40405273 C-38.71665803 101.61134276 -37.15450963 107.59804395 -35.29296875 113.6328125 C-35.04095703 114.46619141 -34.78894531 115.29957031 -34.52929688 116.15820312 C-33.77620626 118.63319402 -33.00404851 121.10166122 -32.23046875 123.5703125 C-31.85704346 124.81723877 -31.85704346 124.81723877 -31.47607422 126.08935547 C-31.22873535 126.88615723 -30.98139648 127.68295898 -30.7265625 128.50390625 C-30.51056396 129.21474365 -30.29456543 129.92558105 -30.07202148 130.65795898 C-29.10377011 132.85822386 -28.10498158 134.07308571 -26.23046875 135.5703125 C-22.62763718 135.82167284 -20.78970577 135.04994641 -18.0625 132.7109375 C-16.05910118 130.71108452 -14.12101414 128.67678312 -12.23046875 126.5703125 C-8.68772833 127.92785209 -5.34833534 129.48270739 -1.9921875 131.25 C-1.00669922 131.76691406 -0.02121094 132.28382813 0.99414062 132.81640625 C2.52264648 133.62271484 2.52264648 133.62271484 4.08203125 134.4453125 C7.97493329 136.49263526 11.87100761 138.53371816 15.76953125 140.5703125 C16.56552734 140.99231934 17.36152344 141.41432617 18.18164062 141.84912109 C22.19213217 144.00747386 22.19213217 144.00747386 26.64453125 144.4453125 C28.93459535 143.66165865 28.93459535 143.66165865 30.76953125 141.5703125 C30.9145111 138.98967121 30.9563067 136.52087366 30.89453125 133.9453125 C30.88550781 133.23890625 30.87648438 132.5325 30.8671875 131.8046875 C30.84360728 130.05975152 30.80773586 128.31498955 30.76953125 126.5703125 C31.65511719 126.48652344 32.54070312 126.40273437 33.453125 126.31640625 C39.41655127 125.46277366 45.10388366 123.43984957 50.83203125 121.6328125 C52.56936523 121.09237305 52.56936523 121.09237305 54.34179688 120.54101562 C57.4874376 119.55992263 60.63102194 118.57398243 63.76953125 117.5703125 C64.84259521 117.24216553 65.91565918 116.91401855 67.02124023 116.57592773 C69.86733999 115.7532169 69.86733999 115.7532169 71.76953125 113.5703125 C72.2636525 109.85410894 72.16049839 108.1410547 70.01953125 105.015625 C69.27703125 104.24992187 68.53453125 103.48421875 67.76953125 102.6953125 C67.02703125 101.91414063 66.28453125 101.13296875 65.51953125 100.328125 C64.94203125 99.74804688 64.36453125 99.16796875 63.76953125 98.5703125 C65.16191365 93.91440918 67.1282818 89.81506222 69.5 85.59765625 C70.22776366 84.27308857 70.95496059 82.94820937 71.68164062 81.62304688 C72.82122767 79.55691424 73.96504958 77.49350959 75.11889648 75.43530273 C76.23800833 73.43374562 77.33888489 71.42301813 78.4375 69.41015625 C78.78636765 68.79857162 79.13523529 68.186987 79.49467468 67.55686951 C80.99235625 64.78583793 81.79183381 62.94514564 81.6027832 59.76782227 C80.8793675 57.40650307 80.8793675 57.40650307 78.76953125 55.5703125 C76.18888996 55.42533265 73.72009241 55.38353705 71.14453125 55.4453125 C70.438125 55.45433594 69.73171875 55.46335938 69.00390625 55.47265625 C67.25897027 55.49623647 65.5142083 55.53210789 63.76953125 55.5703125 C63.60904297 54.36568359 63.60904297 54.36568359 63.4453125 53.13671875 C62.62220741 48.7928173 61.32461105 44.70643388 59.95703125 40.5078125 C59.41351312 38.81918715 58.87054673 37.13038411 58.328125 35.44140625 C58.06241699 34.61624512 57.79670898 33.79108398 57.52294922 32.94091797 C56.16216296 28.65924766 54.89536918 24.34948019 53.62890625 20.0390625 C52.81364453 17.3652924 52.81364453 17.3652924 50.76953125 14.5703125 C47.5290197 13.64871969 47.5290197 13.64871969 43.76953125 14.5703125 C41.54097741 16.54562158 39.6548439 18.6202961 37.76171875 20.91796875 C35.76953125 22.5703125 35.76953125 22.5703125 33.3671875 22.51171875 C30.42734001 21.44630034 27.99244934 20.09100802 25.33203125 18.4453125 C19.62139915 15.00619577 13.79909854 12.03951836 7.80078125 9.1484375 C4.76953125 7.5703125 4.76953125 7.5703125 2.5546875 5.89453125 C0.72215165 4.31552155 0.72215165 4.31552155 -2.29296875 4.1328125 C-5.24812843 4.28343336 -5.24812843 4.28343336 -6.87109375 6.14453125 Z " fill="#00F7F7" transform="translate(63.23046875,-0.5703125)"/>
<path d="M0 0 C6.14854236 0.58058991 10.43633114 3.26990485 15.609375 6.38085938 C19.25986655 8.6104907 19.25986655 8.6104907 23.3359375 8.36328125 C25.11113544 6.95477659 25.11113544 6.95477659 27 5 C29.5 4.75 29.5 4.75 32 5 C34.79786144 7.79786144 35.4933049 11.11804187 36.625 14.8125 C36.85445313 15.52470703 37.08390625 16.23691406 37.3203125 16.97070312 C38.49564842 20.75206661 39.29925001 23.99162489 39 28 C40.8871875 27.87625 40.8871875 27.87625 42.8125 27.75 C46.70535714 27.75 46.70535714 27.75 49.0625 29.75 C50.19078467 32.45788321 49.89131899 33.26734875 49 36 C48.40321132 37.199209 47.76161039 38.37694018 47.08203125 39.53125 C46.71529297 40.17707031 46.34855469 40.82289062 45.97070312 41.48828125 C45.1956338 42.83452307 44.41167989 44.17568693 43.61914062 45.51171875 C41.39137121 49.21872783 41.39137121 49.21872783 41.63671875 53.34375 C43.04677579 55.11115652 43.04677579 55.11115652 45 57 C45.375 59.4375 45.375 59.4375 45 62 C41.52589496 65.4923898 36.98239879 66.40809648 32.375 67.6875 C31.21097656 68.02491211 31.21097656 68.02491211 30.0234375 68.36914062 C24.31295118 70 24.31295118 70 22 70 C22.04125 71.093125 22.0825 72.18625 22.125 73.3125 C22 77 22 77 20 80 C14.2481923 81.03636175 10.36680957 78.35537538 5.625 75.5 C4.88894531 75.07074219 4.15289062 74.64148438 3.39453125 74.19921875 C1.58955456 73.14436224 -0.20618718 72.07373119 -2 71 C-3.13501953 71.98226562 -3.13501953 71.98226562 -4.29296875 72.984375 C-7.49423778 75.36800389 -9.10547524 75.36228137 -13 75 C-20 59.6 -20 59.6 -20 53 C-20.9075 53.061875 -21.815 53.12375 -22.75 53.1875 C-26.28982642 52.98327924 -27.44931155 52.35448165 -30 50 C-29.3983328 43.20975594 -26.85524637 38.83817676 -23.3984375 33.0859375 C-21.86532491 29.70281196 -21.71204347 28.43053842 -23 25 C-23.66 24.34 -24.32 23.68 -25 23 C-25.4375 20.5625 -25.4375 20.5625 -25 18 C-21.13409781 15.18172779 -16.82353952 13.76075808 -12.3125 12.3125 C-11.63638672 12.08755859 -10.96027344 11.86261719 -10.26367188 11.63085938 C-5.2818674 10 -5.2818674 10 -3 10 C-3.061875 9.0925 -3.12375 8.185 -3.1875 7.25 C-2.98327924 3.71017358 -2.35448165 2.55068845 0 0 Z M2 5 C2 7.97 2 10.94 2 14 C0.5975 14.2475 -0.805 14.495 -2.25 14.75 C-8.35450207 15.95690729 -14.14257487 17.9267533 -20 20 C-18.84826645 22.46800047 -17.95216435 24.04783565 -16 26 C-16.21247052 30.98843841 -19.10090799 35.05813122 -21.5625 39.25 C-24.49016432 43.46674202 -24.49016432 43.46674202 -26 48 C-22.7 48 -19.4 48 -16 48 C-15.7525 49.4025 -15.505 50.805 -15.25 52.25 C-14.04309271 58.35450207 -12.0732467 64.14257487 -10 70 C-9.29875 69.319375 -8.5975 68.63875 -7.875 67.9375 C-5 66 -5 66 -2.2734375 66.125 C1.70057008 67.18726456 4.76576286 68.92545201 8.25 71.0625 C12.35257963 73.87685278 12.35257963 73.87685278 17 75 C17 72.03 17 69.06 17 66 C18.381875 65.7525 19.76375 65.505 21.1875 65.25 C27.60551185 63.9792889 33.78042421 62.00820159 40 60 C39.13375 59.13375 38.2675 58.2675 37.375 57.375 C35.8984375 55.8984375 35.8984375 55.8984375 35 54 C36.0457919 49.33315367 38.30171591 45.3994045 40.625 41.25 C43.08757057 37.34509367 43.08757057 37.34509367 44 33 C41.36 33 38.72 33 36 33 C35.60167969 31.37191406 35.60167969 31.37191406 35.1953125 29.7109375 C34.83866918 28.26559353 34.4818912 26.82028278 34.125 25.375 C33.95097656 24.66214844 33.77695313 23.94929688 33.59765625 23.21484375 C32.57145662 19.07203784 31.41209271 15.03273322 30 11 C27.0280615 12.12451727 24.66559313 13.22293791 22 15 C21.4652002 14.69707031 20.93040039 14.39414062 20.37939453 14.08203125 C17.96372208 12.71694793 15.54443265 11.3584068 13.125 10 C12.28324219 9.52304687 11.44148438 9.04609375 10.57421875 8.5546875 C9.76855469 8.10351562 8.96289062 7.65234375 8.1328125 7.1875 C7.01737061 6.55908203 7.01737061 6.55908203 5.87939453 5.91796875 C4.04908534 4.85370549 4.04908534 4.85370549 2 5 Z " fill="#000C05" transform="translate(65,34)"/>
</svg>
