<?xml version="1.0" encoding="UTF-8"?>
<!-- Generator: visioncortex VTracer -->
<svg id="svg" version="1.1" xmlns="http://www.w3.org/2000/svg" style="display: block;" viewBox="0 0 120 120"><path d="M0 0 C39.6 0 79.2 0 120 0 C120 39.6 120 79.2 120 120 C80.4 120 40.8 120 0 120 C0 80.4 0 40.8 0 0 Z " transform="translate(0,0)" style="fill: #000000;"/><path d="M0 0 C39.6 0 79.2 0 120 0 C120 39.6 120 79.2 120 120 C80.4 120 40.8 120 0 120 C0 80.4 0 40.8 0 0 Z M6 6 C6 41.64 6 77.28 6 114 C41.64 114 77.28 114 114 114 C114 78.36 114 42.72 114 6 C78.36 6 42.72 6 6 6 Z " transform="translate(0,0)" style="fill: #FEFEFE;"/></svg>