<svg version="1.1" xmlns="http://www.w3.org/2000/svg" style="display: block;" viewBox="0 0 1024 1804" width="256" height="451" preserveAspectRatio="none">
<path transform="translate(0,0)" fill="rgb(254,254,254)" d="M 381.511 151.752 C 384.885 132.992 390.927 124.061 399.773 107.26 C 401.538 103.907 407.595 98.4118 408.914 95.1016 C 415.293 79.0997 421.503 55.6147 433.618 42.9158 C 444.454 31.5571 465.486 15.9632 481.895 15.7663 C 494.797 15.6114 507.646 15.3703 520.708 15.4492 C 546.376 15.064 567.899 14.593 588.105 32.9349 C 595.972 40.0761 599.809 49.3324 607.398 56.0134 C 608.9 71.2977 616.018 84.7261 622.596 98.574 C 624.969 103.57 628.972 105.133 633.926 107.206 C 634.994 111.059 636.33 122.092 637.197 124.02 C 644.454 140.156 647.379 134.097 648.229 152.118 C 653.51 160.026 653.839 158.204 660.903 162.706 C 663.856 164.588 664.676 176.766 666.725 180.421 C 671.542 189.016 675.428 198.336 679.607 207.257 C 685.27 218.091 687.603 219.721 688.233 232.123 C 689.537 234.035 691.99 238.026 693.997 238.769 C 707.296 242.125 701.635 252.715 704.755 257.022 C 712.615 267.872 714.388 276.189 718.904 287.995 C 722.15 296.484 728.861 313.209 733.854 319.761 L 741.963 323.304 C 746.519 338.73 740.543 338.185 754.954 353.253 C 756.196 361.011 767.421 392.662 772.352 397.324 C 787.789 411.917 790.551 428.634 799.353 447.641 C 800.743 450.642 807.988 455.894 810.018 460.406 C 820.123 482.869 829.91 505.57 839.704 528.171 C 840.652 530.358 848.409 537.576 850.533 539.627 C 852.907 557.742 872.567 587.543 878.433 606.309 C 879.243 608.899 888.002 615.622 889.252 618.919 C 894.876 633.762 900.85 648.53 907.042 663.148 C 908.894 667.451 915.8 671.43 918.441 677.221 C 925.827 693.419 932.383 709.786 940.021 725.876 C 946.767 740.087 945.078 747.369 959.508 757.426 C 960.486 770.979 963.577 772.716 969.11 784.874 C 974.673 797.097 982.008 821.564 989.742 831.594 C 1006.15 837.561 996.363 849.663 1001.75 854.941 C 1015.8 868.7 1011.46 875.53 1012.61 896.727 C 1013.18 905.699 1013.26 912.263 1013.06 921.261 C 1012.2 927.296 1012.13 942.437 1011.26 945.102 C 1007.58 956.298 1002.06 960.059 998.458 973.218 C 992.584 977.158 990.343 979.372 986.667 985.454 C 983.78 990.23 983.967 996.46 981.819 1000.75 C 973.848 1016.67 966.833 1032.89 959.508 1049.1 C 956.086 1056.67 950.731 1062.32 946.401 1069.27 C 939.663 1083.81 934.068 1099.78 927.122 1114.36 C 921.195 1126.8 913.799 1137.38 907.069 1149.16 C 903.729 1155.01 900.664 1165.57 897.654 1172.05 C 894.925 1177.91 892.081 1182.88 890.384 1189.14 C 879.286 1196.79 876.974 1206.61 872.357 1218.81 C 866.84 1233.4 854.196 1254.49 850.368 1269.13 C 837.155 1278.28 837.762 1286.1 832.07 1299.98 C 827.992 1309.92 823.785 1319.95 819.386 1329.76 C 807.147 1354.4 789.474 1376.74 782.798 1404.31 C 782.716 1404.66 782.636 1405 782.558 1405.35 C 779.492 1407.14 774.809 1410.19 773.353 1413.53 C 764.458 1434 755.389 1454.51 746.45 1475.01 C 744.904 1478.55 743.591 1480.64 742.585 1484.43 L 742.387 1485.19 C 736.783 1489 734.243 1491.35 730.736 1497.22 C 727.789 1502.15 727.99 1508.37 725.736 1512.93 C 717.89 1528.81 710.847 1544.95 703.53 1561.06 C 700.091 1568.64 694.748 1574.31 690.405 1581.27 C 683.678 1595.8 678.062 1611.79 671.119 1626.36 C 665.183 1638.82 657.812 1649.36 651.071 1661.16 C 647.736 1666.99 644.662 1677.59 641.656 1684.06 C 638.92 1689.94 636.082 1694.88 634.374 1701.16 C 621.8 1709.8 623.352 1715.24 617.585 1727.67 C 610.069 1743.87 603.803 1762.01 593.812 1776.75 C 584.237 1790.03 568.301 1788.99 558.711 1804 L 476.75 1804 C 466.109 1789.33 438.896 1778.65 428.413 1761.53 C 418.247 1744.93 411.058 1728.19 403.427 1710.42 C 402.12 1707.38 395.875 1702.56 394.168 1698.9 C 388.351 1686.43 383.607 1673 377.797 1660.55 C 371.248 1647.79 362.752 1635.9 356.246 1623.13 C 352.594 1615.96 350.197 1607.75 346.712 1600.42 C 345.395 1597.66 343.841 1594.37 342.674 1591.56 C 336.67 1577.09 327.8 1564.34 321.01 1550.33 C 312.156 1532.06 304.06 1513.39 295.688 1494.9 C 293.592 1490.35 288.768 1487.88 286.785 1483.93 C 281.082 1472.59 276.927 1460.01 271.555 1448.54 C 268.692 1442.42 261.982 1436.69 258.744 1430.18 C 247.69 1407.95 240.886 1386.57 229.415 1364.44 C 222.643 1351.38 213.061 1337.44 207.234 1324.9 C 200.387 1310.18 194.146 1292.6 187.219 1277.63 C 185.699 1274.34 180.184 1271.38 178.762 1267.91 C 169.065 1244.25 157.205 1221.77 147.487 1198.16 C 145.812 1194.09 140.574 1192.5 138.13 1186.87 C 131.54 1171.69 125.266 1155.68 117.872 1140.94 C 113.796 1132.81 103.188 1119.07 100.254 1111.53 C 94.7339 1097.33 90.439 1087.06 83.6021 1073.19 C 77.3107 1060.43 70.1635 1049.23 64.2517 1036.44 C 55.7727 1018.1 47.2034 999.567 38.4691 981.335 C 37.1255 978.531 32.9687 975.763 30.3507 973.956 C 23.9095 948.756 14.381 937.567 15.504 909.524 C 15.051 876.871 21.6919 858.428 39.0959 831.502 C 57.7407 802.656 58.8279 770.367 85.5175 743.774 C 89.186 722.634 109.907 679.382 125.509 663.753 C 128.883 645.05 135.176 635.419 144.15 618.7 C 145.858 615.488 151.25 611.259 152.479 608.218 C 161.555 585.747 176.176 544.243 193.44 527.756 C 197.122 506.532 217.801 463.554 233.526 447.778 C 240.017 410.829 277.049 360.68 290.96 324.443 C 292.405 320.677 298.785 315.837 300.405 312.148 C 312.916 283.658 318.611 254.628 341.526 231.776 C 345.05 210.774 365.973 167.342 381.511 151.752 z M 458.39 150.972 C 450.684 158.84 448.634 164.198 447.098 174.577 C 432.877 182.76 428.845 204.585 420.615 218.438 C 419.923 219.604 418.734 229.083 418.471 231.125 C 410.407 238.909 408.655 244.518 406.991 254.997 C 395.411 261.382 392.076 270.411 390.464 282.911 C 389.336 284.734 384.973 291.478 384.506 293.074 C 379.997 301.353 380.583 312.979 371.579 315.571 C 363.724 317.833 363.273 332.097 362.371 338.986 C 354.22 346.391 352.326 352.509 350.349 362.879 C 349.024 365.087 345.284 370.994 344.445 373.051 C 337.225 386.879 342.293 388.678 328.47 400.453 C 326.179 402.404 315.564 430.946 312.353 435.301 C 311.833 436.369 310.65 445.67 310.469 447.1 C 302.71 455.354 300.646 459.511 298.954 470.852 C 285.357 478.681 287.246 485.357 281.56 498.367 C 279.42 503.264 273.683 508.368 272.254 513.837 C 270.863 519.087 273.149 523.491 269.257 528.303 C 254.907 535.825 256.419 538.549 254.366 554.992 C 248.067 560.851 244.208 567.088 243.304 575.772 C 241.644 579.436 237.615 585.968 236.47 589.059 C 231.98 597.378 233.276 598.948 230.048 606.912 C 229.339 608.662 225.793 611.088 223.804 611.418 C 216.151 612.686 215.405 627.152 214.451 635.102 C 204.028 644.173 204.372 650.192 202.444 663.043 C 194.85 671.267 192.62 675.459 190.956 686.843 C 176.473 694.924 174.211 714.389 165.801 727.859 C 163.626 731.343 163.011 738.783 162.467 743.129 C 154.615 751.405 152.619 755.588 150.99 767.003 C 140.879 772.392 134.713 783.547 134.459 794.909 C 133.331 796.732 128.968 803.478 128.506 805.074 C 121.733 817.136 127.076 824.073 112.898 828.724 C 108.649 830.118 106.978 846.607 106.399 851.115 C 106.311 851.19 104.949 852.347 104.759 852.551 C 96.3322 861.643 90.4757 881.909 85.4379 893.753 C 84.3948 896.205 83.7121 904.984 83.6995 907.797 C 83.6732 913.692 83.1357 920.698 84.9391 926.281 C 86.0913 929.848 91.2219 933.666 92.2933 936.798 C 97.4826 951.967 102.784 966.338 110.313 980.563 C 111.891 983.544 119.391 989.559 120.711 992.039 C 122.452 995.309 123.489 1003.75 125.215 1007.59 C 126.679 1010.86 130.789 1013.7 132.069 1016.67 C 135.166 1023.87 136.632 1032.51 140.356 1039.36 C 141.808 1042.04 147.904 1045.44 149.018 1048.1 C 155.293 1063.06 162.464 1086.05 173.433 1097.73 C 173.493 1098.84 173.57 1099.95 173.664 1101.06 C 174.864 1114.92 179.287 1118.52 189.148 1126.85 C 198.089 1150.86 207.429 1174.39 218.88 1197.46 C 220.822 1201.37 226.331 1203.69 228.092 1207.67 C 238.393 1230.92 247.79 1254.66 258.969 1277.52 C 260.637 1280.94 267.463 1285.26 268.557 1288.15 C 273.114 1300.18 272.212 1304.23 281.465 1313.65 C 281.52 1314.78 281.592 1315.91 281.682 1317.03 C 282.812 1330.86 287.333 1334.55 297.15 1342.86 C 303.137 1359.04 309.479 1380.92 321.468 1393.75 C 321.547 1395.1 321.644 1396.45 321.76 1397.81 C 323.192 1414.34 330.518 1414.8 337.194 1426.1 C 342.278 1434.71 337.236 1438.3 348.956 1448.16 C 353.24 1469.28 362.415 1488.56 376.176 1503.81 C 376.162 1503.79 388.145 1531.03 389.066 1533.51 C 393.514 1545.53 394.876 1550.14 404.9 1560.16 C 412.91 1575.99 416.603 1596.04 429.436 1609.75 C 429.495 1610.86 429.572 1611.97 429.665 1613.07 C 430.865 1626.92 435.286 1630.53 445.144 1638.85 C 448.952 1649 450.843 1655.6 455.827 1666.04 C 462.411 1679.84 466.699 1695.43 474.909 1708.85 C 479.981 1717.15 489.154 1732.93 499.12 1735.91 C 506.492 1737.56 528.24 1738.78 534.148 1734.33 C 551.811 1721.04 564.39 1687.27 572.794 1667.4 C 576.642 1658.3 580.239 1652.01 582.576 1643.01 C 594.427 1633.66 618.247 1578.85 622.513 1563.03 C 632.656 1554.74 637.964 1537.18 644.308 1524.66 L 682.598 1447.7 C 687.176 1438.43 696.312 1426.17 699.745 1417.73 C 708.167 1397.02 724.883 1367.78 730.577 1347.01 C 748.211 1333.16 758.666 1290.02 769.629 1269.47 C 772.332 1264.4 776.524 1262.7 778.42 1258.8 C 783.834 1247.66 788.197 1236.5 793.847 1225.39 C 797.457 1218.29 804.414 1208.54 807.435 1202.31 C 815.294 1186.09 834.197 1147.46 838.579 1131.01 C 850.422 1121.67 874.244 1066.86 878.504 1051.05 C 890.815 1040.85 893.178 1023.99 901.134 1011.11 C 918.583 982.857 931.982 953.358 943.782 922.404 C 945.85 916.979 944.719 909.664 944.557 903.825 C 944.381 897.513 943.624 890.501 941.369 884.594 C 933.21 865.955 925.006 847.043 916.4 828.611 C 914.746 825.069 906.782 817.607 905.276 814.033 C 898.958 799.041 893.787 783.614 887.168 768.747 C 884.662 763.117 879.651 761.243 878.021 757.412 C 868.127 734.161 857.415 711.324 846.896 688.358 C 844.707 683.58 839.875 681.348 838.241 677.934 C 827.846 656.22 820.296 633.165 809.445 611.69 C 806.458 605.777 802.889 602.514 798.081 598.21 C 793.237 577.789 778.723 557.026 769.582 538.842 C 758.763 517.32 749.092 493.417 738.464 471.604 C 736.374 467.315 732.1 465.268 730.447 461.831 C 727.629 455.976 725.173 449.709 722.347 443.813 C 714.736 427.931 706.69 412.023 699.015 396.189 C 695.606 389.157 689.918 383.68 688.817 381.194 C 679.952 361.179 671.617 340.663 662.683 320.661 C 660.587 315.968 651.819 306.715 649.675 302.151 C 642.874 287.674 636.954 272.61 630.161 258.105 C 627.57 252.571 622.533 249.542 620.558 245.076 C 610.399 222.095 600.677 198.913 589.229 176.524 C 586.792 171.757 583.078 170.362 580.023 163.98 C 569.989 143.021 562.544 120.713 552.239 99.9691 C 549.106 93.6613 541.744 85.8812 535.852 82.2379 C 528.12 77.4567 519.099 75.2469 510.202 77.7495 C 496.053 81.7296 482.389 92.5254 475.043 105.241 C 471.416 111.52 471.292 115.302 470.136 122.393 C 460.714 132.289 460.224 138.032 458.39 150.972 z"/>
<path transform="translate(0,0)" fill="rgb(254,254,254)" fill-opacity="0.054902" d="M 243.304 575.772 C 242.995 581.631 243.307 587.752 242.155 593.303 L 240.789 594.178 C 238.275 592.819 237.818 591.511 236.47 589.059 C 237.615 585.968 241.644 579.436 243.304 575.772 z"/>
<path transform="translate(0,0)" fill="rgb(254,254,254)" fill-opacity="0.0588235" d="M 350.349 362.879 C 350.472 366.803 351.39 375.576 349.526 378.242 C 346.28 376.926 346.803 376.493 344.445 373.051 C 345.284 370.994 349.024 365.087 350.349 362.879 z"/>
<path transform="translate(0,0)" fill="rgb(254,254,254)" fill-opacity="0.054902" d="M 134.459 794.909 C 134.268 798.693 134.722 808.116 133.464 810.301 C 130.695 809.463 130.26 808.381 128.704 805.455 L 128.506 805.074 C 128.968 803.478 133.331 796.732 134.459 794.909 z"/>
<path transform="translate(0,0)" fill="rgb(254,254,254)" fill-opacity="0.0588235" d="M 390.464 282.911 C 390.252 286.786 390.725 296.12 389.377 298.296 C 386.118 296.938 386.777 296.681 384.506 293.074 C 384.973 291.478 389.336 284.734 390.464 282.911 z"/>
<path transform="translate(0,0)" fill="rgb(254,254,254)" fill-opacity="0.0941176" d="M 1024 887.643 L 1024 892.564 C 1021.19 895.948 1015.42 895.866 1016.18 903.301 C 1017.29 914.238 1022.6 911.914 1024 922.115 L 1024 924.97 C 1022.34 921.576 1019.23 916.815 1015.3 916.571 L 1013.06 921.261 C 1013.26 912.263 1013.18 905.699 1012.61 896.727 L 1014.35 898.107 C 1020.66 889.422 1015.39 894.752 1024 887.643 z"/>
<path transform="translate(0,0)" fill="rgb(254,254,254)" fill-opacity="0.184314" d="M 1024 922.115 C 1022.6 911.914 1017.29 914.238 1016.18 903.301 C 1015.42 895.866 1021.19 895.948 1024 892.564 L 1024 922.115 z"/>
</svg>