<?xml version="1.0" encoding="utf-8" ?><svg xmlns="http://www.w3.org/2000/svg" xmlns:xlink="http://www.w3.org/1999/xlink" width="129" height="128" viewBox="0 0 129 128"><path fill="#00FDFE" fill-opacity="0.98823529" d="M7.07582 0L122.608 0C124.427 1.5569 126.703 3.18019 129 3.86228L129 120.78C127.227 124.059 125.673 125.976 122.455 128L7.30068 128C4.11167 125.953 0.944459 123.164 0.847864 119.008C0.650299 110.508 0.733781 101.957 0.734824 93.4554L0.727525 44.5577L0.644104 20.0507C0.614114 17.128 0.647172 13.8906 0.528412 10.9918C0.291121 5.19961 2.76856 3.20262 7.07582 0ZM10.5723 117.974L118.849 117.996L118.943 10.0333L10.576 9.97569L10.5723 117.974Z"/><path d="M15.6655 3.86192C15.9682 3.85217 16.271 3.84428 16.5738 3.83823C21.8559 3.72975 28.0819 4.00555 33.4991 4.00954L78.3394 4.00713L103.973 4.00428C109.116 4.00143 114.29 3.89829 119.409 4.21759C122.487 4.38665 124.512 6.31028 124.555 9.44368C124.884 33.3567 124.703 57.2968 124.713 81.218L124.727 104.802C124.733 109.565 124.891 114.464 124.485 119.203C124.048 124.31 118.071 123.985 114.371 123.994L47.291 123.985C35.8833 123.986 24.4667 124.075 13.0633 123.936C10.8026 123.869 6.15248 123.68 5.46376 120.889C4.41218 116.629 4.81579 112.012 4.75248 107.626C4.69881 103.908 4.75418 100.101 4.75583 96.3601L4.76791 58.3478L4.73917 27.3328C4.73463 21.9186 4.67818 16.4147 4.79084 11.0011C4.83279 8.98512 5.13799 7.74489 6.07609 5.95831C9.35278 3.93541 11.944 4.0551 15.6655 3.86192ZM10.5723 117.974L118.849 117.996L118.943 10.0333L10.576 9.97569L10.5723 117.974Z"/><path fill="lime" fill-opacity="0.98823529" d="M10.576 9.97569L118.943 10.0333L118.849 117.996L10.5723 117.974L10.576 9.97569ZM38.4888 90.2483C55.9118 90.6739 73.4658 89.8887 90.9926 90.3347C91.1149 73.3327 91.4032 54.7804 91.0038 37.8931C74.1469 37.3089 55.5619 37.8375 38.5841 37.756C38.3595 43.583 38.4778 49.9212 38.4862 55.7965L38.4888 90.2483Z"/><path d="M32.4942 31.4763L97.3298 31.4938C97.0432 39.2785 97.2356 47.8194 97.2465 55.6592L97.2493 96.2583C75.6454 96.3603 54.0411 96.3479 32.4373 96.2211C32.795 89.0565 32.5459 80.2342 32.5375 72.9893L32.4942 31.4763ZM38.4888 90.2483C55.9118 90.6739 73.4658 89.8887 90.9926 90.3347C91.1149 73.3327 91.4032 54.7804 91.0038 37.8931C74.1469 37.3089 55.5619 37.8375 38.5841 37.756C38.3595 43.583 38.4778 49.9212 38.4862 55.7965L38.4888 90.2483Z"/><path fill="#FEFEFE" d="M38.5841 37.756C55.5619 37.8375 74.1469 37.3089 91.0038 37.8931C91.4032 54.7804 91.1149 73.3327 90.9926 90.3347C73.4658 89.8887 55.9118 90.6739 38.4888 90.2483L38.4862 55.7965C38.4778 49.9212 38.3595 43.583 38.5841 37.756ZM53.9904 74.4859L74.3125 74.4835C74.5162 74.4685 75.2569 74.4493 75.2673 74.3571C75.8148 69.4755 75.4814 57.5963 75.5552 53.1867L55.9799 53.1076C55.0674 53.1542 54.6195 53.0159 53.9781 53.4732C53.751 55.7025 53.8895 59.194 53.913 61.5148C53.9648 65.8383 53.9906 70.1621 53.9904 74.4859Z"/><path d="M54.9223 47.3481C55.3537 47.2513 58.7166 47.0917 59.1704 47.1741C66.4661 48.499 82.5078 43.1975 81.7621 55.239C81.3322 62.1809 82.1755 68.4659 81.574 75.2973C81.2528 78.9441 78.7393 80.1823 75.63 80.7288C67.4388 80.8112 59.6547 80.8932 51.4632 80.391C50.0814 79.4904 49.7592 79.1921 48.6378 78.0319C48.4554 77.197 48.3201 76.3525 48.2327 75.5024C47.8349 71.7333 47.3397 51.6607 49.1794 49.4199C50.5553 47.7439 52.9167 47.5507 54.9223 47.3481ZM53.9904 74.4859L74.3125 74.4835C74.5162 74.4685 75.2569 74.4493 75.2673 74.3571C75.8148 69.4755 75.4814 57.5963 75.5552 53.1867L55.9799 53.1076C55.0674 53.1542 54.6195 53.0159 53.9781 53.4732C53.751 55.7025 53.8895 59.194 53.913 61.5148C53.9648 65.8383 53.9906 70.1621 53.9904 74.4859Z"/><path fill="#00FDFE" fill-opacity="0.98823529" d="M55.9799 53.1076L75.5552 53.1867C75.4814 57.5963 75.8148 69.4755 75.2673 74.3571C75.2569 74.4493 74.5162 74.4685 74.3125 74.4835L53.9904 74.4859C53.9906 70.1621 53.9648 65.8383 53.913 61.5148C53.8895 59.194 53.751 55.7025 53.9781 53.4732C54.6195 53.0159 55.0674 53.1542 55.9799 53.1076Z"/></svg>