<svg version="1.1" xmlns="http://www.w3.org/2000/svg" style="display: block;" viewBox="0 0 1024 1968" width="256" height="492" preserveAspectRatio="none">
<defs>
	<linearGradient id="Gradient1" gradientUnits="userSpaceOnUse" x1="397.288" y1="1782.56" x2="409.712" y2="1793.44">
		<stop class="stop0" offset="0" stop-opacity="0.333333" stop-color="rgb(255,179,250)"/>
		<stop class="stop1" offset="1" stop-opacity="0.392157" stop-color="rgb(255,176,255)"/>
	</linearGradient>
	<linearGradient id="Gradient2" gradientUnits="userSpaceOnUse" x1="397.075" y1="186.233" x2="405.697" y2="172.958">
		<stop class="stop0" offset="0" stop-opacity="0.239216" stop-color="rgb(254,180,251)"/>
		<stop class="stop1" offset="1" stop-opacity="0.333333" stop-color="rgb(255,175,253)"/>
	</linearGradient>
	<linearGradient id="Gradient3" gradientUnits="userSpaceOnUse" x1="651.197" y1="1868.89" x2="535.755" y2="1866.09">
		<stop class="stop0" offset="0" stop-opacity="1" stop-color="rgb(253,66,251)"/>
		<stop class="stop1" offset="1" stop-opacity="1" stop-color="rgb(255,137,255)"/>
	</linearGradient>
	<linearGradient id="Gradient4" gradientUnits="userSpaceOnUse" x1="647.065" y1="106.321" x2="528.892" y2="103.46">
		<stop class="stop0" offset="0" stop-opacity="1" stop-color="rgb(254,66,251)"/>
		<stop class="stop1" offset="1" stop-opacity="1" stop-color="rgb(255,138,255)"/>
	</linearGradient>
	<linearGradient id="Gradient5" gradientUnits="userSpaceOnUse" x1="826.735" y1="1420.81" x2="885.34" y2="1294.88">
		<stop class="stop0" offset="0" stop-opacity="1" stop-color="rgb(249,252,249)"/>
		<stop class="stop1" offset="1" stop-opacity="1" stop-color="rgb(253,236,253)"/>
	</linearGradient>
	<linearGradient id="Gradient6" gradientUnits="userSpaceOnUse" x1="631.909" y1="1434.75" x2="284.662" y2="1176.79">
		<stop class="stop0" offset="0" stop-opacity="1" stop-color="rgb(255,10,253)"/>
		<stop class="stop1" offset="1" stop-opacity="1" stop-color="rgb(255,145,255)"/>
	</linearGradient>
</defs>
<path transform="translate(0,0)" fill="rgb(1,0,1)" d="M 322.714 188.444 C 331.342 181.425 337.413 173.871 346.284 167.822 C 351.463 164.29 354.472 165.146 360.235 166.517 C 375.351 173.432 386.827 179.897 400.804 188.916 C 407.173 193.026 417.171 199.983 423.495 203.377 C 429.856 203.898 438.658 204.879 444.857 204.989 L 469.525 204.824 L 478.932 204.599 L 478.787 204.442 C 497.765 203.783 515.906 205.371 533.226 204.74 C 535.331 205.157 541.206 204.784 543.669 204.658 C 565.036 203.566 586.042 203.578 607.434 204.016 C 627.37 202.966 655.613 204.732 676.836 204.7 L 743.091 204.819 C 751.749 204.838 778.416 204.778 786.036 205.599 C 796.757 206.754 834.725 236.803 841.344 245.891 C 854.314 263.699 870.259 284.039 881.124 303.152 C 886.086 311.881 890.935 323.489 895.644 332.648 C 904.846 350.541 914.606 370.222 922.08 388.842 C 930.576 410.013 938.305 431.599 945.588 453.193 C 949.405 464.509 955.566 476.847 959.444 488.345 C 967.267 511.535 975.07 534.92 981.331 558.584 C 983.101 565.272 986.595 574.672 987.79 580.954 C 991.287 599.331 993.503 618.376 996.541 636.886 C 998.442 648.465 1001.96 660.177 1003.72 671.53 C 1011.98 723.342 1017.13 775.603 1019.13 828.031 C 1021.19 872.032 1021.85 916.604 1022.28 960.657 C 1022.3 963.476 1022.75 965.832 1024 968.374 L 1024 1033.34 C 1023.9 1033.57 1023.8 1033.79 1023.7 1034.02 C 1020.65 1041.27 1020.18 1140.35 1019.66 1157.06 C 1018.9 1181.09 1017.79 1205.37 1015.68 1229.33 C 1014.25 1245.52 1010.46 1261.85 1007.96 1277.93 C 1006.27 1288.84 1005.73 1300.26 1003.35 1311.01 C 1001.59 1318.91 997.64 1326.3 996.15 1334.26 C 992.59 1353.28 992.103 1372.96 988.284 1391.91 C 986.376 1401.39 983.174 1410.64 980.874 1420.03 C 966.297 1479.54 948.471 1540.3 921.42 1595.53 C 916.719 1605.12 911.827 1614.8 906.284 1623.94 C 901.543 1631.76 896.018 1639.41 891.747 1647.48 C 887.933 1654.69 886.017 1662.81 881.971 1669.91 C 863.916 1702.25 839.687 1730.74 810.658 1753.75 C 805.562 1757.77 799.567 1763.23 793.564 1765.78 C 780.215 1771.46 693.908 1768.57 674.925 1768.55 C 663.657 1768.54 652.381 1769.27 641.126 1769.15 C 633.387 1769.07 616.48 1766.44 610.173 1769.08 C 603.24 1770.29 582.957 1770.58 576.869 1768.82 C 573.258 1767.34 570.01 1769.11 565.64 1768.74 C 539.643 1766.53 514.7 1767.59 488.758 1767.48 L 444.533 1767.87 L 440.209 1768.05 C 434.369 1767.69 428.74 1766.95 423.099 1768.43 C 416.825 1774.39 374.817 1805.13 369.431 1805.04 C 368.871 1805.03 368.311 1805 367.752 1804.97 C 359.963 1796.66 351.623 1788.72 343.7 1780.31 C 342.001 1779.28 340.523 1778.04 339.103 1776.65 C 326.168 1764.07 313.544 1732.63 313.511 1714.84 C 313.46 1687.25 339.696 1681.85 358.983 1670.27 C 365.615 1666.29 371.108 1661.26 376.47 1655.72 C 445.133 1584.88 478.345 1440.63 495.595 1345.69 C 498.885 1327.59 502.921 1309.41 505.269 1291.16 C 508.873 1263.13 508.241 1234.2 510.304 1206 C 511.689 1187.07 514.116 1168.22 515.455 1149.28 C 519.109 1097.59 521.099 1045 521.332 993.174 C 521.45 966.815 521.642 940.081 520.616 913.757 C 519.548 886.371 517.302 858.984 516.938 831.576 C 514.878 808.883 511.432 786.072 508.722 763.469 C 506.452 749.032 506.825 731.374 503.54 717.269 C 495.397 682.302 489.263 645.688 479.42 611.209 C 478.906 608.791 478.039 606.039 477.37 603.633 C 471.493 582.508 466.873 561.135 460.92 540.027 C 451.662 509.436 427.785 450.86 412.061 423.669 C 395.322 397.822 371.744 366.592 342.173 355.034 C 320.792 346.678 308.009 355.329 292.898 332.208 C 280.975 315.974 266.513 292.963 270.605 272.244 C 277.756 236.027 293.199 209.967 322.714 188.444 z M 795.472 1059.71 C 793.669 1087.39 794.011 1115.77 792.63 1143.64 C 790.999 1176.58 785.065 1208.19 782.695 1241.02 C 793.989 1241.44 804.613 1241.83 815.933 1241.69 L 841.378 1241.22 C 847.961 1185.97 852.017 1115.89 851.188 1059.85 C 841.061 1059.73 830.058 1059.39 820.001 1059.48 C 812.231 1059.61 803.132 1059.97 795.472 1059.71 z M 794.958 924.278 C 812.983 925.372 833.081 925.001 851.288 925.02 C 850.577 881.776 849.46 837.997 846.999 794.807 C 846.345 783.332 845.33 762.284 843.734 751.321 C 827.922 750.671 798.255 752.454 784.904 750.39 C 786.196 774.427 790.984 797.419 792.141 820.947 C 793.813 854.932 795.759 890.301 794.958 924.278 z M 656.731 1539.86 C 660.054 1536.73 665.094 1511.9 667.098 1505.51 C 676.411 1475.8 686.14 1445.88 693.091 1415.53 C 694.863 1407.79 698.259 1399.79 699.861 1392 C 702.773 1377.83 704.373 1363.35 706.913 1349.1 C 693.21 1348.92 676.259 1348.3 662.732 1348.97 C 650.833 1384.03 644.287 1427.64 633.715 1463.86 C 630.216 1475.85 610 1533.38 611.63 1538.64 C 617.177 1540.84 648.524 1539.92 656.731 1539.86 z M 714.961 1539.43 C 729.918 1540.2 756.201 1540.62 771.124 1539.56 C 780.512 1519.93 788.422 1495.67 794.189 1474.59 C 798.795 1457.74 797.653 1442.34 805.256 1425.48 C 808.223 1421.58 808.297 1420.05 807.84 1415.56 C 788.704 1400.21 781.774 1371.26 783.107 1347.79 C 778.456 1348.01 773.35 1347.89 768.661 1347.87 C 762.361 1363.53 758.996 1399.7 753.346 1417.95 C 745.302 1443.92 737.9 1471.52 728.811 1497.23 C 722.946 1513.82 719.487 1522.04 714.961 1539.43 z M 676.725 1241.24 C 691.568 1241.55 708.03 1242.08 722.853 1241.34 C 729.584 1199.8 731.139 1164.96 732.782 1122.97 C 733.559 1103.09 736.393 1079.42 735.415 1060.08 C 723.045 1059.91 700.261 1060.61 689.123 1059.64 C 688.957 1100.26 686.212 1141.18 681.374 1181.5 C 678.971 1201.53 678.285 1221.18 676.725 1241.24 z M 691.255 374.975 C 700.476 375.982 743.239 377.103 751.391 375.296 C 748.66 369.3 746.71 363.014 744.347 356.871 C 736.517 336.519 725.383 317.516 715.556 298.119 C 695.896 297.327 673.902 298.332 655.43 297.242 C 656.417 300.751 659.12 304.983 660.558 308.876 C 668.859 331.338 683.484 352.673 691.255 374.975 z M 864.734 1429.63 L 863.217 1441.48 C 862.576 1450.15 856.637 1462.81 853.752 1471.8 L 832.569 1539.2 C 844.906 1540.39 866.167 1540.26 878.378 1539.22 C 886.016 1527.62 887.294 1513.22 891.477 1500.05 C 894.901 1489.26 898.667 1478.47 901.583 1467.57 C 902.954 1463.54 901.547 1453.31 903.005 1449.97 C 909.257 1435.66 913.137 1424.32 916.41 1408.91 C 917.377 1405.46 917.918 1403.83 919.351 1400.55 C 920.491 1396.78 921.711 1395.36 920.547 1392.35 C 912.241 1409.31 884.644 1432.27 864.734 1429.63 z M 801.048 1611.2 C 794.386 1640.76 775.625 1667.79 759.546 1693.18 C 757.224 1696.85 753.08 1703.82 754.297 1708.16 C 781.106 1700.45 798.43 1722.19 816.093 1684.19 C 824.058 1667.05 850.382 1630.6 849.91 1611.93 L 848.726 1610.73 C 838.229 1611 809.51 1612.48 801.048 1611.2 z M 809.585 374.84 C 819.025 375.945 847.8 377.052 856.683 375.32 C 853.623 371.958 851.444 365.114 850.737 360.575 C 848.126 343.831 831.222 312.288 821.503 298.555 C 804.528 296.946 787.319 298.597 771.758 297.099 C 776.672 308.773 786.88 324.167 792.195 336.046 C 798.546 350.24 801.293 361.19 809.585 374.84 z M 563.776 326.581 C 576.038 345.003 576.147 358.768 589.714 376.064 C 599.288 376.02 609.21 375.83 618.75 375.948 C 623.739 375.9 629.442 375.986 634.364 375.713 C 627.473 362.931 606.624 302.941 596.29 299.74 C 590.091 297.82 582.964 299.125 576.56 299.048 C 568.812 310.476 568.882 314.674 563.776 326.581 z M 594.629 1610.26 L 582.904 1612.3 C 576.548 1622.49 566.904 1638.12 570.063 1650.06 C 572.448 1659.07 583.788 1682.07 591.049 1687.04 L 593.113 1687.34 C 594.108 1686.15 594.527 1685.93 594.965 1684.51 C 601.321 1672.08 624.748 1623.9 627.093 1611.21 C 616.029 1612.27 605.533 1610.54 594.629 1610.26 z M 915.855 561.717 C 916.688 558.224 915.198 553.624 914.337 549.985 C 912.386 539.454 903.968 526.227 902.504 517.452 C 899.423 498.98 897.434 489.486 890.395 471.996 C 876.99 471.35 861.092 471.669 847.323 471.405 C 848.388 497.47 858.397 502.893 860.653 521.256 C 861.261 523.75 862.668 530.118 863.577 532.138 C 884.304 531.515 903.239 546.647 915.855 561.717 z M 691.048 641.401 C 696.766 641.346 702.965 641.175 708.642 641.287 C 707.12 630.58 702.487 596.193 700.55 587.607 C 696.889 571.378 674.684 480.665 667.224 473.235 C 661.361 470.857 645.613 470.737 638.491 470.447 C 633.547 470.809 628.609 471.244 623.678 471.753 C 624.232 478.127 627.12 486.757 628.822 493.069 C 634.851 515.426 642.713 538.098 647.71 560.727 C 651.747 579.007 654.33 597.233 659.847 615.375 C 662.156 622.968 661.677 632.365 664.724 640.248 C 669.806 642.738 684.625 641.622 691.048 641.401 z M 903.052 751.134 C 900.157 761.416 910.76 838.556 911.547 853.727 C 912.689 875.735 913.563 901.482 912.602 924.125 C 919.628 924.457 952.745 926.724 957.348 923.604 C 957.697 891.916 955.958 858.731 954.57 827 C 953.531 803.229 952.511 775.164 947.912 752.058 C 932.337 750.549 916.71 752.662 903.052 751.134 z M 745.526 1610.96 C 734.827 1611.08 721.735 1610.96 711.15 1611.54 C 702.795 1611.91 694.025 1612.16 685.718 1612.76 C 675.336 1632.41 666.405 1652.3 656.987 1672.32 C 651.654 1683.65 640.924 1694.25 634.658 1706.89 C 645.013 1706.03 655.785 1706.44 666.199 1706.63 C 676.217 1706.85 687.462 1707.46 697.297 1706.16 C 709.457 1686.33 739.21 1631.57 745.526 1610.96 z M 957.55 1059.84 C 948.426 1059.85 920.902 1060.47 912.926 1059.42 C 912.807 1077.76 913.519 1101.86 911.405 1119.83 C 906.648 1160.29 904.164 1200.68 900.584 1241.15 C 910.009 1241.41 935.908 1242.52 944.749 1241.29 C 953.216 1204.6 954.052 1158.51 955.709 1121.06 C 956.464 1103.98 958.377 1076.45 957.55 1059.84 z M 735.958 924.401 C 735.202 913.563 735.574 902.796 734.898 891.837 C 732.043 845.572 730.836 798.606 727.295 752.424 C 710.963 750.854 694.598 750.939 678.19 750.675 C 679.256 762.713 679.47 774.613 680.773 786.657 C 685.805 833.142 689.88 877.016 688.826 924.011 C 699.652 924.608 725.728 925.789 735.958 924.401 z M 729.383 470.426 C 729.664 474.813 730.08 479.092 731.178 483.363 C 736.016 502.191 743.264 520.841 749.062 539.444 C 751.583 547.535 752.59 558.516 756.864 565.615 C 761.435 573.207 765.83 638.119 774.699 640.38 C 777.808 641.173 780.82 641.261 784.013 641.342 C 788.568 642.105 789.214 642.371 790.806 638.301 C 775.952 598.595 781.852 579.834 806.708 547.705 L 804.165 541.395 C 798.305 526.383 793.212 476.587 783.741 472.128 C 767.272 470.84 743.673 472.699 729.383 470.426 z"/>
<path transform="translate(0,0)" fill="rgb(62,27,64)" d="M 322.714 188.444 C 331.342 181.425 337.413 173.871 346.284 167.822 C 351.463 164.29 354.472 165.146 360.235 166.517 C 375.351 173.432 386.827 179.897 400.804 188.916 C 407.173 193.026 417.171 199.983 423.495 203.377 C 429.856 203.898 438.658 204.879 444.857 204.989 L 469.525 204.824 C 471.271 209.649 472.83 214.993 475.959 218.988 L 478.109 219.638 L 482.488 223.566 C 486.097 229.91 492.721 229.716 495.044 232.812 L 492.506 233.404 C 496.844 238.926 511.609 274.034 516.499 277.337 L 517.412 274.26 L 519.017 274.665 L 519.927 276.448 L 519.326 277.687 L 521.975 279.445 L 522.018 280.367 C 522.202 283.871 523.41 291.587 524.482 295.057 C 529.89 299.118 538.377 316.824 542.181 320.299 L 542.121 316.833 L 543.147 315.989 C 546.625 321.18 548.692 338.878 556.404 351.604 C 557.013 349.43 557.314 346.58 558.786 345.573 C 564.621 355.674 565.416 370.098 569.159 381.93 C 568.639 383.539 568.52 384.115 567.586 385.588 C 568.647 388.197 569.047 389.503 570.731 391.825 C 570.128 388.86 569.305 386.007 569.919 383.051 L 571.283 382.274 C 578.898 387.756 574.59 399.947 577.229 408.463 C 577.882 410.574 578.424 412.902 578.997 415.036 L 578.928 412.66 L 580.819 421.452 L 582.639 420.629 L 583.81 421.872 C 583.663 423.68 583.547 425.49 583.462 427.302 C 583.431 427.923 597.884 468.555 598.98 470.332 C 599.141 466.328 597.186 463.279 597.319 459.946 C 598.403 460.616 610.837 493.988 613.289 496.257 L 614.51 495.861 C 615.158 488.432 611.957 473.098 612.45 468.981 C 616.528 476.439 617.317 493.977 619.548 503.209 C 620.708 508.008 623.318 513.673 624.091 516.959 L 617.424 516.961 C 616.479 522.513 622.911 544.796 624.995 550.359 C 629.323 561.912 625.368 575.056 632.13 584.929 C 633.478 586.797 627.647 587.447 632.505 593.037 L 631.618 593.666 L 629.466 593.173 C 631.37 595.443 632.017 596.592 634.734 597.807 L 635.257 591.177 C 646.646 607.123 639.136 673.921 648.507 681.817 C 648.682 678.496 648.13 677.86 648.818 673.239 L 650.81 671.651 L 649.647 671.384 L 650.322 671.077 C 654.295 679.717 652.13 702.854 652.716 712.77 C 652.74 713.173 655.637 716.066 656.284 716.639 C 655.944 721.617 654.585 733.493 656.925 737.412 C 657.516 734.942 657.694 733.856 658.817 731.54 L 657.041 727.964 C 658.465 724.575 660.209 721.996 659.778 718.759 C 659.375 722.603 661.978 725.337 662.037 729.597 C 662.537 765.69 668.816 800.738 667.915 837.114 C 666.961 875.667 669.714 914.048 668.704 952.601 C 666.36 1042.12 671.56 1132.15 662.566 1221.42 C 661.753 1229.52 663.252 1244.17 661.197 1251.15 C 657.387 1244.81 661.814 1171.68 658.593 1165.53 C 658.489 1185.51 640.355 1340.94 640.928 1341.97 L 643.841 1341.07 L 644.337 1342.11 L 643.893 1342.42 C 642.364 1343.49 642.103 1343.58 641.026 1345.05 C 641.293 1356.42 639.712 1369.24 631.293 1377.6 L 632.976 1378.44 C 629.73 1384.82 634.103 1384.04 630.447 1387.46 L 629.608 1387.56 C 628.249 1391.14 628.473 1400.21 627.647 1405.36 C 626.024 1415.47 618.901 1419.29 620.74 1427.15 C 621.805 1431.71 615.252 1461.71 613.499 1464.61 L 614.293 1465.41 C 614.267 1467.48 614.673 1469.77 613.606 1471.04 C 606.557 1479.45 604.794 1492.83 600.258 1503.74 C 599.062 1503.54 598.847 1503.41 597.721 1502.94 C 595.09 1511.12 598.105 1512.13 592.723 1517.56 C 591.641 1526.38 591.943 1530.89 587.85 1538.81 C 582.962 1548.26 578.746 1555.3 580.267 1566.13 C 580.424 1567.36 575.955 1578.8 575.007 1581.07 L 574.088 1580.65 C 573.855 1579.46 572.947 1575.29 572.905 1574.34 C 572.373 1578.31 572.792 1580.81 570.636 1583.81 L 570.772 1581.23 C 568.409 1588.08 567.49 1591.08 566.252 1598.19 L 565.434 1596.49 L 565.046 1597.21 L 565.951 1598.21 C 565.325 1605.1 559.047 1612.85 559.323 1619.25 L 558.492 1620.02 L 557.394 1616.42 C 556.721 1620.65 557.101 1624.35 555.769 1628.38 C 550.664 1643.83 545.014 1653.33 535.789 1666.56 C 536.768 1667.44 536.993 1667.35 538.291 1667.7 L 537.642 1668.44 C 534.811 1671.72 531.467 1676.82 531.047 1681.22 L 532.264 1681.23 C 531.502 1684.19 522.822 1689.15 521.1 1693.4 C 518.308 1700.28 527.626 1705.42 514.616 1706.58 C 513.148 1708.96 510.61 1713.39 509.003 1715.33 C 502.107 1723.64 497.868 1723.12 497.541 1734.71 L 500.353 1735.46 C 498.658 1741.26 487.426 1745.93 485.492 1750.66 L 487.412 1752 L 487.419 1751.64 L 486.536 1753.71 L 488.484 1754.51 C 482.738 1756.62 482.333 1754.11 478.483 1756.66 L 480.118 1758.77 L 484.202 1759.24 L 482.848 1760.42 L 486.702 1761.5 C 486.814 1765.62 483.64 1762.9 485.943 1766.33 L 488.758 1767.48 L 444.533 1767.87 L 440.209 1768.05 C 434.369 1767.69 428.74 1766.95 423.099 1768.43 C 416.825 1774.39 374.817 1805.13 369.431 1805.04 C 368.871 1805.03 368.311 1805 367.752 1804.97 C 359.963 1796.66 351.623 1788.72 343.7 1780.31 C 342.001 1779.28 340.523 1778.04 339.103 1776.65 C 326.168 1764.07 313.544 1732.63 313.511 1714.84 C 313.46 1687.25 339.696 1681.85 358.983 1670.27 C 365.615 1666.29 371.108 1661.26 376.47 1655.72 C 445.133 1584.88 478.345 1440.63 495.595 1345.69 C 498.885 1327.59 502.921 1309.41 505.269 1291.16 C 508.873 1263.13 508.241 1234.2 510.304 1206 C 511.689 1187.07 514.116 1168.22 515.455 1149.28 C 519.109 1097.59 521.099 1045 521.332 993.174 C 521.45 966.815 521.642 940.081 520.616 913.757 C 519.548 886.371 517.302 858.984 516.938 831.576 C 514.878 808.883 511.432 786.072 508.722 763.469 C 506.452 749.032 506.825 731.374 503.54 717.269 C 495.397 682.302 489.263 645.688 479.42 611.209 C 478.906 608.791 478.039 606.039 477.37 603.633 C 471.493 582.508 466.873 561.135 460.92 540.027 C 451.662 509.436 427.785 450.86 412.061 423.669 C 395.322 397.822 371.744 366.592 342.173 355.034 C 320.792 346.678 308.009 355.329 292.898 332.208 C 280.975 315.974 266.513 292.963 270.605 272.244 C 277.756 236.027 293.199 209.967 322.714 188.444 z"/>
<path transform="translate(0,0)" fill="url(#Gradient6)" d="M 516.938 831.576 C 523.394 840.334 514.26 855.105 522.984 862.366 L 523.911 858.07 L 524.842 858.097 C 527.124 864.298 528.353 868.55 531.507 874.414 C 542.321 868.304 559.22 866.41 571.189 860.795 C 584.978 854.327 581.416 864.821 591.818 849.01 C 595.14 851.607 594.541 855.89 594.577 860.012 L 595.984 860.814 C 599.325 904.77 599.275 950.212 599.183 994.276 C 600.164 1119.41 588.277 1244.31 563.711 1367.01 C 560.899 1380.74 559.319 1396.49 555.533 1409.82 C 524.282 1519.83 490.699 1636.15 417.885 1726.77 C 407.619 1739.55 392.004 1750.33 379.061 1760.25 C 368.492 1768.93 352.629 1773.38 343.7 1780.31 C 342.001 1779.28 340.523 1778.04 339.103 1776.65 C 326.168 1764.07 313.544 1732.63 313.511 1714.84 C 313.46 1687.25 339.696 1681.85 358.983 1670.27 C 365.615 1666.29 371.108 1661.26 376.47 1655.72 C 445.133 1584.88 478.345 1440.63 495.595 1345.69 C 498.885 1327.59 502.921 1309.41 505.269 1291.16 C 508.873 1263.13 508.241 1234.2 510.304 1206 C 511.689 1187.07 514.116 1168.22 515.455 1149.28 C 519.109 1097.59 521.099 1045 521.332 993.174 C 521.45 966.815 521.642 940.081 520.616 913.757 C 519.548 886.371 517.302 858.984 516.938 831.576 z"/>
<path transform="translate(0,0)" fill="rgb(254,160,254)" d="M 292.898 332.208 C 280.975 315.974 266.513 292.963 270.605 272.244 C 277.756 236.027 293.199 209.967 322.714 188.444 C 327.895 192.066 340.763 192.863 347.4 195.052 C 367.486 201.677 384.876 213.242 401.419 226.2 C 414.932 236.774 426.096 251.476 435.456 265.841 C 441.621 276.331 453.269 288.202 458.514 298.935 C 477.287 337.357 498.77 377.788 512.662 418.198 C 527.829 462.316 542.122 508.376 554.539 553.391 C 558.717 568.537 560.351 584.247 563.576 599.585 C 572.134 637.264 578.186 675.529 583.935 713.732 C 586.901 733.442 586.758 757.344 589.583 777.35 C 592.86 800.556 598.882 837.435 595.984 860.814 L 594.577 860.012 C 594.541 855.89 595.14 851.607 591.818 849.01 C 581.416 864.821 584.978 854.327 571.189 860.795 C 559.22 866.41 542.321 868.304 531.507 874.414 C 528.353 868.55 527.124 864.298 524.842 858.097 L 523.911 858.07 L 522.984 862.366 C 514.26 855.105 523.394 840.334 516.938 831.576 C 514.878 808.883 511.432 786.072 508.722 763.469 C 506.452 749.032 506.825 731.374 503.54 717.269 C 495.397 682.302 489.263 645.688 479.42 611.209 C 478.906 608.791 478.039 606.039 477.37 603.633 C 471.493 582.508 466.873 561.135 460.92 540.027 C 451.662 509.436 427.785 450.86 412.061 423.669 C 395.322 397.822 371.744 366.592 342.173 355.034 C 320.792 346.678 308.009 355.329 292.898 332.208 z"/>
<path transform="translate(0,0)" fill="rgb(253,90,251)" d="M 292.898 332.208 C 304.686 321.494 341.714 331.318 354.979 337.027 C 365.084 341.376 374.86 351.187 382.078 359.253 C 407.288 385.372 422.915 415.784 435.962 449.271 C 447.011 476.319 458.017 502.216 465.502 531.066 C 470.469 554.736 479.762 577.418 481.63 600.895 C 481.915 604.474 479.603 607.512 479.42 611.209 C 478.906 608.791 478.039 606.039 477.37 603.633 C 471.493 582.508 466.873 561.135 460.92 540.027 C 451.662 509.436 427.785 450.86 412.061 423.669 C 395.322 397.822 371.744 366.592 342.173 355.034 C 320.792 346.678 308.009 355.329 292.898 332.208 z"/>
<path transform="translate(0,0)" fill="rgb(253,253,253)" d="M 322.714 188.444 C 331.342 181.425 337.413 173.871 346.284 167.822 C 351.463 164.29 354.472 165.146 360.235 166.517 C 375.351 173.432 386.827 179.897 400.804 188.916 C 407.173 193.026 417.171 199.983 423.495 203.377 C 424.294 210.938 451.798 235.85 457.5 244.172 C 488.426 289.306 514.209 336.167 532.37 387.924 C 542.862 414.114 552.011 439.339 560.137 466.382 C 575.076 516.092 586.571 565.528 598.98 615.799 C 610.41 662.108 611.135 695.928 615.649 742.361 C 632.316 903.798 632.412 1066.52 615.934 1227.97 C 613.345 1255.32 612.842 1291.33 607.479 1317.19 C 592.576 1389.03 572.472 1462.86 551.144 1533.08 C 530.381 1601.43 498.84 1667.48 459.089 1726.63 C 455.698 1731.62 440.786 1747.15 439.757 1749.17 C 434.474 1754.48 426.986 1761.96 423.099 1768.43 C 416.825 1774.39 374.817 1805.13 369.431 1805.04 C 368.871 1805.03 368.311 1805 367.752 1804.97 C 359.963 1796.66 351.623 1788.72 343.7 1780.31 C 352.629 1773.38 368.492 1768.93 379.061 1760.25 C 392.004 1750.33 407.619 1739.55 417.885 1726.77 C 490.699 1636.15 524.282 1519.83 555.533 1409.82 C 559.319 1396.49 560.899 1380.74 563.711 1367.01 C 588.277 1244.31 600.164 1119.41 599.183 994.276 C 599.275 950.212 599.325 904.77 595.984 860.814 C 598.882 837.435 592.86 800.556 589.583 777.35 C 586.758 757.344 586.901 733.442 583.935 713.732 C 578.186 675.529 572.134 637.264 563.576 599.585 C 560.351 584.247 558.717 568.537 554.539 553.391 C 542.122 508.376 527.829 462.316 512.662 418.198 C 498.77 377.788 477.287 337.357 458.514 298.935 C 453.269 288.202 441.621 276.331 435.456 265.841 C 426.096 251.476 414.932 236.774 401.419 226.2 C 384.876 213.242 367.486 201.677 347.4 195.052 C 340.763 192.863 327.895 192.066 322.714 188.444 z"/>
<path transform="translate(0,0)" fill="rgb(126,57,139)" d="M 423.495 203.377 C 429.856 203.898 438.658 204.879 444.857 204.989 C 446.412 211.777 447.625 214.27 452.195 219.591 C 476.366 247.735 503.731 272.438 516.513 308.293 C 518.882 314.939 519.54 323.816 522.012 330.61 C 533.754 355.421 545.092 380.318 555.064 405.9 C 558.545 414.832 562.164 437.998 566.925 445.167 L 567.865 440.586 L 568.746 440.35 C 571.287 443.946 568.129 450.242 569.218 452.58 C 577.321 469.959 579.803 488.933 584.896 507.216 C 587.565 516.8 591.11 526.323 593.828 536.102 C 599.338 556.563 604.193 577.195 608.385 597.966 C 617.3 640.593 624.116 683.633 628.806 726.929 C 630.503 743.547 631.75 760.379 632.52 777.053 C 632.626 779.363 633.761 782.994 634.073 786.223 C 635.471 801.272 636.654 816.339 637.623 831.422 C 642.057 912.311 642.725 993.363 639.624 1074.31 C 638.011 1126.57 638.599 1180.72 628.768 1232.03 C 628.094 1235.55 629.471 1243.06 628.89 1247.36 C 624.64 1278.84 624.055 1310.69 614.195 1341.36 C 611.931 1348.41 611.732 1361.73 609.72 1369.89 L 603.512 1395.6 C 602.874 1398.36 601.638 1399.98 601.275 1402.61 L 602.94 1403.85 C 602.561 1411.19 595.673 1419.83 594.87 1435.23 L 591.458 1436.69 C 589.391 1442.09 592.42 1448.04 590.798 1451.75 C 584.31 1466.6 582.439 1482.53 575.608 1497.17 C 575.043 1498.91 575.975 1506.16 575.202 1507.39 C 571.036 1513.65 568.419 1518.81 566.102 1525.91 C 560.383 1543.43 560.397 1569.64 552.131 1585.66 C 542.847 1603.64 533.049 1630.34 522.513 1646.81 C 522.144 1666.71 500.684 1691.84 490.832 1709.32 C 489.54 1711.61 480.786 1715.93 479.848 1719.7 C 470.9 1734.68 453.184 1753.91 440.26 1765.44 L 444.533 1767.87 L 440.209 1768.05 C 434.369 1767.69 428.74 1766.95 423.099 1768.43 C 426.986 1761.96 434.474 1754.48 439.757 1749.17 C 440.786 1747.15 455.698 1731.62 459.089 1726.63 C 498.84 1667.48 530.381 1601.43 551.144 1533.08 C 572.472 1462.86 592.576 1389.03 607.479 1317.19 C 612.842 1291.33 613.345 1255.32 615.934 1227.97 C 632.412 1066.52 632.316 903.798 615.649 742.361 C 611.135 695.928 610.41 662.108 598.98 615.799 C 586.571 565.528 575.076 516.092 560.137 466.382 C 552.011 439.339 542.862 414.114 532.37 387.924 C 514.209 336.167 488.426 289.306 457.5 244.172 C 451.798 235.85 424.294 210.938 423.495 203.377 z"/>
<path transform="translate(0,0)" fill="rgb(58,33,62)" d="M 511.729 285.331 L 512.878 284.021 C 508.507 272.862 495.155 250.687 489.285 239.028 C 486.862 234.216 478.5 226.847 477.661 222.56 C 479.343 222.966 480.786 223.256 482.488 223.566 C 486.097 229.91 492.721 229.716 495.044 232.812 L 492.506 233.404 C 496.844 238.926 511.609 274.034 516.499 277.337 L 517.412 274.26 L 519.017 274.665 L 519.927 276.448 L 519.326 277.687 L 521.975 279.445 L 522.018 280.367 C 522.202 283.871 523.41 291.587 524.482 295.057 C 529.89 299.118 538.377 316.824 542.181 320.299 C 538.247 335.535 554.111 343.884 552.582 357.826 L 551.022 356.657 L 551.518 357.43 C 546.49 344.635 539.89 341.359 534.314 330.965 C 528.284 319.725 523.382 305.468 515.842 294.443 C 514.522 292.514 511.244 287.241 511.729 285.331 z"/>
<path transform="translate(0,0)" fill="rgb(58,33,62)" d="M 469.525 204.824 L 478.932 204.599 L 481.516 205.61 C 477.554 208.92 475.771 202.167 474.911 209.796 C 476.623 213.882 476.652 213.62 481.009 216.174 C 480.052 216.917 479.392 217.406 478.376 218.064 L 478.109 219.638 L 475.959 218.988 C 472.83 214.993 471.271 209.649 469.525 204.824 z"/>
<path transform="translate(0,0)" fill="url(#Gradient5)" d="M 814.055 1285.87 C 825.4 1278.26 858.459 1270.04 871.446 1274.01 C 922.007 1289.44 949.861 1325.91 937.222 1379.41 C 934.146 1392.43 930.38 1405.9 916.41 1408.91 C 917.377 1405.46 917.918 1403.83 919.351 1400.55 C 920.491 1396.78 921.711 1395.36 920.547 1392.35 C 912.241 1409.31 884.644 1432.27 864.734 1429.63 L 863.217 1441.48 C 836.654 1438.28 828.684 1440.5 805.256 1425.48 C 808.223 1421.58 808.297 1420.05 807.84 1415.56 C 788.704 1400.21 781.774 1371.26 783.107 1347.79 C 778.456 1348.01 773.35 1347.89 768.661 1347.87 C 775.667 1328.45 773.034 1327.56 788.711 1311.07 C 796.328 1298.48 801.985 1293.94 814.055 1285.87 z"/>
<path transform="translate(0,0)" fill="rgb(62,27,64)" d="M 814.055 1285.87 C 825.4 1278.26 858.459 1270.04 871.446 1274.01 C 922.007 1289.44 949.861 1325.91 937.222 1379.41 C 934.146 1392.43 930.38 1405.9 916.41 1408.91 C 917.377 1405.46 917.918 1403.83 919.351 1400.55 C 920.491 1396.78 921.711 1395.36 920.547 1392.35 C 920.911 1390.39 922.76 1388.72 923.311 1387 C 929.962 1366.23 931.079 1352.19 923.492 1331.66 C 915.074 1316.58 907.79 1307.88 893.31 1297.87 C 874.966 1285.18 861.055 1284.52 840.007 1288.5 C 830.691 1286.2 823.536 1286.29 814.055 1285.87 z"/>
<path transform="translate(0,0)" fill="rgb(126,57,139)" d="M 923.492 1331.66 C 927.367 1333.88 928.47 1336.56 930.801 1340.08 C 941.828 1356.75 934.861 1375.47 930.764 1393.16 C 927.197 1396.52 924.294 1399.41 919.351 1400.55 C 920.491 1396.78 921.711 1395.36 920.547 1392.35 C 920.911 1390.39 922.76 1388.72 923.311 1387 C 929.962 1366.23 931.079 1352.19 923.492 1331.66 z"/>
<path transform="translate(0,0)" fill="rgb(126,57,139)" d="M 788.711 1311.07 C 796.328 1298.48 801.985 1293.94 814.055 1285.87 C 823.536 1286.29 830.691 1286.2 840.007 1288.5 C 804.892 1299.41 794.001 1312.58 783.225 1347.34 L 783.107 1347.79 C 778.456 1348.01 773.35 1347.89 768.661 1347.87 C 775.667 1328.45 773.034 1327.56 788.711 1311.07 z"/>
<path transform="translate(0,0)" fill="rgb(58,33,62)" d="M 788.711 1311.07 C 785.402 1318.3 779.192 1328.29 781.194 1335.39 C 782.692 1340.71 783.006 1341.44 783.225 1347.34 L 783.107 1347.79 C 778.456 1348.01 773.35 1347.89 768.661 1347.87 C 775.667 1328.45 773.034 1327.56 788.711 1311.07 z"/>
<path transform="translate(0,0)" fill="rgb(126,57,139)" d="M 807.84 1415.56 C 810.868 1414.99 823.833 1422.52 829.177 1424.52 C 839.543 1428.38 856.689 1427.44 864.734 1429.63 L 863.217 1441.48 C 836.654 1438.28 828.684 1440.5 805.256 1425.48 C 808.223 1421.58 808.297 1420.05 807.84 1415.56 z"/>
<path transform="translate(0,0)" fill="rgb(253,90,251)" d="M 828.692 1303.51 C 858.473 1280.65 888.121 1299.04 907.924 1322.93 C 919.503 1336.89 919.776 1375.61 907.412 1387.73 C 894.73 1410.78 868.64 1423.02 842.813 1418.04 C 816.985 1413.07 797.307 1392.02 794.089 1365.91 C 790.871 1339.81 804.846 1314.6 828.692 1303.51 z"/>
<path transform="translate(0,0)" fill="rgb(254,160,254)" d="M 828.692 1303.51 C 858.473 1280.65 888.121 1299.04 907.924 1322.93 C 919.503 1336.89 919.776 1375.61 907.412 1387.73 C 920.06 1364.75 916.5 1336.25 898.589 1317.08 C 880.677 1297.92 852.475 1292.44 828.692 1303.51 z"/>
<path transform="translate(0,0)" fill="rgb(253,253,253)" d="M 860.653 521.256 C 861.261 523.75 862.668 530.118 863.577 532.138 C 884.304 531.515 903.239 546.647 915.855 561.717 C 916.688 558.224 915.198 553.624 914.337 549.985 L 914.62 550.391 C 916.154 552.553 918.15 555.299 920.375 556.722 C 941.687 570.341 939.451 601.859 936.67 623.696 C 936.206 627.344 934.71 632.175 933.493 635.874 C 932.863 632.546 931.821 624.409 929.927 622.253 C 928.747 622.96 928.706 622.743 928.042 623.756 C 926.216 629.527 924.612 633.56 921.072 638.638 L 921.688 639.103 C 924.999 641.562 926.436 641.492 930.745 641.632 C 928.972 651.103 910.097 666.787 902.058 672.669 C 880.831 688.201 846.751 695.296 822.285 682.424 C 808.441 677.552 794.677 665.564 786.914 653.047 C 783.217 647.085 786.503 645.03 784.013 641.342 C 788.568 642.105 789.214 642.371 790.806 638.301 C 775.952 598.595 781.852 579.834 806.708 547.705 L 804.165 541.395 C 808.52 538.643 806.578 535.083 809.77 532.518 C 824.175 520.946 844.608 524.501 860.653 521.256 z"/>
<path transform="translate(0,0)" fill="rgb(126,57,139)" d="M 790.806 638.301 C 793.199 644.465 796.19 647.735 800.246 652.895 C 826.521 676.229 858.563 684.145 890.339 666.265 C 901.761 659.838 914.345 650.047 921.072 638.638 L 921.688 639.103 C 924.999 641.562 926.436 641.492 930.745 641.632 C 928.972 651.103 910.097 666.787 902.058 672.669 C 880.831 688.201 846.751 695.296 822.285 682.424 C 808.441 677.552 794.677 665.564 786.914 653.047 C 783.217 647.085 786.503 645.03 784.013 641.342 C 788.568 642.105 789.214 642.371 790.806 638.301 z"/>
<path transform="translate(0,0)" fill="rgb(126,57,139)" d="M 914.337 549.985 L 914.62 550.391 C 916.154 552.553 918.15 555.299 920.375 556.722 C 941.687 570.341 939.451 601.859 936.67 623.696 C 936.206 627.344 934.71 632.175 933.493 635.874 C 932.863 632.546 931.821 624.409 929.927 622.253 C 928.747 622.96 928.706 622.743 928.042 623.756 C 928.3 621.942 928.492 620.118 928.618 618.29 C 929.594 603.605 926.105 573.325 915.855 561.717 C 916.688 558.224 915.198 553.624 914.337 549.985 z"/>
<path transform="translate(0,0)" fill="rgb(126,57,139)" d="M 860.653 521.256 C 861.261 523.75 862.668 530.118 863.577 532.138 C 860.679 533.185 843.46 533.818 834.892 535.82 C 820.26 539.24 814.927 544.945 806.708 547.705 L 804.165 541.395 C 808.52 538.643 806.578 535.083 809.77 532.518 C 824.175 520.946 844.608 524.501 860.653 521.256 z"/>
<path transform="translate(0,0)" fill="rgb(253,90,251)" d="M 843.713 544.597 C 877.225 538.318 909.485 560.387 915.778 593.897 C 922.071 627.407 900.015 659.677 866.508 665.984 C 832.98 672.295 800.687 650.223 794.39 616.693 C 788.094 583.163 810.179 550.879 843.713 544.597 z"/>
<path transform="translate(0,0)" fill="rgb(253,253,253)" d="M 574.068 176.098 C 536.848 168.367 511.738 133.432 516.275 95.6881 C 520.811 57.9444 553.483 29.9538 591.476 31.2624 C 629.469 32.571 660.137 62.7431 662.066 100.71 C 663.995 138.676 636.541 171.801 598.877 176.952 C 590.619 178.082 582.229 177.793 574.068 176.098 z"/>
<path transform="translate(0,0)" fill="url(#Gradient4)" d="M 580.102 43.6221 C 613.366 38.954 644.148 62.049 648.968 95.2914 C 653.789 128.534 630.835 159.421 597.615 164.393 C 564.179 169.398 533.047 146.263 528.196 112.804 C 523.344 79.3458 546.622 48.3206 580.102 43.6221 z"/>
<path transform="translate(0,0)" fill="rgb(253,253,253)" d="M 585.069 1795.52 C 589.061 1795.02 593.086 1794.86 597.105 1795.02 C 636.306 1796.63 667.256 1828.88 667.259 1868.12 C 667.262 1907.35 636.317 1939.6 597.116 1941.22 C 557.915 1942.84 524.415 1913.25 521.182 1874.15 C 517.95 1835.05 546.135 1800.36 585.069 1795.52 z"/>
<path transform="translate(0,0)" fill="url(#Gradient3)" d="M 593.568 1807.93 C 627.233 1807.54 654.8 1834.59 655.06 1868.26 C 655.32 1901.92 628.174 1929.39 594.507 1929.53 C 561.011 1929.67 533.712 1902.69 533.453 1869.2 C 533.194 1835.7 560.074 1808.3 593.568 1807.93 z"/>
<path transform="translate(0,0)" fill="url(#Gradient2)" d="M 360.235 166.517 C 369.711 160.843 364.521 158.849 378.656 157.412 L 380.061 157.277 C 411.816 171.266 416.074 170.008 438.944 197.65 L 438.925 199.386 L 438.561 199.723 C 437.745 200.502 436.941 201.294 436.151 202.098 C 442.303 205.239 469.9 204.408 478.787 204.442 L 478.932 204.599 L 469.525 204.824 L 444.857 204.989 C 438.658 204.879 429.856 203.898 423.495 203.377 C 417.171 199.983 407.173 193.026 400.804 188.916 C 386.827 179.897 375.351 173.432 360.235 166.517 z"/>
<path transform="translate(0,0)" fill="url(#Gradient1)" d="M 423.099 1768.43 C 428.74 1766.95 434.369 1767.69 440.209 1768.05 C 437.59 1768.6 434.962 1769.11 432.327 1769.58 C 434.038 1771.8 435.957 1772.75 435.15 1775.84 C 431.278 1790.66 398.758 1814.59 384.566 1814.97 C 378.423 1812.25 372.916 1809.29 367.752 1804.97 C 368.311 1805 368.871 1805.03 369.431 1805.04 C 374.817 1805.13 416.825 1774.39 423.099 1768.43 z"/>
<path transform="translate(0,0)" fill="rgb(1,0,1)" fill-opacity="0.360784" d="M 574.775 191.652 C 579.795 190.503 594.647 191.092 601.284 190.694 C 602.735 194.885 603.214 195.352 606.292 198.59 C 606.687 200.396 607.068 202.205 607.434 204.016 C 586.042 203.578 565.036 203.566 543.669 204.658 C 541.206 204.784 535.331 205.157 533.226 204.74 C 544.636 196.465 572.883 214.619 574.775 191.652 z"/>
<path transform="translate(0,0)" fill="rgb(1,0,1)" fill-opacity="0.270588" d="M 576.869 1768.82 C 582.957 1770.58 603.24 1770.29 610.173 1769.08 C 608.497 1771.9 608.405 1772.37 607.767 1775.55 C 608.903 1778.57 610.409 1779.06 611.409 1781.37 C 599.8 1782.03 589.469 1779.9 577.533 1782.09 C 578.514 1776.21 578.033 1774.55 576.869 1768.82 z"/>
<path transform="translate(0,0)" fill="rgb(253,90,251)" fill-opacity="0.0823529" d="M 577.533 1782.09 C 589.469 1779.9 599.8 1782.03 611.409 1781.37 C 610.598 1786.04 611.053 1787.63 608.3 1791.07 C 603.238 1794.04 601.042 1790.36 597.287 1793.29 L 597.105 1795.02 C 593.086 1794.86 589.061 1795.02 585.069 1795.52 L 584.867 1793.15 C 578.831 1791.31 578.436 1787.7 577.533 1782.09 z"/>
<path transform="translate(0,0)" fill="rgb(253,90,251)" fill-opacity="0.117647" d="M 574.068 176.098 C 582.229 177.793 590.619 178.082 598.877 176.952 C 600.193 185.006 602.302 182.257 601.284 190.694 C 594.647 191.092 579.795 190.503 574.775 191.652 L 575.132 186.591 C 575.5 181.829 574.13 180.663 574.068 176.098 z"/>
</svg>