<?xml version="1.0" encoding="utf-8" ?><svg xmlns="http://www.w3.org/2000/svg" xmlns:xlink="http://www.w3.org/1999/xlink" width="157" height="97" viewBox="0 0 157 97"><path fill="#00FBFE" fill-opacity="0.98823529" d="M22.5772 25.4901C26.5197 25.3334 27.5456 25.5102 31.0225 27.1153C31.1646 26.9282 30.5272 10.1686 31.1938 7.5623C33.5138 -1.50819 41.166 0.941338 48.4251 1.07179C49.7437 1.09548 53.0902 3.34739 53.6604 4.50651C55.4752 8.19588 55.4711 20.5876 54.6704 24.0897C70.9419 25.4137 87.6923 27.7139 103.985 29.3681L122.151 31.0518C125.359 31.3691 128.829 31.602 131.95 32.3886C135.523 33.1095 136.447 37.0378 139.343 38.4921C146.474 42.0733 152.816 39.6128 157 47.8421L157 74.9227C156.131 76.3599 155.034 78.0251 153.623 78.9751C151.23 80.5865 115.029 90.194 110.848 90.6591C106.515 91.1411 101.872 90.4047 97.4921 90.4086L68.5038 90.5004C65.0579 90.5069 56.4651 90.728 53.4141 90.1225C52.0272 89.0871 51.4804 88.404 50.4222 87.0489C46.7245 89.5455 39.3164 91.4027 35.0476 92.9569C32.8068 93.7727 29.7023 95.2793 27.5216 95.879C26.4615 96.18 25.3582 96.2995 24.2584 96.2325C15.4115 95.6616 18.1174 83.8368 17.0265 82.5921C15.566 82.3267 8.40602 82.4724 6.36623 82.451C1.32622 79.6877 0.910612 77.3684 0.960855 71.9952C1.09585 63.8563 0.69454 55.5645 1.03842 47.4405C1.37645 39.4546 11.4573 39.9508 16.9706 40.4842C18.9347 38.9213 13.8915 30.3594 22.5772 25.4901ZM34.8981 33.0073C19.5948 26.7841 21.3873 29.73 21.5291 44.4816C18.3209 44.4672 8.54981 43.7839 6.25699 45.4762C5.10514 46.3264 4.52774 50.9554 4.71876 52.9466C5.25398 58.5255 3.43213 73.0804 6.12137 77.5022C7.05379 79.0353 18.8791 78.4859 21.4922 78.5017C21.4017 81.8576 20.0377 92.4947 25.3893 91.7398C34.6674 90.4309 43.7954 84.9448 52.6621 82.1146C53.0112 83.7981 53.1884 84.4465 53.8312 86.0363C57.4695 86.832 103.581 86.7943 105.405 85.9165L105.743 85.6353C106.637 86.0974 107.414 86.4798 108.336 86.8931C112.837 86.5962 124.991 82.9686 129.685 81.6984C136.565 79.837 146.441 77.719 152.495 74.4008C152.722 71.4186 153.381 49.3534 151.722 47.6445C149.282 45.1321 137.815 42.6626 133.568 41.4508C133.288 39.5828 133.136 38.4798 132.542 36.6581C127.849 35.4905 123.062 35.2812 118.239 34.7916L97.1071 32.597L70.6338 29.7833C65.0825 29.1608 56.1462 27.9953 50.6251 27.9713C50.7133 22.3966 50.7382 16.9222 50.659 11.3545C50.5493 3.64285 47.0393 4.42792 40.5765 4.58805C39.3754 4.73226 36.3895 5.07626 36.0358 6.09162C33.9677 12.0275 35.0285 27.1271 34.8981 33.0073Z"/><path d="M40.5765 4.58805C47.0393 4.42792 50.5493 3.64285 50.659 11.3545C50.7382 16.9222 50.7133 22.3966 50.6251 27.9713C56.1462 27.9953 65.0825 29.1608 70.6338 29.7833L97.1071 32.597L118.239 34.7916C123.062 35.2812 127.849 35.4905 132.542 36.6581C133.136 38.4798 133.288 39.5828 133.568 41.4508C137.815 42.6626 149.282 45.1321 151.722 47.6445C153.381 49.3534 152.722 71.4186 152.495 74.4008C146.441 77.719 136.565 79.837 129.685 81.6984C124.991 82.9686 112.837 86.5962 108.336 86.8931C107.414 86.4798 106.637 86.0974 105.743 85.6353L105.405 85.9165C103.581 86.7943 57.4695 86.832 53.8312 86.0363C53.1884 84.4465 53.0112 83.7981 52.6621 82.1146C43.7954 84.9448 34.6674 90.4309 25.3893 91.7398C20.0377 92.4947 21.4017 81.8576 21.4922 78.5017C18.8791 78.4859 7.05379 79.0353 6.12137 77.5022C3.43213 73.0804 5.25398 58.5255 4.71876 52.9466C4.52774 50.9554 5.10514 46.3264 6.25699 45.4762C8.54981 43.7839 18.3209 44.4672 21.5291 44.4816C21.3873 29.73 19.5948 26.7841 34.8981 33.0073C35.0285 27.1271 33.9677 12.0275 36.0358 6.09162C36.3895 5.07626 39.3754 4.73226 40.5765 4.58805ZM38.6452 46.8393L106.575 46.7987C110.355 46.8011 127.11 47.3039 129.805 46.6564L129.878 40.8164L72.624 34.8812L55.1983 33.1746C53.0767 32.9771 48.8592 32.455 46.8655 32.4931L46.8091 9.65151C44.0524 9.57283 41.2945 9.53841 38.5366 9.54827L38.5135 32.6798C38.5122 37.2039 38.4069 42.3706 38.6452 46.8393ZM21.5665 49.0284L8.54432 48.9986C8.62499 57.3159 8.62222 65.6339 8.53602 73.9511C12.8586 73.9962 17.1815 74.0094 21.5043 73.9905C21.4734 65.6698 21.4942 57.3489 21.5665 49.0284ZM134.226 45.9305C133.591 48.3525 132.982 49.7486 131.687 51.8931C126.606 52.874 114.828 52.4964 109.014 52.4608C108.884 62.0532 108.67 71.1157 109.098 80.7054C113.116 79.5695 117.148 78.483 121.192 77.446C130.372 74.9783 139.859 72.2917 149.061 69.989C149.218 63.8473 149.391 56.2489 148.991 50.1571C144.276 48.9845 138.771 47.6128 134.226 45.9305Z"/><path fill="#00FE01" d="M56.4846 52.4604L102.908 52.4929C103.055 61.599 102.853 71.2852 102.82 80.4368C100.909 80.6869 90.929 80.5001 88.4487 80.4997L56.4749 80.4898C56.2741 71.4315 56.4764 61.5816 56.4846 52.4604Z"/><path fill="#00FBFE" fill-opacity="0.98823529" d="M38.5366 9.54827C41.2945 9.53841 44.0524 9.57283 46.8091 9.65151L46.8655 32.4931C48.8592 32.455 53.0767 32.9771 55.1983 33.1746L72.624 34.8812L129.878 40.8164L129.805 46.6564C127.11 47.3039 110.355 46.8011 106.575 46.7987L38.6452 46.8393C38.4069 42.3706 38.5122 37.2039 38.5135 32.6798L38.5366 9.54827Z"/><path fill="#00FE01" fill-opacity="0.98823529" d="M134.226 45.9305C138.771 47.6128 144.276 48.9845 148.991 50.1571C149.391 56.2489 149.218 63.8473 149.061 69.989C139.859 72.2917 130.372 74.9783 121.192 77.446C117.148 78.483 113.116 79.5695 109.098 80.7054C108.67 71.1157 108.884 62.0532 109.014 52.4608C114.828 52.4964 126.606 52.874 131.687 51.8931C132.982 49.7486 133.591 48.3525 134.226 45.9305Z"/><path fill="#00FE01" d="M25.0294 33.7877C28.4131 34.7939 31.2 36.0463 34.4744 37.3086C34.4228 37.9282 34.3789 38.5485 34.3427 39.1692C34.0513 44.222 33.9441 48.5058 37.4501 52.4455C41.0336 52.6592 46.67 52.4992 50.4024 52.5065C50.4046 60.2279 50.2521 68.3246 50.534 76.0058L43.3114 78.865C37.2778 81.2636 31.227 83.6186 25.1594 85.9297C24.8704 79.8692 25.1077 72.5107 25.1327 66.3214C25.2016 55.4767 25.1671 44.6317 25.0294 33.7877Z"/><path fill="#00FE01" fill-opacity="0.98823529" d="M8.54432 48.9986L21.5665 49.0284C21.4942 57.3489 21.4734 65.6698 21.5043 73.9905C17.1815 74.0094 12.8586 73.9962 8.53602 73.9511C8.62222 65.6339 8.62499 57.3159 8.54432 48.9986Z"/></svg>