<svg version="1.1" xmlns="http://www.w3.org/2000/svg" style="display: block;" viewBox="0 0 1024 1024" width="256" height="256" preserveAspectRatio="none">
<defs>
	<linearGradient id="Gradient1" gradientUnits="userSpaceOnUse" x1="103.052" y1="940.273" x2="113.471" y2="950.227">
		<stop class="stop0" offset="0" stop-opacity="0.145098" stop-color="rgb(0,0,0)"/>
		<stop class="stop1" offset="1" stop-opacity="0.286275" stop-color="rgb(0,0,0)"/>
	</linearGradient>
	<linearGradient id="Gradient2" gradientUnits="userSpaceOnUse" x1="517.457" y1="971.074" x2="518.616" y2="753.475">
		<stop class="stop0" offset="0" stop-opacity="0.207843" stop-color="rgb(0,0,0)"/>
		<stop class="stop1" offset="1" stop-opacity="0.682353" stop-color="rgb(0,0,0)"/>
	</linearGradient>
	<linearGradient id="Gradient3" gradientUnits="userSpaceOnUse" x1="514.993" y1="763.445" x2="516.157" y2="124">
		<stop class="stop0" offset="0" stop-opacity="0.74902" stop-color="rgb(0,0,0)"/>
		<stop class="stop1" offset="1" stop-opacity="1" stop-color="rgb(0,0,0)"/>
	</linearGradient>
</defs>
<path transform="translate(0,0)" fill="rgb(254,254,254)" d="M 516.784 9.96292 C 531.743 24.5453 548.77 70.9055 558.088 89.7727 L 623.791 221.358 L 976.574 922.148 C 988.484 945.429 998.319 969.228 1009.53 992.791 C 1013.38 1000.87 1016.68 1014.81 1024 1018.92 L 1024 1024 L 6.56966 1024 C 6.86329 1022.65 7.23637 1021.32 7.68694 1020.01 C 11.3731 1009.44 17.4163 997.328 21.823 986.792 C 31.5937 966.438 39.7565 941.913 51.6595 922.686 C 80.5358 876.041 99.2352 825.515 123.862 776.693 C 128.114 768.265 135.145 761.093 139.372 752.911 C 150.388 731.592 158.809 708.953 168.899 687.209 C 177.893 667.286 192.152 647.24 201.448 628.437 C 219.022 592.889 233.896 555.682 252.143 520.217 C 256.167 512.397 263.555 504.42 267.402 496.91 C 278.438 475.366 286.994 452.641 297.16 430.714 C 306.506 410.079 320.554 390.708 330.392 370.551 C 349.886 330.605 365.986 289.022 388.136 250.329 C 389.797 247.428 393.538 245.54 395.255 242.005 C 405.465 220.981 414.101 199.258 423.617 177.927 C 433.007 157.086 446.755 136.886 457.191 116.982 C 470.935 90.7705 480.988 61.0648 495.756 35.1893 C 501.458 25.1977 506.193 14.9884 516.784 9.96292 z M 160.411 829.791 C 159.112 832.444 154.597 841.27 154.391 843.75 C 145.049 864.041 134.331 878.311 124.547 897.859 C 121.818 903.204 116.939 912.932 115.296 918.729 L 108.234 933.089 L 100.995 948.67 C 97.6538 956.15 92.8107 967.809 89.0369 974.658 C 92.2149 974.772 103.656 975.357 106.308 974.986 C 144.814 976.868 190.787 975.732 229.979 975.736 L 447.112 975.745 L 751.194 975.729 C 811.296 975.722 873.208 976.438 933.143 975.102 C 936.86 974.76 936.047 975.419 937.982 973.286 C 937.813 968.493 934.444 962.725 932.258 958.243 C 930.087 952.416 924.611 941.152 921.786 935.791 C 921.045 932.377 912.222 915.609 910.326 912.262 C 906.824 902.653 898.953 889.942 893.605 880.915 C 886.305 868.485 881.299 857.492 875.448 844.424 L 868.564 828.495 C 865.786 822.201 862.841 815.982 859.732 809.844 C 857.657 803.441 842.855 774.753 839.162 767.457 L 838.37 766.375 C 834.758 755.14 823.683 742.39 818.731 731.276 C 800.224 689.434 781.754 648.011 757.884 608.887 C 752.254 599.66 745.684 581.655 740.977 571.159 C 731.801 551.059 722.299 531.109 712.475 511.317 C 706.447 499.333 697.875 488.118 692.282 476.733 C 681.654 455.1 672.801 432.871 661.912 411.193 C 650.816 389.103 639.098 367.928 627.195 346.279 C 610.255 310.362 594.869 272.049 574.549 237.938 C 555.734 206.354 543.424 172.767 526.641 140.119 C 524.44 135.839 520.161 124.1 517.706 121.4 L 515.253 121.587 C 502.193 129.479 470.791 213.346 458.774 231.692 C 437.737 263.811 420.882 305.994 404.419 341.107 C 397.657 355.53 387.268 368.371 380.387 382.782 C 366.312 412.848 351.637 442.702 338.851 473.349 C 334.957 482.653 326.226 492.414 322.532 501.974 C 296.458 542.624 283.207 594.327 255.025 634.539 C 247.601 645.131 242.256 664.728 235.422 676.352 C 225.706 695.064 214.2 727.703 203.39 744.125 C 201.593 747.2 195.45 757.266 194.3 760.02 C 191.39 765.277 188.271 770.702 185.61 776.069 C 178.645 788.356 165.913 816.365 160.411 829.791 z"/>
<path transform="translate(0,0)" fill="url(#Gradient3)" d="M 322.532 501.974 C 326.226 492.414 334.957 482.653 338.851 473.349 C 351.637 442.702 366.312 412.848 380.387 382.782 C 387.268 368.371 397.657 355.53 404.419 341.107 C 420.882 305.994 437.737 263.811 458.774 231.692 C 470.791 213.346 502.193 129.479 515.253 121.587 L 517.706 121.4 C 520.161 124.1 524.44 135.839 526.641 140.119 C 543.424 172.767 555.734 206.354 574.549 237.938 C 594.869 272.049 610.255 310.362 627.195 346.279 C 639.098 367.928 650.816 389.103 661.912 411.193 C 672.801 432.871 681.654 455.1 692.282 476.733 C 697.875 488.118 706.447 499.333 712.475 511.317 C 722.299 531.109 731.801 551.059 740.977 571.159 C 745.684 581.655 752.254 599.66 757.884 608.887 C 781.754 648.011 800.224 689.434 818.731 731.276 C 823.683 742.39 834.758 755.14 838.37 766.375 C 834.538 765.65 833.282 763.993 830.457 761.281 L 828.109 762.379 L 828.709 760.48 L 828.432 760.64 L 828.008 762.69 C 825.628 764.046 824.147 763.901 821.415 764.082 C 807.402 757.903 807.474 727.97 787.699 750.558 C 775.118 749.718 771.119 751.864 760.455 757.71 C 740.385 758.235 717.188 753.59 695.626 753.58 C 627.301 753.548 558.976 753.576 490.653 753.534 L 314.223 753.565 C 308.421 753.595 300.431 753.141 294.469 753.947 C 275.065 756.57 255.33 758.15 236.369 752.219 C 236.23 752.176 233.058 746.979 231.013 746.09 C 218.141 740.5 214.582 760.117 206.409 762.763 C 195.935 756.729 210.704 751.988 208.975 741.722 L 206.695 742.301 C 210.266 737.282 211.075 736.054 213.052 730.25 C 214.03 732.607 213.367 731.872 215.405 733.269 C 220.731 730.227 219.853 725.528 218.371 720.554 C 219.512 715.997 220.286 713.989 222.125 709.638 C 223.368 711.522 223.687 712.288 225.481 713.583 C 229.974 712.466 230.733 707.9 231.089 703.78 C 229.616 701.961 229.578 700.841 229.236 698.556 C 229.628 690.328 237.282 683.985 238.741 675.812 C 239.743 677.29 239.943 677.316 241.339 678.344 L 243.281 677.286 C 246.22 673.07 246.605 672.317 247.832 667.358 C 246.512 664.56 246.134 663.186 245.736 660.163 L 248.011 659.851 L 248.835 662.329 C 254.785 659.264 259.983 639.692 264.071 634.191 C 269.025 627.526 287.916 605.589 285.45 597.417 L 284.379 598.22 C 282.775 603.119 280.871 606.549 276.792 609.806 C 273.9 604.157 313.033 523.469 319.425 511.487 C 321.258 508.052 322.386 506.389 322.532 501.974 z"/>
<path transform="translate(0,0)" fill="url(#Gradient2)" d="M 195.53 774.706 C 196.596 774.045 199.187 773.182 200.465 772.705 L 203.511 775.085 C 206.277 773.095 208.615 767.817 210.355 764.581 C 215.656 763.452 219.515 760.827 223.694 761.364 C 226.901 762.778 229.072 768.001 231.339 771.506 C 235.963 773.256 243.906 767.463 249.128 766.185 C 251.584 765.585 255.04 763.543 257.575 763.223 C 298.261 758.089 339.368 759.744 380.318 759.675 L 571.002 759.715 L 663.67 759.53 C 689.397 759.417 714.444 759.698 740.195 761.139 C 757.888 762.128 784.497 777.774 799.442 762.552 C 801.538 760.417 802.141 757.356 805.122 755.018 C 808.215 757.345 820.992 768.961 823.841 769.886 L 826.13 767.17 L 828.05 767.176 C 829.202 768.908 829.971 770.24 830.98 772.059 L 832.982 772.466 L 834.311 771.551 L 833.683 767.381 L 835.157 766.401 L 839.162 767.457 C 842.855 774.753 857.657 803.441 859.732 809.844 C 856.369 812.486 856.917 811.351 855.445 815.045 C 855.633 816.421 866.05 840.742 866.272 840.949 L 867.42 840.152 C 864.166 830.722 867.725 836.677 868.564 828.495 L 875.448 844.424 L 869.03 844.324 C 866.162 849.294 885.68 879.786 888.548 888.184 L 890.638 888.322 C 893.323 885.762 892.948 885.31 893.605 880.915 C 898.953 889.942 906.824 902.653 910.326 912.262 C 906.251 910.204 902.508 902.107 901.256 902.409 C 901.767 906.965 901.682 909.254 904.36 912.9 C 903.741 916.234 904.37 914.988 901.7 917.531 C 906.235 920.056 907.294 918.666 908.489 922.987 C 909.679 927.295 907.376 931.437 909.857 934.98 C 913.854 935.948 913.326 935.173 915.546 937.839 L 916.529 944.493 L 917.994 942.352 L 921.45 944.115 C 921.62 941.343 921.732 938.567 921.786 935.791 C 924.611 941.152 930.087 952.416 932.258 958.243 C 927.991 955.857 924.552 948.599 923.118 948.277 C 924.551 954.303 926.045 955.284 921.774 960.303 C 925.593 967.341 929.738 959.142 933.143 975.102 C 873.208 976.438 811.296 975.722 751.194 975.729 L 447.112 975.745 L 229.979 975.736 C 190.787 975.732 144.814 976.868 106.308 974.986 C 106.508 974.915 106.709 974.849 106.907 974.775 C 115.256 971.67 262.034 973.476 285.092 973.48 L 661.306 973.549 C 741.183 974.326 821.066 973.913 900.93 972.31 C 895.091 970.947 862.204 971.392 853.838 971.398 L 751.124 971.409 L 321.658 971.449 L 180.245 971.472 C 157.982 971.478 135.537 971.608 113.266 971.577 C 109.853 971.572 109.058 971.417 107.04 969.478 C 106.084 965.821 106.331 960.705 105.78 959.049 C 107.047 957.434 107.502 956.194 109.125 955.884 L 108.742 955.131 L 109.428 953.932 C 109.403 956.386 109.413 955.625 110.99 958.05 L 112.146 957.141 L 112.029 953.5 C 113.365 952.192 113.476 952.115 115.156 951.232 L 115.558 951.025 L 115.744 948.462 C 113.079 944.176 112.18 948.044 112.261 942.423 C 112.314 938.8 112.901 935.724 110.934 932.765 L 108.234 933.089 L 115.296 918.729 L 115.242 924.391 C 118.477 928.593 117.277 923.999 121.452 927.73 C 121.724 930.364 122.446 933.469 122.229 935.996 C 123.795 924.374 126.193 924.176 131.769 913.817 C 131.958 911.001 131.128 909.371 130.153 906.769 L 126.636 907.048 L 126.007 905.994 L 128.016 901.522 C 127.274 898.773 127.783 899.74 124.547 897.859 C 134.331 878.311 145.049 864.041 154.391 843.75 C 154.328 846.644 153.877 850.548 153.618 853.518 C 155.214 852.518 161.536 840.384 163.069 837.68 C 164.483 840.028 165.465 841.117 167.21 843.145 C 167.414 840.979 163.938 834.735 163.181 831.053 L 160.411 829.791 C 165.913 816.365 178.645 788.356 185.61 776.069 L 187.499 777.618 C 188.403 780.733 188.715 781.984 191.748 783.075 C 194.431 780.36 194.612 778.42 195.53 774.706 z M 842.74 792.222 L 844.321 790.492 C 843.8 788.751 844.26 788.991 843.23 788.362 C 842.083 785.012 841.739 784.119 839.926 781.059 L 836.688 779.657 C 836.132 784.023 835.431 794.525 842.74 792.222 z M 841.586 779.634 C 840.082 775.763 838.463 769.882 834.984 767.834 C 835.477 772.23 836.12 775.472 839.34 778.84 L 841.586 779.634 z"/>
<path transform="translate(0,0)" fill="rgb(0,0,0)" fill-opacity="0.678431" d="M 836.688 779.657 L 839.926 781.059 C 841.739 784.119 842.083 785.012 843.23 788.362 C 844.26 788.991 843.8 788.751 844.321 790.492 L 842.74 792.222 C 835.431 794.525 836.132 784.023 836.688 779.657 z"/>
<path transform="translate(0,0)" fill="rgb(0,0,0)" fill-opacity="0.556863" d="M 834.984 767.834 C 838.463 769.882 840.082 775.763 841.586 779.634 L 839.34 778.84 C 836.12 775.472 835.477 772.23 834.984 767.834 z"/>
<path transform="translate(0,0)" fill="rgb(0,0,0)" fill-opacity="0.682353" d="M 206.695 742.301 L 208.975 741.722 C 210.704 751.988 195.935 756.729 206.409 762.763 C 214.582 760.117 218.141 740.5 231.013 746.09 C 233.058 746.979 236.23 752.176 236.369 752.219 C 255.33 758.15 275.065 756.57 294.469 753.947 C 300.431 753.141 308.421 753.595 314.223 753.565 L 490.653 753.534 C 558.976 753.576 627.301 753.548 695.626 753.58 C 717.188 753.59 740.385 758.235 760.455 757.71 C 771.119 751.864 775.118 749.718 787.699 750.558 C 807.474 727.97 807.402 757.903 821.415 764.082 C 824.147 763.901 825.628 764.046 828.008 762.69 L 828.432 760.64 L 828.709 760.48 L 828.109 762.379 L 830.457 761.281 C 833.282 763.993 834.538 765.65 838.37 766.375 L 839.162 767.457 L 835.157 766.401 L 833.683 767.381 L 834.311 771.551 L 832.982 772.466 L 830.98 772.059 C 829.971 770.24 829.202 768.908 828.05 767.176 L 826.13 767.17 L 823.841 769.886 C 820.992 768.961 808.215 757.345 805.122 755.018 C 802.141 757.356 801.538 760.417 799.442 762.552 C 784.497 777.774 757.888 762.128 740.195 761.139 C 714.444 759.698 689.397 759.417 663.67 759.53 L 571.002 759.715 L 380.318 759.675 C 339.368 759.744 298.261 758.089 257.575 763.223 C 255.04 763.543 251.584 765.585 249.128 766.185 C 243.906 767.463 235.963 773.256 231.339 771.506 C 229.072 768.001 226.901 762.778 223.694 761.364 C 219.515 760.827 215.656 763.452 210.355 764.581 C 208.615 767.817 206.277 773.095 203.511 775.085 L 200.465 772.705 C 199.187 773.182 196.596 774.045 195.53 774.706 C 195.597 772.998 194.305 764.681 194.3 760.02 C 195.45 757.266 201.593 747.2 203.39 744.125 L 206.695 742.301 z"/>
<path transform="translate(0,0)" fill="rgb(0,0,0)" fill-opacity="0.156863" d="M 89.0369 974.658 C 92.8107 967.809 97.6538 956.15 100.995 948.67 C 105.735 952.676 104.609 952.678 105.78 959.049 C 106.331 960.705 106.084 965.821 107.04 969.478 C 109.058 971.417 109.853 971.572 113.266 971.577 C 135.537 971.608 157.982 971.478 180.245 971.472 L 321.658 971.449 L 751.124 971.409 L 853.838 971.398 C 862.204 971.392 895.091 970.947 900.93 972.31 C 821.066 973.913 741.183 974.326 661.306 973.549 L 285.092 973.48 C 262.034 973.476 115.256 971.67 106.907 974.775 C 106.709 974.849 106.508 974.915 106.308 974.986 C 103.656 975.357 92.2149 974.772 89.0369 974.658 z"/>
<path transform="translate(0,0)" fill="rgb(0,0,0)" fill-opacity="0.929412" d="M 322.532 501.974 C 322.386 506.389 321.258 508.052 319.425 511.487 C 313.033 523.469 273.9 604.157 276.792 609.806 C 280.871 606.549 282.775 603.119 284.379 598.22 L 285.45 597.417 C 287.916 605.589 269.025 627.526 264.071 634.191 C 259.983 639.692 254.785 659.264 248.835 662.329 L 248.011 659.851 L 245.736 660.163 C 242.903 666.12 242.334 668.913 238.741 675.812 C 237.282 683.985 229.628 690.328 229.236 698.556 C 228.035 700.467 223.158 708.801 222.125 709.638 C 220.286 713.989 219.512 715.997 218.371 720.554 C 216.619 723.637 214.547 727.089 213.052 730.25 C 211.075 736.054 210.266 737.282 206.695 742.301 L 203.39 744.125 C 214.2 727.703 225.706 695.064 235.422 676.352 C 242.256 664.728 247.601 645.131 255.025 634.539 C 283.207 594.327 296.458 542.624 322.532 501.974 z"/>
<path transform="translate(0,0)" fill="rgb(0,0,0)" fill-opacity="0.431373" d="M 893.605 880.915 C 892.948 885.31 893.323 885.762 890.638 888.322 L 888.548 888.184 C 885.68 879.786 866.162 849.294 869.03 844.324 L 875.448 844.424 C 881.299 857.492 886.305 868.485 893.605 880.915 z"/>
<path transform="translate(0,0)" fill="rgb(0,0,0)" fill-opacity="0.286275" d="M 124.547 897.859 C 127.783 899.74 127.274 898.773 128.016 901.522 L 126.007 905.994 L 126.636 907.048 L 130.153 906.769 C 131.128 909.371 131.958 911.001 131.769 913.817 C 126.193 924.176 123.795 924.374 122.229 935.996 C 122.446 933.469 121.724 930.364 121.452 927.73 C 117.277 923.999 118.477 928.593 115.242 924.391 L 115.296 918.729 C 116.939 912.932 121.818 903.204 124.547 897.859 z"/>
<path transform="translate(0,0)" fill="rgb(0,0,0)" fill-opacity="0.266667" d="M 921.786 935.791 C 921.732 938.567 921.62 941.343 921.45 944.115 L 917.994 942.352 L 916.529 944.493 L 915.546 937.839 C 913.326 935.173 913.854 935.948 909.857 934.98 C 907.376 931.437 909.679 927.295 908.489 922.987 C 907.294 918.666 906.235 920.056 901.7 917.531 C 904.37 914.988 903.741 916.234 904.36 912.9 C 901.682 909.254 901.767 906.965 901.256 902.409 C 902.508 902.107 906.251 910.204 910.326 912.262 C 912.222 915.609 921.045 932.377 921.786 935.791 z"/>
<path transform="translate(0,0)" fill="url(#Gradient1)" d="M 108.234 933.089 L 110.934 932.765 C 112.901 935.724 112.314 938.8 112.261 942.423 C 112.18 948.044 113.079 944.176 115.744 948.462 L 115.558 951.025 L 115.156 951.232 C 113.476 952.115 113.365 952.192 112.029 953.5 L 112.146 957.141 L 110.99 958.05 C 109.413 955.625 109.403 956.386 109.428 953.932 L 108.742 955.131 L 109.125 955.884 C 107.502 956.194 107.047 957.434 105.78 959.049 C 104.609 952.678 105.735 952.676 100.995 948.67 L 108.234 933.089 z"/>
<path transform="translate(0,0)" fill="rgb(0,0,0)" fill-opacity="0.560784" d="M 859.732 809.844 C 862.841 815.982 865.786 822.201 868.564 828.495 C 867.725 836.677 864.166 830.722 867.42 840.152 L 866.272 840.949 C 866.05 840.742 855.633 816.421 855.445 815.045 C 856.917 811.351 856.369 812.486 859.732 809.844 z"/>
<path transform="translate(0,0)" fill="rgb(0,0,0)" fill-opacity="0.12549" d="M 933.143 975.102 C 929.738 959.142 925.593 967.341 921.774 960.303 C 926.045 955.284 924.551 954.303 923.118 948.277 C 924.552 948.599 927.991 955.857 932.258 958.243 C 934.444 962.725 937.813 968.493 937.982 973.286 C 936.047 975.419 936.86 974.76 933.143 975.102 z"/>
<path transform="translate(0,0)" fill="rgb(0,0,0)" fill-opacity="0.698039" d="M 194.3 760.02 C 194.305 764.681 195.597 772.998 195.53 774.706 C 194.612 778.42 194.431 780.36 191.748 783.075 C 188.715 781.984 188.403 780.733 187.499 777.618 L 185.61 776.069 C 188.271 770.702 191.39 765.277 194.3 760.02 z"/>
<path transform="translate(0,0)" fill="rgb(0,0,0)" fill-opacity="0.447059" d="M 160.411 829.791 L 163.181 831.053 C 163.938 834.735 167.414 840.979 167.21 843.145 C 165.465 841.117 164.483 840.028 163.069 837.68 C 161.536 840.384 155.214 852.518 153.618 853.518 C 153.877 850.548 154.328 846.644 154.391 843.75 C 154.597 841.27 159.112 832.444 160.411 829.791 z"/>
<path transform="translate(0,0)" fill="rgb(0,0,0)" fill-opacity="0.784314" d="M 229.236 698.556 C 229.578 700.841 229.616 701.961 231.089 703.78 C 230.733 707.9 229.974 712.466 225.481 713.583 C 223.687 712.288 223.368 711.522 222.125 709.638 C 223.158 708.801 228.035 700.467 229.236 698.556 z"/>
<path transform="translate(0,0)" fill="rgb(0,0,0)" fill-opacity="0.85098" d="M 245.736 660.163 C 246.134 663.186 246.512 664.56 247.832 667.358 C 246.605 672.317 246.22 673.07 243.281 677.286 L 241.339 678.344 C 239.943 677.316 239.743 677.29 238.741 675.812 C 242.334 668.913 242.903 666.12 245.736 660.163 z"/>
<path transform="translate(0,0)" fill="rgb(0,0,0)" fill-opacity="0.756863" d="M 218.371 720.554 C 219.853 725.528 220.731 730.227 215.405 733.269 C 213.367 731.872 214.03 732.607 213.052 730.25 C 214.547 727.089 216.619 723.637 218.371 720.554 z"/>
</svg>