<?xml version="1.0" encoding="utf-8" ?><svg xmlns="http://www.w3.org/2000/svg" xmlns:xlink="http://www.w3.org/1999/xlink" width="155" height="132" viewBox="0 0 155 132"><path d="M71.5661 0L83.9584 0C84.9912 0.611763 96.0219 2.22043 99.017 3.32364C116.891 9.90709 131.879 25.3575 137.089 43.754C139.183 51.1454 139.038 58.5879 138.947 66.1642C138.933 67.1104 138.784 69.2227 138.902 69.9897C138.692 71.4599 138.654 72.9016 138.59 74.3833C141.478 77.1833 146.834 84.6003 149.584 88.0223C150.187 88.9379 150.581 90.0455 150.741 91.0974C151.469 95.8862 145.615 95.7195 142.19 96.106C141.545 99.955 136.892 106.152 134.134 108.956C130.903 112.241 125.244 114.992 120.903 116.392C114.07 118.597 106.125 118.018 98.9583 117.936C98.0988 121.154 96.5332 124.978 94.1347 127.341C90.7962 128.383 63.9644 128.564 61.1508 127.292C59.0359 126.336 57.3921 120.446 56.5775 118.275C43.75 118.294 33.7006 118.73 22.343 110.655C18.8001 108.137 13.172 100.271 12.6014 96.2232C10.5745 95.625 6.88615 95.5973 5.48426 94.0922C4.82399 93.3833 4.68162 91.5932 4.7808 90.658C4.86035 89.9078 5.30302 88.8543 5.76575 88.2809C7.80148 85.7583 15.1269 75.7699 17.0831 74.2141C16.9802 73.2259 17.0067 70.9079 16.9918 69.8321C16.7659 59.9414 15.7328 54.0468 18.3528 44.1009C23.3903 24.9777 39.0448 8.71985 57.8932 2.9836C59.6828 2.4271 61.4981 1.95664 63.3328 1.57382C64.9197 1.25292 70.5252 0.652686 71.5661 0ZM29.712 66.6559C29.6909 66.9588 29.6383 67.0273 29.5091 67.3071C26.34 67.912 24.9477 68.3249 21.7797 67.8476C21.1544 67.3829 21.336 67.6089 21.1114 66.7767C22.4476 67.5549 28.6037 65.5543 29.712 66.6559ZM134.75 48.3712C134.439 44.8673 132.856 40.7078 131.543 37.4783C125.399 23.6781 114.12 12.8141 100.1 7.1908C85.4278 1.42123 67.9892 1.77626 53.4787 7.96701C40.1153 13.6683 28.4258 25.8864 23.11 39.3716C22.3619 41.2695 20.9858 45.571 20.8058 47.5732C19.8039 52.2823 19.583 56.9843 19.7405 61.7822C19.8191 64.1736 20.0921 67.2223 20.0059 69.5382C23.9921 69.2235 29.5972 68.379 33.2522 68.2333C35.9579 64.9591 37.6745 63.385 41.9079 63.1516C46.1935 62.9152 50.3477 62.9887 54.6231 62.9882L76.8876 62.9811L99.4453 62.9837C104.329 62.986 109.09 62.8676 113.964 63.3056C117.597 63.632 119.428 65.3765 121.514 68.2624C125.226 68.6324 132.004 69.0391 135.473 69.5906C135.335 63.8085 135.859 58.7195 135.465 52.6203C135.301 50.9457 135.123 50.0121 134.75 48.3712ZM41.7008 71.2847C40.2588 73.2632 39.2451 74.5832 37.6129 76.397C31.599 77.2347 25.4661 77.9636 19.482 78.8396C16.5745 82.5386 12.8791 87.5178 9.81355 90.9621C28.168 91.1112 46.772 90.7558 65.069 91.0252C67.8563 82.9138 74.0421 79.7937 82.4682 82.0479C86.5497 83.1399 89.1438 87.1468 90.4538 91.0018L104.625 90.9996L145.75 90.9761C142.273 87.1997 139.288 82.5775 135.799 78.8051C131.532 78.3144 127.271 77.7729 123.016 77.1807C121.341 76.9592 118.255 76.4634 116.677 76.4251C115.345 74.5863 114.126 73.0545 112.68 71.301C104.27 71.19 95.7938 71.2055 87.3822 71.2503C72.1665 71.3313 56.9096 71.1099 41.7008 71.2847ZM17.3675 96.2202C21.0204 102.111 22.5163 105.199 28.6104 108.821C37.6141 114.172 44.2573 113.274 54.2605 113.271L79.0204 113.254L100.985 113.272C104.746 113.274 110.507 113.444 114.094 112.986C118.658 112.399 123.039 110.824 126.931 108.371C130.855 105.942 132.808 103.257 135.271 99.4301L137.219 96.2298C127.825 96.3619 118.203 96.28 108.795 96.2696C103.551 96.2638 96.2513 96.4785 91.1835 96.1777C89.6962 100.537 87.5289 104.644 83.1045 106.697C74.8985 110.506 66.1556 104.872 64.6482 96.2433L33.8975 96.2607C28.5182 96.2583 22.6919 96.381 17.3675 96.2202ZM63.6697 124.276C66.5269 124.279 90.9634 124.573 91.5499 123.962C91.8185 123.682 91.9114 123.215 92.0171 122.851L93.7524 117.734L61.3039 117.71C61.883 119.006 63.2962 122.833 63.6697 124.276ZM74.8068 84.7374C69.433 86.3467 66.3707 91.9969 67.956 97.3778C69.5412 102.759 75.1776 105.846 80.5656 104.285C85.9879 102.714 89.0993 97.0341 87.504 91.619C85.9087 86.2038 80.2148 83.1179 74.8068 84.7374Z"/><path fill="#FFFFFE" fill-opacity="0.22352941" d="M20.8058 47.5732C20.9858 45.571 22.3619 41.2695 23.11 39.3716C28.4258 25.8864 40.1153 13.6683 53.4787 7.96701C67.9892 1.77626 85.4278 1.42123 100.1 7.1908C114.12 12.8141 125.399 23.6781 131.543 37.4783C131.492 37.5764 131.184 38.1673 131.184 38.1677C131.093 39.3597 134.639 50.7408 134.724 50.8173L134.75 48.3712C135.123 50.0121 135.301 50.9457 135.465 52.6203L134.68 51.4249C134.212 55.5781 136.097 63.3563 133.68 67.4134C132.946 68.646 126.959 67.2216 125.637 66.9084C125.896 66.9324 126.889 67.047 127.078 67.0071C125.815 66.6145 123.902 66.3134 122.645 66.7964C121.79 66.4652 117.678 61.0703 115.6 61.5335C115.507 61.5541 114.987 61.9882 114.994 61.9881C110.95 62.0411 105.195 61.9188 101.292 61.908L53.2668 61.9152C48.9999 61.9158 43.0008 61.8243 38.6651 62.1975C37.7791 62.2737 33.6197 66.1989 32.8661 67.1543C31.7163 67.1513 30.6634 67.3255 29.712 66.6559C28.6037 65.5543 22.4476 67.5549 21.1114 66.7767C21.1607 66.3187 20.6193 61.0242 20.589 59.5071C20.5158 55.8356 20.676 54.0864 21.2902 50.43C21.5213 49.054 20.9755 49.7493 21.1489 47.7476L20.8058 47.5732Z"/><path fill="#FEFEFE" fill-opacity="0.10196079" d="M20.8058 47.5732L21.1489 47.7476C20.9755 49.7493 21.5213 49.054 21.2902 50.43C20.676 54.0864 20.5158 55.8356 20.589 59.5071C20.6193 61.0242 21.1607 66.3187 21.1114 66.7767C21.336 67.6089 21.1544 67.3829 21.7797 67.8476C24.9477 68.3249 26.34 67.912 29.5091 67.3071C29.6383 67.0273 29.6909 66.9588 29.712 66.6559C30.6634 67.3255 31.7163 67.1513 32.8661 67.1543C33.6197 66.1989 37.7791 62.2737 38.6651 62.1975C43.0008 61.8243 48.9999 61.9158 53.2668 61.9152L101.292 61.908C105.195 61.9188 110.95 62.0411 114.994 61.9881C114.987 61.9882 115.507 61.5541 115.6 61.5335C117.678 61.0703 121.79 66.4652 122.645 66.7964C123.902 66.3134 125.815 66.6145 127.078 67.0071C126.889 67.047 125.896 66.9324 125.637 66.9084C126.959 67.2216 132.946 68.646 133.68 67.4134C136.097 63.3563 134.212 55.5781 134.68 51.4249L135.465 52.6203C135.859 58.7195 135.335 63.8085 135.473 69.5906C132.004 69.0391 125.226 68.6324 121.514 68.2624C119.428 65.3765 117.597 63.632 113.964 63.3056C109.09 62.8676 104.329 62.986 99.4453 62.9837L76.8876 62.9811L54.6231 62.9882C50.3477 62.9887 46.1935 62.9152 41.9079 63.1516C37.6745 63.385 35.9579 64.9591 33.2522 68.2333C29.5972 68.379 23.9921 69.2235 20.0059 69.5382C20.0921 67.2223 19.8191 64.1736 19.7405 61.7822C19.583 56.9843 19.8039 52.2823 20.8058 47.5732Z"/><path fill="#FEFEFE" fill-opacity="0.14509805" d="M131.543 37.4783C132.856 40.7078 134.439 44.8673 134.75 48.3712L134.724 50.8173C134.639 50.7408 131.093 39.3597 131.184 38.1677C131.184 38.1673 131.492 37.5764 131.543 37.4783Z"/><path fill="#FEFEFE" d="M71.5661 0L83.9584 0C84.9912 0.611763 96.0219 2.22043 99.017 3.32364C116.891 9.90709 131.879 25.3575 137.089 43.754C139.183 51.1454 139.038 58.5879 138.947 66.1642C138.933 67.1104 138.784 69.2227 138.902 69.9897C138.692 71.4599 138.654 72.9016 138.59 74.3833C137.271 73.8771 136.936 73.8042 135.529 73.6554L135.473 69.5906C135.335 63.8085 135.859 58.7195 135.465 52.6203C135.301 50.9457 135.123 50.0121 134.75 48.3712C134.439 44.8673 132.856 40.7078 131.543 37.4783C125.399 23.6781 114.12 12.8141 100.1 7.1908C85.4278 1.42123 67.9892 1.77626 53.4787 7.96701C40.1153 13.6683 28.4258 25.8864 23.11 39.3716C22.3619 41.2695 20.9858 45.571 20.8058 47.5732C19.8039 52.2823 19.583 56.9843 19.7405 61.7822C19.8191 64.1736 20.0921 67.2223 20.0059 69.5382C19.9963 70.7322 19.9259 72.5104 20.1065 73.6437C19.0673 73.8161 18.109 73.9747 17.0831 74.2141C16.9802 73.2259 17.0067 70.9079 16.9918 69.8321C16.7659 59.9414 15.7328 54.0468 18.3528 44.1009C23.3903 24.9777 39.0448 8.71985 57.8932 2.9836C59.6828 2.4271 61.4981 1.95664 63.3328 1.57382C64.9197 1.25292 70.5252 0.652686 71.5661 0Z"/><path fill="#09FDFE" d="M33.2522 68.2333C35.9579 64.9591 37.6745 63.385 41.9079 63.1516C46.1935 62.9152 50.3477 62.9887 54.6231 62.9882L76.8876 62.9811L99.4453 62.9837C104.329 62.986 109.09 62.8676 113.964 63.3056C117.597 63.632 119.428 65.3765 121.514 68.2624C125.226 68.6324 132.004 69.0391 135.473 69.5906L135.529 73.6554C130.154 73.3464 124.904 72.5095 119.513 72.2032C117.823 70.2325 115.772 67.4285 113.006 67.1937C109.523 66.8981 105.916 66.9823 102.416 66.9814L83.9103 66.9802L57.4656 66.9875C52.6024 66.9895 47.7269 66.935 42.861 67.0928C39.0009 67.2181 37.6966 69.3735 35.2499 72.1632C30.1914 72.5976 25.1961 73.2333 20.1065 73.6437C19.9259 72.5104 19.9963 70.7322 20.0059 69.5382C23.9921 69.2235 29.5972 68.379 33.2522 68.2333Z"/><path fill="#09FDFE" fill-opacity="0.98823529" d="M41.7008 71.2847C56.9096 71.1099 72.1665 71.3313 87.3822 71.2503C95.7938 71.2055 104.27 71.19 112.68 71.301C114.126 73.0545 115.345 74.5863 116.677 76.4251C118.255 76.4634 121.341 76.9592 123.016 77.1807C127.271 77.7729 131.532 78.3144 135.799 78.8051C139.288 82.5775 142.273 87.1997 145.75 90.9761L104.625 90.9996L90.4538 91.0018C89.1438 87.1468 86.5497 83.1399 82.4682 82.0479C74.0421 79.7937 67.8563 82.9138 65.069 91.0252C46.772 90.7558 28.168 91.1112 9.81355 90.9621C12.8791 87.5178 16.5745 82.5386 19.482 78.8396C25.4661 77.9636 31.599 77.2347 37.6129 76.397C39.2451 74.5832 40.2588 73.2632 41.7008 71.2847Z"/><path fill="#00FE00" fill-opacity="0.98823529" d="M91.1835 96.1777C96.2513 96.4785 103.551 96.2638 108.795 96.2696C118.203 96.28 127.825 96.3619 137.219 96.2298L135.271 99.4301C132.808 103.257 130.855 105.942 126.931 108.371C123.039 110.824 118.658 112.399 114.094 112.986C110.507 113.444 104.746 113.274 100.985 113.272L79.0204 113.254L54.2605 113.271C44.2573 113.274 37.6141 114.172 28.6104 108.821C22.5163 105.199 21.0204 102.111 17.3675 96.2202C22.6919 96.381 28.5182 96.2583 33.8975 96.2607L64.6482 96.2433C66.1556 104.872 74.8985 110.506 83.1045 106.697C87.5289 104.644 89.6962 100.537 91.1835 96.1777Z"/><path fill="#09FDFE" fill-opacity="0.98823529" d="M74.8068 84.7374C80.2148 83.1179 85.9087 86.2038 87.504 91.619C89.0993 97.0341 85.9879 102.714 80.5656 104.285C75.1776 105.846 69.5412 102.759 67.956 97.3778C66.3707 91.9969 69.433 86.3467 74.8068 84.7374Z"/><path fill="#09FDFE" fill-opacity="0.98823529" d="M61.3039 117.71L93.7524 117.734L92.0171 122.851C91.9114 123.215 91.8185 123.682 91.5499 123.962C90.9634 124.573 66.5269 124.279 63.6697 124.276C63.2962 122.833 61.883 119.006 61.3039 117.71Z"/><path fill="#09FDFE" fill-opacity="0.98823529" d="M9.04103 99.6617C2.07164 99.6551 -1.87943 92.6098 1.8569 86.5271C3.0974 84.5075 5.00151 82.0446 6.53165 80.2316C9.21119 77.0568 12.8727 70.9171 16.9918 69.8321C17.0067 70.9079 16.9802 73.2259 17.0831 74.2141C15.1269 75.7699 7.80148 85.7583 5.76575 88.2809C5.30302 88.8543 4.86035 89.9078 4.7808 90.658C4.68162 91.5932 4.82399 93.3833 5.48426 94.0922C6.88615 95.5973 10.5745 95.625 12.6014 96.2232C13.172 100.271 18.8001 108.137 22.343 110.655C33.7006 118.73 43.75 118.294 56.5775 118.275C57.3921 120.446 59.0359 126.336 61.1508 127.292C63.9644 128.564 90.7962 128.383 94.1347 127.341C96.5332 124.978 98.0988 121.154 98.9583 117.936C106.125 118.018 114.07 118.597 120.903 116.392C125.244 114.992 130.903 112.241 134.134 108.956C136.892 106.152 141.545 99.955 142.19 96.106C145.615 95.7195 151.469 95.8862 150.741 91.0974C150.581 90.0455 150.187 88.9379 149.584 88.0223C146.834 84.6003 141.478 77.1833 138.59 74.3833C138.654 72.9016 138.692 71.4599 138.902 69.9897C139.667 70.3688 141.387 71.22 141.903 71.7544C144.834 74.79 153.671 85.6465 155 88.9506L155 93.1323C153.226 98.6184 151.07 99.1302 145.643 100.068C143.631 102.681 142.119 106.035 140.283 108.618C135.532 115.301 123.818 120.823 115.916 121.783C112.945 122.144 104.935 122.145 101.771 121.94C100.437 126.265 99.4482 129.477 95.1797 131.725C95.0031 131.818 94.8258 131.91 94.648 132L60.7959 132C56.1381 129.246 55.1436 127.317 53.71 122.258C38.7599 124.253 19.7034 118.724 11.926 104.841C10.9307 103.065 9.817 101.592 9.04103 99.6617Z"/><defs><linearGradient id="gradient_0" gradientUnits="userSpaceOnUse" x1="27.377922" y1="64.995842" x2="23.614222" y2="69.012543"><stop offset="0" stop-color="white" stop-opacity="0.12941177"/><stop offset="1" stop-color="white" stop-opacity="0.18039216"/></linearGradient></defs><path fill="url(#gradient_0)" d="M21.1114 66.7767C22.4476 67.5549 28.6037 65.5543 29.712 66.6559C29.6909 66.9588 29.6383 67.0273 29.5091 67.3071C26.34 67.912 24.9477 68.3249 21.7797 67.8476C21.1544 67.3829 21.336 67.6089 21.1114 66.7767Z"/></svg>