<?xml version="1.0" encoding="utf-8" ?><svg xmlns="http://www.w3.org/2000/svg" xmlns:xlink="http://www.w3.org/1999/xlink" width="110" height="89" viewBox="0 0 110 89"><path fill="#00F8FE" fill-opacity="0.98823529" d="M14.3576 0L18.989 0C20.827 1.32284 25.1159 3.13635 27.3253 4.1146L39.584 9.52291C54.3261 16.0721 69.077 23.1153 83.8165 29.7611C90.841 32.9284 104.106 38.2735 110 42.1652L110 45.7889C106.241 49.4806 95.0685 53.6581 89.8785 56.0359L37.0574 79.9754C32.6451 82.0242 28.2062 84.0153 23.7418 85.948C22.3065 86.5709 17.8391 88.3521 16.6754 89L16.2184 89C14.115 87.8443 13.7912 87.0591 12.5088 84.9958C13.2323 81.7188 15.9814 74.4064 17.5441 71.405C13.9577 73.1475 7.96375 76.8091 3.84071 76.8959C2.28521 76.9286 0.973661 75.1539 0 74.0282L0 72.0833C0.442617 71.5239 2.37301 67.2563 2.81969 66.3508C6.22667 59.4444 9.16491 50.9407 13.4384 44.5582C11.9503 42.0849 10.5888 38.9088 9.34843 36.2327L3.29334 23.0899C2.59516 21.5675 0.812594 17.3638 0 16.1569L0 14.3657C0.58847 13.5845 1.904 11.7107 2.77537 11.5255C6.74464 10.682 14.719 15.3347 17.991 17.2131C16.2885 14.3547 14.2902 9.24267 13.3651 5.98589C12.5831 3.23319 13.0018 2.25935 14.3576 0ZM14.5881 62.8685C16.6775 61.8118 18.97 60.9141 21.1407 60.0174C22.89 59.2223 24.6341 58.4157 26.3729 57.5976C27.8077 53.3064 29.8477 48.7349 30.9223 44.3712C30.0865 40.8725 27.7119 34.0451 26.2188 30.535C23.7245 29.3918 17.0973 26.2019 14.6905 25.5521C15.5477 29.3433 22.1183 40.4002 22.3813 43.4268C22.7237 47.3689 16.3729 58.2658 14.5881 62.8685Z"/><path d="M17.2217 3.99032C21.0344 5.27096 27.1229 8.24874 30.9454 9.98438L55.4952 21.1864L82.9206 33.7262C90.1235 36.9752 98.7495 40.7285 105.685 44.3774C99.4363 46.3878 89.0006 51.7121 82.7199 54.5844L39.6764 74.2645L17.0475 84.5789C19.2949 78.1959 21.9421 70.6376 23.8508 64.2005C17.6237 66.712 9.77258 70.2962 3.74077 73.3067C5.44866 71.005 8.20237 64.7312 9.52597 61.8733C12.2321 55.9444 15.005 50.0462 17.8439 44.1798C12.889 34.5031 8.84992 24.9673 4.23641 15.1585C7.90745 17.396 19.7405 22.4127 23.8495 23.8965C22.0523 17.9824 18.6056 9.62597 17.2217 3.99032ZM14.5881 62.8685C16.6775 61.8118 18.97 60.9141 21.1407 60.0174C22.89 59.2223 24.6341 58.4157 26.3729 57.5976C27.8077 53.3064 29.8477 48.7349 30.9223 44.3712C30.0865 40.8725 27.7119 34.0451 26.2188 30.535C23.7245 29.3918 17.0973 26.2019 14.6905 25.5521C15.5477 29.3433 22.1183 40.4002 22.3813 43.4268C22.7237 47.3689 16.3729 58.2658 14.5881 62.8685Z"/><path fill="#01FF01" d="M25.454 13.3424C27.3697 13.5295 39.0882 19.2657 41.4908 20.3713C58.8282 28.3497 76.6241 35.9635 93.8375 44.1425C85.2147 47.5846 73.9586 52.9663 65.4553 57.0179L42.5214 67.4775C37.2843 69.8772 30.9073 72.9911 25.6003 74.8867C27.6018 67.9137 30.3777 61.0798 32.7391 54.2089C33.7503 51.2668 35.3864 47.6684 35.5304 44.5499C35.7143 40.5675 27.3615 18.8349 25.454 13.3424Z"/><path fill="#00F8FE" fill-opacity="0.98823529" d="M14.6905 25.5521C17.0973 26.2019 23.7245 29.3918 26.2188 30.535C27.7119 34.0451 30.0865 40.8725 30.9223 44.3712C29.8477 48.7349 27.8077 53.3064 26.3729 57.5976C24.6341 58.4157 22.89 59.2223 21.1407 60.0174C18.97 60.9141 16.6775 61.8118 14.5881 62.8685C16.3729 58.2658 22.7237 47.3689 22.3813 43.4268C22.1183 40.4002 15.5477 29.3433 14.6905 25.5521Z"/></svg>