<svg version="1.1" xmlns="http://www.w3.org/2000/svg" style="display: block;" viewBox="0 0 1024 1968" width="256" height="492" preserveAspectRatio="none">
<defs>
	<linearGradient id="Gradient1" gradientUnits="userSpaceOnUse" x1="401.912" y1="1784.84" x2="408.272" y2="1792.93">
		<stop class="stop0" offset="0" stop-opacity="0.4" stop-color="rgb(176,235,247)"/>
		<stop class="stop1" offset="1" stop-opacity="0.447059" stop-color="rgb(171,235,249)"/>
	</linearGradient>
	<linearGradient id="Gradient2" gradientUnits="userSpaceOnUse" x1="448.866" y1="147.21" x2="408.389" y2="197.083">
		<stop class="stop0" offset="0" stop-opacity="0" stop-color="rgb(127,193,230)"/>
		<stop class="stop1" offset="1" stop-opacity="0.00784314" stop-color="rgb(189,255,255)"/>
	</linearGradient>
	<linearGradient id="Gradient3" gradientUnits="userSpaceOnUse" x1="651.042" y1="1866.95" x2="537.831" y2="1868.15">
		<stop class="stop0" offset="0" stop-opacity="1" stop-color="rgb(0,184,249)"/>
		<stop class="stop1" offset="1" stop-opacity="1" stop-color="rgb(57,233,255)"/>
	</linearGradient>
	<linearGradient id="Gradient4" gradientUnits="userSpaceOnUse" x1="646.038" y1="104.672" x2="531.977" y2="104.318">
		<stop class="stop0" offset="0" stop-opacity="1" stop-color="rgb(0,184,250)"/>
		<stop class="stop1" offset="1" stop-opacity="1" stop-color="rgb(56,234,255)"/>
	</linearGradient>
	<linearGradient id="Gradient5" gradientUnits="userSpaceOnUse" x1="812.799" y1="1401.81" x2="893.884" y2="1314.96">
		<stop class="stop0" offset="0" stop-opacity="1" stop-color="rgb(0,182,248)"/>
		<stop class="stop1" offset="1" stop-opacity="1" stop-color="rgb(44,229,254)"/>
	</linearGradient>
	<linearGradient id="Gradient6" gradientUnits="userSpaceOnUse" x1="874.432" y1="1278.2" x2="839.153" y2="1348.63">
		<stop class="stop0" offset="0" stop-opacity="1" stop-color="rgb(0,75,22)"/>
		<stop class="stop1" offset="1" stop-opacity="1" stop-color="rgb(0,105,63)"/>
	</linearGradient>
	<linearGradient id="Gradient7" gradientUnits="userSpaceOnUse" x1="815.151" y1="559.752" x2="894.21" y2="649.044">
		<stop class="stop0" offset="0" stop-opacity="1" stop-color="rgb(0,180,244)"/>
		<stop class="stop1" offset="1" stop-opacity="1" stop-color="rgb(42,229,255)"/>
	</linearGradient>
	<linearGradient id="Gradient8" gradientUnits="userSpaceOnUse" x1="647.83" y1="1059.86" x2="616.074" y2="1058.93">
		<stop class="stop0" offset="0" stop-opacity="1" stop-color="rgb(6,130,85)"/>
		<stop class="stop1" offset="1" stop-opacity="1" stop-color="rgb(0,154,101)"/>
	</linearGradient>
</defs>
<path transform="translate(0,0)" fill="rgb(0,0,0)" d="M 352.596 163.388 L 359.937 165.969 C 365.988 168.131 369.319 169.803 375.001 172.704 C 377.555 174.034 381.501 176.245 384.024 177.298 C 388.266 179.956 393.49 183.437 397.876 185.632 C 401.058 188.575 402.286 189.246 406.094 191.403 C 411.605 195.561 416.885 199.788 422.904 203.164 C 428.445 203.453 433.984 203.771 439.521 204.118 L 446.789 203.938 L 456.424 204.286 C 471.678 204.055 486.639 203.824 501.881 204.003 C 518.146 204.195 548.054 206.013 563.776 203.102 C 578.071 204.436 593.2 203.572 605.89 204.661 C 625.217 203.114 654.41 204.604 676.22 204.749 C 713.685 205.421 752.085 203.452 789.372 206.11 C 793.344 206.393 825.492 230.131 830.496 234.799 C 847.79 250.932 862.743 275.795 876.542 295.273 C 883.631 305.279 888.373 318.866 894.162 329.725 C 909.808 359.169 922.887 389.323 934.254 420.647 C 959.722 491.343 989.058 560.744 996.422 636.365 C 997.509 647.525 1002.38 660.259 1003.75 671.604 C 1006.33 689.226 1007.05 707.278 1009.88 724.88 C 1022.29 802.253 1020.29 882.435 1022.28 960.66 C 1022.35 963.584 1022.7 965.744 1024 968.374 L 1024 1033.34 C 1023.9 1033.57 1023.8 1033.79 1023.7 1034.02 C 1020.64 1041.31 1020.18 1140.83 1019.64 1157.69 C 1018.87 1181.32 1017.72 1205.14 1015.73 1228.72 C 1014.35 1245.11 1010.49 1261.65 1007.96 1277.93 C 1006.27 1288.82 1005.74 1300.24 1003.34 1310.97 C 1001.54 1319.03 997.594 1326.57 996.047 1334.7 C 992.465 1353.51 992.092 1373 988.357 1391.78 C 986.465 1401.29 983.288 1410.6 980.996 1420.03 C 966.479 1479.75 948.279 1540.38 921.285 1595.83 C 912.571 1613.72 901.516 1629.21 892.607 1646.35 C 888.337 1654.57 885.216 1663.36 880.749 1671.48 C 863.675 1702.62 840.476 1729.99 812.547 1751.93 C 807.085 1756.19 801.409 1762.37 795.112 1765.21 C 777.211 1773.28 642.995 1766.43 611.004 1768.16 C 606.759 1771.2 582.958 1769.12 577.454 1768.33 C 573.601 1767.81 557.336 1767.88 552.134 1767.74 C 520.429 1766.92 488.267 1767.84 456.456 1768.02 L 446.479 1768.18 C 440.345 1767.7 430.687 1768.16 424.275 1768.3 C 410.29 1781.26 393.709 1790.02 378.03 1800.71 C 374.963 1804.27 375.148 1805.18 370.082 1805.53 C 369.527 1805.57 368.972 1805.6 368.417 1805.62 C 360.284 1798.21 350.346 1785.57 343.996 1779.81 C 329.838 1775.12 312.9 1727.92 313.172 1714.18 C 313.829 1681.01 354.533 1680.37 376.221 1656.24 C 442.343 1584.02 464.588 1483.94 486.957 1391.66 C 502.598 1327.14 505.871 1276.43 510.719 1211.62 C 516.909 1138.59 520.528 1065.37 521.569 992.09 C 521.75 968.118 520.852 944.092 520.875 920.099 C 520.889 904.377 519.24 888.433 519.006 872.646 C 517.581 856.449 518.23 838.135 516.172 822.387 C 512.228 792.212 509.906 759.712 505.462 729.828 C 499.462 689.485 488.745 648.366 480.1 608.512 C 477.663 602.453 474.671 591.8 472.617 585.265 C 467.845 563.475 464.185 549.126 457.531 527.696 C 454.267 521.933 448.966 505.841 446.254 498.707 C 425.067 442.994 389.818 359.34 322.26 350.04 C 308.039 348.083 300.327 343.464 292.251 331.53 C 291.042 329.915 289.871 328.273 288.737 326.604 C 277.369 309.868 266.219 289.941 270.883 269.474 C 278.294 236.946 294.231 207.644 322.145 188.788 C 328.978 183.228 346.378 166.37 352.596 163.388 z M 795.472 1059.71 C 793.675 1087.39 794.009 1115.77 792.631 1143.64 C 790.999 1176.62 785.074 1208.26 782.633 1241.12 C 794.389 1241.54 805.412 1241.88 817.187 1241.79 L 841.403 1241.45 C 846.437 1205.22 847.858 1166.7 849.259 1130.07 C 850.106 1107.89 851.529 1081.69 851.188 1059.85 C 841.029 1059.73 830.008 1059.39 819.91 1059.49 C 812.171 1059.61 803.1 1059.97 795.472 1059.71 z M 794.964 924.278 C 812.988 925.371 833.081 925 851.287 925.019 C 850.581 881.779 849.455 837.994 847.001 794.807 C 846.359 783.495 845.321 762.074 843.722 751.305 C 829.476 750.818 796.1 752.242 784.902 750.391 C 786.208 774.252 790.93 797.101 792.116 820.434 C 793.852 854.587 795.715 890.13 794.964 924.278 z M 656.57 1539.83 C 660.422 1536.46 664.872 1511.61 667.255 1504.9 C 674.595 1483.94 679.793 1462.44 686.787 1441.38 C 689.358 1433.64 690.181 1423.77 692.896 1416.17 C 700.896 1393.78 702.878 1372.31 706.949 1349.05 C 694.383 1348.95 674.737 1348.24 662.783 1349.02 C 654.982 1369.68 652.027 1390.02 646.978 1410.91 C 639.743 1441.31 631.505 1471.46 622.278 1501.31 C 620.091 1508.55 610.484 1533.4 611.835 1538.62 C 617.094 1540.84 648.644 1539.89 656.57 1539.83 z M 715.03 1539.5 C 732.576 1540.15 753.649 1540.45 771.13 1539.56 C 780.878 1519.13 785.779 1502.01 792.789 1480.52 C 797.864 1464.96 797.814 1435.84 806.144 1423.88 C 809.027 1420.48 808.741 1417.8 808.363 1413.68 C 789.598 1397.47 780.419 1372.8 784.031 1348.27 C 779.067 1348.33 774.702 1347.93 769.783 1347.53 C 764.908 1355.26 757.755 1402.39 754.122 1414.81 C 746.203 1441.86 738.058 1470.78 728.729 1497.57 C 722.874 1514.38 719.501 1521.82 715.03 1539.5 z M 676.681 1241.01 C 685.896 1241.28 714.251 1242.48 722.784 1241.09 C 729.72 1199.72 731.103 1164.81 732.781 1122.92 C 733.564 1103.37 736.453 1078.99 735.41 1060.09 C 722.378 1059.89 700.904 1060.69 689.099 1059.72 C 688.793 1099.9 685.861 1140.54 681.354 1180.45 C 679.068 1200.69 678.249 1220.73 676.681 1241.01 z M 832.579 1539.2 C 845.08 1540.4 865.779 1540.22 878.204 1539.22 C 886.042 1527.33 887.145 1513.68 891.397 1500.25 C 894.916 1489.13 898.864 1477.99 901.923 1466.76 C 903.152 1462.61 901.996 1452.71 903.417 1449.18 C 909.539 1433.98 913.772 1420.31 917.574 1404.41 C 918.805 1400.42 919.276 1399.4 918.29 1395.39 C 906.981 1414.74 887.352 1427.78 865.126 1430.68 L 863.439 1439.32 C 862.61 1451.75 857.001 1461.85 853.221 1473.83 L 832.579 1539.2 z M 754.301 1708.16 C 781.098 1700.46 798.435 1722.19 816.095 1684.19 C 824.057 1667.05 850.383 1630.59 849.91 1611.93 L 848.725 1610.73 C 838.238 1611 809.5 1612.48 801.047 1611.2 C 794.401 1640.75 775.613 1667.8 759.547 1693.19 C 757.229 1696.85 753.073 1703.83 754.301 1708.16 z M 691.259 374.982 C 700.524 375.989 743.281 377.103 751.469 375.279 C 748.229 369.044 745.812 361.109 743.433 354.373 C 736.48 334.691 724.116 316.893 715.551 298.116 C 697.789 297.39 670.458 298.571 654.96 297.083 C 659.867 305.573 664.608 318.212 668.947 327.563 C 675.599 341.9 686.576 360.281 691.259 374.982 z M 809.578 374.839 C 819.024 375.946 847.786 377.05 856.68 375.322 C 853.623 371.956 851.445 365.114 850.734 360.576 C 848.098 343.757 831.256 312.339 821.513 298.569 C 804.553 296.889 787.28 298.619 771.758 297.097 C 776.655 308.752 786.894 324.189 792.194 336.046 C 798.556 350.28 801.284 361.138 809.578 374.839 z M 587.113 1611.57 C 582.934 1612.6 582.558 1612.26 580.043 1616.41 C 573.94 1626.49 566.845 1637.34 570.385 1649.82 C 574.567 1664.55 582.126 1678.07 592.421 1689.27 C 594.859 1684.62 597.264 1679.95 599.635 1675.27 C 605.004 1665.32 625.458 1620.98 626.992 1611.11 C 613.286 1612.48 601.346 1609.39 587.113 1611.57 z M 915.673 561.22 C 915.858 558.523 914.617 553.21 914.053 550.311 C 913.913 545.43 903.617 523.407 901.662 516.945 C 899.351 509.306 901.059 503.633 899.786 497.662 C 898.303 490.702 893.205 478.894 890.424 471.973 C 876.242 471.12 861.972 471.827 847.505 470.942 C 847.619 481.467 850.689 493.27 852.806 503.79 L 853.36 504.303 C 860.954 511.394 859.713 511.185 861.696 522.593 L 863.328 532.759 C 883.726 532.511 893.084 538.597 907.504 552.639 C 910.326 555.404 913.051 558.266 915.673 561.22 z M 805.802 548.441 L 802.783 539.516 C 797.978 519.75 795.065 499.676 790.011 480.019 C 787.61 470.678 776.219 472.018 768.954 471.648 C 756.285 471.004 742.03 472.551 729.585 470.534 C 730.022 481.092 732.404 487.727 735.716 497.749 C 744.192 523.394 751.676 549.338 760.03 575.023 C 762.011 581.115 760.814 591.692 762.522 598.165 C 765.207 612.309 768.764 625.993 772.383 639.916 L 783.016 641.107 C 785.374 640.845 789.12 639.973 791.57 639.475 C 788.248 631.287 785.479 622.803 783.816 614.117 C 779.847 593.402 786.807 571.473 800.324 555.561 C 802.27 553.27 804.091 550.916 805.802 548.441 z M 707.929 641.182 C 710.657 621.025 680.31 498.172 668.245 474.449 C 667.398 472.784 663.071 471.865 661.046 471.591 C 649.429 470.018 635.207 472.248 624.056 470.999 L 623.331 470.923 C 623.187 470.905 623.042 470.887 622.898 470.869 C 634.354 510.434 646.538 550.655 653.322 591.248 C 655.199 602.482 661.422 614.02 661.661 625.642 C 661.813 628.732 661.959 640.141 666.23 640.863 C 679.521 643.11 694.328 640.72 707.929 641.182 z M 900.518 1241.23 C 909.605 1241.45 936.369 1242.52 944.748 1241.29 C 953.208 1204.66 954.051 1158.55 955.702 1121.17 C 956.458 1104.06 958.378 1076.48 957.55 1059.83 C 948.416 1059.85 920.917 1060.47 912.926 1059.42 C 912.803 1077.71 913.562 1102.26 911.382 1120.17 C 906.475 1160.47 904.361 1200.97 900.518 1241.23 z M 577.082 299.455 C 570.705 306.495 566.646 314.527 565.482 323.99 L 565.395 324.656 C 564.584 331.349 574.64 345.211 577.438 352.512 C 579.14 356.954 585.006 368.434 587.881 372.261 C 591.523 377.112 612.507 376.023 618.75 375.967 C 623.711 375.938 629.354 376.04 634.249 375.745 C 627.723 362.512 607.597 303.916 596.493 300.128 C 590.187 297.977 583.568 299.402 577.082 299.455 z M 711.142 1611.54 C 702.799 1611.92 694.002 1612.17 685.712 1612.79 C 679.47 1624.66 673.452 1636.65 667.662 1648.75 C 664.477 1655.58 660.659 1665.78 657.157 1672 C 649.986 1684.76 641.33 1693.51 634.51 1707.03 C 644.24 1706.06 654.905 1706.47 664.75 1706.61 C 674.773 1706.82 687.615 1707.49 697.314 1706.16 C 709.438 1686.37 739.243 1631.51 745.528 1610.95 C 734.854 1611.09 721.679 1610.94 711.142 1611.54 z M 735.722 924.627 C 735.867 899.077 733.949 873.091 732.591 847.545 C 731.129 815.819 729.361 784.108 727.286 752.416 C 717.196 751.547 688.408 750.248 678.34 751.008 C 679.457 764.694 679.571 777.631 681.086 791.514 C 685.913 835.757 689.983 879.474 688.616 924.087 C 703.596 924.801 720.713 925.403 735.722 924.627 z M 903.028 751.127 C 900.182 761.635 910.666 837.718 911.5 853.018 C 912.712 875.275 913.575 901.263 912.601 924.126 C 919.628 924.458 952.746 926.723 957.348 923.604 C 957.697 891.916 955.958 858.731 954.571 827 C 953.532 803.228 952.513 775.171 947.913 752.064 C 932.269 750.531 916.805 752.644 903.028 751.127 z"/>
<path transform="translate(0,0)" fill="rgb(253,254,253)" d="M 352.596 163.388 L 359.937 165.969 C 365.988 168.131 369.319 169.803 375.001 172.704 C 377.555 174.034 381.501 176.245 384.024 177.298 C 388.266 179.956 393.49 183.437 397.876 185.632 C 401.058 188.575 402.286 189.246 406.094 191.403 C 411.605 195.561 416.885 199.788 422.904 203.164 C 428.445 203.453 433.984 203.771 439.521 204.118 L 446.789 203.938 L 456.424 204.286 L 460.583 205.646 C 459.966 216.11 474.06 232.088 479.606 240.759 C 492.983 261.671 514.858 289.578 522.486 313.376 C 530.546 337.582 538.921 350.4 548.59 373.002 C 558.821 396.916 568.506 425.889 576.57 450.78 C 577.59 459.428 578.982 467.992 580.131 476.643 C 585.14 514.337 600.775 551.03 607.998 588.19 C 614.256 620.388 618.261 654.157 624.934 686.463 C 627.328 698.054 626.605 712.046 628.69 723.857 C 639.056 791.392 638.164 860.478 642.372 928.558 C 642.685 933.62 644.332 941.317 646.468 945.814 C 647.143 945.155 647.771 944.538 648.419 943.853 C 650.501 956.301 651.739 957.84 652.131 971.14 C 652.088 979.552 652.439 994.775 651.88 1002.68 C 649.805 1029.66 642.444 1052.52 640.781 1078.17 C 638.037 1120.47 634.361 1164.73 637.55 1206.91 C 638.069 1212.49 637.271 1228.32 635.079 1232.48 C 633.362 1231.91 633.637 1231.43 632.437 1229.27 C 628.413 1247.71 626.761 1269.63 623.71 1288.41 C 622.943 1293.13 620.935 1309.87 619.411 1313.74 C 614.709 1346.56 606.457 1383.19 598.249 1415.25 C 588.153 1454.69 572.114 1493.66 569.09 1534.66 C 568.746 1539.3 566.645 1545.02 566.691 1549.25 C 559.585 1578.19 546.348 1606.58 534.12 1633.53 C 520.969 1662.52 508.757 1689.26 491.993 1716.37 C 482.815 1731.22 461.864 1753.36 456.456 1768.02 L 446.479 1768.18 C 440.345 1767.7 430.687 1768.16 424.275 1768.3 C 410.29 1781.26 393.709 1790.02 378.03 1800.71 C 374.963 1804.27 375.148 1805.18 370.082 1805.53 C 369.527 1805.57 368.972 1805.6 368.417 1805.62 C 360.284 1798.21 350.346 1785.57 343.996 1779.81 C 329.838 1775.12 312.9 1727.92 313.172 1714.18 C 313.829 1681.01 354.533 1680.37 376.221 1656.24 C 442.343 1584.02 464.588 1483.94 486.957 1391.66 C 502.598 1327.14 505.871 1276.43 510.719 1211.62 C 516.909 1138.59 520.528 1065.37 521.569 992.09 C 521.75 968.118 520.852 944.092 520.875 920.099 C 520.889 904.377 519.24 888.433 519.006 872.646 C 517.581 856.449 518.23 838.135 516.172 822.387 C 512.228 792.212 509.906 759.712 505.462 729.828 C 499.462 689.485 488.745 648.366 480.1 608.512 C 477.663 602.453 474.671 591.8 472.617 585.265 C 467.845 563.475 464.185 549.126 457.531 527.696 C 454.267 521.933 448.966 505.841 446.254 498.707 C 425.067 442.994 389.818 359.34 322.26 350.04 C 308.039 348.083 300.327 343.464 292.251 331.53 C 291.042 329.915 289.871 328.273 288.737 326.604 C 277.369 309.868 266.219 289.941 270.883 269.474 C 278.294 236.946 294.231 207.644 322.145 188.788 C 328.978 183.228 346.378 166.37 352.596 163.388 z"/>
<path transform="translate(0,0)" fill="rgb(10,198,240)" d="M 519.006 872.646 C 519.824 874.808 520.442 877.721 522.012 878.792 C 522.224 873.378 518.007 868.366 520.822 861.121 C 523.534 860.028 526.24 862.143 529.233 861.099 C 547.742 854.644 578.338 849.511 592.969 835.757 L 593.537 835.825 C 593.887 847.69 593.033 866.227 596.032 877.123 C 596.866 901.574 598.019 926.069 598.868 950.485 C 600.261 990.537 597.725 1030.73 597.023 1070.61 C 596.27 1113.4 594.458 1149.15 588.917 1191.46 C 584.345 1226.38 584.761 1262.8 576.599 1297.81 C 574.805 1307.33 574.657 1320.68 572.217 1329.64 C 564.575 1357.72 561.347 1388.31 554.467 1416.2 C 545.97 1450.65 534.102 1485.22 522.936 1518.84 C 511.227 1554.55 501.552 1581.44 485.254 1615.7 C 466.124 1655.92 446.042 1694.44 416.335 1728.31 C 405.126 1741.09 381.176 1759.88 366.701 1768.99 C 361.354 1772.36 348.726 1776.52 343.996 1779.81 C 329.838 1775.12 312.9 1727.92 313.172 1714.18 C 313.829 1681.01 354.533 1680.37 376.221 1656.24 C 442.343 1584.02 464.588 1483.94 486.957 1391.66 C 502.598 1327.14 505.871 1276.43 510.719 1211.62 C 516.909 1138.59 520.528 1065.37 521.569 992.09 C 521.75 968.118 520.852 944.092 520.875 920.099 C 520.889 904.377 519.24 888.433 519.006 872.646 z"/>
<path transform="translate(0,0)" fill="rgb(117,235,253)" d="M 322.145 188.788 C 322.309 188.891 322.471 189 322.638 189.099 C 329.63 193.235 341.091 194.165 349.058 196.473 C 364.668 200.995 378.614 210.668 391.511 220.258 C 446.096 260.845 488.212 353.639 511.169 416.592 C 516.595 431.473 520.866 446.821 525.856 461.859 C 535.027 488.597 543.494 515.572 551.247 542.755 C 559.245 571.523 561.463 602.165 570.081 631.318 C 575.835 650.784 574.56 679.468 580.9 700.148 C 586.627 727.888 585.707 757.394 589.109 785.407 C 592.78 815.64 598.623 846.402 596.032 877.123 C 593.033 866.227 593.887 847.69 593.537 835.825 L 592.969 835.757 C 578.338 849.511 547.742 854.644 529.233 861.099 C 526.24 862.143 523.534 860.028 520.822 861.121 C 518.007 868.366 522.224 873.378 522.012 878.792 C 520.442 877.721 519.824 874.808 519.006 872.646 C 517.581 856.449 518.23 838.135 516.172 822.387 C 512.228 792.212 509.906 759.712 505.462 729.828 C 499.462 689.485 488.745 648.366 480.1 608.512 C 477.663 602.453 474.671 591.8 472.617 585.265 C 467.845 563.475 464.185 549.126 457.531 527.696 C 454.267 521.933 448.966 505.841 446.254 498.707 C 425.067 442.994 389.818 359.34 322.26 350.04 C 308.039 348.083 300.327 343.464 292.251 331.53 C 291.042 329.915 289.871 328.273 288.737 326.604 C 277.369 309.868 266.219 289.941 270.883 269.474 C 278.294 236.946 294.231 207.644 322.145 188.788 z"/>
<path transform="translate(0,0)" fill="rgb(10,198,240)" d="M 292.251 331.53 C 305.439 315.551 356.04 332.891 370.039 345.887 C 385.23 359.988 400.888 378.43 411.738 396.363 C 431.142 432.467 452.527 483.789 463.572 522.772 C 461.672 528.671 462.196 526.837 463.708 533.711 L 462.965 534.029 C 461.648 532.641 458.225 528.286 457.531 527.696 C 454.267 521.933 448.966 505.841 446.254 498.707 C 425.067 442.994 389.818 359.34 322.26 350.04 C 308.039 348.083 300.327 343.464 292.251 331.53 z"/>
<path transform="translate(0,0)" fill="rgb(27,197,216)" d="M 463.572 522.772 C 468.13 542.563 474.19 560.933 478.803 580.22 C 476.783 582.383 474.985 583.561 472.617 585.265 C 467.845 563.475 464.185 549.126 457.531 527.696 C 458.225 528.286 461.648 532.641 462.965 534.029 L 463.708 533.711 C 462.196 526.837 461.672 528.671 463.572 522.772 z"/>
<path transform="translate(0,0)" fill="rgb(10,198,240)" d="M 478.803 580.22 C 479.883 585.49 481.451 592.412 480.977 597.668 C 480.532 602.602 479.848 603.314 480.1 608.512 C 477.663 602.453 474.671 591.8 472.617 585.265 C 474.985 583.561 476.783 582.383 478.803 580.22 z"/>
<path transform="translate(0,0)" fill="rgb(0,135,84)" d="M 422.904 203.164 C 428.445 203.453 433.984 203.771 439.521 204.118 L 446.789 203.938 L 456.424 204.286 L 460.583 205.646 C 459.966 216.11 474.06 232.088 479.606 240.759 C 492.983 261.671 514.858 289.578 522.486 313.376 C 530.546 337.582 538.921 350.4 548.59 373.002 C 558.821 396.916 568.506 425.889 576.57 450.78 C 577.59 459.428 578.982 467.992 580.131 476.643 C 585.14 514.337 600.775 551.03 607.998 588.19 C 614.256 620.388 618.261 654.157 624.934 686.463 C 627.328 698.054 626.605 712.046 628.69 723.857 C 639.056 791.392 638.164 860.478 642.372 928.558 C 642.685 933.62 644.332 941.317 646.468 945.814 C 644.429 944.91 645.428 945.018 643.416 945.182 L 642.376 949.347 C 634.146 941.187 635.431 798.923 630.136 793.913 L 629.184 794.225 C 627.32 792.295 626.628 790.282 625.511 787.833 L 625.562 789.35 C 622.553 781.783 622.038 773.861 618.356 768.525 C 613.363 722.619 613.189 674.702 602.547 629.781 C 598.937 614.544 595.456 599.219 592.328 583.881 C 590.84 579.527 589.908 573.944 588.681 569.383 C 573.171 509.091 557.098 450.265 534.558 392.221 C 513.54 338.096 490.681 288.474 455.916 241.411 C 446.624 228.833 430.614 218.393 423.309 203.978 L 422.904 203.164 z"/>
<path transform="translate(0,0)" fill="rgb(0,147,97)" d="M 592.328 583.881 C 596.343 586.826 595.295 585.067 596.741 589.705 C 598.529 595.441 601.353 623.384 603.581 626.775 C 613.96 642.572 612.941 655.479 616.675 674.027 C 617.724 679.241 620.14 684.287 621.363 689.411 C 624.553 713.827 626.48 738.369 628.104 762.924 C 628.784 773.191 628.084 784.019 630.136 793.913 L 629.184 794.225 C 627.32 792.295 626.628 790.282 625.511 787.833 L 625.562 789.35 C 622.553 781.783 622.038 773.861 618.356 768.525 C 613.363 722.619 613.189 674.702 602.547 629.781 C 598.937 614.544 595.456 599.219 592.328 583.881 z"/>
<path transform="translate(0,0)" fill="rgb(0,147,97)" d="M 609.157 1311.82 C 610.303 1318 611.101 1324.08 611.951 1330.3 C 612.703 1325 613.174 1318.33 616.931 1314.44 L 619.411 1313.74 C 614.709 1346.56 606.457 1383.19 598.249 1415.25 C 588.153 1454.69 572.114 1493.66 569.09 1534.66 C 568.746 1539.3 566.645 1545.02 566.691 1549.25 C 559.585 1578.19 546.348 1606.58 534.12 1633.53 C 520.969 1662.52 508.757 1689.26 491.993 1716.37 C 482.815 1731.22 461.864 1753.36 456.456 1768.02 L 446.479 1768.18 C 440.345 1767.7 430.687 1768.16 424.275 1768.3 C 433.341 1751.76 447.309 1743.77 456.152 1730.95 C 467.72 1714.2 482.423 1690.21 492.664 1672.4 C 519.054 1626.51 538.206 1571.83 554.984 1521.65 C 559.586 1507.38 562.381 1492.19 566.744 1477.92 C 576.453 1446.16 585.693 1414.88 592.692 1382.37 C 597.745 1358.89 605.414 1335.6 609.157 1311.82 z"/>
<path transform="translate(0,0)" fill="url(#Gradient8)" d="M 618.356 768.525 C 622.038 773.861 622.553 781.783 625.562 789.35 L 625.511 787.833 C 626.628 790.282 627.32 792.295 629.184 794.225 L 630.136 793.913 C 635.431 798.923 634.146 941.187 642.376 949.347 L 643.416 945.182 C 645.428 945.018 644.429 944.91 646.468 945.814 C 647.143 945.155 647.771 944.538 648.419 943.853 C 650.501 956.301 651.739 957.84 652.131 971.14 C 652.088 979.552 652.439 994.775 651.88 1002.68 C 649.805 1029.66 642.444 1052.52 640.781 1078.17 C 638.037 1120.47 634.361 1164.73 637.55 1206.91 C 638.069 1212.49 637.271 1228.32 635.079 1232.48 C 633.362 1231.91 633.637 1231.43 632.437 1229.27 C 628.413 1247.71 626.761 1269.63 623.71 1288.41 C 622.943 1293.13 620.935 1309.87 619.411 1313.74 L 616.931 1314.44 C 613.174 1318.33 612.703 1325 611.951 1330.3 C 611.101 1324.08 610.303 1318 609.157 1311.82 C 608.844 1301.94 611.252 1286.88 611.896 1276.58 C 614.33 1237.64 619.285 1199.02 623.71 1160.33 C 625.38 1145.74 624.632 1126.52 625.246 1111.41 C 628.841 1034.79 629.127 958.057 626.105 881.418 C 624.979 851.415 625.571 820.358 621.36 790.664 C 620.309 783.253 619.223 775.969 618.356 768.525 z"/>
<path transform="translate(0,0)" fill="rgb(2,40,15)" d="M 522.486 313.376 C 543.333 325.274 554.034 336.658 560.992 361.305 C 566.617 381.231 575.31 406.06 578.471 427.349 C 579.172 432.07 580.557 443.424 580.779 447.449 L 579.293 447.476 L 578.635 449.887 C 581.846 455.068 590.724 456.892 594.547 462.287 C 608.776 482.365 609.242 509.261 614.93 532.518 C 620.367 554.745 625.515 577.356 632.047 599.204 C 632.846 601.877 630.018 611.966 631.66 616.474 C 633.657 615.441 633.367 615.002 635.287 613.97 C 635.752 607.605 632.499 604.652 633.507 600.532 C 636.469 603.458 645.295 661.406 644.771 668.434 C 643.089 690.963 637.192 717.376 649.921 738.618 C 656.745 750.008 653.479 775.209 656.891 779.859 C 659.418 776.707 657.359 775.499 658.26 772.465 C 664.586 809.755 663.854 846.586 664.085 884.242 C 664.252 911.495 658.652 930.552 653.122 956.555 C 652.923 960.695 652.804 967.25 652.131 971.14 C 651.739 957.84 650.501 956.301 648.419 943.853 C 647.771 944.538 647.143 945.155 646.468 945.814 C 644.332 941.317 642.685 933.62 642.372 928.558 C 638.164 860.478 639.056 791.392 628.69 723.857 C 626.605 712.046 627.328 698.054 624.934 686.463 C 618.261 654.157 614.256 620.388 607.998 588.19 C 600.775 551.03 585.14 514.337 580.131 476.643 C 578.982 467.992 577.59 459.428 576.57 450.78 C 568.506 425.889 558.821 396.916 548.59 373.002 C 538.921 350.4 530.546 337.582 522.486 313.376 z"/>
<path transform="translate(0,0)" fill="rgb(1,98,59)" d="M 576.57 450.78 C 590.831 483.364 601.856 517.27 609.487 552.01 C 613.215 569.785 612.621 580.594 618.605 598.798 C 628 627.384 631.095 659.811 638.566 689.084 C 642.834 708.841 639.573 733.214 642.185 753.462 C 643.668 772.336 647.538 792.149 648.643 810.768 C 651.564 859.957 652.92 907.393 653.122 956.555 C 652.923 960.695 652.804 967.25 652.131 971.14 C 651.739 957.84 650.501 956.301 648.419 943.853 C 647.771 944.538 647.143 945.155 646.468 945.814 C 644.332 941.317 642.685 933.62 642.372 928.558 C 638.164 860.478 639.056 791.392 628.69 723.857 C 626.605 712.046 627.328 698.054 624.934 686.463 C 618.261 654.157 614.256 620.388 607.998 588.19 C 600.775 551.03 585.14 514.337 580.131 476.643 C 578.982 467.992 577.59 459.428 576.57 450.78 z"/>
<path transform="translate(0,0)" fill="rgb(1,98,59)" d="M 619.411 1313.74 C 620.935 1309.87 622.943 1293.13 623.71 1288.41 C 626.761 1269.63 628.413 1247.71 632.437 1229.27 C 633.637 1231.43 633.362 1231.91 635.079 1232.48 C 637.271 1228.32 638.069 1212.49 637.55 1206.91 C 634.361 1164.73 638.037 1120.47 640.781 1078.17 C 642.444 1052.52 649.805 1029.66 651.88 1002.68 C 652.93 1049.39 656.277 1096.76 652.55 1143.44 C 651.651 1155.59 650.062 1167.68 647.789 1179.64 C 646.051 1188.84 642.903 1201.28 642.291 1210.43 C 640.51 1237.05 641.769 1264 639.583 1290.62 C 637.403 1317.17 629.379 1343.03 623.902 1369 C 621.966 1378.17 618.328 1387.59 616.54 1396.65 C 607.179 1444.1 597.3 1493.38 572.171 1535.38 C 569.98 1538.97 568.532 1545.19 566.691 1549.25 C 566.645 1545.02 568.746 1539.3 569.09 1534.66 C 572.114 1493.66 588.153 1454.69 598.249 1415.25 C 606.457 1383.19 614.709 1346.56 619.411 1313.74 z"/>
<path transform="translate(0,0)" fill="rgb(253,254,253)" d="M 861.696 522.593 L 863.328 532.759 C 883.726 532.511 893.084 538.597 907.504 552.639 C 910.326 555.404 913.051 558.266 915.673 561.22 C 915.858 558.523 914.617 553.21 914.053 550.311 C 944.262 584.337 939.392 596.011 934.583 639.28 C 933.416 636.321 930.047 626.116 928.501 625.076 C 926.998 627.964 926.961 628.897 926.504 631.998 C 924.813 636.053 923.935 636.118 924.905 639.44 L 927.864 641.385 C 924.174 655.573 897.018 672.346 884.75 679.732 C 855.009 697.68 807.127 679.841 789.781 651.281 C 787.554 647.614 785.599 644.555 783.016 641.107 C 785.374 640.845 789.12 639.973 791.57 639.475 C 788.248 631.287 785.479 622.803 783.816 614.117 C 779.847 593.402 786.807 571.473 800.324 555.561 C 802.27 553.27 804.091 550.916 805.802 548.441 L 802.783 539.516 C 807.894 537.578 812.315 534.209 817.198 531.539 C 831.142 523.913 845.868 520.896 861.696 522.593 z"/>
<path transform="translate(0,0)" fill="rgb(1,98,59)" d="M 874.605 673.453 C 898.138 665.64 913.173 652.649 925.693 631.552 L 926.504 631.998 C 924.813 636.053 923.935 636.118 924.905 639.44 L 927.864 641.385 C 924.174 655.573 897.018 672.346 884.75 679.732 C 855.009 697.68 807.127 679.841 789.781 651.281 C 787.554 647.614 785.599 644.555 783.016 641.107 C 785.374 640.845 789.12 639.973 791.57 639.475 C 806.31 667.274 844.53 682.97 874.605 673.453 z"/>
<path transform="translate(0,0)" fill="rgb(1,98,59)" d="M 914.053 550.311 C 944.262 584.337 939.392 596.011 934.583 639.28 C 933.416 636.321 930.047 626.116 928.501 625.076 C 926.998 627.964 926.961 628.897 926.504 631.998 L 925.693 631.552 C 926.061 627.019 927.506 622.495 928.125 617.963 C 930.319 601.916 925.633 573.994 915.673 561.22 C 915.858 558.523 914.617 553.21 914.053 550.311 z"/>
<path transform="translate(0,0)" fill="rgb(1,98,59)" d="M 861.696 522.593 L 863.328 532.759 C 838.253 533.467 826.664 534.673 805.802 548.441 L 802.783 539.516 C 807.894 537.578 812.315 534.209 817.198 531.539 C 831.142 523.913 845.868 520.896 861.696 522.593 z"/>
<path transform="translate(0,0)" fill="url(#Gradient7)" d="M 844.827 544.599 C 877.816 539.185 909.007 561.364 914.725 594.302 C 920.443 627.24 898.551 658.634 865.667 664.654 C 832.352 670.754 800.457 648.513 794.665 615.143 C 788.872 581.774 811.406 550.085 844.827 544.599 z"/>
<path transform="translate(0,0)" fill="rgb(253,254,253)" d="M 792.698 1307.84 C 802.737 1290.69 819.997 1284.31 838.134 1279.16 C 878.866 1267.59 905.321 1289.78 928.774 1320.99 C 932.301 1327 937.249 1337.23 936.931 1344.32 C 938.033 1360.55 937.568 1387.06 926.619 1400.28 C 922.416 1401.69 920.737 1401.53 917.574 1404.41 C 918.805 1400.42 919.276 1399.4 918.29 1395.39 C 906.981 1414.74 887.352 1427.78 865.126 1430.68 L 863.439 1439.32 C 848.453 1439.35 831.029 1438.25 817.553 1431.06 C 813.735 1429.02 811.902 1426.75 806.144 1423.88 C 809.027 1420.48 808.741 1417.8 808.363 1413.68 C 789.598 1397.47 780.419 1372.8 784.031 1348.27 C 785.103 1340.99 787.277 1333.92 790.48 1327.3 C 787.206 1318.04 789.322 1317.21 792.698 1307.84 z"/>
<path transform="translate(0,0)" fill="url(#Gradient6)" d="M 792.698 1307.84 C 802.737 1290.69 819.997 1284.31 838.134 1279.16 C 878.866 1267.59 905.321 1289.78 928.774 1320.99 C 924.569 1318.73 924.05 1316.78 920.89 1315.88 L 919.499 1318.57 C 914.956 1316.43 917.065 1309.37 907.709 1308.34 C 891.231 1291.38 867.509 1283.52 844.16 1287.29 C 820.81 1291.07 800.773 1306 790.48 1327.3 C 787.206 1318.04 789.322 1317.21 792.698 1307.84 z"/>
<path transform="translate(0,0)" fill="rgb(1,98,59)" d="M 808.363 1413.68 C 823.996 1427.18 844.646 1433.36 865.126 1430.68 L 863.439 1439.32 C 848.453 1439.35 831.029 1438.25 817.553 1431.06 C 813.735 1429.02 811.902 1426.75 806.144 1423.88 C 809.027 1420.48 808.741 1417.8 808.363 1413.68 z"/>
<path transform="translate(0,0)" fill="rgb(1,98,59)" d="M 927.763 1350.98 C 929.169 1352.58 929.7 1352.49 931.902 1352.97 C 935.298 1350.27 935.111 1348.76 936.931 1344.32 C 938.033 1360.55 937.568 1387.06 926.619 1400.28 C 922.416 1401.69 920.737 1401.53 917.574 1404.41 C 918.805 1400.42 919.276 1399.4 918.29 1395.39 C 926.125 1381.99 929.445 1366.42 927.763 1350.98 z"/>
<path transform="translate(0,0)" fill="rgb(1,98,59)" d="M 907.709 1308.34 C 917.065 1309.37 914.956 1316.43 919.499 1318.57 L 920.89 1315.88 C 924.05 1316.78 924.569 1318.73 928.774 1320.99 C 932.301 1327 937.249 1337.23 936.931 1344.32 C 935.111 1348.76 935.298 1350.27 931.902 1352.97 C 929.7 1352.49 929.169 1352.58 927.763 1350.98 C 926.014 1334.93 918.956 1319.93 907.709 1308.34 z"/>
<path transform="translate(0,0)" fill="url(#Gradient5)" d="M 859.239 1295.38 C 873.9 1296.37 890.915 1308.49 900.927 1318.34 C 923.575 1340.62 918.281 1382.59 895.756 1403.24 C 881.221 1416.56 871.168 1416.22 852.81 1415.98 C 823.924 1415.39 799.557 1403.99 795.86 1371.54 C 794.647 1360.88 793.961 1333.84 801.722 1325.84 C 815.765 1311.36 838.81 1297.55 859.239 1295.38 z"/>
<path transform="translate(0,0)" fill="rgb(2,40,15)" d="M 769.783 1347.53 C 770.781 1346.54 770.836 1345.76 771.292 1344.45 C 776.089 1330.64 782.904 1318.62 792.698 1307.84 C 789.322 1317.21 787.206 1318.04 790.48 1327.3 C 787.277 1333.92 785.103 1340.99 784.031 1348.27 C 779.067 1348.33 774.702 1347.93 769.783 1347.53 z"/>
<path transform="translate(0,0)" fill="rgb(253,254,253)" d="M 574.467 176.387 C 537.892 169.062 512.617 135.483 515.699 98.3096 C 518.781 61.1361 549.24 32.1775 586.522 30.9757 C 623.804 29.7739 656.064 56.7108 661.534 93.6087 C 667.003 130.507 643.944 165.644 607.917 175.309 C 596.998 178.238 585.551 178.607 574.467 176.387 z"/>
<path transform="translate(0,0)" fill="url(#Gradient4)" d="M 580.383 46.4815 C 593.712 46.1583 612.446 44.903 623.348 53.0867 C 666.806 85.7089 652.639 153.24 599.274 163.864 C 598.332 163.939 597.39 164.006 596.447 164.066 C 576.5 165.31 564.875 161.681 549.485 148.964 C 520.206 124.769 524.139 63.7582 561.378 49.2822 C 567.795 46.7875 573.531 46.758 580.383 46.4815 z"/>
<path transform="translate(0,0)" fill="rgb(253,254,253)" d="M 582.038 1796.04 C 589.312 1794.81 596.729 1794.68 604.041 1795.66 C 642.084 1800.76 669.77 1834.31 667.547 1872.63 C 665.325 1910.95 633.946 1941.08 595.568 1941.75 C 557.191 1942.41 524.786 1913.39 521.238 1875.17 C 517.689 1836.95 544.195 1802.46 582.038 1796.04 z"/>
<path transform="translate(0,0)" fill="url(#Gradient3)" d="M 551.713 1826.74 C 570.549 1807.54 599.826 1803.16 623.461 1815.99 C 647.096 1828.82 659.364 1855.76 653.527 1882.01 C 647.689 1908.26 625.16 1927.47 598.314 1929.08 C 571.469 1930.68 546.81 1914.3 537.884 1888.93 C 530.258 1867.26 535.622 1843.14 551.713 1826.74 z"/>
<path transform="translate(0,0)" fill="rgb(117,235,253)" d="M 551.713 1826.74 C 549.028 1836.54 542.17 1838.27 540.678 1847.49 C 544.114 1863.29 543.647 1865.88 538.683 1881.7 C 537.942 1884.06 538.756 1886.66 537.884 1888.93 C 530.258 1867.26 535.622 1843.14 551.713 1826.74 z"/>
<path transform="translate(0,0)" fill="url(#Gradient2)" d="M 352.596 163.388 L 357.012 160.928 C 358.936 151.282 394.126 127.299 403.029 126.652 C 403.411 126.864 408.799 129.85 408.799 129.85 C 409.565 131.723 411.161 134.501 413.341 134.395 C 428.299 133.672 440.77 153.28 450.61 162.628 C 450.61 162.628 453.066 162.972 453.452 163.026 L 455.568 162.177 L 455.239 160.789 C 456.403 159.685 456.726 160.02 458.732 159.79 L 458.272 158.417 C 451.706 155.54 449.236 157.426 444.579 150.919 C 441.921 147.206 438.915 143.015 436.18 139.323 L 438.32 139.212 C 449.2 149.982 464.174 158.918 471.666 167.598 L 471.394 168.565 C 470.618 171.382 470.089 172.616 471.135 175.42 C 473.611 177.991 473.005 177.244 477.033 178.087 L 478.971 177.402 L 479.542 176.046 C 484.057 180.668 480.756 182.603 483.782 187.184 C 486.303 191 493.056 188.618 493.806 194.933 C 490.304 195.923 478.232 191.619 475.688 188.918 C 474.45 191.258 474.676 191.803 475.17 194.452 C 477.814 198.182 481.659 198.45 485.894 198.854 L 486.379 199.617 C 471.183 205.365 455.691 200.848 446.789 203.938 L 439.521 204.118 C 437.037 203.506 436.434 203.432 434.324 202.015 C 440.567 181.122 423.829 174.367 408.017 165.795 C 400.014 161.458 384.105 154.413 375.005 155.673 C 371.409 156.171 364.497 161.262 362.801 165.019 L 359.937 165.969 L 352.596 163.388 z"/>
<path transform="translate(0,0)" fill="rgb(117,235,253)" fill-opacity="0.243137" d="M 359.937 165.969 L 362.801 165.019 C 364.497 161.262 371.409 156.171 375.005 155.673 C 384.105 154.413 400.014 161.458 408.017 165.795 C 423.829 174.367 440.567 181.122 434.324 202.015 C 436.434 203.432 437.037 203.506 439.521 204.118 C 433.984 203.771 428.445 203.453 422.904 203.164 C 416.885 199.788 411.605 195.561 406.094 191.403 C 411.985 186.308 417.686 199.942 427.678 199.014 L 429.269 196.978 C 428.927 185.99 379.032 154.58 372.431 166.15 C 374.724 166.97 375.184 167.026 377.073 168.495 C 375.853 170.361 375.73 170.595 375.001 172.704 C 369.319 169.803 365.988 168.131 359.937 165.969 z"/>
<path transform="translate(0,0)" fill="rgb(117,235,253)" fill-opacity="0.368627" d="M 378.03 1800.71 C 377.983 1806.51 378.96 1805.95 375.933 1809.31 L 376.255 1810.34 C 386.926 1810.99 427.418 1777.54 436.171 1774.77 C 437.176 1779.27 432.998 1784.69 430.624 1788.59 C 419.981 1806.1 408.717 1812.32 389.445 1817.08 C 386.432 1817.82 385.261 1817.37 382.724 1819.53 C 382.732 1819.56 369.472 1806.61 368.417 1805.62 C 368.972 1805.6 369.527 1805.57 370.082 1805.53 C 375.148 1805.18 374.963 1804.27 378.03 1800.71 z"/>
<path transform="translate(0,0)" fill="url(#Gradient1)" d="M 424.275 1768.3 C 430.687 1768.16 440.345 1767.7 446.479 1768.18 C 444.653 1768.38 438.608 1768.93 437.221 1769.39 L 436.171 1774.77 C 427.418 1777.54 386.926 1810.99 376.255 1810.34 L 375.933 1809.31 C 378.96 1805.95 377.983 1806.51 378.03 1800.71 C 393.709 1790.02 410.29 1781.26 424.275 1768.3 z"/>
<path transform="translate(0,0)" fill="rgb(117,235,253)" fill-opacity="0.321569" d="M 375.001 172.704 C 375.73 170.595 375.853 170.361 377.073 168.495 C 375.184 167.026 374.724 166.97 372.431 166.15 C 379.032 154.58 428.927 185.99 429.269 196.978 L 427.678 199.014 C 417.686 199.942 411.985 186.308 406.094 191.403 C 402.286 189.246 401.058 188.575 397.876 185.632 L 399.104 183.759 L 398.521 181.456 C 394.689 178.121 391.328 176.061 386.118 175.501 L 384.024 177.298 C 381.501 176.245 377.555 174.034 375.001 172.704 z"/>
<path transform="translate(0,0)" fill="rgb(0,0,0)" fill-opacity="0.32549" d="M 573.727 191.584 C 584.967 191.233 595.267 191.329 606.488 191.512 C 604.679 196.034 607.894 196.277 605.89 204.661 C 593.2 203.572 578.071 204.436 563.776 203.102 C 571.704 199.927 571.761 199.9 573.727 191.584 z"/>
<path transform="translate(0,0)" fill="rgb(0,147,97)" fill-opacity="0.392157" d="M 607.917 175.309 C 607.298 179.773 607.211 188.142 606.488 191.512 C 595.267 191.329 584.967 191.233 573.727 191.584 C 572.929 187.234 574.05 181.073 574.467 176.387 C 585.551 178.607 596.998 178.238 607.917 175.309 z"/>
<path transform="translate(0,0)" fill="rgb(0,147,97)" fill-opacity="0.45098" d="M 577.127 1780.74 C 588.606 1779.99 599.679 1781.17 611.596 1780.36 C 611.176 1783.76 610.955 1789.76 608.981 1792.13 C 605.148 1792.98 602.994 1793.02 599.061 1793.2 L 599.019 1793.9 L 601.6 1793.86 L 601.979 1795.11 L 604.041 1795.66 C 596.729 1794.68 589.312 1794.81 582.038 1796.04 C 585.831 1794.98 586.576 1794.78 590.527 1794.74 L 589.636 1795.31 L 589.1 1794.21 L 590.535 1794.27 L 587.947 1793.62 L 587.514 1794.74 C 577.076 1795.13 576.796 1788.29 577.127 1780.74 z M 593.6 1791.62 C 596.72 1790.57 603.258 1787.07 603.85 1783.96 C 601.654 1782.03 599.493 1782.18 596.597 1781.94 L 595.807 1782.46 C 591.897 1784.99 587 1786.11 585.253 1788.33 C 587.38 1790.49 590.368 1790.75 593.6 1791.62 z"/>
<path transform="translate(0,0)" fill="rgb(0,147,97)" fill-opacity="0.490196" d="M 596.597 1781.94 C 599.493 1782.18 601.654 1782.03 603.85 1783.96 C 603.258 1787.07 596.72 1790.57 593.6 1791.62 C 590.368 1790.75 587.38 1790.49 585.253 1788.33 C 587 1786.11 591.897 1784.99 595.807 1782.46 L 596.597 1781.94 z"/>
<path transform="translate(0,0)" fill="rgb(0,0,0)" fill-opacity="0.270588" d="M 577.454 1768.33 C 582.958 1769.12 606.759 1771.2 611.004 1768.16 C 609.608 1771.71 610.914 1776.45 611.596 1780.36 C 599.679 1781.17 588.606 1779.99 577.127 1780.74 C 577.398 1776.77 577.87 1772.23 577.454 1768.33 z"/>
<path transform="translate(0,0)" fill="rgb(117,235,253)" fill-opacity="0.223529" d="M 384.024 177.298 L 386.118 175.501 C 391.328 176.061 394.689 178.121 398.521 181.456 L 399.104 183.759 L 397.876 185.632 C 393.49 183.437 388.266 179.956 384.024 177.298 z"/>
</svg>