<svg version="1.1" xmlns="http://www.w3.org/2000/svg" style="display: block;" viewBox="0 0 1024 1024" width="256" height="256" preserveAspectRatio="none">
<defs>
	<linearGradient id="Gradient1" gradientUnits="userSpaceOnUse" x1="512.88" y1="9.92758" x2="513.244" y2="1.07749">
		<stop class="stop0" offset="0" stop-opacity="0.941176" stop-color="rgb(255,255,255)"/>
		<stop class="stop1" offset="1" stop-opacity="0.972549" stop-color="rgb(255,255,255)"/>
	</linearGradient>
</defs>
<path transform="translate(0,0)" fill="rgb(253,254,254)" d="M 586.216 10.091 C 591.125 9.66379 597.543 10.802 602.728 11.3278 C 648.13 15.9322 700.272 31.2762 742.184 49.8425 C 757.893 57.2474 772.95 70.0235 787.825 78.2202 C 803.265 86.728 816.618 97.9505 830.725 106.56 C 853.508 120.465 863.405 133.95 879.993 154.282 C 887.808 163.861 901.355 173.153 909.25 183.203 C 916.956 192.845 926.314 207.089 933.202 217.681 C 939.553 227.448 949.127 238.83 954.787 248.009 C 981.667 291.601 1000.31 333.36 1010.51 383.873 C 1012.23 392.373 1014.94 401.63 1015.87 409.7 C 1016.91 418.705 1015.74 430.385 1020.47 438.623 C 1021.66 439.115 1022.76 439.619 1024 439.974 L 1024 590.246 C 1017.06 597.335 1016.18 613.708 1015.11 623.529 C 1012.71 644.953 1007.93 664.605 1000.47 684.783 C 993.731 703.017 988.486 724.169 978.758 741.251 C 969.447 757.602 957.985 773.645 948.601 790.455 C 938.236 809.022 922.454 828.994 909.466 845.933 C 900.375 856.247 886.341 864.871 876.62 874.793 C 866.156 884.874 857.4 898.04 846.723 907.754 C 822.827 929.496 793.293 943.882 766.836 961.534 C 741.169 978.658 717.998 990.181 688.223 998.481 C 679.256 1000.98 669.636 1005.78 660.518 1008.31 C 647.943 1012.82 601.915 1015.97 594.444 1024 L 431.649 1024 C 426.228 1018.17 386 1012.23 374.107 1009.06 C 326.347 996.321 290.212 983.263 249.213 955.03 C 232.239 945.516 216.623 931.98 200.797 921.461 C 180.494 907.965 174.806 900.943 159.376 882.627 C 147.549 869.477 129.296 859.029 118.359 845.373 C 94.0169 814.977 73.3642 779.007 52.7455 745.874 C 46.8292 736.366 38.7129 715.271 34.7427 704.624 C 29.2433 689.877 25.137 672.037 20.0569 656.939 C 15.6079 639.479 13.7232 617.394 9.85557 599.96 C 9.82206 595.357 8.8284 589.071 5.64391 585.513 C 2.24412 584.119 3.73963 584.194 0 585.43 L 0 446.02 C 4.10237 444.022 2.97671 441.955 5.30031 437.984 C 14.7025 421.916 12.0903 403.587 15.6861 389.607 C 21.4712 367.116 32.9825 322.882 42.9264 302.148 C 62.185 261.992 94.584 214.494 122.637 179.515 C 127.623 173.298 138.626 164.579 144.771 158.11 C 156.123 146.161 169.659 128.726 181.98 118.488 C 192.587 109.675 210.662 98.3173 222.463 90.2431 C 239.33 78.7034 262.102 63.1793 280.026 53.8391 C 320.723 32.6322 384.299 14.2914 429.546 11.0774 L 436.474 10.9143 C 447.914 12.6086 461.476 10.0349 473.365 10.056 L 546.659 10.0621 C 559.28 10.0983 573.837 10.9391 586.216 10.091 z M 189.272 186.767 C 52.0812 322.824 14.2017 529.955 94.3598 705.759 C 174.518 881.563 355.733 988.798 548.415 974.448 C 802.437 955.53 993.063 734.328 974.259 480.298 C 955.456 226.267 734.339 35.542 480.301 54.2308 C 370.593 62.3017 267.379 109.306 189.272 186.767 z"/>
<path transform="translate(0,0)" fill="rgb(253,254,254)" d="M 473.821 157.427 C 533.454 155.348 589.303 157.455 646.338 177.178 C 668.563 184.864 675.095 189.179 694.947 202.467 C 708.261 211.379 724.272 218.562 737.157 229.111 C 751.545 240.89 762.359 254.723 774.193 268.899 C 778.714 274.109 786.429 278.874 791.032 284.538 C 804.856 301.546 815.503 317.976 825.271 337.595 C 829.206 345.497 839.49 356.499 843.067 364.186 C 857.901 396.063 866.571 434.958 871.396 469.633 C 872.796 479.694 872.158 497.558 872.395 507.499 C 873.386 549.139 870.856 585.64 857.943 625.581 C 854.515 636.185 850.702 650.982 845.7 660.991 C 841.527 669.341 831.52 679.005 826.965 687.851 C 818.043 705.175 812.871 716.63 800.193 731.721 C 790.065 743.775 779.758 750.205 768.294 760.921 C 761.217 767.536 756.866 773.91 750.869 781.138 C 736.01 799.048 715.381 812.022 694.895 822.56 C 686.194 827.036 675.884 837.153 666.301 842.016 C 630.322 860.273 594.067 867.4 554.718 871.836 C 502.925 873.167 455.84 874.231 406.067 858.369 C 392.742 854.123 378.347 850.576 365.988 843.655 C 349.607 834.482 334.983 823.53 318.332 814.397 C 299.949 804.315 282.6 787.029 268.233 772.053 C 261.449 764.981 248.78 756.954 242.236 749.686 C 232.014 738.332 221.209 722.835 212.749 709.982 C 208.826 704.022 204.815 694.779 200.682 688.177 C 194.374 678.1 185.008 665.883 180.913 654.907 C 174.58 637.929 168.794 617.714 164.385 599.984 C 154.446 560.022 154.268 510.613 156.884 469.327 C 158.799 439.11 172.215 395.337 182.761 366.737 C 186.177 357.474 195.503 347.932 201.036 339.327 C 205.388 332.56 208.825 323.253 212.934 316.766 C 237.555 277.898 271.988 240.496 311.278 216.149 C 321.036 210.103 333.165 205.123 343.304 199.631 C 348.422 196.859 354.858 190.941 359.718 187.95 C 368.06 182.427 378.456 179.842 387.502 176.103 C 415.272 164.625 446.107 164.592 473.821 157.427 z"/>
<path transform="translate(0,0)" fill="rgb(255,248,85)" d="M 485.489 214.201 C 651.297 198.477 798.467 320.12 814.233 485.924 C 829.998 651.728 708.391 798.929 542.591 814.735 C 376.733 830.547 229.469 708.888 213.698 543.026 C 197.927 377.164 319.623 229.931 485.489 214.201 z"/>
<path transform="translate(0,0)" fill="url(#Gradient1)" d="M 464.07 0 L 581.261 0 C 583.608 7.68842 578.031 5.64221 581.727 9.03676 L 586.216 10.091 C 573.837 10.9391 559.28 10.0983 546.659 10.0621 L 473.365 10.056 C 461.476 10.0349 447.914 12.6086 436.474 10.9143 C 442.007 9.54656 454.343 11.3453 457.833 8.22364 C 459.406 3.74342 459.886 3.14989 463.722 0.259343 L 464.07 0 z"/>
<path transform="translate(0,0)" fill="rgb(253,254,254)" fill-opacity="0.0392157" d="M 0 585.43 C 3.73963 584.194 2.24412 584.119 5.64391 585.513 C 8.8284 589.071 9.82206 595.357 9.85557 599.96 L 9.51724 600.447 C 8.07141 602.568 7.84451 603.085 6.98939 605.487 C 4.29613 606.875 3.51575 606.15 0 605.714 L 0 585.43 z"/>
<path transform="translate(0,0)" fill="rgb(253,254,254)" fill-opacity="0.607843" d="M 447.982 0 L 464.07 0 L 463.722 0.259343 C 459.886 3.14989 459.406 3.74342 457.833 8.22364 C 454.343 11.3453 442.007 9.54656 436.474 10.9143 L 429.546 11.0774 C 431.304 10.3979 433.975 9.77118 435.861 9.26498 C 439.875 9.6941 450.913 8.88198 455.466 8.645 C 451.03 6.60562 447.489 6.77785 445.52 3.39736 C 446.758 2.22937 447.228 1.5287 447.982 0 z"/>
<path transform="translate(0,0)" fill="rgb(253,254,254)" fill-opacity="0.541176" d="M 435.59 0 L 447.982 0 C 447.228 1.5287 446.758 2.22937 445.52 3.39736 C 447.489 6.77785 451.03 6.60562 455.466 8.645 C 450.913 8.88198 439.875 9.6941 435.861 9.26498 C 435.196 5.67549 435.415 3.62118 435.59 0 z"/>
</svg>