<svg xmlns="http://www.w3.org/2000/svg" width="256" height="492" preserveAspectRatio="none" style="display:block" viewBox="0 0 1024 1968"><defs><linearGradient id="f" x1="399.01" x2="408.949" y1="1783.76" y2="1794.94" gradientUnits="userSpaceOnUse"><stop class="stop0" offset="0" stop-color="#ff9c87" stop-opacity=".322"/><stop class="stop1" offset="1" stop-color="#fc9988" stop-opacity=".392"/></linearGradient><linearGradient id="e" x1="392.04" x2="400.827" y1="184.408" y2="172.409" gradientUnits="userSpaceOnUse"><stop class="stop0" offset="0" stop-color="#fc9f8b" stop-opacity=".294"/><stop class="stop1" offset="1" stop-color="#fe9b86" stop-opacity=".325"/></linearGradient><linearGradient id="d" x1="651.01" x2="535.992" y1="1867.54" y2="1867.45" gradientUnits="userSpaceOnUse"><stop class="stop0" offset="0" stop-color="#ff2600"/><stop class="stop1" offset="1" stop-color="#ff7654"/></linearGradient><linearGradient id="c" x1="820.553" x2="893.982" y1="564.149" y2="650.939" gradientUnits="userSpaceOnUse"><stop class="stop0" offset="0" stop-color="#f20"/><stop class="stop1" offset="1" stop-color="#ff724b"/></linearGradient><linearGradient id="b" x1="816.312" x2="873.77" y1="1404.25" y2="1333.44" gradientUnits="userSpaceOnUse"><stop class="stop0" offset="0" stop-color="#fe2200"/><stop class="stop1" offset="1" stop-color="#ff6038"/></linearGradient><linearGradient id="a" x1="313.578" x2="590.581" y1="684.404" y2="494.291" gradientUnits="userSpaceOnUse"><stop class="stop0" offset="0" stop-color="#ff6c4a"/><stop class="stop1" offset="1" stop-color="#ff967c"/></linearGradient></defs><path fill="#010000" d="M349.588 164.342q5.36 1.088 10.704 2.247c6.134 2.574 20.782 10.769 24.476 12.045 4.889 3.653 7.983 5.2 13.332 7.985 5.332 4.159 11.222 7.957 16.85 11.736l3.335 2.127c9.082 4.342 16.236 3.84 26.207 4.106 4.109.056 7.931-.144 12.02-.349 9.101.022 19.217.275 28.231.02 20.606-1.262 41.775 1.655 62.488-.003 7.155-.572 17.055-1.878 23.731-.188 14.869.437 29.749.389 44.616-.146 57.511 3.259 116.475-1.691 173.859 2.399 13.194 7.383 40.433 25.076 49.277 36.635 11.721 15.318 28.604 36.326 37.922 52.528 34.832 60.558 57.709 125.419 81.742 190.646 8.556 23.222 15.991 47.808 22.698 71.675 9.368 27.232 9.987 50.501 15.269 78.051 5.175 26.984 10.675 50.864 12.135 78.808.78 14.898 5.88 32.116 7.13 47.195 3.73 50.642 4.35 101.49 6.45 152.198.41 10.079-1.21 47.311 1.94 54.15v65.383c-2.83 7.32-1.79 29.32-2.07 38.39l-2.17 81.43c-.82 24.79-2.13 49.56-3.95 74.29-1.33 16.05-5.45 34-7.78 50.15-.93 6.42-2.77 28.02-4.68 32.96-10.4 26.92-10.306 53.5-15.14 81.63-1.562 9.09-5.576 19.15-7.44 28.3-13.756 59.71-34.323 120.52-59.997 176.21-7.961 17.27-17.903 31.72-27.34 47.93-4.261 7.31-8.29 18.67-12.967 27.09a264.2 264.2 0 0 1-66.342 78.69c-11.152 8.9-16.877 16.84-32.13 17.31-57.242 1.76-114.82-1.15-172.003 2.17-6.124.48-20.576 0-27.56.01-21.938-1.35-43.951-3.55-65.957-2.9-8.929.27-17.866.37-26.795.16q-17.208.57-34.425.69l-10.864-.34c-3.594.13-17.607.23-19.982.99l-.918-.45c-6.714 5.83-10.288 8.78-17.329 13.63-7.15 4.92-27.236 15.86-32.269 21.36-3.096 1.4-3.49 1.51-6.947 1.33-7.014-7.65-17.1-16.61-22.542-24.83-2.658-.92-4.761-2-6.746-4.03-13.337-13.61-24.732-43.66-24.121-62.63.837-25.99 23.337-30.81 42.37-41.33 5.915-3.27 11.349-7.64 16.268-12.26 71.304-66.91 106.716-222.64 124.032-317.67 3.147-17.27 7.221-34.58 9.46-52 3.611-28.07 2.855-57.52 4.627-85.83 1.147-18.33 3.593-36.64 5.056-54.96 1.691-21.18 2.436-42.59 3.167-63.82 6.069-87.803 2.024-177.272-2.559-264.985-1.903-8.288-1.463-19.742-3.343-27.172-5.838-23.076-3.311-64.351-10.54-85.577-4.763-16.482-6.881-25.57-10.093-42.56-3.624-15.048-7.575-30.604-10.681-45.714l-3.918-15.164-1.367-4.782c-5.732-19.685-9.215-39.251-15.494-59.286-6.239-19.912-13.418-36.703-20.893-55.971-19.274-49.677-39.92-92.745-86.678-122.792-24.126-15.503-41.516-3.653-60.216-28.798-8.804-9.752-17.214-26.755-20.721-39.588a23.2 23.2 0 0 1-2.186-8.39c-1.104-16.843 11.246-53.028 21.969-65.403 1.678-5.143 14.745-18.348 19.262-21.837 3.239-3.123 4.206-4.274 8.275-6.052l1.818-.803c8.973-8.434 19.032-18.364 28.437-26.044m241.41 212.312c14.066-.703 29.35-.579 43.557-.846-10.019-19.147-17.652-44.528-28.108-64.092-8.768-16.407-12.421-13.654-29.749-13.092-8.119 12.017-8.937 13.947-13.022 27.951 7.753 13.117 10.74 23.317 17.282 36.473 3.511 5.885 4.915 8.881 10.04 13.606m191.611 864.666c17.897.57 38.319.99 56.236.14 4.787-2.84 5.529-19.2 5.808-25.17 2.396-51.24 7.301-105.29 6.581-156.49-11.57-.18-45.322.63-54.601-.37-3.06 4.59-1.593 21.94-1.92 28.51-1.2 24.15-1.482 48.4-2.945 72.54-2.12 26.52-7.772 54.13-9.159 80.84m12.305-317.091c16.825 1.375 39.069.808 56.376.832a3125 3125 0 0 0-3.69-120.003c-.765-14.172-1.881-40.377-3.879-53.893-17.88-.77-41.459.869-58.019-.825-3.019 10.184 4.905 44.822 5.552 57.185 2.014 38.475 4.532 78.255 3.66 116.704M608.707 1539.3c16.058.47 32.122.7 48.187.7 4.089-3.71 7.541-25.82 9.84-32.5 13.154-38.25 22.973-77.35 33.399-116.37 2.921-11.05 4.589-29.99 7.092-42.32-14.308-.14-30.98.53-44.758.07-14.569 47.6-23.927 98.5-39.122 146.27-4.764 14.97-10.146 28.76-14.638 44.15m106.113.19c16.428.79 39.885 1.06 56.304.17 11.172-21.45 19.563-49.69 24.713-73.4 2.324-10.7 5.416-30.85 8.856-40.13 2.996-4.99 3.679-6.27 2.632-11.82-17.914-8.49-25.697-45.33-23.827-63.54-.227-1.21-.734-1.56-1.562-2.5-4.824-.45-8.421-.46-13.222-.45-8.598 25.09-10.587 51.97-17.255 75.86a1910 1910 0 0 1-23.302 74.78c-5.377 16.09-8.833 23.58-13.337 41.03m-17.579 167.26c7.133-12.41 48.911-85.66 46.79-94.91-5.894-2.14-33.022-.85-40.63-.36-6.149.56-11.438.85-17.609 1.04-10.107 19.59-19.798 39.48-29.092 59.49-3.363 7.23-20.936 28.68-20.846 34.47 5.655 1.14 31.602.61 38.896.57 6.607.03 16.164.33 22.491-.3m167.291-277.02-1.378 11.86c-1.373 11.83-6.447 20.96-10.033 32.17l-20.558 65.48c12.434 1.19 34.078 1.05 46.416.09 8.806-13.58 14.591-51.91 21.793-68.93 2.183-5.15 2.513-18.89 4.741-24.91 3.852-10.42 7.159-18.85 9.046-29.82 1.316-6.62 3.568-11.74 4.115-18.93-9.615 14.91-35.585 34.89-54.142 32.99M728.924 470.076c1.941 22.529 15.122 50.102 21.279 73.333 8.267 31.194 12.607 65.626 22.867 96.111.351 1.042 6.079 1.652 7.349 1.819 4.939-.055 6.815.348 10.509-2.675-15.24-36.311-10.188-58.595 13.581-88.226 1.117-3.843-.807-9.612-1.789-13.723-5.006-18.626-8.728-47.756-16.307-64.577-16.648-1.459-44.252.108-57.489-2.062m25.943 1238.094c11.399-3.04 28.917 1.16 41.346-1.26l.615-.12c13.193-2.6 45.03-69.47 50.607-81.95 1.351-3.02 2.487-9.44 2.672-12.93l-.904-1.4-.987.14c-9.089.02-41.24 1.34-47.198.4-6.25 28.18-23.381 54.25-39.089 78.26-2.89 4.42-8.711 12.91-8.028 18.21zm-63.52-1332.933c9.056.741 51.958 1.743 60.427.344-4.386-9.501-7.182-19.524-11.511-29.102-7.572-16.755-16.309-32.399-25.047-48.482-20.696-.802-40.119-.21-60.401-.872 5.234 10.588 9.757 21.462 14.84 32.225 6.497 13.758 17.192 31.69 21.692 45.887m266.365 684.533c-8.1 0-37.351.6-44.016-.36-1.949 7.16-.87 46.49-1.947 57.42-1.913 19.44-4.123 40.14-6.071 59.62a2597 2597 0 0 0-5.121 64.91c13.777.31 30.857 1.04 44.519.17 7.509-40 9.193-77.58 10.52-118.08.681-20.78 2.703-43.06 2.116-63.68M809.513 375.06c9.012.852 39.935 2.261 47.739.017-6.828-5.982-7.756-25.208-11.169-31.886-6.65-13.015-16.494-33.454-24.76-44.822-17.209-1.317-34.249.031-50.041-1.281 5.34 9.581 10.39 19.428 15.81 28.923 9.336 16.353 12.764 32.635 22.421 49.049M595.712 1610.5c-4.783.09-12.144-.2-16.363 1.48-4.66 11.73-9.598 22.51-14.179 33.75 8.077 9.29 17.799 41.18 28.186 42.08l1.486-1.68 20.872-45.52c5.87-13.11 8.759-15.2 11.989-29.97-10.055.78-21.785.15-31.991-.14M863.06 532.907c11.422-2.096 23.458 3.16 32.737 9.568a84.7 84.7 0 0 1 20.01 19.414c-.461-4.474-1.069-8.511-1.767-12.934-2.267-7.927-7.189-18.369-8.675-26.01-3.607-18.557-8.244-33.502-14.723-51.275-14.272-1.169-29.186-.107-43.889-.987a120.7 120.7 0 0 0 7.739 33.486c2.864 7.384 5.15 8.635 6.298 16.982.909 4.1 1.652 7.606 2.27 11.756m-155.402 108.7c1.611-3.379-1.088-15.074-1.627-19.429-5.885-47.606-20.457-93.746-33.323-139.796-.715-2.559-3.241-9.006-5.969-10.096-10.129-2.8-33.3-2.315-43.551-1.784l-1.241 1.97c5.897 25.881 16.505 53.953 22.689 80.32 5.404 23.038 10.633 46.01 16.157 69.041 1.71 6.177 2.021 13.684 3.493 19.922 13.863.111 30.058-.589 43.372-.148m27.737 418.403c-11.834-.16-35.906.6-46.254-.36-.204 21.91-.026 45.27-2.347 66.99-4.096 38.3-7.307 76.2-10.059 114.61 9.984.28 36.92 1.44 46.324.08 8.403-52.63 8.573-104.42 12.167-157.51.542-8 .6-15.8.169-23.81m.486-135.55c-.232-21.062-1.229-41.967-2.529-62.983-2.237-36.167-2.831-73.009-5.981-109.081-18.107-1.972-32.245-.329-49.037-1.669 5.207 58.584 11.176 114.627 10.435 173.439 9.071.639 38.616 1.647 47.112.294m166.233-173.672c3.687 59.783 13.015 112.953 10.505 173.361 9.342.486 37.23 1.823 45.144.368-.635-22.567-2.332-163.532-11.439-171.565-4.797-4.23-36.021-1.545-44.21-2.164"/><path fill="#501412" d="M349.588 164.342q5.36 1.088 10.704 2.247c6.134 2.574 20.782 10.769 24.476 12.045 4.889 3.653 7.983 5.2 13.332 7.985 5.332 4.159 11.222 7.957 16.85 11.736l3.335 2.127c9.082 4.342 16.236 3.84 26.207 4.106 4.109.056 7.931-.144 12.02-.349 9.101.022 19.217.275 28.231.02-2.217.809-3.213 1.058-5.149 2.369 2.903 2.871 7.703 3.479 11.153 5.783 3.528 2.356 14.6 13.831 15.432 18.134.073.38-.826 6.56-.933 7.26l-1.863-.62c4.124 5.434 9.418 2.847 13.643 7.965 11.769 14.255 6.695 41.505 13.222 50.93 2.497-3.34 1.325-7.806 3.71-9.843 5.025 4.084 4.359 17.01 13.462 22.069.636.353-.851 3.503 1.282 4.741l2.529-2.349 1.246 2.259c-.778 1.271-.984 1.225-2.276 2.03 2.239 3.303 5.667 5.767 5.534 9.576-.274 7.8 2.737 15.241 9.313 20.545-2.8 12.192 7.46 23.027 6.671 26.657l-2.535-1.724c-1.034 2.642-.759 3.342-.253 6.178 2.185 3.283 8.109 7.626 8.514 9.662l-.997 1.093 2.038 1.005 1.455-.508.101-1.562.598-.03c-.126 3.347-.787 5.266.637 7.805l1.062-.621.938-4.387 5.121 14.283-.508.865-2.857-.849c-.162 3.855 7.861 12.073 9.524 15.924 7.175 16.623 10.651 37.461 18.264 53.374-.713 1.255-.606 1.357-1.874 1.974.514 5.676 4.493 9.742 4.619 12.145.596 11.318 1.1 25.86 2.29 37.07.533 5.022 6.767 19.191 8.222 26.477 1.875 9.398 3.001 17.679 4.4 26.8.434 2.829 7.904 11.5 9.527 18.33l.144.592c2.981 12.717-3.574 23.947 5.65 41.639l.873-5.299 1.265.207c.358 1.429.506 2.394 1.719 3.364l-1.024 2.059 1.372 1.525.989-1.206c3.429 4.816-1.106 14.696 3.062 20.944l1.415-.001c.973-2.222 1.804-4.335 3.103-6.386 2.588 29.995 4.242 60.035 6.195 90.122.33 5.077 2.32 9.72 2.52 14.881 1.023 26.446.051 53.246.083 79.721l1.095 116.595c.174 20.955 6.813 45.975 4.947 68.024-.654 7.72-3.699 14.06-3.801 21.7-.442 64.22-1.691 128.72-3.403 192.92-.428 16.02-3.78 34.84-4.739 51.17-.287 4.88.906 11.39.765 16.37-.114 4.01-9.639 15.54-9.7 18.87-.24 13.34 4.579 19.02-4.634 30.74-4.942 7.46.872 8.24-6.497 13.74-3.677 5.2-6.937 29.63-9.472 38.49-1.216 4.25-9.539 21.65-9.542 22.54-.029 8.01-.485 18.78-3.067 29.16-4.085 16.42-3.937 37.94-10.663 53.76-.836-3.16-.274-13.84.056-17.33-1.184.1-1.408.23-2.517-.29-2.214 4.66.398 3.97-2.72 10.19-7.007 13.98-1.896 37.8-9.358 52.42-3.091-3.41-1.264-4.81.008-8.22 2.253-6.04-1.56-8.3 1.989-15.39l-1.913.63-1.438-1.66-1.133.31c-4.299 10.98-7.53 25.2-10.656 36.86l3.465 1.01-2.559-1.07 2.253-.9c.151 1.56 1.428 4.46 1.217 4.85-4.815 8.87-8.139 27.95-14.962 34.74l-.892-.08c.114-.65.759-4.56.886-4.9l-1.781-.24c-5.118 5.84-2.178 19.49-8.132 25.39l2.013.77c-.69 3.71-1.771 2.57-.827 6.62 1.106 4.75 1.281 8.09-1.004 12.62l-1.516-1.76c-1.618.77-1.691.98-2.941 2.19l-5.209 1.13c-2.045 5.16 2.015 8.17-5.286 17.19l.302-.8c-2.297 4.27-1.331 4.8-2.538 8.8l2.889.22c-.233 3.95-20.087 35.92-23.414 41.34-3.131 5.1-3.969 13.52-8.293 18.71-1.827-2.55 1.51-11.88-.694-12.55-3.227 5.25-8.369 13.6-12.269 18.22a295 295 0 0 0 5.223 4.38c-4.098-1.96-3.368-2.38-7.213-1.86-2.418 3.1-1.761 1.63-2.394 5.61l1.263-1.02 2.088.9c-2.558 1.21-3.611 3.24-5.219 5.51l-.969-2.71c-4.239 2.54-9.842 4.91-11.988 8.63l2.054 1.64c-4.181 2.45-8.457-.21-11.53 1.65 6.156 7.45 13.071-4.35 16.879-5.17l1.005 1.04c-1.466 2.99-3.937 5.45-3.763 7.64l2.557.84q-17.208.57-34.425.69l-10.864-.34c-3.594.13-17.607.23-19.982.99l-.918-.45c-6.714 5.83-10.288 8.78-17.329 13.63-7.15 4.92-27.236 15.86-32.269 21.36-3.096 1.4-3.49 1.51-6.947 1.33-7.014-7.65-17.1-16.61-22.542-24.83-2.658-.92-4.761-2-6.746-4.03-13.337-13.61-24.732-43.66-24.121-62.63.837-25.99 23.337-30.81 42.37-41.33 5.915-3.27 11.349-7.64 16.268-12.26 71.304-66.91 106.716-222.64 124.032-317.67 3.147-17.27 7.221-34.58 9.46-52 3.611-28.07 2.855-57.52 4.627-85.83 1.147-18.33 3.593-36.64 5.056-54.96 1.691-21.18 2.436-42.59 3.167-63.82 6.069-87.803 2.024-177.272-2.559-264.985-1.903-8.288-1.463-19.742-3.343-27.172-5.838-23.076-3.311-64.351-10.54-85.577-4.763-16.482-6.881-25.57-10.093-42.56-3.624-15.048-7.575-30.604-10.681-45.714l-3.918-15.164-1.367-4.782c-5.732-19.685-9.215-39.251-15.494-59.286-6.239-19.912-13.418-36.703-20.893-55.971-19.274-49.677-39.92-92.745-86.678-122.792-24.126-15.503-41.516-3.653-60.216-28.798-8.804-9.752-17.214-26.755-20.721-39.588a23.2 23.2 0 0 1-2.186-8.39c-1.104-16.843 11.246-53.028 21.969-65.403 1.678-5.143 14.745-18.348 19.262-21.837 3.239-3.123 4.206-4.274 8.275-6.052l1.818-.803c8.973-8.434 19.032-18.364 28.437-26.044"/><path fill="url(#a)" d="m319.333 191.189 1.818-.803c7.956 1.002 25.664 2.665 31.69 7 12.581 3.964 20.041 9.419 30.788 16.029 25.313 15.57 40.57 35.638 56.964 59.81 7.749 11.426 17.348 22.892 23.307 35.713 6.532 14.958 42.887 88.103 43.852 97.861 5.654 11.103 13.958 39.727 18.154 53.18 11.182 35.856 30.436 87.696 34.629 124.223l.547 2.733c3.371 20.683 13.427 56.039 13.902 74.945 2.071 9.633 3.486 17.935 4.979 27.613 4.593 27.607 6.927 54.795 8.871 82.707 1.179 16.931 5.741 35.11 6.325 51.767 1.954 55.728 4.973 111.614 3.926 167.398-.266 14.145 1.778 43.895-.939 56.695-4.25-12.8 1.238-65.178-2.93-70.058l.759.266c-5.583.135-6.961 4.726-15.411 4.964-12.444.351-41.174 10.98-52.443 5.696l-2.137.566c-3.775 12.566-2.457 98.166-6.2 100.636-.487-1.7-.902-3.15-1.268-4.87 6.069-87.803 2.024-177.272-2.559-264.985-1.903-8.288-1.463-19.742-3.343-27.172-5.838-23.076-3.311-64.351-10.54-85.577-4.763-16.482-6.881-25.57-10.093-42.56-3.624-15.048-7.575-30.604-10.681-45.714l-3.918-15.164-1.367-4.782c-5.732-19.685-9.215-39.251-15.494-59.286-6.239-19.912-13.418-36.703-20.893-55.971-19.274-49.677-39.92-92.745-86.678-122.792-24.126-15.503-41.516-3.653-60.216-28.798-8.804-9.752-17.214-26.755-20.721-39.588a23.2 23.2 0 0 1-2.186-8.39c-1.104-16.843 11.246-53.028 21.969-65.403 1.678-5.143 14.745-18.348 19.262-21.837 3.239-3.123 4.206-4.274 8.275-6.052"/><path fill="#fe2209" d="M292.734 332.459c5.525-5.419 11.657-6.146 19.415-5.838 24.904.989 47.213 8.296 64.665 26.388 25.807 26.754 41.003 51.348 54.976 85.359 2.272 5.531 12.875 33.281 15.772 36.792 10.04 28.164 18.361 53.371 25.304 82.539 2.876 12.081 6.498 22.979 8.842 35.473l2.158 6.43c1.671 5.771 3.555 11.552 4.302 17.501 1.88 12.374 4.653 29.87 7.595 41.873-1.222 2.326-1.956 4.083-3.782 5.99-3.624-15.048-7.575-30.604-10.681-45.714l-3.918-15.164-1.367-4.782c-5.732-19.685-9.215-39.251-15.494-59.286-6.239-19.912-13.418-36.703-20.893-55.971-19.274-49.677-39.92-92.745-86.678-122.792-24.126-15.503-41.516-3.653-60.216-28.798"/><path fill="#fe8266" d="M447.562 475.16c4.834-1.535 2.753-5.047 6.819-3.714 2.375 3.695 2.992 4.714 4.522 8.806l.846-.279c2.673-.863 3.602-1.297 6.332-.339 2.211 2.833 1.614 1.486 2.063 5.272-2.597 5.577-4.994 3.431-6.143 8.312 2.787 5.269 2.886 1.818 6.578 5.756-1.143 3.488-2.548 6.254-1.127 9.561l2.498-1.935 1.623 1.08a55 55 0 0 0-.276 4.494c13.708 10.458-.076 14.032.188 18.494l2.444-.167c.788 2.094 1.885 4.686 2.314 6.83-2.812 5.828-.172 7.325 1.852 13.213 2.12-3.396 1.972-4.06 1.601-8.065l1.32-1.038c-.898-.824 5.459 9.353 6.474 10.702-.453 12.051.941 12.974 5.954 23.326.509 1.052-.765 16.501-1.13 18.537l-1.58-4.018c-1.797 1.396-1.512 3.002-2.055 5.822l-.341-1.223.136 1.867-.381-2.366c-.468 7.121 2.313 2.593 2.34 9.535l-.786.597-1.659-1.874c-.668 1.838-.599 1.844-.621 3.701 2.416.903 2.749 1.009 5.319.926.258 1.607.721 4 .765 5.567l1.017-.736 1.45 1.774 2.465-3.81c1.786 1.377 2.125 3.355 3.111 5.734-.444 2.622-.837 4.665-1.455 7.263 3.57 3.365 2.336-1.284 5.517 3.804-3.897 1.399-5.228-2.458-9.521-.602-.045 3.107.753 4.171 2.176 6.846l.857.033 1.471-3.74c2.243-.59 1.208-.676 3.207-.047 1.008 3.061 2.052 11.383.682 14.28l-3.868 1.947c1.554 9.765 3.246 11.746-.218 20.282 7.833 5.247 5.397-1.546 11.063 4.573.733 3.975-.981 5.096-3.82 7.772.833 4.508 2.982 14.82 3.052 19.322.049 3.153-5.659 4.539-.831 8.36q2.787-.42 5.558-.928c.223.561 2.896 7.238 2.907 7.331.456 3.756-4.027 6.447.254 8.812 4.012-3.385.439-4.311 4.681-8.002l1.394.705c4.547 16.25 14.007 32.099-1.287 39.58-.038.019.082 7.295-.265 8.125-3.206 7.114-8.95 11.13-8.945 18.951.004 7.702 6.659 35.781 2.992 40.449l-1.138-.343c-1.903-8.288-1.463-19.742-3.343-27.172-5.838-23.076-3.311-64.351-10.54-85.577-4.763-16.482-6.881-25.57-10.093-42.56 1.826-1.907 2.56-3.664 3.782-5.99-2.942-12.003-5.715-29.499-7.595-41.873-.747-5.949-2.631-11.73-4.302-17.501l-2.158-6.43c-2.344-12.494-5.966-23.392-8.842-35.473-6.943-29.168-15.264-54.375-25.304-82.539"/><path fill="#fe2209" d="M495.763 658.976c4.85 18.416 7.368 29.103 6.311 48.55-4.763-16.482-6.881-25.57-10.093-42.56 1.826-1.907 2.56-3.664 3.782-5.99"/><path fill="#fe8266" d="M291.796 219.078c7.158 5.581 1.01 14.208 2.63 16.555 5.332 4.165-3.461 4.9-3.05 10.733.273 3.872 2.923 10.857.386 13.4-8.006 8.027-8.269 2.836-8.234 14.683l2.31-1.822 1.068.28c.569 3.195-2.657 12.778-3.739 16.529-3.464 2.059-6.072.64-9.589-.712l-.784 1.187.503 2.19-1.284.77a23.2 23.2 0 0 1-2.186-8.39c-1.104-16.843 11.246-53.028 21.969-65.403M352.841 197.386c12.581 3.964 20.041 9.419 30.788 16.029 25.313 15.57 40.57 35.638 56.964 59.81 7.749 11.426 17.348 22.892 23.307 35.713 6.532 14.958 42.887 88.103 43.852 97.861l-.768 1.615c-4.032-7.134-6.482-17.382-10.567-25.255l-.663 2.313c-2.045.236-3.462-.898-5.623-1.908l.143-1.096 4.081-2.899c.435-3.719-8.212-19.294-10.411-23.04l-2.865.338-.493-2.578 1.652-.757c.325-1.998-16.173-35.662-18.138-40.137-2.028-4.62-10.946-20.266-14.625-24.519-6.431-7.435-16.773-15.14-22.784-23.219l.511-1.383 3.388-1.489c-.532-3.06-7.796-11.583-10.384-13.162l-2.701 3.302c-1.602-1.699 1.421-2.416.99-6.826-1.735-2.317-5.568-7.812-8.128-8.346-3.631-.756-9.473-5.304-12.218-5.433-.698 1.027-.972 1.55-1.897 2.388l-.8-1.916 2.318-4.264c-.043-3.001.399-1.813-2.219-4.425-8.19 2.041-6.538 1.321-12.415-3.888-4.779-4.236-11.458-11.977-18.055-11.35l-.632 1.858 1.556 2.964c1.939.248 2.638.403 4.518.937-1.922 1.55-5.709 2.291-8.248 2.997-2.707-.813-3.249-2.343-4.862-3.696-.664-.556-1.711 1.019-4.961-1.168.011-3.428 5.33-2.513 7.145-6.489.291-.636 1.595-2.771 2.055-3.568-4.492-2.319-5.091-.974-8.322-4.734zM574.984 661.88c2.071 9.633 3.486 17.935 4.979 27.613-1.261-1.691-2.077-2.191-3.909-3.224-4.254-5.919-1.716-16.596-1.07-24.389M311.058 197.241c3.239-3.123 4.206-4.274 8.275-6.052l4.036 1.211c-.982 3.791-.485 4.93-3.067 6.568l-.896-.347c-3.706-1.411-4.432-1.527-8.348-1.38M560.535 584.202l.547 2.733c-3.056 2.446-2.066 3.653-5.184 3.875.172-3.624 1.908-4.484 4.637-6.608M338.068 195.625c2.964.932 4.614 2.295 5.904 4.952-.215 3.551-2.646 5.559-5.08 8.249l-5.121-1.347-.044-1.367c2.441-3.701 3.021-6.24 4.341-10.487M563.191 650.242c1.629 1.401 3.335 3.337 5.329 3.942l.711 1.674-1.587 1.531c-1.862 1.309-1.597 1.601-3.386 1.533.522-3.985.569-5.001-1.067-8.68M319.779 203.493c2.08 1.571 3.004 2.174 4.642 4.269l-1.452 3.383c-1.454.574-1.671.384-3.201.11-1.362-3.343-.641-3.602.011-7.762M496.771 419.646c2.637 3.864 4.497 6.172 7.751 9.49-2.536-.465-3.443-.86-5.871-1.792-2.328-3.374-1.602-2.986-1.88-7.698M283.575 293.258l1.692.66c1.788 2.607 1.167 5.955.983 9.191-1.214-4.15-1.096-4.931-4.241-8.072z"/><path fill="#fe2209" d="M518.516 1085.26c.366 1.72.781 3.17 1.268 4.87 3.743-2.47 2.425-88.07 6.2-100.636l2.137-.566c11.269 5.284 39.999-5.345 52.443-5.696 8.45-.238 9.828-4.829 15.411-4.964l-.759-.266c4.168 4.88-1.32 57.258 2.93 70.058-.364 32.2-1.466 66.54-4.168 98.56-10.307 122.16-26.783 244.83-67.388 361.06-32.677 93.54-71.81 207.64-160.91 261.72-5.583 3.39-17.142 7.12-21.277 10.39-2.658-.92-4.761-2-6.746-4.03-13.337-13.61-24.732-43.66-24.121-62.63.837-25.99 23.337-30.81 42.37-41.33 5.915-3.27 11.349-7.64 16.268-12.26 71.304-66.91 106.716-222.64 124.032-317.67 3.147-17.27 7.221-34.58 9.46-52 3.611-28.07 2.855-57.52 4.627-85.83 1.147-18.33 3.593-36.64 5.056-54.96 1.691-21.18 2.436-42.59 3.167-63.82"/><path fill="#f6f5f5" d="M349.588 164.342q5.36 1.088 10.704 2.247c6.134 2.574 20.782 10.769 24.476 12.045 4.889 3.653 7.983 5.2 13.332 7.985 5.332 4.159 11.222 7.957 16.85 11.736l3.335 2.127c13.363 12.477 27.779 32.192 40.423 46.025 6.831 7.474 12.875 21.317 19.052 29.76 26.004 38.787 41.692 79.778 58.58 122.819 12.052 30.716 19.736 55.044 28.554 86.753 16.017 57.599 32.814 114.953 43.134 174.027 5.107 29.234 4.618 62.615 8.094 92.262 3.794 33.773 7.817 69.327 8.973 103.15a3665 3665 0 0 1 1.375 199.982c-1.168 57.63-3.281 112.71-10.568 170.01-3.382 26.6-3.179 54.74-7.004 81.41-3.333 26.43-12.188 54.75-17.954 80.82-6.965 31.48-15.981 61.74-25.239 92.56-4.075 13.57-7.093 28.49-11.469 41.88-19.934 60.98-42.287 122.25-77.736 176.13-11.736 17.84-16.828 30.83-33.064 46.24-4.801 4.55-17.319 18.77-19.946 23.99-6.714 5.83-10.288 8.78-17.329 13.63-7.15 4.92-27.236 15.86-32.269 21.36-3.096 1.4-3.49 1.51-6.947 1.33-7.014-7.65-17.1-16.61-22.542-24.83 4.135-3.27 15.694-7 21.277-10.39 89.1-54.08 128.233-168.18 160.91-261.72 40.605-116.23 57.081-238.9 67.388-361.06 2.702-32.02 3.804-66.36 4.168-98.56 2.717-12.8.673-42.55.939-56.695 1.047-55.784-1.972-111.67-3.926-167.398-.584-16.657-5.146-34.836-6.325-51.767-1.944-27.912-4.278-55.1-8.871-82.707-1.493-9.678-2.908-17.98-4.979-27.613-.475-18.906-10.531-54.262-13.902-74.945l-.547-2.733c-4.193-36.527-23.447-88.367-34.629-124.223-4.196-13.453-12.5-42.077-18.154-53.18-.965-9.758-37.32-82.903-43.852-97.861-5.959-12.821-15.558-24.287-23.307-35.713-16.394-24.172-31.651-44.24-56.964-59.81-10.747-6.61-18.207-12.065-30.788-16.029-6.026-4.335-23.734-5.998-31.69-7 8.973-8.434 19.032-18.364 28.437-26.044"/><path fill="#c52e28" d="M418.285 200.482c9.082 4.342 16.236 3.84 26.207 4.106.891 2.046 2.251 4.298 1.736 6.33 8.625 18.892 18.308 24.425 29.088 39.642 11.954 16.873 24.78 35.396 35.855 52.966 4.649 7.374 13.361 23.959 17.094 32.32 1.04 2.329-.846 11.679 2.083 18.633 8.146 19.338 15.94 38.939 23.846 58.36 3.741 9.689 4.681 21.419 7.896 31.091 2.917 8.776 7.309 17.316 10.335 26.389 2.834 8.494 3.136 18.809 9.364 24.825 1.766 19.271 8.834 41.228 15.251 59.549 2.15 6.136 2.01 22.803 6.587 25.928l1.823-2.287c.848 1.107 7.185 50.51 7.175 56.011-.017 9.215 3.108 17.233 4.859 26.192 3.28 17.57 6 35.239 8.158 52.982 1.701 14.599 1.071 28.875 2.154 43.422.534 7.18 2.178 10.853 2.681 18.932l.093-.578c.358-2.09.294-2.323 1.53-3.937 1.652 2.429 1.861 5.349 2.077 8.216 2.288 30.296 1.668 61.103 2.716 91.489 1.266 36.674 4.024 73.369 4.596 110.046.184 11.793.535 43.831-1.48 54.171-2.546 13.07-1.323 28.08-1.759 41.47-.181 5.54-.064 11.21-.554 16.72-.314 3.54-1.398 6.77-1.451 10.38-.434 29.28.715 58.87-.637 88.1-.462 9.98-6.032 18.14-7.222 27.86-1.098 8.96-1.035 18.17-1.551 27.18-1.135 19.84-2.463 40.28-4.915 60.01-1.458 11.73-7.095 23.09-8.669 34.61-3.143 23.02-1.033 62.83-16.736 80.62-.422 3.55-.991 13.07-2.891 15.3-1.773-1.3-1.216-.62-1.88-3.04-7.172 21.44-13.317 41.74-18.654 63.74-1.22 5.04-3.913 10.43-4.574 15.34-1.282 9.52.343 29.02-6.202 36.48-2.2-2.36-1.221-7.55-.111-10.41l-.536-.94c-3.842 9.1-3.046 20.19-6.089 29.56-4.52 13.94-15.239 29.21-20.232 42.34-16.199 42.6-38.651 80.14-64.668 117.38-6.079 8.75-22.88 25.74-23.741 35.4-1.787 2.21-2.325 2.87-5.805 3.31l3.258 1.07c-3.594.13-17.607.23-19.982.99l-.918-.45c2.627-5.22 15.145-19.44 19.946-23.99 16.236-15.41 21.328-28.4 33.064-46.24 35.449-53.88 57.802-115.15 77.736-176.13 4.376-13.39 7.394-28.31 11.469-41.88 9.258-30.82 18.274-61.08 25.239-92.56 5.766-26.07 14.621-54.39 17.954-80.82 3.825-26.67 3.622-54.81 7.004-81.41 7.287-57.3 9.4-112.38 10.568-170.01a3665 3665 0 0 0-1.375-199.982c-1.156-33.823-5.179-69.377-8.973-103.15-3.476-29.647-2.987-63.028-8.094-92.262-10.32-59.074-27.117-116.428-43.134-174.027-8.818-31.709-16.502-56.037-28.554-86.753-16.888-43.041-32.576-84.032-58.58-122.819-6.177-8.443-12.221-22.286-19.052-29.76-12.644-13.833-27.06-33.548-40.423-46.025"/><path fill="#270a08" d="M641.404 1367.36c-.115-7.01 5.077-29.68 7.274-37.25.992-3.42-1.168-4.57.741-8.04 2.24 5.63-1.304 23.55-1.498 30.64l-.02.91c-4.942 7.46.872 8.24-6.497 13.74"/><path fill="#070000" d="M565.048 345.108c-.063-3.437-2.052-16.186-1.372-18.533 7.753 13.117 10.74 23.317 17.282 36.473-.418.414-1.673 1.156-2.234 1.516-2.277-3.29-3.403-7.093-4.457-10.919-2.077-7.537-3.736-2.554-9.219-8.537"/><path fill="#f6f5f5" d="M768.714 1347.82c6.187-22.64 24.433-50.86 44.85-62.58 15.464-8.89 44.489-16.18 61.749-9.79 38.669 14.32 64.351 38.53 63.917 80.55-.745 19.73-3.129 39.24-17.756 55.11-1.651 1.79-5.256 3.27-6.915 4.56 1.316-6.62 3.568-11.74 4.115-18.93-9.615 14.91-35.585 34.89-54.142 32.99l-1.378 11.86c-15.296.81-27.301-.74-41.694-6.5-6.633-2.65-10.551-5.98-16.767-8.96 2.996-4.99 3.679-6.27 2.632-11.82-17.914-8.49-25.697-45.33-23.827-63.54-.227-1.21-.734-1.56-1.562-2.5-4.824-.45-8.421-.46-13.222-.45"/><path fill="#8c1b13" d="M768.714 1347.82c6.187-22.64 24.433-50.86 44.85-62.58 15.464-8.89 44.489-16.18 61.749-9.79 38.669 14.32 64.351 38.53 63.917 80.55-1.645-4.24-4.761-11.1-9.796-10.94l-1.721 3.06c-4.713-22.58-16.829-36.83-35.233-49.89-29.54-20.95-78.508-9.47-97.07 21.1-5.262 8.66-10.785 21.27-11.912 31.44-.227-1.21-.734-1.56-1.562-2.5-4.824-.45-8.421-.46-13.222-.45M807.325 1414.31c10.781 5.04 21.102 10.43 32.826 12.7 4.72.92 21.28 1.55 24.381 2.72l-1.378 11.86c-15.296.81-27.301-.74-41.694-6.5-6.633-2.65-10.551-5.98-16.767-8.96 2.996-4.99 3.679-6.27 2.632-11.82"/><path fill="#c52e28" d="m927.713 1348.12 1.721-3.06c5.035-.16 8.151 6.7 9.796 10.94-.745 19.73-3.129 39.24-17.756 55.11-1.651 1.79-5.256 3.27-6.915 4.56 1.316-6.62 3.568-11.74 4.115-18.93.362-1.84 3.73-8.89 4.592-11.52 4.317-13.18 5.67-23.37 4.447-37.1"/><path fill="url(#b)" d="M825 1304.15c23.208-13.11 52.227-9.74 71.806 8.35s25.237 46.76 13.999 70.93c-11.183 24.05-36.556 38.19-62.894 35.05-26.337-3.14-47.673-22.86-52.885-48.86-5.212-26.01 6.88-52.42 29.974-65.47"/><path fill="#fe8266" d="M825 1304.15c23.208-13.11 52.227-9.74 71.806 8.35s25.237 46.76 13.999 70.93c-1.04-1.29-.715-1.1-.945-3.04-2.414-1.85-5.073-9.81-6.765-13.39-9.264-18.59-30.227-35.67-46.994-47.24-4.369-3.02-25.964-13.71-31.101-15.61"/><path fill="#f6f5f5" d="M860.79 521.151c.909 4.1 1.652 7.606 2.27 11.756 11.422-2.096 23.458 3.16 32.737 9.568a84.7 84.7 0 0 1 20.01 19.414c-.461-4.474-1.069-8.511-1.767-12.934 4.823.36 6.751 1.342 10.207 5.694 14.915 18.779 15.78 41.637 13.909 64.549-.482 5.901-.695 11.315-3.778 16.258l-2.808-5.254-2.015-.601c-1.036.654-2.84 1.69-3.63 2.489-.473 4.02-1.39 5.055.451 7.677 2.319.485 4.72 1.025 7.046 1.426-12.56 20.391-42.797 43.407-66.906 46.695-25.425 3.467-53.251-4.671-70.417-24.191-3.456-3.93-13.755-21.115-15.68-22.358 4.939-.055 6.815.348 10.509-2.675-15.24-36.311-10.188-58.595 13.581-88.226 1.117-3.843-.807-9.612-1.789-13.723 3.312-.893 15.213-10.575 25.779-12.899 8.587-1.889 28.501-.994 32.291-2.665"/><path fill="#8c1b13" d="M925.925 632.09c-.473 4.02-1.39 5.055.451 7.677 2.319.485 4.72 1.025 7.046 1.426-12.56 20.391-42.797 43.407-66.906 46.695-25.425 3.467-53.251-4.671-70.417-24.191-3.456-3.93-13.755-21.115-15.68-22.358 4.939-.055 6.815.348 10.509-2.675 18.7 35.915 71.382 47.295 103.455 24.496 10.985-7.808 25.538-18.812 31.542-31.07"/><path fill="#c52e28" d="M914.04 548.955c4.823.36 6.751 1.342 10.207 5.694 14.915 18.779 15.78 41.637 13.909 64.549-.482 5.901-.695 11.315-3.778 16.258l-2.808-5.254-2.015-.601c-1.036.654-2.84 1.69-3.63 2.489 6.876-21.04-.104-50.997-10.118-70.201-.461-4.474-1.069-8.511-1.767-12.934"/><path fill="#8c1b13" d="M860.79 521.151c.909 4.1 1.652 7.606 2.27 11.756-20.278 1.905-42.206 3.073-58.551 17.531 1.117-3.843-.807-9.612-1.789-13.723 3.312-.893 15.213-10.575 25.779-12.899 8.587-1.889 28.501-.994 32.291-2.665"/><path fill="url(#c)" d="M795.029 602.601a42 42 0 0 1 .08-5.031c1.145-16.061 6.16-28.649 18.725-39.232 17.488-14.731 34.304-14.508 55.57-12.656 12.903 1.314 25.771 10.475 33.827 20.402 18.38 22.447 14.318 55.517-.795 78.394-13.534 20.486-34.43 23.462-56.989 20.76-34.362-4.116-51.421-30.681-50.418-62.637"/><path fill="#fe2209" d="M795.029 602.601a42 42 0 0 1 .08-5.031c1.145-16.061 6.16-28.649 18.725-39.232 17.488-14.731 34.304-14.508 55.57-12.656-3.209.573-6.887 1.184-10.105 1.436-8.638.738-11.916-2.107-17.28 6.128-3.693 5.668-11.864 18.231-17.234 20.992-17.47 8.982-25.352-2.273-27.417 25.276z"/><path fill="#f6f5f5" d="M585.963 1795.13a73.3 73.3 0 0 1 16.149.04c38.706 4.37 67.247 38.23 65.012 77.11-2.235 38.89-34.468 69.26-73.42 69.17s-71.046-30.6-73.104-69.5 26.638-72.62 65.363-76.82m54.28 122.48c2.738-5.96 5.152-8.73 3.909-14.32a60.5 60.5 0 0 1-17.601 16.86c6.885 1.81 7.023.86 13.692-2.54"/><path fill="url(#d)" d="M626.551 1920.15c-26.304 16.55-60.859 10.5-79.978-14-19.118-24.49-16.594-59.48 5.841-80.98s57.502-22.53 81.159-2.38c23.658 20.14 28.228 54.92 10.579 80.5a60.5 60.5 0 0 1-17.601 16.86"/><path fill="#f4ecee" fill-opacity=".765" d="M626.551 1920.15a60.5 60.5 0 0 0 17.601-16.86c1.243 5.59-1.171 8.36-3.909 14.32-6.669 3.4-6.807 4.35-13.692 2.54"/><path fill="#f6f5f5" d="M575.018 176.108c-36.674-6.996-62.245-40.419-59.406-77.646 2.84-37.228 33.186-66.385 70.497-67.737s69.687 25.533 75.213 62.458c5.527 36.924-17.559 72.11-53.631 81.741a73.36 73.36 0 0 1-32.673 1.184"/><path fill="#fe2209" d="M596.332 164.05c-2.665.646-5.02.84-7.807.771-62.607-1.543-83.954-82.877-29.977-114.799 7.785-4.604 18.937-4.325 27.884-4.244 10.555-.217 22.357-1.012 31.579 4.264 46.327 26.499 40.949 95.658-11.52 111.779-3.754 1.153-6.231 2.059-10.159 2.229"/><path fill="#fe8266" d="M596.332 164.05c-2.665.646-5.02.84-7.807.771-62.607-1.543-83.954-82.877-29.977-114.799 7.785-4.604 18.937-4.325 27.884-4.244-7.92 3.312-11.393 2.633-19.847 2.167.452 12.72-5.623 18.526-5.706 26.047-.236 21.44-3.179 62.89 4.016 82.617 1.489 4.082 25.246 7.106 31.437 7.441"/><path fill="#fe8266" fill-opacity=".314" d="m444.39 1767.76 10.864.34c-2.36.26-14.372 1.15-15.505 2.33.343 6.04 1.37 10.41-3.056 15.25-13.217 14.45-31.261 28.61-50.458 33.47-7.078 1.79-15.706-12.68-19.29-14.53 3.457.18 3.851.07 6.947-1.33.609 3.39.087 4 2.208 5.92 17.253.24 34.478-14.49 47.169-24.96 11.158-9.21 3.443-8.95 1.139-15.5 2.375-.76 16.388-.86 19.982-.99"/><path fill="#fe8266" fill-opacity=".239" d="M362.845 165.796c6.624-14.47 21.882-12.599 34.314-6.313 18.355 9.28 33.024 18.43 41.512 38.062-.442 3.284-.011 2.029-2.571 4.985 3.497 1.306 15.733 1.402 20.412 1.709-4.089.205-7.911.405-12.02.349-9.971-.266-17.125.236-26.207-4.106l-3.335-2.127c5.174-4.676 5.067-.323 9.476-4.407l.041-2.094c-5.509-9.231-36.16-28.182-47.891-31.379-3.935-1.072-9.632 3.127-13.731 5.321"/><path fill="#fe8266" fill-opacity=".035" d="M370.942 147.479c7.041 3.413 13.976 1.03 21.613 2.73 13.998 3.116 46.298 24.081 50.754 37.844-.581 1.127-.587 1.655-1.5 2.142l1.133.044c1.436 2.672 2.885 4.711 3.012 7.681-2.517 3.144-5.387 3.267-9.854 4.61 2.56-2.956 2.129-1.701 2.571-4.985-8.488-19.632-23.157-28.782-41.512-38.062-12.432-6.286-27.69-8.157-34.314 6.313l-2.553.793a813 813 0 0 0-10.704-2.247c.681-3.771 5.446-7.362 8.266-9.81 9.887-2.574 4.674 4.964 13.088-7.053"/><path fill="url(#e)" d="M362.845 165.796c4.099-2.194 9.796-6.393 13.731-5.321 11.731 3.197 42.382 22.148 47.891 31.379l-.041 2.094c-4.409 4.084-4.302-.269-9.476 4.407-5.628-3.779-11.518-7.577-16.85-11.736 1.112-.354 1.667-.823 2.661-1.453l-.375-1.708c-4.772-3.767-9.576-5.534-15.618-4.824-3.694-1.276-18.342-9.471-24.476-12.045z"/><path fill="url(#f)" d="m423.49 1768.3.918.45c2.304 6.55 10.019 6.29-1.139 15.5-12.691 10.47-29.916 25.2-47.169 24.96-2.121-1.92-1.599-2.53-2.208-5.92 5.033-5.5 25.119-16.44 32.269-21.36 7.041-4.85 10.615-7.8 17.329-13.63"/><path fill="#fe2209" fill-opacity=".259" d="M582.431 1770.15c6.984-.01 21.436.47 27.56-.01-2.641 7.15 5.615 16.63-1.126 21.13-2.897 1.94-7.401-.37-8.958 2.04l2.205 1.86a73.3 73.3 0 0 0-16.149-.04c-.231-1.74-.055-1.13-1.727-2.59-2.799.1-3.525.31-6.108-.77-2.715-4.35-1.115-5.29 1.668-8.38l-2.236-2.65c1.487-3.23 13.998-1.03 19.162-5.77l-.104-1.62c-2.511-1.87-10.034-2.33-14.187-3.2m14.136 19.99c3.484-1.28 4.202-1.43 6.613-4.33l.244-1.94c-2.786-2.46-1.768-1.75-5.661-2.49-2.682 2.04-5.081 3.86-7.624 6.08l.323 1.31c2.548.8 3.458 1.04 6.105 1.37"/><path fill="#fe2209" fill-opacity=".314" d="M597.763 1781.38c3.893.74 2.875.03 5.661 2.49l-.244 1.94c-2.411 2.9-3.129 3.05-6.613 4.33-2.647-.33-3.557-.57-6.105-1.37l-.323-1.31c2.543-2.22 4.942-4.04 7.624-6.08"/><path fill="#010000" fill-opacity=".286" d="M573.08 190.88c4.036 1.828 25.898 2.336 31.089.542l1.939-6.776c.482 5.555-.748 15.083.409 17.019 3.142 2.271 5.438 1.263 9.061 2.257a683 683 0 0 1-44.616.146c2.68-4.582 1.8-8.631 2.118-13.188"/><path fill="#fe2209" fill-opacity=".522" d="M599.092 176.677a73 73 0 0 0 8.599-1.753c-1.946 4.572.945 4.747-1.583 9.722l-1.939 6.776c-5.191 1.794-27.053 1.286-31.089-.542-1.351-7.944-1.864-8.865 1.938-14.772 2.917.556 5.864.935 8.826 1.134-1.127 3.423-1.418 2.485-.228 4.914 8.006 2.502 10.384-2.324 15.476-5.479"/><path fill="#fe2209" fill-opacity=".541" d="M583.844 177.242a73.4 73.4 0 0 0 15.248-.565c-5.092 3.155-7.47 7.981-15.476 5.479-1.19-2.429-.899-1.491.228-4.914"/><path fill="#fe8266" fill-opacity=".235" d="M384.768 178.634c6.042-.71 10.846 1.057 15.618 4.824l.375 1.708c-.994.63-1.549 1.099-2.661 1.453-5.349-2.785-8.443-4.332-13.332-7.985"/><path fill="#fe8266" fill-opacity=".024" d="M357.854 154.532c3.99-1.225 9.705-4.557 13.088-7.053-8.414 12.017-3.201 4.479-13.088 7.053"/></svg>