<svg xmlns="http://www.w3.org/2000/svg" width="256" height="492" preserveAspectRatio="none" style="display:block" viewBox="0 0 1024 1968"><defs><linearGradient id="f" x1="397.288" x2="409.712" y1="1782.56" y2="1793.44" gradientUnits="userSpaceOnUse"><stop class="stop0" offset="0" stop-color="#ffb3fa" stop-opacity=".333"/><stop class="stop1" offset="1" stop-color="#ffb0ff" stop-opacity=".392"/></linearGradient><linearGradient id="e" x1="397.075" x2="405.697" y1="186.233" y2="172.958" gradientUnits="userSpaceOnUse"><stop class="stop0" offset="0" stop-color="#feb4fb" stop-opacity=".239"/><stop class="stop1" offset="1" stop-color="#ffaffd" stop-opacity=".333"/></linearGradient><linearGradient id="d" x1="651.197" x2="535.755" y1="1868.89" y2="1866.09" gradientUnits="userSpaceOnUse"><stop class="stop0" offset="0" stop-color="#fd42fb"/><stop class="stop1" offset="1" stop-color="#ff89ff"/></linearGradient><linearGradient id="c" x1="647.065" x2="528.892" y1="106.321" y2="103.46" gradientUnits="userSpaceOnUse"><stop class="stop0" offset="0" stop-color="#fe42fb"/><stop class="stop1" offset="1" stop-color="#ff8aff"/></linearGradient><linearGradient id="b" x1="826.735" x2="885.34" y1="1420.81" y2="1294.88" gradientUnits="userSpaceOnUse"><stop class="stop0" offset="0" stop-color="#f9fcf9"/><stop class="stop1" offset="1" stop-color="#fdecfd"/></linearGradient><linearGradient id="a" x1="631.909" x2="284.662" y1="1434.75" y2="1176.79" gradientUnits="userSpaceOnUse"><stop class="stop0" offset="0" stop-color="#ff0afd"/><stop class="stop1" offset="1" stop-color="#ff91ff"/></linearGradient></defs><path fill="#010001" d="M322.714 188.444c8.628-7.019 14.699-14.573 23.57-20.622 5.179-3.532 8.188-2.676 13.951-1.305 15.116 6.915 26.592 13.38 40.569 22.399 6.369 4.11 16.367 11.067 22.691 14.461 6.361.521 15.163 1.502 21.362 1.612l24.668-.165 9.407-.225-.145-.157c18.978-.659 37.119.929 54.439.298 2.105.417 7.98.044 10.443-.082 21.367-1.092 42.373-1.08 63.765-.642 19.936-1.05 48.179.716 69.402.684l66.255.119c8.658.019 35.325-.041 42.945.78 10.721 1.155 48.689 31.204 55.308 40.292 12.97 17.808 28.915 38.148 39.78 57.261 4.962 8.729 9.811 20.337 14.52 29.496 9.202 17.893 18.962 37.574 26.436 56.194 8.496 21.171 16.225 42.757 23.508 64.351 3.817 11.316 9.978 23.654 13.856 35.152 7.823 23.19 15.626 46.575 21.887 70.239 1.77 6.688 5.264 16.088 6.459 22.37 3.497 18.377 5.713 37.422 8.751 55.932 1.901 11.579 5.419 23.291 7.179 34.644a1312 1312 0 0 1 15.41 156.501c2.06 44.001 2.72 88.573 3.15 132.626.02 2.819.47 5.175 1.72 7.717v64.966c-.1.23-.2.45-.3.68-3.05 7.25-3.52 106.33-4.04 123.04-.76 24.03-1.87 48.31-3.98 72.27-1.43 16.19-5.22 32.52-7.72 48.6-1.69 10.91-2.23 22.33-4.61 33.08-1.76 7.9-5.71 15.29-7.2 23.25-3.56 19.02-4.047 38.7-7.866 57.65-1.908 9.48-5.11 18.73-7.41 28.12-14.577 59.51-32.403 120.27-59.454 175.5-4.701 9.59-9.593 19.27-15.136 28.41-4.741 7.82-10.266 15.47-14.537 23.54-3.814 7.21-5.73 15.33-9.776 22.43a283.1 283.1 0 0 1-71.313 83.84c-5.096 4.02-11.091 9.48-17.094 12.03-13.349 5.68-99.656 2.79-118.639 2.77-11.268-.01-22.544.72-33.799.6-7.739-.08-24.646-2.71-30.953-.07-6.933 1.21-27.216 1.5-33.304-.26-3.611-1.48-6.859.29-11.229-.08-25.997-2.21-50.94-1.15-76.882-1.26l-44.225.39-4.324.18c-5.84-.36-11.469-1.1-17.11.38-6.274 5.96-48.282 36.7-53.668 36.61-.56-.01-1.12-.04-1.679-.07-7.789-8.31-16.129-16.25-24.052-24.66-1.699-1.03-3.177-2.27-4.597-3.66-12.935-12.58-25.559-44.02-25.592-61.81-.051-27.59 26.185-32.99 45.472-44.57 6.632-3.98 12.125-9.01 17.487-14.55 68.663-70.84 101.875-215.09 119.125-310.03 3.29-18.1 7.326-36.28 9.674-54.53 3.604-28.03 2.972-56.96 5.035-85.16 1.385-18.93 3.812-37.78 5.151-56.72 3.654-51.69 5.644-104.28 5.877-156.106.118-26.359.31-53.093-.716-79.417-1.068-27.386-3.314-54.773-3.678-82.181-2.06-22.693-5.506-45.504-8.216-68.107-2.27-14.437-1.897-32.095-5.182-46.2-8.143-34.967-14.277-71.581-24.12-106.06-.514-2.418-1.381-5.17-2.05-7.576-5.877-21.125-10.497-42.498-16.45-63.606-9.258-30.591-33.135-89.167-48.859-116.358-16.739-25.847-40.317-57.077-69.888-68.635-21.381-8.356-34.164.295-49.275-22.826-11.923-16.234-26.385-39.245-22.293-59.964 7.151-36.217 22.594-62.277 52.109-83.8m472.758 871.266c-1.803 27.68-1.461 56.06-2.842 83.93-1.631 32.94-7.565 64.55-9.935 97.38 11.294.42 21.918.81 33.238.67l25.445-.47c6.583-55.25 10.639-125.33 9.81-181.37-10.127-.12-21.13-.46-31.187-.37-7.77.13-16.869.49-24.529.23m-.514-135.432c18.025 1.094 38.123.723 56.33.742-.711-43.244-1.828-87.023-4.289-130.213-.654-11.475-1.669-32.523-3.265-43.486-15.812-.65-45.479 1.133-58.83-.931 1.292 24.037 6.08 47.029 7.237 70.557 1.672 33.985 3.618 69.354 2.817 103.331M656.731 1539.86c3.323-3.13 8.363-27.96 10.367-34.35 9.313-29.71 19.042-59.63 25.993-89.98 1.772-7.74 5.168-15.74 6.77-23.53 2.912-14.17 4.512-28.65 7.052-42.9-13.703-.18-30.654-.8-44.181-.13-11.899 35.06-18.445 78.67-29.017 114.89-3.499 11.99-23.715 69.52-22.085 74.78 5.547 2.2 36.894 1.28 45.101 1.22m58.23-.43c14.957.77 41.24 1.19 56.163.13 9.388-19.63 17.298-43.89 23.065-64.97 4.606-16.85 3.464-32.25 11.067-49.11 2.967-3.9 3.041-5.43 2.584-9.92-19.136-15.35-26.066-44.3-24.733-67.77-4.651.22-9.757.1-14.446.08-6.3 15.66-9.665 51.83-15.315 70.08-8.044 25.97-15.446 53.57-24.535 79.28-5.865 16.59-9.324 24.81-13.85 42.2m-38.236-298.19c14.843.31 31.305.84 46.128.1 6.731-41.54 8.286-76.38 9.929-118.37.777-19.88 3.611-43.55 2.633-62.89-12.37-.17-35.154.53-46.292-.44-.166 40.62-2.911 81.54-7.749 121.86-2.403 20.03-3.089 39.68-4.649 59.74m14.53-866.265c9.221 1.007 51.984 2.128 60.136.321-2.731-5.996-4.681-12.282-7.044-18.425-7.83-20.352-18.964-39.355-28.791-58.752-19.66-.792-41.654.213-60.126-.877.987 3.509 3.69 7.741 5.128 11.634 8.301 22.462 22.926 43.797 30.697 66.099M864.734 1429.63l-1.517 11.85c-.641 8.67-6.58 21.33-9.465 30.32l-21.183 67.4c12.337 1.19 33.598 1.06 45.809.02 7.638-11.6 8.916-26 13.099-39.17 3.424-10.79 7.19-21.58 10.106-32.48 1.371-4.03-.036-14.26 1.422-17.6 6.252-14.31 10.132-25.65 13.405-41.06.967-3.45 1.508-5.08 2.941-8.36 1.14-3.77 2.36-5.19 1.196-8.2-8.306 16.96-35.903 39.92-55.813 37.28m-63.686 181.57c-6.662 29.56-25.423 56.59-41.502 81.98-2.322 3.67-6.466 10.64-5.249 14.98 26.809-7.71 44.133 14.03 61.796-23.97 7.965-17.14 34.289-53.59 33.817-72.26l-1.184-1.2c-10.497.27-39.216 1.75-47.678.47m8.537-1236.36c9.44 1.105 38.215 2.212 47.098.48-3.06-3.362-5.239-10.206-5.946-14.745-2.611-16.744-19.515-48.287-29.234-62.02-16.975-1.609-34.184.042-49.745-1.456 4.914 11.674 15.122 27.068 20.437 38.947 6.351 14.194 9.098 25.144 17.39 38.794m-245.809-48.259c12.262 18.422 12.371 32.187 25.938 49.483 9.574-.044 19.496-.234 29.036-.116 4.989-.048 10.692.038 15.614-.235-6.891-12.782-27.74-72.772-38.074-75.973-6.199-1.92-13.326-.615-19.73-.692-7.748 11.428-7.678 15.626-12.784 27.533m30.853 1283.679-11.725 2.04c-6.356 10.19-16 25.82-12.841 37.76 2.385 9.01 13.725 32.01 20.986 36.98l2.064.3c.995-1.19 1.414-1.41 1.852-2.83 6.356-12.43 29.783-60.61 32.128-73.3-11.064 1.06-21.56-.67-32.464-.95M915.855 561.717c.833-3.493-.657-8.093-1.518-11.732-1.951-10.531-10.369-23.758-11.833-32.533-3.081-18.472-5.07-27.966-12.109-45.456-13.405-.646-29.303-.327-43.072-.591 1.065 26.065 11.074 31.488 13.33 49.851.608 2.494 2.015 8.862 2.924 10.882 20.727-.623 39.662 14.509 52.278 29.579m-224.807 79.684c5.718-.055 11.917-.226 17.594-.114-1.522-10.707-6.155-45.094-8.092-53.68-3.661-16.229-25.866-106.942-33.326-114.372-5.863-2.378-21.611-2.498-28.733-2.788q-7.416.543-14.813 1.306c.554 6.374 3.442 15.004 5.144 21.316 6.029 22.357 13.891 45.029 18.888 67.658 4.037 18.28 6.62 36.506 12.137 54.648 2.309 7.593 1.83 16.99 4.877 24.873 5.082 2.49 19.901 1.374 26.324 1.153m212.004 109.733c-2.895 10.282 7.708 87.422 8.495 102.593 1.142 22.008 2.016 47.755 1.055 70.398 7.026.332 40.143 2.599 44.746-.521.349-31.688-1.39-64.873-2.778-96.604-1.039-23.771-2.059-51.836-6.658-74.942-15.575-1.509-31.202.604-44.86-.924M745.526 1610.96c-10.699.12-23.791 0-34.376.58-8.355.37-17.125.62-25.432 1.22-10.382 19.65-19.313 39.54-28.731 59.56-5.333 11.33-16.063 21.93-22.329 34.57 10.355-.86 21.127-.45 31.541-.26 10.018.22 21.263.83 31.098-.47 12.16-19.83 41.913-74.59 48.229-95.2m212.024-551.12c-9.124.01-36.648.63-44.624-.42-.119 18.34.593 42.44-1.521 60.41-4.757 40.46-7.241 80.85-10.821 121.32 9.425.26 35.324 1.37 44.165.14 8.467-36.69 9.303-82.78 10.96-120.23.755-17.08 2.668-44.61 1.841-61.22M735.958 924.401c-.756-10.838-.384-21.605-1.06-32.564-2.855-46.265-4.062-93.231-7.603-139.413-16.332-1.57-32.697-1.485-49.105-1.749 1.066 12.038 1.28 23.938 2.583 35.982 5.032 46.485 9.107 90.359 8.053 137.354 10.826.597 36.902 1.778 47.132.39m-6.575-453.975c.281 4.387.697 8.666 1.795 12.937 4.838 18.828 12.086 37.478 17.884 56.081 2.521 8.091 3.528 19.072 7.802 26.171 4.571 7.592 8.966 72.504 17.835 74.765 3.109.793 6.121.881 9.314.962 4.555.763 5.201 1.029 6.793-3.041-14.854-39.706-8.954-58.467 15.902-90.596l-2.543-6.31c-5.86-15.012-10.953-64.808-20.424-69.267-16.469-1.288-40.068.571-54.358-1.702"/><path fill="#3e1b40" d="M322.714 188.444c8.628-7.019 14.699-14.573 23.57-20.622 5.179-3.532 8.188-2.676 13.951-1.305 15.116 6.915 26.592 13.38 40.569 22.399 6.369 4.11 16.367 11.067 22.691 14.461 6.361.521 15.163 1.502 21.362 1.612l24.668-.165c1.746 4.825 3.305 10.169 6.434 14.164l2.15.65 4.379 3.928c3.609 6.344 10.233 6.15 12.556 9.246l-2.538.592c4.338 5.522 19.103 40.63 23.993 43.933l.913-3.077 1.605.405.91 1.783-.601 1.239 2.649 1.758.043.922c.184 3.504 1.392 11.22 2.464 14.69 5.408 4.061 13.895 21.767 17.699 25.242l-.06-3.466 1.026-.844c3.478 5.191 5.545 22.889 13.257 35.615.609-2.174.91-5.024 2.382-6.031 5.835 10.101 6.63 24.525 10.373 36.357-.52 1.609-.639 2.185-1.573 3.658 1.061 2.609 1.461 3.915 3.145 6.237-.603-2.965-1.426-5.818-.812-8.774l1.364-.777c7.615 5.482 3.307 17.673 5.946 26.189.653 2.111 1.195 4.439 1.768 6.573l-.069-2.376 1.891 8.792 1.82-.823 1.171 1.243a159 159 0 0 0-.348 5.43c-.031.621 14.422 41.253 15.518 43.03.161-4.004-1.794-7.053-1.661-10.386 1.084.67 13.518 34.042 15.97 36.311l1.221-.396c.648-7.429-2.553-22.763-2.06-26.88 4.078 7.458 4.867 24.996 7.098 34.228 1.16 4.799 3.77 10.464 4.543 13.75l-6.667.002c-.945 5.552 5.487 27.835 7.571 33.398 4.328 11.553.373 24.697 7.135 34.57 1.348 1.868-4.483 2.518.375 8.108l-.887.629-2.152-.493c1.904 2.27 2.551 3.419 5.268 4.634l.523-6.63c11.389 15.946 3.879 82.744 13.25 90.64.175-3.321-.377-3.957.311-8.578l1.992-1.588-1.163-.267.675-.307c3.973 8.64 1.808 31.777 2.394 41.693.024.403 2.921 3.296 3.568 3.869-.34 4.978-1.699 16.854.641 20.773.591-2.47.769-3.556 1.892-5.872l-1.776-3.576c1.424-3.389 3.168-5.968 2.737-9.205-.403 3.844 2.2 6.578 2.259 10.838.5 36.093 6.779 71.141 5.878 107.517-.954 38.553 1.799 76.934.789 115.487-2.344 89.519 2.856 179.549-6.138 268.819-.813 8.1.686 22.75-1.369 29.73-3.81-6.34.617-79.47-2.604-85.62-.104 19.98-18.238 175.41-17.665 176.44l2.913-.9.496 1.04-.444.31c-1.529 1.07-1.79 1.16-2.867 2.63.267 11.37-1.314 24.19-9.733 32.55l1.683.84c-3.246 6.38 1.127 5.6-2.529 9.02l-.839.1c-1.359 3.58-1.135 12.65-1.961 17.8-1.623 10.11-8.746 13.93-6.907 21.79 1.065 4.56-5.488 34.56-7.241 37.46l.794.8c-.026 2.07.38 4.36-.687 5.63-7.049 8.41-8.812 21.79-13.348 32.7-1.196-.2-1.411-.33-2.537-.8-2.631 8.18.384 9.19-4.998 14.62-1.082 8.82-.78 13.33-4.873 21.25-4.888 9.45-9.104 16.49-7.583 27.32.157 1.23-4.312 12.67-5.26 14.94l-.919-.42c-.233-1.19-1.141-5.36-1.183-6.31-.532 3.97-.113 6.47-2.269 9.47l.136-2.58c-2.363 6.85-3.282 9.85-4.52 16.96l-.818-1.7-.388.72.905 1c-.626 6.89-6.904 14.64-6.628 21.04l-.831.77-1.098-3.6c-.673 4.23-.293 7.93-1.625 11.96-5.105 15.45-10.755 24.95-19.98 38.18.979.88 1.204.79 2.502 1.14l-.649.74c-2.831 3.28-6.175 8.38-6.595 12.78l1.217.01c-.762 2.96-9.442 7.92-11.164 12.17-2.792 6.88 6.526 12.02-6.484 13.18-1.468 2.38-4.006 6.81-5.613 8.75-6.896 8.31-11.135 7.79-11.462 19.38l2.812.75c-1.695 5.8-12.927 10.47-14.861 15.2l1.92 1.34.007-.36-.883 2.07 1.948.8c-5.746 2.11-6.151-.4-10.001 2.15l1.635 2.11 4.084.47-1.354 1.18 3.854 1.08c.112 4.12-3.062 1.4-.759 4.83l2.815 1.15-44.225.39-4.324.18c-5.84-.36-11.469-1.1-17.11.38-6.274 5.96-48.282 36.7-53.668 36.61-.56-.01-1.12-.04-1.679-.07-7.789-8.31-16.129-16.25-24.052-24.66-1.699-1.03-3.177-2.27-4.597-3.66-12.935-12.58-25.559-44.02-25.592-61.81-.051-27.59 26.185-32.99 45.472-44.57 6.632-3.98 12.125-9.01 17.487-14.55 68.663-70.84 101.875-215.09 119.125-310.03 3.29-18.1 7.326-36.28 9.674-54.53 3.604-28.03 2.972-56.96 5.035-85.16 1.385-18.93 3.812-37.78 5.151-56.72 3.654-51.69 5.644-104.28 5.877-156.106.118-26.359.31-53.093-.716-79.417-1.068-27.386-3.314-54.773-3.678-82.181-2.06-22.693-5.506-45.504-8.216-68.107-2.27-14.437-1.897-32.095-5.182-46.2-8.143-34.967-14.277-71.581-24.12-106.06-.514-2.418-1.381-5.17-2.05-7.576-5.877-21.125-10.497-42.498-16.45-63.606-9.258-30.591-33.135-89.167-48.859-116.358-16.739-25.847-40.317-57.077-69.888-68.635-21.381-8.356-34.164.295-49.275-22.826-11.923-16.234-26.385-39.245-22.293-59.964 7.151-36.217 22.594-62.277 52.109-83.8"/><path fill="url(#a)" d="M516.938 831.576c6.456 8.758-2.678 23.529 6.046 30.79l.927-4.296.931.027c2.282 6.201 3.511 10.453 6.665 16.317 10.814-6.11 27.713-8.004 39.682-13.619 13.789-6.468 10.227 4.026 20.629-11.785 3.322 2.597 2.723 6.88 2.759 11.002l1.407.802c3.341 43.956 3.291 89.398 3.199 133.462a1825.7 1825.7 0 0 1-35.472 372.734c-2.812 13.73-4.392 29.48-8.178 42.81-31.251 110.01-64.834 226.33-137.648 316.95-10.266 12.78-25.881 23.56-38.824 33.48-10.569 8.68-26.432 13.13-35.361 20.06-1.699-1.03-3.177-2.27-4.597-3.66-12.935-12.58-25.559-44.02-25.592-61.81-.051-27.59 26.185-32.99 45.472-44.57 6.632-3.98 12.125-9.01 17.487-14.55 68.663-70.84 101.875-215.09 119.125-310.03 3.29-18.1 7.326-36.28 9.674-54.53 3.604-28.03 2.972-56.96 5.035-85.16 1.385-18.93 3.812-37.78 5.151-56.72 3.654-51.69 5.644-104.28 5.877-156.106.118-26.359.31-53.093-.716-79.417-1.068-27.386-3.314-54.773-3.678-82.181"/><path fill="#fea0fe" d="M292.898 332.208c-11.923-16.234-26.385-39.245-22.293-59.964 7.151-36.217 22.594-62.277 52.109-83.8 5.181 3.622 18.049 4.419 24.686 6.608 20.086 6.625 37.476 18.19 54.019 31.148 13.513 10.574 24.677 25.276 34.037 39.641 6.165 10.49 17.813 22.361 23.058 33.094 18.773 38.422 40.256 78.853 54.148 119.263 15.167 44.118 29.46 90.178 41.877 135.193 4.178 15.146 5.812 30.856 9.037 46.194 8.558 37.679 14.61 75.944 20.359 114.147 2.966 19.71 2.823 43.612 5.648 63.618 3.277 23.206 9.299 60.085 6.401 83.464l-1.407-.802c-.036-4.122.563-8.405-2.759-11.002-10.402 15.811-6.84 5.317-20.629 11.785-11.969 5.615-28.868 7.509-39.682 13.619-3.154-5.864-4.383-10.116-6.665-16.317l-.931-.027-.927 4.296c-8.724-7.261.41-22.032-6.046-30.79-2.06-22.693-5.506-45.504-8.216-68.107-2.27-14.437-1.897-32.095-5.182-46.2-8.143-34.967-14.277-71.581-24.12-106.06-.514-2.418-1.381-5.17-2.05-7.576-5.877-21.125-10.497-42.498-16.45-63.606-9.258-30.591-33.135-89.167-48.859-116.358-16.739-25.847-40.317-57.077-69.888-68.635-21.381-8.356-34.164.295-49.275-22.826"/><path fill="#fd5afb" d="M292.898 332.208c11.788-10.714 48.816-.89 62.081 4.819 10.105 4.349 19.881 14.16 27.099 22.226 25.21 26.119 40.837 56.531 53.884 90.018 11.049 27.048 22.055 52.945 29.54 81.795 4.967 23.67 14.26 46.352 16.128 69.829.285 3.579-2.027 6.617-2.21 10.314-.514-2.418-1.381-5.17-2.05-7.576-5.877-21.125-10.497-42.498-16.45-63.606-9.258-30.591-33.135-89.167-48.859-116.358-16.739-25.847-40.317-57.077-69.888-68.635-21.381-8.356-34.164.295-49.275-22.826"/><path fill="#fdfdfd" d="M322.714 188.444c8.628-7.019 14.699-14.573 23.57-20.622 5.179-3.532 8.188-2.676 13.951-1.305 15.116 6.915 26.592 13.38 40.569 22.399 6.369 4.11 16.367 11.067 22.691 14.461.799 7.561 28.303 32.473 34.005 40.795 30.926 45.134 56.709 91.995 74.87 143.752 10.492 26.19 19.641 51.415 27.767 78.458 14.939 49.71 26.434 99.146 38.843 149.417 11.43 46.309 12.155 80.129 16.669 126.562a2377.8 2377.8 0 0 1 .285 485.609c-2.589 27.35-3.092 63.36-8.455 89.22-14.903 71.84-35.007 145.67-56.335 215.89-20.763 68.35-52.304 134.4-92.055 193.55-3.391 4.99-18.303 20.52-19.332 22.54-5.283 5.31-12.771 12.79-16.658 19.26-6.274 5.96-48.282 36.7-53.668 36.61-.56-.01-1.12-.04-1.679-.07-7.789-8.31-16.129-16.25-24.052-24.66 8.929-6.93 24.792-11.38 35.361-20.06 12.943-9.92 28.558-20.7 38.824-33.48 72.814-90.62 106.397-206.94 137.648-316.95 3.786-13.33 5.366-29.08 8.178-42.81a1825.7 1825.7 0 0 0 35.472-372.734c.092-44.064.142-89.506-3.199-133.462 2.898-23.379-3.124-60.258-6.401-83.464-2.825-20.006-2.682-43.908-5.648-63.618-5.749-38.203-11.801-76.468-20.359-114.147-3.225-15.338-4.859-31.048-9.037-46.194-12.417-45.015-26.71-91.075-41.877-135.193-13.892-40.41-35.375-80.841-54.148-119.263-5.245-10.733-16.893-22.604-23.058-33.094-9.36-14.365-20.524-29.067-34.037-39.641-16.543-12.958-33.933-24.523-54.019-31.148-6.637-2.189-19.505-2.986-24.686-6.608"/><path fill="#7e398b" d="M423.495 203.377c6.361.521 15.163 1.502 21.362 1.612 1.555 6.788 2.768 9.281 7.338 14.602 24.171 28.144 51.536 52.847 64.318 88.702 2.369 6.646 3.027 15.523 5.499 22.317 11.742 24.811 23.08 49.708 33.052 75.29 3.481 8.932 7.1 32.098 11.861 39.267l.94-4.581.881-.236c2.541 3.596-.617 9.892.472 12.23 8.103 17.379 10.585 36.353 15.678 54.636 2.669 9.584 6.214 19.107 8.932 28.886a995 995 0 0 1 14.557 61.864 1329 1329 0 0 1 20.421 128.963 907 907 0 0 1 3.714 50.124c.106 2.31 1.241 5.941 1.553 9.17a1592 1592 0 0 1 3.55 45.199 2611 2611 0 0 1 2.001 242.888c-1.613 52.26-1.025 106.41-10.856 157.72-.674 3.52.703 11.03.122 15.33-4.25 31.48-4.835 63.33-14.695 94-2.264 7.05-2.463 20.37-4.475 28.53l-6.208 25.71c-.638 2.76-1.874 4.38-2.237 7.01l1.665 1.24c-.379 7.34-7.267 15.98-8.07 31.38l-3.412 1.46c-2.067 5.4.962 11.35-.66 15.06-6.488 14.85-8.359 30.78-15.19 45.42-.565 1.74.367 8.99-.406 10.22-4.166 6.26-6.783 11.42-9.1 18.52-5.719 17.52-5.705 43.73-13.971 59.75-9.284 17.98-19.082 44.68-29.618 61.15-.369 19.9-21.829 45.03-31.681 62.51-1.292 2.29-10.046 6.61-10.984 10.38-8.948 14.98-26.664 34.21-39.588 45.74l4.273 2.43-4.324.18c-5.84-.36-11.469-1.1-17.11.38 3.887-6.47 11.375-13.95 16.658-19.26 1.029-2.02 15.941-17.55 19.332-22.54 39.751-59.15 71.292-125.2 92.055-193.55 21.328-70.22 41.432-144.05 56.335-215.89 5.363-25.86 5.866-61.87 8.455-89.22a2377.8 2377.8 0 0 0-.285-485.609c-4.514-46.433-5.239-80.253-16.669-126.562-12.409-50.271-23.904-99.707-38.843-149.417-8.126-27.043-17.275-52.268-27.767-78.458-18.161-51.757-43.944-98.618-74.87-143.752-5.702-8.322-33.206-33.234-34.005-40.795"/><path fill="#3a213e" d="m511.729 285.331 1.149-1.31c-4.371-11.159-17.723-33.334-23.593-44.993-2.423-4.812-10.785-12.181-11.624-16.468a83 83 0 0 0 4.827 1.006c3.609 6.344 10.233 6.15 12.556 9.246l-2.538.592c4.338 5.522 19.103 40.63 23.993 43.933l.913-3.077 1.605.405.91 1.783-.601 1.239 2.649 1.758.043.922c.184 3.504 1.392 11.22 2.464 14.69 5.408 4.061 13.895 21.767 17.699 25.242-3.934 15.236 11.93 23.585 10.401 37.527l-1.56-1.169.496.773c-5.028-12.795-11.628-16.071-17.204-26.465-6.03-11.24-10.932-25.497-18.472-36.522-1.32-1.929-4.598-7.202-4.113-9.112M469.525 204.824l9.407-.225 2.584 1.011c-3.962 3.31-5.745-3.443-6.605 4.186 1.712 4.086 1.741 3.824 6.098 6.378-.957.743-1.617 1.232-2.633 1.89l-.267 1.574-2.15-.65c-3.129-3.995-4.688-9.339-6.434-14.164"/><path fill="url(#b)" d="M814.055 1285.87c11.345-7.61 44.404-15.83 57.391-11.86 50.561 15.43 78.415 51.9 65.776 105.4-3.076 13.02-6.842 26.49-20.812 29.5.967-3.45 1.508-5.08 2.941-8.36 1.14-3.77 2.36-5.19 1.196-8.2-8.306 16.96-35.903 39.92-55.813 37.28l-1.517 11.85c-26.563-3.2-34.533-.98-57.961-16 2.967-3.9 3.041-5.43 2.584-9.92-19.136-15.35-26.066-44.3-24.733-67.77-4.651.22-9.757.1-14.446.08 7.006-19.42 4.373-20.31 20.05-36.8 7.617-12.59 13.274-17.13 25.344-25.2"/><path fill="#3e1b40" d="M814.055 1285.87c11.345-7.61 44.404-15.83 57.391-11.86 50.561 15.43 78.415 51.9 65.776 105.4-3.076 13.02-6.842 26.49-20.812 29.5.967-3.45 1.508-5.08 2.941-8.36 1.14-3.77 2.36-5.19 1.196-8.2.364-1.96 2.213-3.63 2.764-5.35 6.651-20.77 7.768-34.81.181-55.34-8.418-15.08-15.702-23.78-30.182-33.79-18.344-12.69-32.255-13.35-53.303-9.37-9.316-2.3-16.471-2.21-25.952-2.63"/><path fill="#7e398b" d="M923.492 1331.66c3.875 2.22 4.978 4.9 7.309 8.42 11.027 16.67 4.06 35.39-.037 53.08-3.567 3.36-6.47 6.25-11.413 7.39 1.14-3.77 2.36-5.19 1.196-8.2.364-1.96 2.213-3.63 2.764-5.35 6.651-20.77 7.768-34.81.181-55.34M788.711 1311.07c7.617-12.59 13.274-17.13 25.344-25.2 9.481.42 16.636.33 25.952 2.63-35.115 10.91-46.006 24.08-56.782 58.84l-.118.45c-4.651.22-9.757.1-14.446.08 7.006-19.42 4.373-20.31 20.05-36.8"/><path fill="#3a213e" d="M788.711 1311.07c-3.309 7.23-9.519 17.22-7.517 24.32 1.498 5.32 1.812 6.05 2.031 11.95l-.118.45c-4.651.22-9.757.1-14.446.08 7.006-19.42 4.373-20.31 20.05-36.8"/><path fill="#7e398b" d="M807.84 1415.56c3.028-.57 15.993 6.96 21.337 8.96 10.366 3.86 27.512 2.92 35.557 5.11l-1.517 11.85c-26.563-3.2-34.533-.98-57.961-16 2.967-3.9 3.041-5.43 2.584-9.92"/><path fill="#fd5afb" d="M828.692 1303.51c29.781-22.86 59.429-4.47 79.232 19.42 11.579 13.96 11.852 52.68-.512 64.8-12.682 23.05-38.772 35.29-64.599 30.31-25.828-4.97-45.506-26.02-48.724-52.13-3.218-26.1 10.757-51.31 34.603-62.4"/><path fill="#fea0fe" d="M828.692 1303.51c29.781-22.86 59.429-4.47 79.232 19.42 11.579 13.96 11.852 52.68-.512 64.8 12.648-22.98 9.088-51.48-8.823-70.65-17.912-19.16-46.114-24.64-69.897-13.57"/><path fill="#fdfdfd" d="M860.653 521.256c.608 2.494 2.015 8.862 2.924 10.882 20.727-.623 39.662 14.509 52.278 29.579.833-3.493-.657-8.093-1.518-11.732l.283.406c1.534 2.162 3.53 4.908 5.755 6.331 21.312 13.619 19.076 45.137 16.295 66.974-.464 3.648-1.96 8.479-3.177 12.178-.63-3.328-1.672-11.465-3.566-13.621-1.18.707-1.221.49-1.885 1.503-1.826 5.771-3.43 9.804-6.97 14.882l.616.465c3.311 2.459 4.748 2.389 9.057 2.529-1.773 9.471-20.648 25.155-28.687 31.037-21.227 15.532-55.307 22.627-79.773 9.755-13.844-4.872-27.608-16.86-35.371-29.377-3.697-5.962-.411-8.017-2.901-11.705 4.555.763 5.201 1.029 6.793-3.041-14.854-39.706-8.954-58.467 15.902-90.596l-2.543-6.31c4.355-2.752 2.413-6.312 5.605-8.877 14.405-11.572 34.838-8.017 50.883-11.262"/><path fill="#7e398b" d="M790.806 638.301c2.393 6.164 5.384 9.434 9.44 14.594 26.275 23.334 58.317 31.25 90.093 13.37 11.422-6.427 24.006-16.218 30.733-27.627l.616.465c3.311 2.459 4.748 2.389 9.057 2.529-1.773 9.471-20.648 25.155-28.687 31.037-21.227 15.532-55.307 22.627-79.773 9.755-13.844-4.872-27.608-16.86-35.371-29.377-3.697-5.962-.411-8.017-2.901-11.705 4.555.763 5.201 1.029 6.793-3.041M914.337 549.985l.283.406c1.534 2.162 3.53 4.908 5.755 6.331 21.312 13.619 19.076 45.137 16.295 66.974-.464 3.648-1.96 8.479-3.177 12.178-.63-3.328-1.672-11.465-3.566-13.621-1.18.707-1.221.49-1.885 1.503q.387-2.722.576-5.466c.976-14.685-2.513-44.965-12.763-56.573.833-3.493-.657-8.093-1.518-11.732M860.653 521.256c.608 2.494 2.015 8.862 2.924 10.882-2.898 1.047-20.117 1.68-28.685 3.682-14.632 3.42-19.965 9.125-28.184 11.885l-2.543-6.31c4.355-2.752 2.413-6.312 5.605-8.877 14.405-11.572 34.838-8.017 50.883-11.262"/><path fill="#fd5afb" d="M843.713 544.597c33.512-6.279 65.772 15.79 72.065 49.3s-15.763 65.78-49.27 72.087c-33.528 6.311-65.821-15.761-72.118-49.291s15.789-65.814 49.323-72.096"/><path fill="#fdfdfd" d="M574.068 176.098c-37.22-7.731-62.33-42.666-57.793-80.41s37.208-65.734 75.201-64.426c37.993 1.309 68.661 31.481 70.59 69.448s-25.525 71.091-63.189 76.242a73.2 73.2 0 0 1-24.809-.854"/><path fill="url(#c)" d="M580.102 43.622c33.264-4.668 64.046 18.427 68.866 51.67 4.821 33.242-18.133 64.129-51.353 69.101-33.436 5.005-64.568-18.13-69.419-51.589-4.852-33.458 18.426-64.483 51.906-69.182"/><path fill="#fdfdfd" d="M585.069 1795.52c3.992-.5 8.017-.66 12.036-.5 39.201 1.61 70.151 33.86 70.154 73.1.003 39.23-30.942 71.48-70.143 73.1s-72.701-27.97-75.934-67.07c-3.232-39.1 24.953-73.79 63.887-78.63"/><path fill="url(#d)" d="M593.568 1807.93c33.665-.39 61.232 26.66 61.492 60.33.26 33.66-26.886 61.13-60.553 61.27-33.496.14-60.795-26.84-61.054-60.33-.259-33.5 26.621-60.9 60.115-61.27"/><path fill="url(#e)" d="M360.235 166.517c9.476-5.674 4.286-7.668 18.421-9.105l1.405-.135c31.755 13.989 36.013 12.731 58.883 40.373l-.019 1.736-.364.337q-1.224 1.169-2.41 2.375c6.152 3.141 33.749 2.31 42.636 2.344l.145.157-9.407.225-24.668.165c-6.199-.11-15.001-1.091-21.362-1.612-6.324-3.394-16.322-10.351-22.691-14.461-13.977-9.019-25.453-15.484-40.569-22.399"/><path fill="url(#f)" d="M423.099 1768.43c5.641-1.48 11.27-.74 17.11-.38q-3.929.825-7.882 1.53c1.711 2.22 3.63 3.17 2.823 6.26-3.872 14.82-36.392 38.75-50.584 39.13-6.143-2.72-11.65-5.68-16.814-10 .559.03 1.119.06 1.679.07 5.386.09 47.394-30.65 53.668-36.61"/><path fill="#010001" fill-opacity=".361" d="M574.775 191.652c5.02-1.149 19.872-.56 26.509-.958 1.451 4.191 1.93 4.658 5.008 7.896a349 349 0 0 1 1.142 5.426c-21.392-.438-42.398-.45-63.765.642-2.463.126-8.338.499-10.443.082 11.41-8.275 39.657 9.879 41.549-13.088"/><path fill="#010001" fill-opacity=".271" d="M576.869 1768.82c6.088 1.76 26.371 1.47 33.304.26-1.676 2.82-1.768 3.29-2.406 6.47 1.136 3.02 2.642 3.51 3.642 5.82-11.609.66-21.94-1.47-33.876.72.981-5.88.5-7.54-.664-13.27"/><path fill="#fd5afb" fill-opacity=".082" d="M577.533 1782.09c11.936-2.19 22.267-.06 33.876-.72-.811 4.67-.356 6.26-3.109 9.7-5.062 2.97-7.258-.71-11.013 2.22l-.182 1.73c-4.019-.16-8.044 0-12.036.5l-.202-2.37c-6.036-1.84-6.431-5.45-7.334-11.06"/><path fill="#fd5afb" fill-opacity=".118" d="M574.068 176.098a73.2 73.2 0 0 0 24.809.854c1.316 8.054 3.425 5.305 2.407 13.742-6.637.398-21.489-.191-26.509.958l.357-5.061c.368-4.762-1.002-5.928-1.064-10.493"/></svg>