<svg xmlns="http://www.w3.org/2000/svg" width="256" height="492" preserveAspectRatio="none" style="display:block" viewBox="0 0 1024 1968"><defs><linearGradient id="h" x1="401.912" x2="408.272" y1="1784.84" y2="1792.93" gradientUnits="userSpaceOnUse"><stop class="stop0" offset="0" stop-color="#b0ebf7" stop-opacity=".4"/><stop class="stop1" offset="1" stop-color="#abebf9" stop-opacity=".447"/></linearGradient><linearGradient id="g" x1="448.866" x2="408.389" y1="147.21" y2="197.083" gradientUnits="userSpaceOnUse"><stop class="stop0" offset="0" stop-color="#7fc1e6" stop-opacity="0"/><stop class="stop1" offset="1" stop-color="#bdffff" stop-opacity=".008"/></linearGradient><linearGradient id="f" x1="651.042" x2="537.831" y1="1866.95" y2="1868.15" gradientUnits="userSpaceOnUse"><stop class="stop0" offset="0" stop-color="#00b8f9"/><stop class="stop1" offset="1" stop-color="#39e9ff"/></linearGradient><linearGradient id="e" x1="646.038" x2="531.977" y1="104.672" y2="104.318" gradientUnits="userSpaceOnUse"><stop class="stop0" offset="0" stop-color="#00b8fa"/><stop class="stop1" offset="1" stop-color="#38eaff"/></linearGradient><linearGradient id="d" x1="812.799" x2="893.884" y1="1401.81" y2="1314.96" gradientUnits="userSpaceOnUse"><stop class="stop0" offset="0" stop-color="#00b6f8"/><stop class="stop1" offset="1" stop-color="#2ce5fe"/></linearGradient><linearGradient id="c" x1="874.432" x2="839.153" y1="1278.2" y2="1348.63" gradientUnits="userSpaceOnUse"><stop class="stop0" offset="0" stop-color="#004b16"/><stop class="stop1" offset="1" stop-color="#00693f"/></linearGradient><linearGradient id="b" x1="815.151" x2="894.21" y1="559.752" y2="649.044" gradientUnits="userSpaceOnUse"><stop class="stop0" offset="0" stop-color="#00b4f4"/><stop class="stop1" offset="1" stop-color="#2ae5ff"/></linearGradient><linearGradient id="a" x1="647.83" x2="616.074" y1="1059.86" y2="1058.93" gradientUnits="userSpaceOnUse"><stop class="stop0" offset="0" stop-color="#068255"/><stop class="stop1" offset="1" stop-color="#009a65"/></linearGradient></defs><path d="m352.596 163.388 7.341 2.581c6.051 2.162 9.382 3.834 15.064 6.735 2.554 1.33 6.5 3.541 9.023 4.594 4.242 2.658 9.466 6.139 13.852 8.334 3.182 2.943 4.41 3.614 8.218 5.771 5.511 4.158 10.791 8.385 16.81 11.761q8.312.433 16.617.954l7.268-.18 9.635.348c15.254-.231 30.215-.462 45.457-.283 16.265.192 46.173 2.01 61.895-.901 14.295 1.334 29.424.47 42.114 1.559 19.327-1.547 48.52-.057 70.33.088 37.465.672 75.865-1.297 113.152 1.361 3.972.283 36.12 24.021 41.124 28.689 17.294 16.133 32.247 40.996 46.046 60.474 7.089 10.006 11.831 23.593 17.62 34.452 15.646 29.444 28.725 59.598 40.092 90.922 25.468 70.696 54.804 140.097 62.168 215.718 1.087 11.16 5.958 23.894 7.328 35.239 2.58 17.622 3.3 35.674 6.13 53.276 12.41 77.373 10.41 157.555 12.4 235.78.07 2.924.42 5.084 1.72 7.714v64.966c-.1.23-.2.45-.3.68-3.06 7.29-3.52 106.81-4.06 123.67-.77 23.63-1.92 47.45-3.91 71.03-1.38 16.39-5.24 32.93-7.77 49.21-1.69 10.89-2.22 22.31-4.62 33.04-1.8 8.06-5.746 15.6-7.293 23.73-3.582 18.81-3.955 38.3-7.69 57.08-1.892 9.51-5.069 18.82-7.361 28.25-14.517 59.72-32.717 120.35-59.711 175.8-8.714 17.89-19.769 33.38-28.678 50.52-4.27 8.22-7.391 17.01-11.858 25.13a263.3 263.3 0 0 1-68.202 80.45c-5.462 4.26-11.138 10.44-17.435 13.28-17.901 8.07-152.117 1.22-184.108 2.95-4.245 3.04-28.046.96-33.55.17-3.853-.52-20.118-.45-25.32-.59-31.705-.82-63.867.1-95.678.28l-9.977.16c-6.134-.48-15.792-.02-22.204.12-13.985 12.96-30.566 21.72-46.245 32.41-3.067 3.56-2.882 4.47-7.948 4.82q-.832.06-1.665.09c-8.133-7.41-18.071-20.05-24.421-25.81-14.158-4.69-31.096-51.89-30.824-65.63.657-33.17 41.361-33.81 63.049-57.94 66.122-72.22 88.367-172.3 110.736-264.58 15.641-64.52 18.914-115.23 23.762-180.04a3125 3125 0 0 0 10.85-219.53c.181-23.972-.717-47.998-.694-71.991.014-15.722-1.635-31.666-1.869-47.453-1.425-16.197-.776-34.511-2.834-50.259-3.944-30.175-6.266-62.675-10.71-92.559-6-40.343-16.717-81.462-25.362-121.316-2.437-6.059-5.429-16.712-7.483-23.247-4.772-21.79-8.432-36.139-15.086-57.569-3.264-5.763-8.565-21.855-11.277-28.989-21.187-55.713-56.436-139.367-123.994-148.667-14.221-1.957-21.933-6.576-30.009-18.51a132 132 0 0 1-3.514-4.926c-11.368-16.736-22.518-36.663-17.854-57.13 7.411-32.528 23.348-61.83 51.262-80.686 6.833-5.56 24.233-22.418 30.451-25.4m442.876 896.322c-1.797 27.68-1.463 56.06-2.841 83.93-1.632 32.98-7.557 64.62-9.998 97.48 11.756.42 22.779.76 34.554.67l24.216-.34c5.034-36.23 6.455-74.75 7.856-111.38.847-22.18 2.27-48.38 1.929-70.22-10.159-.12-21.18-.46-31.278-.36-7.739.12-16.81.48-24.438.22m-.508-135.432c18.024 1.093 38.117.722 56.323.741-.706-43.24-1.832-87.025-4.286-130.212-.642-11.312-1.68-32.733-3.279-43.502-14.246-.487-47.622.937-58.82-.914 1.306 23.861 6.028 46.71 7.214 70.043 1.736 34.153 3.599 69.696 2.848 103.844M656.57 1539.83c3.852-3.37 8.302-28.22 10.685-34.93 7.34-20.96 12.538-42.46 19.532-63.52 2.571-7.74 3.394-17.61 6.109-25.21 8-22.39 9.982-43.86 14.053-67.12-12.566-.1-32.212-.81-44.166-.03-7.801 20.66-10.756 41-15.805 61.89a1417 1417 0 0 1-24.7 90.4c-2.187 7.24-11.794 32.09-10.443 37.31 5.259 2.22 36.809 1.27 44.735 1.21m58.46-.33c17.546.65 38.619.95 56.1.06 9.748-20.43 14.649-37.55 21.659-59.04 5.075-15.56 5.025-44.68 13.355-56.64 2.883-3.4 2.597-6.08 2.219-10.2a72.48 72.48 0 0 1-24.332-65.41c-4.964.06-9.329-.34-14.248-.74-4.875 7.73-12.028 54.86-15.661 67.28-7.919 27.05-16.064 55.97-25.393 82.76-5.855 16.81-9.228 24.25-13.699 41.93m-38.349-298.49c9.215.27 37.57 1.47 46.103.08 6.936-41.37 8.319-76.28 9.997-118.17.783-19.55 3.672-43.93 2.629-62.83-13.032-.2-34.506.6-46.311-.37-.306 40.18-3.238 80.82-7.745 120.73-2.286 20.24-3.105 40.28-4.673 60.56m155.898 298.19c12.501 1.2 33.2 1.02 45.625.02 7.838-11.89 8.941-25.54 13.193-38.97 3.519-11.12 7.467-22.26 10.526-33.49 1.229-4.15.073-14.05 1.494-17.58 6.122-15.2 10.355-28.87 14.157-44.77 1.231-3.99 1.702-5.01.716-9.02a72.45 72.45 0 0 1-53.164 35.29l-1.687 8.64c-.829 12.43-6.438 22.53-10.218 34.51zm-78.278 168.96c26.797-7.7 44.134 14.03 61.794-23.97 7.962-17.14 34.288-53.6 33.815-72.26l-1.185-1.2c-10.487.27-39.225 1.75-47.678.47-6.646 29.55-25.434 56.6-41.5 81.99-2.318 3.66-6.474 10.64-5.246 14.97M691.259 374.982c9.265 1.007 52.022 2.121 60.21.297-3.24-6.235-5.657-14.17-8.036-20.906-6.953-19.682-19.317-37.48-27.882-56.257-17.762-.726-45.093.455-60.591-1.033 4.907 8.49 9.648 21.129 13.987 30.48 6.652 14.337 17.629 32.718 22.312 47.419m118.319-.143c9.446 1.107 38.208 2.211 47.102.483-3.057-3.366-5.235-10.208-5.946-14.746-2.636-16.819-19.478-48.237-29.221-62.007-16.96-1.68-34.233.05-49.755-1.472 4.897 11.655 15.136 27.092 20.436 38.949 6.362 14.234 9.09 25.092 17.384 38.793M587.113 1611.57c-4.179 1.03-4.555.69-7.07 4.84-6.103 10.08-13.198 20.93-9.658 33.41 4.182 14.73 11.741 28.25 22.036 39.45 2.438-4.65 4.843-9.32 7.214-14 5.369-9.95 25.823-54.29 27.357-64.16-13.706 1.37-25.646-1.72-39.879.46m328.56-1050.35c.185-2.697-1.056-8.01-1.62-10.909-.14-4.881-10.436-26.904-12.391-33.366-2.311-7.639-.603-13.312-1.876-19.283-1.483-6.96-6.581-18.768-9.362-25.689-14.182-.853-28.452-.146-42.919-1.031.114 10.525 3.184 22.328 5.301 32.848l.554.513c7.594 7.091 6.353 6.882 8.336 18.29l1.632 10.166c20.398-.248 29.756 5.838 44.176 19.88a170 170 0 0 1 8.169 8.581m-109.871-12.779-3.019-8.925c-4.805-19.766-7.718-39.84-12.772-59.497-2.401-9.341-13.792-8.001-21.057-8.371-12.669-.644-26.924.903-39.369-1.114.437 10.558 2.819 17.193 6.131 27.215 8.476 25.645 15.96 51.589 24.314 77.274 1.981 6.092.784 16.669 2.492 23.142 2.685 14.144 6.242 27.828 9.861 41.751l10.633 1.191c2.358-.262 6.104-1.134 8.554-1.632-3.322-8.188-6.091-16.672-7.754-25.358-3.969-20.715 2.991-42.644 16.508-58.556a90 90 0 0 0 5.478-7.12m-97.873 92.741c2.728-20.157-27.619-143.01-39.684-166.733-.847-1.665-5.174-2.584-7.199-2.858-11.617-1.573-25.839.657-36.99-.592l-.725-.076-.433-.054c11.456 39.565 23.64 79.786 30.424 120.379 1.877 11.234 8.1 22.772 8.339 34.394.152 3.09.298 14.499 4.569 15.221 13.291 2.247 28.098-.143 41.699.319m192.589 600.048c9.087.22 35.851 1.29 44.23.06 8.46-36.63 9.303-82.74 10.954-120.12.756-17.11 2.676-44.69 1.848-61.34-9.134.02-36.633.64-44.624-.41-.123 18.29.636 42.84-1.544 60.75-4.907 40.3-7.021 80.8-10.864 121.06M577.082 299.455c-6.377 7.04-10.436 15.072-11.6 24.535l-.087.666c-.811 6.693 9.245 20.555 12.043 27.856 1.702 4.442 7.568 15.922 10.443 19.749 3.642 4.851 24.626 3.762 30.869 3.706 4.961-.029 10.604.073 15.499-.222-6.526-13.233-26.652-71.829-37.756-75.617-6.306-2.151-12.925-.726-19.411-.673m134.06 1312.085c-8.343.38-17.14.63-25.43 1.25a1064 1064 0 0 0-18.05 35.96c-3.185 6.83-7.003 17.03-10.505 23.25-7.171 12.76-15.827 21.51-22.647 35.03 9.73-.97 20.395-.56 30.24-.42 10.023.21 22.865.88 32.564-.45 12.124-19.79 41.929-74.65 48.214-95.21-10.674.14-23.849-.01-34.386.59m24.58-686.913c.145-25.55-1.773-51.536-3.131-77.082a4929 4929 0 0 0-5.305-95.129c-10.09-.869-38.878-2.168-48.946-1.408 1.117 13.686 1.231 26.623 2.746 40.506 4.827 44.243 8.897 87.96 7.53 132.573 14.98.714 32.097 1.316 47.106.54m167.306-173.5c-2.846 10.508 7.638 86.591 8.472 101.891 1.212 22.257 2.075 48.245 1.101 71.108 7.027.332 40.145 2.597 44.747-.522.349-31.688-1.39-64.873-2.777-96.604-1.039-23.772-2.058-51.829-6.658-74.936-15.644-1.533-31.108.58-44.885-.937"/><path fill="#fdfefd" d="m352.596 163.388 7.341 2.581c6.051 2.162 9.382 3.834 15.064 6.735 2.554 1.33 6.5 3.541 9.023 4.594 4.242 2.658 9.466 6.139 13.852 8.334 3.182 2.943 4.41 3.614 8.218 5.771 5.511 4.158 10.791 8.385 16.81 11.761q8.312.433 16.617.954l7.268-.18 9.635.348 4.159 1.36c-.617 10.464 13.477 26.442 19.023 35.113 13.377 20.912 35.252 48.819 42.88 72.617 8.06 24.206 16.435 37.024 26.104 59.626 10.231 23.914 19.916 52.887 27.98 77.778 1.02 8.648 2.412 17.212 3.561 25.863 5.009 37.694 20.644 74.387 27.867 111.547 6.258 32.198 10.263 65.967 16.936 98.273 2.394 11.591 1.671 25.583 3.756 37.394 10.366 67.535 9.474 136.621 13.682 204.701.313 5.062 1.96 12.759 4.096 17.256a68 68 0 0 0 1.951-1.961c2.082 12.448 3.32 13.987 3.712 27.287-.043 8.412.308 23.635-.251 31.54-2.075 26.98-9.436 49.84-11.099 75.49-2.744 42.3-6.42 86.56-3.231 128.74.519 5.58-.279 21.41-2.471 25.57-1.717-.57-1.442-1.05-2.642-3.21-4.024 18.44-5.676 40.36-8.727 59.14-.767 4.72-2.775 21.46-4.299 25.33-4.702 32.82-12.954 69.45-21.162 101.51-10.096 39.44-26.135 78.41-29.159 119.41-.344 4.64-2.445 10.36-2.399 14.59-7.106 28.94-20.343 57.33-32.571 84.28-13.151 28.99-25.363 55.73-42.127 82.84-9.178 14.85-30.129 36.99-35.537 51.65l-9.977.16c-6.134-.48-15.792-.02-22.204.12-13.985 12.96-30.566 21.72-46.245 32.41-3.067 3.56-2.882 4.47-7.948 4.82q-.832.06-1.665.09c-8.133-7.41-18.071-20.05-24.421-25.81-14.158-4.69-31.096-51.89-30.824-65.63.657-33.17 41.361-33.81 63.049-57.94 66.122-72.22 88.367-172.3 110.736-264.58 15.641-64.52 18.914-115.23 23.762-180.04a3125 3125 0 0 0 10.85-219.53c.181-23.972-.717-47.998-.694-71.991.014-15.722-1.635-31.666-1.869-47.453-1.425-16.197-.776-34.511-2.834-50.259-3.944-30.175-6.266-62.675-10.71-92.559-6-40.343-16.717-81.462-25.362-121.316-2.437-6.059-5.429-16.712-7.483-23.247-4.772-21.79-8.432-36.139-15.086-57.569-3.264-5.763-8.565-21.855-11.277-28.989-21.187-55.713-56.436-139.367-123.994-148.667-14.221-1.957-21.933-6.576-30.009-18.51a132 132 0 0 1-3.514-4.926c-11.368-16.736-22.518-36.663-17.854-57.13 7.411-32.528 23.348-61.83 51.262-80.686 6.833-5.56 24.233-22.418 30.451-25.4"/><path fill="#0ac6f0" d="M519.006 872.646c.818 2.162 1.436 5.075 3.006 6.146.212-5.414-4.005-10.426-1.19-17.671 2.712-1.093 5.418 1.022 8.411-.022 18.509-6.455 49.105-11.588 63.736-25.342l.568.068c.35 11.865-.504 30.402 2.495 41.298.834 24.451 1.987 48.946 2.836 73.362 1.393 40.052-1.143 80.245-1.845 120.125-.753 42.79-2.565 78.54-8.106 120.85-4.572 34.92-4.156 71.34-12.318 106.35-1.794 9.52-1.942 22.87-4.382 31.83-7.642 28.08-10.87 58.67-17.75 86.56-8.497 34.45-20.365 69.02-31.531 102.64-11.709 35.71-21.384 62.6-37.682 96.86-19.13 40.22-39.212 78.74-68.919 112.61-11.209 12.78-35.159 31.57-49.634 40.68-5.347 3.37-17.975 7.53-22.705 10.82-14.158-4.69-31.096-51.89-30.824-65.63.657-33.17 41.361-33.81 63.049-57.94 66.122-72.22 88.367-172.3 110.736-264.58 15.641-64.52 18.914-115.23 23.762-180.04a3125 3125 0 0 0 10.85-219.53c.181-23.972-.717-47.998-.694-71.991.014-15.722-1.635-31.666-1.869-47.453"/><path fill="#75ebfd" d="M322.145 188.788c.164.103.326.212.493.311 6.992 4.136 18.453 5.066 26.42 7.374 15.61 4.522 29.556 14.195 42.453 23.785 54.585 40.587 96.701 133.381 119.658 196.334 5.426 14.881 9.697 30.229 14.687 45.267a1613 1613 0 0 1 25.391 80.896c7.998 28.768 10.216 59.41 18.834 88.563 5.754 19.466 4.479 48.15 10.819 68.83 5.727 27.74 4.807 57.246 8.209 85.259 3.671 30.233 9.514 60.995 6.923 91.716-2.999-10.896-2.145-29.433-2.495-41.298l-.568-.068c-14.631 13.754-45.227 18.887-63.736 25.342-2.993 1.044-5.699-1.071-8.411.022-2.815 7.245 1.402 12.257 1.19 17.671-1.57-1.071-2.188-3.984-3.006-6.146-1.425-16.197-.776-34.511-2.834-50.259-3.944-30.175-6.266-62.675-10.71-92.559-6-40.343-16.717-81.462-25.362-121.316-2.437-6.059-5.429-16.712-7.483-23.247-4.772-21.79-8.432-36.139-15.086-57.569-3.264-5.763-8.565-21.855-11.277-28.989-21.187-55.713-56.436-139.367-123.994-148.667-14.221-1.957-21.933-6.576-30.009-18.51a132 132 0 0 1-3.514-4.926c-11.368-16.736-22.518-36.663-17.854-57.13 7.411-32.528 23.348-61.83 51.262-80.686"/><path fill="#0ac6f0" d="M292.251 331.53c13.188-15.979 63.789 1.361 77.788 14.357 15.191 14.101 30.849 32.543 41.699 50.476 19.404 36.104 40.789 87.426 51.834 126.409-1.9 5.899-1.376 4.065.136 10.939l-.743.318c-1.317-1.388-4.74-5.743-5.434-6.333-3.264-5.763-8.565-21.855-11.277-28.989-21.187-55.713-56.436-139.367-123.994-148.667-14.221-1.957-21.933-6.576-30.009-18.51"/><path fill="#1bc5d8" d="M463.572 522.772c4.558 19.791 10.618 38.161 15.231 57.448-2.02 2.163-3.818 3.341-6.186 5.045-4.772-21.79-8.432-36.139-15.086-57.569.694.59 4.117 4.945 5.434 6.333l.743-.318c-1.512-6.874-2.036-5.04-.136-10.939"/><path fill="#0ac6f0" d="M478.803 580.22c1.08 5.27 2.648 12.192 2.174 17.448-.445 4.934-1.129 5.646-.877 10.844-2.437-6.059-5.429-16.712-7.483-23.247 2.368-1.704 4.166-2.882 6.186-5.045"/><path fill="#008754" d="M422.904 203.164q8.312.433 16.617.954l7.268-.18 9.635.348 4.159 1.36c-.617 10.464 13.477 26.442 19.023 35.113 13.377 20.912 35.252 48.819 42.88 72.617 8.06 24.206 16.435 37.024 26.104 59.626 10.231 23.914 19.916 52.887 27.98 77.778 1.02 8.648 2.412 17.212 3.561 25.863 5.009 37.694 20.644 74.387 27.867 111.547 6.258 32.198 10.263 65.967 16.936 98.273 2.394 11.591 1.671 25.583 3.756 37.394 10.366 67.535 9.474 136.621 13.682 204.701.313 5.062 1.96 12.759 4.096 17.256-2.039-.904-1.04-.796-3.052-.632l-1.04 4.165c-8.23-8.16-6.945-150.424-12.24-155.434l-.952.312c-1.864-1.93-2.556-3.943-3.673-6.392l.051 1.517c-3.009-7.567-3.524-15.489-7.206-20.825-4.993-45.906-5.167-93.823-15.809-138.744-3.61-15.237-7.091-30.562-10.219-45.9-1.488-4.354-2.42-9.937-3.647-14.498-15.51-60.292-31.583-119.118-54.123-177.162-21.018-54.125-43.877-103.747-78.642-150.81-9.292-12.578-25.302-23.018-32.607-37.433z"/><path fill="#009361" d="M592.328 583.881c4.015 2.945 2.967 1.186 4.413 5.824 1.788 5.736 4.612 33.679 6.84 37.07 10.379 15.797 9.36 28.704 13.094 47.252 1.049 5.214 3.465 10.26 4.688 15.384 3.19 24.416 5.117 48.958 6.741 73.513.68 10.267-.02 21.095 2.032 30.989l-.952.312c-1.864-1.93-2.556-3.943-3.673-6.392l.051 1.517c-3.009-7.567-3.524-15.489-7.206-20.825-4.993-45.906-5.167-93.823-15.809-138.744-3.61-15.237-7.091-30.562-10.219-45.9M609.157 1311.82c1.146 6.18 1.944 12.26 2.794 18.48.752-5.3 1.223-11.97 4.98-15.86l2.48-.7c-4.702 32.82-12.954 69.45-21.162 101.51-10.096 39.44-26.135 78.41-29.159 119.41-.344 4.64-2.445 10.36-2.399 14.59-7.106 28.94-20.343 57.33-32.571 84.28-13.151 28.99-25.363 55.73-42.127 82.84-9.178 14.85-30.129 36.99-35.537 51.65l-9.977.16c-6.134-.48-15.792-.02-22.204.12 9.066-16.54 23.034-24.53 31.877-37.35 11.568-16.75 26.271-40.74 36.512-58.55 26.39-45.89 45.542-100.57 62.32-150.75 4.602-14.27 7.397-29.46 11.76-43.73 9.709-31.76 18.949-63.04 25.948-95.55 5.053-23.48 12.722-46.77 16.465-70.55"/><path fill="url(#a)" d="M618.356 768.525c3.682 5.336 4.197 13.258 7.206 20.825l-.051-1.517c1.117 2.449 1.809 4.462 3.673 6.392l.952-.312c5.295 5.01 4.01 147.274 12.24 155.434l1.04-4.165c2.012-.164 1.013-.272 3.052.632a68 68 0 0 0 1.951-1.961c2.082 12.448 3.32 13.987 3.712 27.287-.043 8.412.308 23.635-.251 31.54-2.075 26.98-9.436 49.84-11.099 75.49-2.744 42.3-6.42 86.56-3.231 128.74.519 5.58-.279 21.41-2.471 25.57-1.717-.57-1.442-1.05-2.642-3.21-4.024 18.44-5.676 40.36-8.727 59.14-.767 4.72-2.775 21.46-4.299 25.33l-2.48.7c-3.757 3.89-4.228 10.56-4.98 15.86-.85-6.22-1.648-12.3-2.794-18.48-.313-9.88 2.095-24.94 2.739-35.24 2.434-38.94 7.389-77.56 11.814-116.25 1.67-14.59.922-33.81 1.536-48.92a2666 2666 0 0 0 .859-229.992c-1.126-30.003-.534-61.06-4.745-90.754-1.051-7.411-2.137-14.695-3.004-22.139"/><path fill="#02280f" d="M522.486 313.376c20.847 11.898 31.548 23.282 38.506 47.929 5.625 19.926 14.318 44.755 17.479 66.044.701 4.721 2.086 16.075 2.308 20.1l-1.486.027-.658 2.411c3.211 5.181 12.089 7.005 15.912 12.4 14.229 20.078 14.695 46.974 20.383 70.231 5.437 22.227 10.585 44.838 17.117 66.686.799 2.673-2.029 12.762-.387 17.27 1.997-1.033 1.707-1.472 3.627-2.504.465-6.365-2.788-9.318-1.78-13.438 2.962 2.926 11.788 60.874 11.264 67.902-1.682 22.529-7.579 48.942 5.15 70.184 6.824 11.39 3.558 36.591 6.97 41.241 2.527-3.152.468-4.36 1.369-7.394 6.326 37.29 5.594 74.121 5.825 111.777.167 27.253-5.433 46.31-10.963 72.313-.199 4.14-.318 10.695-.991 14.585-.392-13.3-1.63-14.839-3.712-27.287a68 68 0 0 1-1.951 1.961c-2.136-4.497-3.783-12.194-4.096-17.256-4.208-68.08-3.316-137.166-13.682-204.701-2.085-11.811-1.362-25.803-3.756-37.394-6.673-32.306-10.678-66.075-16.936-98.273-7.223-37.16-22.858-73.853-27.867-111.547-1.149-8.651-2.541-17.215-3.561-25.863-8.064-24.891-17.749-53.864-27.98-77.778-9.669-22.602-18.044-35.42-26.104-59.626"/><path fill="#01623b" d="M576.57 450.78a543 543 0 0 1 32.917 101.23c3.728 17.775 3.134 28.584 9.118 46.788 9.395 28.586 12.49 61.013 19.961 90.286 4.268 19.757 1.007 44.13 3.619 64.378 1.483 18.874 5.353 38.687 6.458 57.306 2.921 49.189 4.277 96.625 4.479 145.787-.199 4.14-.318 10.695-.991 14.585-.392-13.3-1.63-14.839-3.712-27.287a68 68 0 0 1-1.951 1.961c-2.136-4.497-3.783-12.194-4.096-17.256-4.208-68.08-3.316-137.166-13.682-204.701-2.085-11.811-1.362-25.803-3.756-37.394-6.673-32.306-10.678-66.075-16.936-98.273-7.223-37.16-22.858-73.853-27.867-111.547-1.149-8.651-2.541-17.215-3.561-25.863M619.411 1313.74c1.524-3.87 3.532-20.61 4.299-25.33 3.051-18.78 4.703-40.7 8.727-59.14 1.2 2.16.925 2.64 2.642 3.21 2.192-4.16 2.99-19.99 2.471-25.57-3.189-42.18.487-86.44 3.231-128.74 1.663-25.65 9.024-48.51 11.099-75.49 1.05 46.71 4.397 94.08.67 140.76a321 321 0 0 1-4.761 36.2c-1.738 9.2-4.886 21.64-5.498 30.79-1.781 26.62-.522 53.57-2.708 80.19-2.18 26.55-10.204 52.41-15.681 78.38-1.936 9.17-5.574 18.59-7.362 27.65-9.361 47.45-19.24 96.73-44.369 138.73-2.191 3.59-3.639 9.81-5.48 13.87-.046-4.23 2.055-9.95 2.399-14.59 3.024-41 19.063-79.97 29.159-119.41 8.208-32.06 16.46-68.69 21.162-101.51"/><path fill="#fdfefd" d="m861.696 522.593 1.632 10.166c20.398-.248 29.756 5.838 44.176 19.88a170 170 0 0 1 8.169 8.581c.185-2.697-1.056-8.01-1.62-10.909 30.209 34.026 25.339 45.7 20.53 88.969-1.167-2.959-4.536-13.164-6.082-14.204-1.503 2.888-1.54 3.821-1.997 6.922-1.691 4.055-2.569 4.12-1.599 7.442l2.959 1.945c-3.69 14.188-30.846 30.961-43.114 38.347-29.741 17.948-77.623.109-94.969-28.451-2.227-3.667-4.182-6.726-6.765-10.174 2.358-.262 6.104-1.134 8.554-1.632-3.322-8.188-6.091-16.672-7.754-25.358-3.969-20.715 2.991-42.644 16.508-58.556a90 90 0 0 0 5.478-7.12l-3.019-8.925c5.111-1.938 9.532-5.307 14.415-7.977 13.944-7.626 28.67-10.643 44.498-8.946"/><path fill="#01623b" d="M874.605 673.453c23.533-7.813 38.568-20.804 51.088-41.901l.811.446c-1.691 4.055-2.569 4.12-1.599 7.442l2.959 1.945c-3.69 14.188-30.846 30.961-43.114 38.347-29.741 17.948-77.623.109-94.969-28.451-2.227-3.667-4.182-6.726-6.765-10.174 2.358-.262 6.104-1.134 8.554-1.632 14.74 27.799 52.96 43.495 83.035 33.978"/><path fill="#01623b" d="M914.053 550.311c30.209 34.026 25.339 45.7 20.53 88.969-1.167-2.959-4.536-13.164-6.082-14.204-1.503 2.888-1.54 3.821-1.997 6.922l-.811-.446c.368-4.533 1.813-9.057 2.432-13.589 2.194-16.047-2.492-43.969-12.452-56.743.185-2.697-1.056-8.01-1.62-10.909M861.696 522.593l1.632 10.166c-25.075.708-36.664 1.914-57.526 15.682l-3.019-8.925c5.111-1.938 9.532-5.307 14.415-7.977 13.944-7.626 28.67-10.643 44.498-8.946"/><path fill="url(#b)" d="M844.827 544.599c32.989-5.414 64.18 16.765 69.898 49.703s-16.174 64.332-49.058 70.352c-33.315 6.1-65.21-16.141-71.002-49.511-5.793-33.369 16.741-65.058 50.162-70.544"/><path fill="#fdfefd" d="M792.698 1307.84c10.039-17.15 27.299-23.53 45.436-28.68 40.732-11.57 67.187 10.62 90.64 41.83 3.527 6.01 8.475 16.24 8.157 23.33 1.102 16.23.637 42.74-10.312 55.96-4.203 1.41-5.882 1.25-9.045 4.13 1.231-3.99 1.702-5.01.716-9.02a72.45 72.45 0 0 1-53.164 35.29l-1.687 8.64c-14.986.03-32.41-1.07-45.886-8.26-3.818-2.04-5.651-4.31-11.409-7.18 2.883-3.4 2.597-6.08 2.219-10.2a72.48 72.48 0 0 1-24.332-65.41 72.3 72.3 0 0 1 6.449-20.97c-3.274-9.26-1.158-10.09 2.218-19.46"/><path fill="url(#c)" d="M792.698 1307.84c10.039-17.15 27.299-23.53 45.436-28.68 40.732-11.57 67.187 10.62 90.64 41.83-4.205-2.26-4.724-4.21-7.884-5.11l-1.391 2.69c-4.543-2.14-2.434-9.2-11.79-10.23a72.5 72.5 0 0 0-63.549-21.05 72.48 72.48 0 0 0-53.68 40.01c-3.274-9.26-1.158-10.09 2.218-19.46"/><path fill="#01623b" d="M808.363 1413.68a72.46 72.46 0 0 0 56.763 17l-1.687 8.64c-14.986.03-32.41-1.07-45.886-8.26-3.818-2.04-5.651-4.31-11.409-7.18 2.883-3.4 2.597-6.08 2.219-10.2M927.763 1350.98c1.406 1.6 1.937 1.51 4.139 1.99 3.396-2.7 3.209-4.21 5.029-8.65 1.102 16.23.637 42.74-10.312 55.96-4.203 1.41-5.882 1.25-9.045 4.13 1.231-3.99 1.702-5.01.716-9.02a72.44 72.44 0 0 0 9.473-44.41"/><path fill="#01623b" d="M907.709 1308.34c9.356 1.03 7.247 8.09 11.79 10.23l1.391-2.69c3.16.9 3.679 2.85 7.884 5.11 3.527 6.01 8.475 16.24 8.157 23.33-1.82 4.44-1.633 5.95-5.029 8.65-2.202-.48-2.733-.39-4.139-1.99a72.5 72.5 0 0 0-20.054-42.64"/><path fill="url(#d)" d="M859.239 1295.38c14.661.99 31.676 13.11 41.688 22.96 22.648 22.28 17.354 64.25-5.171 84.9-14.535 13.32-24.588 12.98-42.946 12.74-28.886-.59-53.253-11.99-56.95-44.44-1.213-10.66-1.899-37.7 5.862-45.7 14.043-14.48 37.088-28.29 57.517-30.46"/><path fill="#02280f" d="M769.783 1347.53c.998-.99 1.053-1.77 1.509-3.08 4.797-13.81 11.612-25.83 21.406-36.61-3.376 9.37-5.492 10.2-2.218 19.46a72.3 72.3 0 0 0-6.449 20.97c-4.964.06-9.329-.34-14.248-.74"/><path fill="#fdfefd" d="M574.467 176.387c-36.575-7.325-61.85-40.904-58.768-78.077 3.082-37.174 33.541-66.133 70.823-67.334s69.542 25.735 75.012 62.633-17.59 72.035-53.617 81.7a73.44 73.44 0 0 1-33.45 1.078"/><path fill="url(#e)" d="M580.383 46.482c13.329-.324 32.063-1.579 42.965 6.605 43.458 32.622 29.291 100.153-24.074 110.777q-1.413.112-2.827.202c-19.947 1.244-31.572-2.385-46.962-15.102-29.279-24.195-25.346-85.206 11.893-99.682 6.417-2.494 12.153-2.524 19.005-2.8"/><path fill="#fdfefd" d="M582.038 1796.04a73.5 73.5 0 0 1 22.003-.38c38.043 5.1 65.729 38.65 63.506 76.97s-33.601 68.45-71.979 69.12c-38.377.66-70.782-28.36-74.33-66.58s22.957-72.71 60.8-79.13"/><path fill="url(#f)" d="M551.713 1826.74c18.836-19.2 48.113-23.58 71.748-10.75s35.903 39.77 30.066 66.02c-5.838 26.25-28.367 45.46-55.213 47.07-26.845 1.6-51.504-14.78-60.43-40.15a60.24 60.24 0 0 1 13.829-62.19"/><path fill="#75ebfd" d="M551.713 1826.74c-2.685 9.8-9.543 11.53-11.035 20.75 3.436 15.8 2.969 18.39-1.995 34.21-.741 2.36.073 4.96-.799 7.23a60.24 60.24 0 0 1 13.829-62.19"/><path fill="url(#g)" d="m352.596 163.388 4.416-2.46c1.924-9.646 37.114-33.629 46.017-34.276l5.77 3.198c.766 1.873 2.362 4.651 4.542 4.545 14.958-.723 27.429 18.885 37.269 28.233l2.842.398 2.116-.849-.329-1.388c1.164-1.104 1.487-.769 3.493-.999l-.46-1.373c-6.566-2.877-9.036-.991-13.693-7.498-2.658-3.713-5.664-7.904-8.399-11.596l2.14-.111c10.88 10.77 25.854 19.706 33.346 28.386l-.272.967c-.776 2.817-1.305 4.051-.259 6.855 2.476 2.571 1.87 1.824 5.898 2.667l1.938-.685.571-1.356c4.515 4.622 1.214 6.557 4.24 11.138 2.521 3.816 9.274 1.434 10.024 7.749-3.502.99-15.574-3.314-18.118-6.015-1.238 2.34-1.012 2.885-.518 5.534 2.644 3.73 6.489 3.998 10.724 4.402l.485.763c-15.196 5.748-30.688 1.231-39.59 4.321l-7.268.18c-2.484-.612-3.087-.686-5.197-2.103 6.243-20.893-10.495-27.648-26.307-36.22-8.003-4.337-23.912-11.382-33.012-10.122-3.596.498-10.508 5.589-12.204 9.346l-2.864.95z"/><path fill="#75ebfd" fill-opacity=".243" d="m359.937 165.969 2.864-.95c1.696-3.757 8.608-8.848 12.204-9.346 9.1-1.26 25.009 5.785 33.012 10.122 15.812 8.572 32.55 15.327 26.307 36.22 2.11 1.417 2.713 1.491 5.197 2.103q-8.305-.52-16.617-.954c-6.019-3.376-11.299-7.603-16.81-11.761 5.891-5.095 11.592 8.539 21.584 7.611l1.591-2.036c-.342-10.988-50.237-42.398-56.838-30.828 2.293.82 2.753.876 4.642 2.345-1.22 1.866-1.343 2.1-2.072 4.209-5.682-2.901-9.013-4.573-15.064-6.735"/><path fill="#75ebfd" fill-opacity=".369" d="M378.03 1800.71c-.047 5.8.93 5.24-2.097 8.6l.322 1.03c10.671.65 51.163-32.8 59.916-35.57 1.005 4.5-3.173 9.92-5.547 13.82-10.643 17.51-21.907 23.73-41.179 28.49-3.013.74-4.184.29-6.721 2.45.008.03-13.252-12.92-14.307-13.91q.833-.03 1.665-.09c5.066-.35 4.881-1.26 7.948-4.82"/><path fill="url(#h)" d="M424.275 1768.3c6.412-.14 16.07-.6 22.204-.12-1.826.2-7.871.75-9.258 1.21l-1.05 5.38c-8.753 2.77-49.245 36.22-59.916 35.57l-.322-1.03c3.027-3.36 2.05-2.8 2.097-8.6 15.679-10.69 32.26-19.45 46.245-32.41"/><path fill="#75ebfd" fill-opacity=".322" d="M375.001 172.704c.729-2.109.852-2.343 2.072-4.209-1.889-1.469-2.349-1.525-4.642-2.345 6.601-11.57 56.496 19.84 56.838 30.828l-1.591 2.036c-9.992.928-15.693-12.706-21.584-7.611-3.808-2.157-5.036-2.828-8.218-5.771l1.228-1.873-.583-2.303c-3.832-3.335-7.193-5.395-12.403-5.955l-2.094 1.797c-2.523-1.053-6.469-3.264-9.023-4.594"/><path fill-opacity=".325" d="M573.727 191.584c11.24-.351 21.54-.255 32.761-.072-1.809 4.522 1.406 4.765-.598 13.149-12.69-1.089-27.819-.225-42.114-1.559 7.928-3.175 7.985-3.202 9.951-11.518"/><path fill="#009361" fill-opacity=".392" d="M607.917 175.309c-.619 4.464-.706 12.833-1.429 16.203-11.221-.183-21.521-.279-32.761.072-.798-4.35.323-10.511.74-15.197a73.44 73.44 0 0 0 33.45-1.078"/><path fill="#009361" fill-opacity=".451" d="M577.127 1780.74c11.479-.75 22.552.43 34.469-.38-.42 3.4-.641 9.4-2.615 11.77-3.833.85-5.987.89-9.92 1.07l-.042.7 2.581-.04.379 1.25 2.062.55a73.5 73.5 0 0 0-22.003.38c3.793-1.06 4.538-1.26 8.489-1.3l-.891.57-.536-1.1 1.435.06-2.588-.65-.433 1.12c-10.438.39-10.718-6.45-10.387-14m16.473 10.88c3.12-1.05 9.658-4.55 10.25-7.66-2.196-1.93-4.357-1.78-7.253-2.02l-.79.52c-3.91 2.53-8.807 3.65-10.554 5.87 2.127 2.16 5.115 2.42 8.347 3.29"/><path fill="#009361" fill-opacity=".49" d="M596.597 1781.94c2.896.24 5.057.09 7.253 2.02-.592 3.11-7.13 6.61-10.25 7.66-3.232-.87-6.22-1.13-8.347-3.29 1.747-2.22 6.644-3.34 10.554-5.87z"/><path fill-opacity=".271" d="M577.454 1768.33c5.504.79 29.305 2.87 33.55-.17-1.396 3.55-.09 8.29.592 12.2-11.917.81-22.99-.37-34.469.38.271-3.97.743-8.51.327-12.41"/><path fill="#75ebfd" fill-opacity=".224" d="m384.024 177.298 2.094-1.797c5.21.56 8.571 2.62 12.403 5.955l.583 2.303-1.228 1.873c-4.386-2.195-9.61-5.676-13.852-8.334"/></svg>